<?xml version="1.0" encoding="UTF-8"?>
<svg xmlns="http://www.w3.org/2000/svg" width="960" height="480" viewBox="0 0 960 480" role="img" aria-label="Davis-Yin three-operator rho versus L1">
  <title>Davis-Yin three-operator contraction factor vs smoothness parameter</title>
  <desc>Rho vs L1 for Davis-Yin three-operator splitting: two theoretical expressions and AutoLyap points.</desc>
  <rect x="0" y="0" width="960" height="480" fill="#ffffff"/>
  <rect x="96.000" y="24.000" width="832.000" height="368.000" fill="#f8fafc"/>
  <defs>
    <clipPath id="plot-area-clip">
      <rect x="96.000" y="24.000" width="832.000" height="368.000"/>
    </clipPath>
  </defs>
  <style type="text/css"><![CDATA[
@font-face {
  font-family: 'Lato';
  src:
    url('css/fonts/lato-normal.woff2') format('woff2'),
    url('../_static/css/fonts/lato-normal.woff2') format('woff2'),
    url('css/fonts/lato-normal.woff') format('woff'),
    url('../_static/css/fonts/lato-normal.woff') format('woff');
  font-style: normal;
  font-weight: 400;
}
@font-face {
  font-family: 'Lato';
  src:
    url('css/fonts/lato-normal-italic.woff2') format('woff2'),
    url('../_static/css/fonts/lato-normal-italic.woff2') format('woff2'),
    url('css/fonts/lato-normal-italic.woff') format('woff'),
    url('../_static/css/fonts/lato-normal-italic.woff') format('woff');
  font-style: italic;
  font-weight: 400;
}
@font-face {
  font-family: 'Lato';
  src:
    url('css/fonts/lato-bold.woff2') format('woff2'),
    url('../_static/css/fonts/lato-bold.woff2') format('woff2'),
    url('css/fonts/lato-bold.woff') format('woff'),
    url('../_static/css/fonts/lato-bold.woff') format('woff');
  font-style: normal;
  font-weight: 700;
}
@font-face {
  font-family: 'Lato';
  src:
    url('css/fonts/lato-bold-italic.woff2') format('woff2'),
    url('../_static/css/fonts/lato-bold-italic.woff2') format('woff2'),
    url('css/fonts/lato-bold-italic.woff') format('woff'),
    url('../_static/css/fonts/lato-bold-italic.woff') format('woff');
  font-style: italic;
  font-weight: 700;
}
  ]]></style>
  <line x1="96.000" y1="24.000" x2="96.000" y2="392.000" stroke="#9ca3af" stroke-width="1.350"/>
  <line x1="262.400" y1="24.000" x2="262.400" y2="392.000" stroke="#9ca3af" stroke-width="1.350"/>
  <line x1="428.800" y1="24.000" x2="428.800" y2="392.000" stroke="#9ca3af" stroke-width="1.350"/>
  <line x1="595.200" y1="24.000" x2="595.200" y2="392.000" stroke="#9ca3af" stroke-width="1.350"/>
  <line x1="761.600" y1="24.000" x2="761.600" y2="392.000" stroke="#9ca3af" stroke-width="1.350"/>
  <line x1="928.000" y1="24.000" x2="928.000" y2="392.000" stroke="#9ca3af" stroke-width="1.350"/>
  <line x1="96.000" y1="392.000" x2="928.000" y2="392.000" stroke="#9ca3af" stroke-width="1.350"/>
  <line x1="96.000" y1="346.000" x2="928.000" y2="346.000" stroke="#9ca3af" stroke-width="1.350"/>
  <line x1="96.000" y1="300.000" x2="928.000" y2="300.000" stroke="#9ca3af" stroke-width="1.350"/>
  <line x1="96.000" y1="254.000" x2="928.000" y2="254.000" stroke="#9ca3af" stroke-width="1.350"/>
  <line x1="96.000" y1="208.000" x2="928.000" y2="208.000" stroke="#9ca3af" stroke-width="1.350"/>
  <line x1="96.000" y1="162.000" x2="928.000" y2="162.000" stroke="#9ca3af" stroke-width="1.350"/>
  <line x1="96.000" y1="116.000" x2="928.000" y2="116.000" stroke="#9ca3af" stroke-width="1.350"/>
  <line x1="96.000" y1="70.000" x2="928.000" y2="70.000" stroke="#9ca3af" stroke-width="1.350"/>
  <line x1="96.000" y1="24.000" x2="928.000" y2="24.000" stroke="#9ca3af" stroke-width="1.350"/>
  <g clip-path="url(#plot-area-clip)">
    <g fill="#5fa8e8" fill-opacity="0.900">
    <circle cx="104.320" cy="369.000" r="4.500"/>
    <circle cx="112.640" cy="369.000" r="4.500"/>
    <circle cx="120.960" cy="369.000" r="4.500"/>
    <circle cx="129.280" cy="369.000" r="4.500"/>
    <circle cx="137.600" cy="356.439" r="4.500"/>
    <circle cx="145.920" cy="338.734" r="4.500"/>
    <circle cx="154.240" cy="321.279" r="4.500"/>
    <circle cx="162.560" cy="304.979" r="4.500"/>
    <circle cx="170.880" cy="290.009" r="4.500"/>
    <circle cx="179.200" cy="276.335" r="4.500"/>
    <circle cx="187.520" cy="263.859" r="4.500"/>
    <circle cx="195.840" cy="252.464" r="4.500"/>
    <circle cx="204.160" cy="242.037" r="4.500"/>
    <circle cx="212.480" cy="232.473" r="4.500"/>
    <circle cx="220.800" cy="223.677" r="4.500"/>
    <circle cx="229.120" cy="215.568" r="4.500"/>
    <circle cx="237.440" cy="208.071" r="4.500"/>
    <circle cx="245.760" cy="201.123" r="4.500"/>
    <circle cx="254.080" cy="194.668" r="4.500"/>
    <circle cx="262.400" cy="188.657" r="4.500"/>
    <circle cx="270.720" cy="183.047" r="4.500"/>
    <circle cx="279.040" cy="177.801" r="4.500"/>
    <circle cx="287.360" cy="172.884" r="4.500"/>
    <circle cx="295.680" cy="168.267" r="4.500"/>
    <circle cx="304.000" cy="163.925" r="4.500"/>
    <circle cx="312.320" cy="159.833" r="4.500"/>
    <circle cx="320.640" cy="155.971" r="4.500"/>
    <circle cx="328.960" cy="152.321" r="4.500"/>
    <circle cx="337.280" cy="148.865" r="4.500"/>
    <circle cx="345.600" cy="145.589" r="4.500"/>
    <circle cx="353.920" cy="142.479" r="4.500"/>
    <circle cx="362.240" cy="139.523" r="4.500"/>
    <circle cx="370.560" cy="136.709" r="4.500"/>
    <circle cx="378.880" cy="134.029" r="4.500"/>
    <circle cx="387.200" cy="131.472" r="4.500"/>
    <circle cx="395.520" cy="129.031" r="4.500"/>
    <circle cx="403.840" cy="126.698" r="4.500"/>
    <circle cx="412.160" cy="124.465" r="4.500"/>
    <circle cx="420.480" cy="122.327" r="4.500"/>
    <circle cx="428.800" cy="120.278" r="4.500"/>
    <circle cx="437.120" cy="118.312" r="4.500"/>
    <circle cx="445.440" cy="116.424" r="4.500"/>
    <circle cx="453.760" cy="114.610" r="4.500"/>
    <circle cx="462.080" cy="112.866" r="4.500"/>
    <circle cx="470.400" cy="111.187" r="4.500"/>
    <circle cx="478.720" cy="109.570" r="4.500"/>
    <circle cx="487.040" cy="108.012" r="4.500"/>
    <circle cx="495.360" cy="106.510" r="4.500"/>
    <circle cx="503.680" cy="105.060" r="4.500"/>
    <circle cx="512.000" cy="103.660" r="4.500"/>
    <circle cx="520.320" cy="102.308" r="4.500"/>
    <circle cx="528.640" cy="101.000" r="4.500"/>
    <circle cx="536.960" cy="99.736" r="4.500"/>
    <circle cx="545.280" cy="98.512" r="4.500"/>
    <circle cx="553.600" cy="97.327" r="4.500"/>
    <circle cx="561.920" cy="96.178" r="4.500"/>
    <circle cx="570.240" cy="95.066" r="4.500"/>
    <circle cx="578.560" cy="93.987" r="4.500"/>
    <circle cx="586.880" cy="92.940" r="4.500"/>
    <circle cx="595.200" cy="91.924" r="4.500"/>
    <circle cx="603.520" cy="90.937" r="4.500"/>
    <circle cx="611.840" cy="89.979" r="4.500"/>
    <circle cx="620.160" cy="89.048" r="4.500"/>
    <circle cx="628.480" cy="88.142" r="4.500"/>
    <circle cx="636.800" cy="87.261" r="4.500"/>
    <circle cx="645.120" cy="86.405" r="4.500"/>
    <circle cx="653.440" cy="85.571" r="4.500"/>
    <circle cx="661.760" cy="84.758" r="4.500"/>
    <circle cx="670.080" cy="83.968" r="4.500"/>
    <circle cx="678.400" cy="83.197" r="4.500"/>
    <circle cx="686.720" cy="82.446" r="4.500"/>
    <circle cx="695.040" cy="81.714" r="4.500"/>
    <circle cx="703.360" cy="80.999" r="4.500"/>
    <circle cx="711.680" cy="80.303" r="4.500"/>
    <circle cx="720.000" cy="79.623" r="4.500"/>
    <circle cx="728.320" cy="78.959" r="4.500"/>
    <circle cx="736.640" cy="78.311" r="4.500"/>
    <circle cx="744.960" cy="77.678" r="4.500"/>
    <circle cx="753.280" cy="77.059" r="4.500"/>
    <circle cx="761.600" cy="76.455" r="4.500"/>
    <circle cx="769.920" cy="75.864" r="4.500"/>
    <circle cx="778.240" cy="75.286" r="4.500"/>
    <circle cx="786.560" cy="74.721" r="4.500"/>
    <circle cx="794.880" cy="74.169" r="4.500"/>
    <circle cx="803.200" cy="73.628" r="4.500"/>
    <circle cx="811.520" cy="73.099" r="4.500"/>
    <circle cx="819.840" cy="72.581" r="4.500"/>
    <circle cx="828.160" cy="72.074" r="4.500"/>
    <circle cx="836.480" cy="71.577" r="4.500"/>
    <circle cx="844.800" cy="71.090" r="4.500"/>
    <circle cx="853.120" cy="70.613" r="4.500"/>
    <circle cx="861.440" cy="70.146" r="4.500"/>
    <circle cx="869.760" cy="69.688" r="4.500"/>
    <circle cx="878.080" cy="69.239" r="4.500"/>
    <circle cx="886.400" cy="68.799" r="4.500"/>
    <circle cx="894.720" cy="68.367" r="4.500"/>
    <circle cx="903.040" cy="67.944" r="4.500"/>
    <circle cx="911.360" cy="67.528" r="4.500"/>
    <circle cx="919.680" cy="67.120" r="4.500"/>
    <circle cx="928.000" cy="66.720" r="4.500"/>
    </g>
    <polyline points="96.000,254.000 96.416,249.466 96.832,245.064 97.249,240.791 97.665,236.640 98.081,232.607 98.497,228.688 98.913,224.878 99.330,221.173 99.746,217.570 100.162,214.065 100.578,210.655 100.994,207.335 101.411,204.103 101.827,200.956 102.243,197.890 102.659,194.904 103.076,191.994 103.492,189.157 103.908,186.392 104.324,183.696 104.740,181.066 105.157,178.500 105.573,175.997 105.989,173.555 106.405,171.171 106.821,168.843 107.238,166.570 107.654,164.350 108.070,162.182 108.486,160.063 108.902,157.993 109.319,155.970 109.735,153.992 110.151,152.058 110.567,150.168 110.983,148.318 111.400,146.509 111.816,144.740 112.232,143.008 112.648,141.313 113.065,139.655 113.481,138.031 113.897,136.441 114.313,134.884 114.729,133.360 115.146,131.866 115.562,130.403 115.978,128.970 116.394,127.565 116.810,126.188 117.227,124.839 117.643,123.516 118.059,122.219 118.475,120.947 118.891,119.700 119.308,118.476 119.724,117.276 120.140,116.099 120.556,114.944 120.972,113.810 121.389,112.698 121.805,111.606 122.221,110.534 122.637,109.481 123.054,108.448 123.470,107.433 123.886,106.437 124.302,105.458 124.718,104.497 125.135,103.552 125.551,102.624 125.967,101.712 126.383,100.816 126.799,99.935 127.216,99.070 127.632,98.219 128.048,97.382 128.464,96.560 128.880,95.751 129.297,94.956 129.713,94.174 130.129,93.405 130.545,92.648 130.961,91.904 131.378,91.171 131.794,90.451 132.210,89.742 132.626,89.044 133.043,88.358 133.459,87.682 133.875,87.016 134.291,86.362 134.707,85.717 135.124,85.082 135.540,84.457 135.956,83.842 136.372,83.235 136.788,82.638 137.205,82.050 137.621,81.471 138.037,80.901 138.453,80.339 138.869,79.785 139.286,79.239 139.702,78.701 140.118,78.171 140.534,77.649 140.950,77.134 141.367,76.627 141.783,76.127 142.199,75.634 142.615,75.148 143.032,74.669 143.448,74.196 143.864,73.730 144.280,73.271 144.696,72.817 145.113,72.370 145.529,71.930 145.945,71.495 146.361,71.066 146.777,70.643 147.194,70.225 147.610,69.813 148.026,69.407 148.442,69.006 148.858,68.610 149.275,68.220 149.691,67.834 150.107,67.454 150.523,67.078 150.939,66.708 151.356,66.342 151.772,65.980 152.188,65.624 152.604,65.272 153.021,64.924 153.437,64.581 153.853,64.242 154.269,63.907 154.685,63.577 155.102,63.250 155.518,62.928 155.934,62.609 156.350,62.295 156.766,61.984 157.183,61.677 157.599,61.374 158.015,61.074 158.431,60.778 158.847,60.485 159.264,60.196 159.680,59.911 160.096,59.628 160.512,59.350 160.928,59.074 161.345,58.801 161.761,58.532 162.177,58.266 162.593,58.003 163.010,57.743 163.426,57.485 163.842,57.231 164.258,56.980 164.674,56.731 165.091,56.486 165.507,56.243 165.923,56.003 166.339,55.765 166.755,55.530 167.172,55.298 167.588,55.068 168.004,54.841 168.420,54.616 168.836,54.394 169.253,54.174 169.669,53.956 170.085,53.741 170.501,53.528 170.917,53.318 171.334,53.110 171.750,52.903 172.166,52.699 172.582,52.498 172.998,52.298 173.415,52.100 173.831,51.905 174.247,51.711 174.663,51.520 175.080,51.330 175.496,51.143 175.912,50.957 176.328,50.774 176.744,50.592 177.161,50.412 177.577,50.234 177.993,50.057 178.409,49.883 178.825,49.710 179.242,49.539 179.658,49.369 180.074,49.201 180.490,49.035 180.906,48.871 181.323,48.708 181.739,48.547 182.155,48.387 182.571,48.229 182.987,48.072 183.404,47.917 183.820,47.764 184.236,47.611 184.652,47.461 185.069,47.312 185.485,47.164 185.901,47.017 186.317,46.872 186.733,46.729 187.150,46.586 187.566,46.445 187.982,46.306 188.398,46.167 188.814,46.030 189.231,45.895 189.647,45.760 190.063,45.627 190.479,45.495 190.895,45.364 191.312,45.234 191.728,45.106 192.144,44.978 192.560,44.852 192.976,44.727 193.393,44.603 193.809,44.480 194.225,44.358 194.641,44.238 195.058,44.118 195.474,44.000 195.890,43.882 196.306,43.766 196.722,43.650 197.139,43.536 197.555,43.422 197.971,43.310 198.387,43.198 198.803,43.088 199.220,42.978 199.636,42.870 200.052,42.762 200.468,42.655 200.884,42.549 201.301,42.445 201.717,42.340 202.133,42.237 202.549,42.135 202.965,42.033 203.382,41.933 203.798,41.833 204.214,41.734 204.630,41.636 205.047,41.539 205.463,41.442 205.879,41.346 206.295,41.251 206.711,41.157 207.128,41.064 207.544,40.971 207.960,40.879 208.376,40.788 208.792,40.698 209.209,40.608 209.625,40.519 210.041,40.431 210.457,40.344 210.873,40.257 211.290,40.171 211.706,40.085 212.122,40.000 212.538,39.916 212.954,39.833 213.371,39.750 213.787,39.668 214.203,39.586 214.619,39.505 215.036,39.425 215.452,39.346 215.868,39.267 216.284,39.188 216.700,39.110 217.117,39.033 217.533,38.957 217.949,38.881 218.365,38.805 218.781,38.730 219.198,38.656 219.614,38.582 220.030,38.509 220.446,38.436 220.862,38.364 221.279,38.293 221.695,38.222 222.111,38.151 222.527,38.081 222.943,38.012 223.360,37.943 223.776,37.874 224.192,37.806 224.608,37.739 225.025,37.672 225.441,37.606 225.857,37.540 226.273,37.474 226.689,37.409 227.106,37.344 227.522,37.280 227.938,37.217 228.354,37.154 228.770,37.091 229.187,37.029 229.603,36.967 230.019,36.905 230.435,36.844 230.851,36.784 231.268,36.724 231.684,36.664 232.100,36.605 232.516,36.546 232.932,36.488 233.349,36.430 233.765,36.372 234.181,36.315 234.597,36.258 235.014,36.202 235.430,36.145 235.846,36.090 236.262,36.035 236.678,35.980 237.095,35.925 237.511,35.871 237.927,35.817 238.343,35.764 238.759,35.711 239.176,35.658 239.592,35.606 240.008,35.554 240.424,35.502 240.840,35.451 241.257,35.400 241.673,35.349 242.089,35.299 242.505,35.249 242.921,35.199 243.338,35.150 243.754,35.101 244.170,35.052 244.586,35.004 245.003,34.956 245.419,34.908 245.835,34.861 246.251,34.814 246.667,34.767 247.084,34.721 247.500,34.675 247.916,34.629 248.332,34.583 248.748,34.538 249.165,34.493 249.581,34.448 249.997,34.404 250.413,34.360 250.829,34.316 251.246,34.272 251.662,34.229 252.078,34.186 252.494,34.143 252.910,34.101 253.327,34.058 253.743,34.016 254.159,33.975 254.575,33.933 254.991,33.892 255.408,33.851 255.824,33.811 256.240,33.770 256.656,33.730 257.073,33.690 257.489,33.650 257.905,33.611 258.321,33.572 258.737,33.533 259.154,33.494 259.570,33.456 259.986,33.417 260.402,33.379 260.818,33.342 261.235,33.304 261.651,33.267 262.067,33.230 262.483,33.193 262.899,33.156 263.316,33.120 263.732,33.083 264.148,33.047 264.564,33.011 264.980,32.976 265.397,32.941 265.813,32.905 266.229,32.870 266.645,32.836 267.062,32.801 267.478,32.767 267.894,32.733 268.310,32.699 268.726,32.665 269.143,32.631 269.559,32.598 269.975,32.565 270.391,32.532 270.807,32.499 271.224,32.466 271.640,32.434 272.056,32.402 272.472,32.370 272.888,32.338 273.305,32.306 273.721,32.275 274.137,32.243 274.553,32.212 274.969,32.181 275.386,32.151 275.802,32.120 276.218,32.089 276.634,32.059 277.051,32.029 277.467,31.999 277.883,31.969 278.299,31.940 278.715,31.910 279.132,31.881 279.548,31.852 279.964,31.823 280.380,31.794 280.796,31.766 281.213,31.737 281.629,31.709 282.045,31.681 282.461,31.653 282.877,31.625 283.294,31.597 283.710,31.570 284.126,31.542 284.542,31.515 284.958,31.488 285.375,31.461 285.791,31.434 286.207,31.407 286.623,31.381 287.040,31.354 287.456,31.328 287.872,31.302 288.288,31.276 288.704,31.250 289.121,31.225 289.537,31.199 289.953,31.174 290.369,31.148 290.785,31.123 291.202,31.098 291.618,31.073 292.034,31.049 292.450,31.024 292.866,30.999 293.283,30.975 293.699,30.951 294.115,30.927 294.531,30.903 294.947,30.879 295.364,30.855 295.780,30.831 296.196,30.808 296.612,30.785 297.029,30.761 297.445,30.738 297.861,30.715 298.277,30.692 298.693,30.669 299.110,30.647 299.526,30.624 299.942,30.602 300.358,30.579 300.774,30.557 301.191,30.535 301.607,30.513 302.023,30.491 302.439,30.470 302.855,30.448 303.272,30.426 303.688,30.405 304.104,30.384 304.520,30.362 304.936,30.341 305.353,30.320 305.769,30.299 306.185,30.278 306.601,30.258 307.018,30.237 307.434,30.217 307.850,30.196 308.266,30.176 308.682,30.156 309.099,30.136 309.515,30.116 309.931,30.096 310.347,30.076 310.763,30.056 311.180,30.037 311.596,30.017 312.012,29.998 312.428,29.978 312.844,29.959 313.261,29.940 313.677,29.921 314.093,29.902 314.509,29.883 314.925,29.864 315.342,29.846 315.758,29.827 316.174,29.808 316.590,29.790 317.007,29.772 317.423,29.753 317.839,29.735 318.255,29.717 318.671,29.699 319.088,29.681 319.504,29.663 319.920,29.646 320.336,29.628 320.752,29.610 321.169,29.593 321.585,29.576 322.001,29.558 322.417,29.541 322.833,29.524 323.250,29.507 323.666,29.490 324.082,29.473 324.498,29.456 324.914,29.439 325.331,29.422 325.747,29.406 326.163,29.389 326.579,29.373 326.995,29.356 327.412,29.340 327.828,29.324 328.244,29.308 328.660,29.292 329.077,29.276 329.493,29.260 329.909,29.244 330.325,29.228 330.741,29.212 331.158,29.197 331.574,29.181 331.990,29.165 332.406,29.150 332.822,29.135 333.239,29.119 333.655,29.104 334.071,29.089 334.487,29.074 334.903,29.059 335.320,29.044 335.736,29.029 336.152,29.014 336.568,28.999 336.984,28.984 337.401,28.970 337.817,28.955 338.233,28.941 338.649,28.926 339.066,28.912 339.482,28.898 339.898,28.883 340.314,28.869 340.730,28.855 341.147,28.841 341.563,28.827 341.979,28.813 342.395,28.799 342.811,28.785 343.228,28.771 343.644,28.758 344.060,28.744 344.476,28.730 344.892,28.717 345.309,28.703 345.725,28.690 346.141,28.676 346.557,28.663 346.973,28.650 347.390,28.637 347.806,28.624 348.222,28.610 348.638,28.597 349.055,28.584 349.471,28.572 349.887,28.559 350.303,28.546 350.719,28.533 351.136,28.520 351.552,28.508 351.968,28.495 352.384,28.483 352.800,28.470 353.217,28.458 353.633,28.445 354.049,28.433 354.465,28.421 354.881,28.408 355.298,28.396 355.714,28.384 356.130,28.372 356.546,28.360 356.962,28.348 357.379,28.336 357.795,28.324 358.211,28.312 358.627,28.300 359.044,28.289 359.460,28.277 359.876,28.265 360.292,28.254 360.708,28.242 361.125,28.231 361.541,28.219 361.957,28.208 362.373,28.197 362.789,28.185 363.206,28.174 363.622,28.163 364.038,28.152 364.454,28.140 364.870,28.129 365.287,28.118 365.703,28.107 366.119,28.096 366.535,28.085 366.951,28.074 367.368,28.064 367.784,28.053 368.200,28.042 368.616,28.031 369.033,28.021 369.449,28.010 369.865,28.000 370.281,27.989 370.697,27.979 371.114,27.968 371.530,27.958 371.946,27.947 372.362,27.937 372.778,27.927 373.195,27.916 373.611,27.906 374.027,27.896 374.443,27.886 374.859,27.876 375.276,27.866 375.692,27.856 376.108,27.846 376.524,27.836 376.940,27.826 377.357,27.816 377.773,27.806 378.189,27.797 378.605,27.787 379.022,27.777 379.438,27.767 379.854,27.758 380.270,27.748 380.686,27.739 381.103,27.729 381.519,27.720 381.935,27.710 382.351,27.701 382.767,27.691 383.184,27.682 383.600,27.673 384.016,27.664 384.432,27.654 384.848,27.645 385.265,27.636 385.681,27.627 386.097,27.618 386.513,27.609 386.929,27.600 387.346,27.591 387.762,27.582 388.178,27.573 388.594,27.564 389.011,27.555 389.427,27.546 389.843,27.537 390.259,27.529 390.675,27.520 391.092,27.511 391.508,27.502 391.924,27.494 392.340,27.485 392.756,27.477 393.173,27.468 393.589,27.460 394.005,27.451 394.421,27.443 394.837,27.434 395.254,27.426 395.670,27.418 396.086,27.409 396.502,27.401 396.918,27.393 397.335,27.384 397.751,27.376 398.167,27.368 398.583,27.360 398.999,27.352 399.416,27.344 399.832,27.336 400.248,27.328 400.664,27.320 401.081,27.312 401.497,27.304 401.913,27.296 402.329,27.288 402.745,27.280 403.162,27.272 403.578,27.265 403.994,27.257 404.410,27.249 404.826,27.241 405.243,27.234 405.659,27.226 406.075,27.218 406.491,27.211 406.907,27.203 407.324,27.196 407.740,27.188 408.156,27.181 408.572,27.173 408.988,27.166 409.405,27.158 409.821,27.151 410.237,27.143 410.653,27.136 411.070,27.129 411.486,27.122 411.902,27.114 412.318,27.107 412.734,27.100 413.151,27.093 413.567,27.085 413.983,27.078 414.399,27.071 414.815,27.064 415.232,27.057 415.648,27.050 416.064,27.043 416.480,27.036 416.896,27.029 417.313,27.022 417.729,27.015 418.145,27.008 418.561,27.001 418.977,26.995 419.394,26.988 419.810,26.981 420.226,26.974 420.642,26.967 421.059,26.961 421.475,26.954 421.891,26.947 422.307,26.941 422.723,26.934 423.140,26.927 423.556,26.921 423.972,26.914 424.388,26.908 424.804,26.901 425.221,26.895 425.637,26.888 426.053,26.882 426.469,26.875 426.885,26.869 427.302,26.862 427.718,26.856 428.134,26.850 428.550,26.843 428.966,26.837 429.383,26.831 429.799,26.824 430.215,26.818 430.631,26.812 431.048,26.806 431.464,26.800 431.880,26.793 432.296,26.787 432.712,26.781 433.129,26.775 433.545,26.769 433.961,26.763 434.377,26.757 434.793,26.751 435.210,26.745 435.626,26.739 436.042,26.733 436.458,26.727 436.874,26.721 437.291,26.715 437.707,26.709 438.123,26.703 438.539,26.697 438.955,26.692 439.372,26.686 439.788,26.680 440.204,26.674 440.620,26.668 441.037,26.663 441.453,26.657 441.869,26.651 442.285,26.646 442.701,26.640 443.118,26.634 443.534,26.629 443.950,26.623 444.366,26.617 444.782,26.612 445.199,26.606 445.615,26.601 446.031,26.595 446.447,26.590 446.863,26.584 447.280,26.579 447.696,26.573 448.112,26.568 448.528,26.562 448.944,26.557 449.361,26.552 449.777,26.546 450.193,26.541 450.609,26.536 451.026,26.530 451.442,26.525 451.858,26.520 452.274,26.514 452.690,26.509 453.107,26.504 453.523,26.499 453.939,26.493 454.355,26.488 454.771,26.483 455.188,26.478 455.604,26.473 456.020,26.468 456.436,26.463 456.852,26.457 457.269,26.452 457.685,26.447 458.101,26.442 458.517,26.437 458.933,26.432 459.350,26.427 459.766,26.422 460.182,26.417 460.598,26.412 461.015,26.407 461.431,26.402 461.847,26.398 462.263,26.393 462.679,26.388 463.096,26.383 463.512,26.378 463.928,26.373 464.344,26.368 464.760,26.364 465.177,26.359 465.593,26.354 466.009,26.349 466.425,26.345 466.841,26.340 467.258,26.335 467.674,26.330 468.090,26.326 468.506,26.321 468.922,26.316 469.339,26.312 469.755,26.307 470.171,26.303 470.587,26.298 471.004,26.293 471.420,26.289 471.836,26.284 472.252,26.280 472.668,26.275 473.085,26.271 473.501,26.266 473.917,26.262 474.333,26.257 474.749,26.253 475.166,26.248 475.582,26.244 475.998,26.239 476.414,26.235 476.830,26.231 477.247,26.226 477.663,26.222 478.079,26.217 478.495,26.213 478.911,26.209 479.328,26.204 479.744,26.200 480.160,26.196 480.576,26.191 480.992,26.187 481.409,26.183 481.825,26.179 482.241,26.174 482.657,26.170 483.074,26.166 483.490,26.162 483.906,26.158 484.322,26.153 484.738,26.149 485.155,26.145 485.571,26.141 485.987,26.137 486.403,26.133 486.819,26.129 487.236,26.125 487.652,26.120 488.068,26.116 488.484,26.112 488.900,26.108 489.317,26.104 489.733,26.100 490.149,26.096 490.565,26.092 490.981,26.088 491.398,26.084 491.814,26.080 492.230,26.076 492.646,26.072 493.063,26.068 493.479,26.065 493.895,26.061 494.311,26.057 494.727,26.053 495.144,26.049 495.560,26.045 495.976,26.041 496.392,26.037 496.808,26.034 497.225,26.030 497.641,26.026 498.057,26.022 498.473,26.018 498.889,26.015 499.306,26.011 499.722,26.007 500.138,26.003 500.554,26.000 500.970,25.996 501.387,25.992 501.803,25.988 502.219,25.985 502.635,25.981 503.052,25.977 503.468,25.974 503.884,25.970 504.300,25.966 504.716,25.963 505.133,25.959 505.549,25.956 505.965,25.952 506.381,25.948 506.797,25.945 507.214,25.941 507.630,25.938 508.046,25.934 508.462,25.931 508.878,25.927 509.295,25.924 509.711,25.920 510.127,25.916 510.543,25.913 510.959,25.910 511.376,25.906 511.792,25.903 512.208,25.899 512.624,25.896 513.041,25.892 513.457,25.889 513.873,25.885 514.289,25.882 514.705,25.879 515.122,25.875 515.538,25.872 515.954,25.868 516.370,25.865 516.786,25.862 517.203,25.858 517.619,25.855 518.035,25.852 518.451,25.848 518.867,25.845 519.284,25.842 519.700,25.838 520.116,25.835 520.532,25.832 520.948,25.829 521.365,25.825 521.781,25.822 522.197,25.819 522.613,25.816 523.030,25.812 523.446,25.809 523.862,25.806 524.278,25.803 524.694,25.800 525.111,25.796 525.527,25.793 525.943,25.790 526.359,25.787 526.775,25.784 527.192,25.781 527.608,25.778 528.024,25.774 528.440,25.771 528.856,25.768 529.273,25.765 529.689,25.762 530.105,25.759 530.521,25.756 530.937,25.753 531.354,25.750 531.770,25.747 532.186,25.744 532.602,25.741 533.019,25.738 533.435,25.735 533.851,25.732 534.267,25.729 534.683,25.726 535.100,25.723 535.516,25.720 535.932,25.717 536.348,25.714 536.764,25.711 537.181,25.708 537.597,25.705 538.013,25.702 538.429,25.699 538.845,25.696 539.262,25.693 539.678,25.690 540.094,25.687 540.510,25.684 540.926,25.682 541.343,25.679 541.759,25.676 542.175,25.673 542.591,25.670 543.008,25.667 543.424,25.664 543.840,25.662 544.256,25.659 544.672,25.656 545.089,25.653 545.505,25.650 545.921,25.648 546.337,25.645 546.753,25.642 547.170,25.639 547.586,25.636 548.002,25.634 548.418,25.631 548.834,25.628 549.251,25.625 549.667,25.623 550.083,25.620 550.499,25.617 550.915,25.615 551.332,25.612 551.748,25.609 552.164,25.606 552.580,25.604 552.996,25.601 553.413,25.598 553.829,25.596 554.245,25.593 554.661,25.590 555.078,25.588 555.494,25.585 555.910,25.583 556.326,25.580 556.742,25.577 557.159,25.575 557.575,25.572 557.991,25.569 558.407,25.567 558.823,25.564 559.240,25.562 559.656,25.559 560.072,25.557 560.488,25.554 560.904,25.551 561.321,25.549 561.737,25.546 562.153,25.544 562.569,25.541 562.985,25.539 563.402,25.536 563.818,25.534 564.234,25.531 564.650,25.529 565.067,25.526 565.483,25.524 565.899,25.521 566.315,25.519 566.731,25.516 567.148,25.514 567.564,25.511 567.980,25.509 568.396,25.507 568.812,25.504 569.229,25.502 569.645,25.499 570.061,25.497 570.477,25.494 570.893,25.492 571.310,25.490 571.726,25.487 572.142,25.485 572.558,25.482 572.974,25.480 573.391,25.478 573.807,25.475 574.223,25.473 574.639,25.471 575.056,25.468 575.472,25.466 575.888,25.464 576.304,25.461 576.720,25.459 577.137,25.457 577.553,25.454 577.969,25.452 578.385,25.450 578.801,25.447 579.218,25.445 579.634,25.443 580.050,25.441 580.466,25.438 580.882,25.436 581.299,25.434 581.715,25.431 582.131,25.429 582.547,25.427 582.963,25.425 583.380,25.422 583.796,25.420 584.212,25.418 584.628,25.416 585.045,25.414 585.461,25.411 585.877,25.409 586.293,25.407 586.709,25.405 587.126,25.403 587.542,25.400 587.958,25.398 588.374,25.396 588.790,25.394 589.207,25.392 589.623,25.389 590.039,25.387 590.455,25.385 590.871,25.383 591.288,25.381 591.704,25.379 592.120,25.377 592.536,25.374 592.952,25.372 593.369,25.370 593.785,25.368 594.201,25.366 594.617,25.364 595.034,25.362 595.450,25.360 595.866,25.358 596.282,25.356 596.698,25.353 597.115,25.351 597.531,25.349 597.947,25.347 598.363,25.345 598.779,25.343 599.196,25.341 599.612,25.339 600.028,25.337 600.444,25.335 600.860,25.333 601.277,25.331 601.693,25.329 602.109,25.327 602.525,25.325 602.941,25.323 603.358,25.321 603.774,25.319 604.190,25.317 604.606,25.315 605.023,25.313 605.439,25.311 605.855,25.309 606.271,25.307 606.687,25.305 607.104,25.303 607.520,25.301 607.936,25.299 608.352,25.297 608.768,25.295 609.185,25.293 609.601,25.291 610.017,25.289 610.433,25.287 610.849,25.285 611.266,25.284 611.682,25.282 612.098,25.280 612.514,25.278 612.930,25.276 613.347,25.274 613.763,25.272 614.179,25.270 614.595,25.268 615.012,25.266 615.428,25.265 615.844,25.263 616.260,25.261 616.676,25.259 617.093,25.257 617.509,25.255 617.925,25.253 618.341,25.252 618.757,25.250 619.174,25.248 619.590,25.246 620.006,25.244 620.422,25.242 620.838,25.241 621.255,25.239 621.671,25.237 622.087,25.235 622.503,25.233 622.919,25.231 623.336,25.230 623.752,25.228 624.168,25.226 624.584,25.224 625.001,25.223 625.417,25.221 625.833,25.219 626.249,25.217 626.665,25.215 627.082,25.214 627.498,25.212 627.914,25.210 628.330,25.208 628.746,25.207 629.163,25.205 629.579,25.203 629.995,25.201 630.411,25.200 630.827,25.198 631.244,25.196 631.660,25.194 632.076,25.193 632.492,25.191 632.908,25.189 633.325,25.188 633.741,25.186 634.157,25.184 634.573,25.182 634.989,25.181 635.406,25.179 635.822,25.177 636.238,25.176 636.654,25.174 637.071,25.172 637.487,25.171 637.903,25.169 638.319,25.167 638.735,25.166 639.152,25.164 639.568,25.162 639.984,25.161 640.400,25.159 640.816,25.157 641.233,25.156 641.649,25.154 642.065,25.153 642.481,25.151 642.897,25.149 643.314,25.148 643.730,25.146 644.146,25.144 644.562,25.143 644.978,25.141 645.395,25.140 645.811,25.138 646.227,25.136 646.643,25.135 647.060,25.133 647.476,25.132 647.892,25.130 648.308,25.128 648.724,25.127 649.141,25.125 649.557,25.124 649.973,25.122 650.389,25.121 650.805,25.119 651.222,25.117 651.638,25.116 652.054,25.114 652.470,25.113 652.886,25.111 653.303,25.110 653.719,25.108 654.135,25.107 654.551,25.105 654.967,25.104 655.384,25.102 655.800,25.100 656.216,25.099 656.632,25.097 657.049,25.096 657.465,25.094 657.881,25.093 658.297,25.091 658.713,25.090 659.130,25.088 659.546,25.087 659.962,25.085 660.378,25.084 660.794,25.082 661.211,25.081 661.627,25.079 662.043,25.078 662.459,25.077 662.875,25.075 663.292,25.074 663.708,25.072 664.124,25.071 664.540,25.069 664.956,25.068 665.373,25.066 665.789,25.065 666.205,25.063 666.621,25.062 667.038,25.060 667.454,25.059 667.870,25.058 668.286,25.056 668.702,25.055 669.119,25.053 669.535,25.052 669.951,25.050 670.367,25.049 670.783,25.048 671.200,25.046 671.616,25.045 672.032,25.043 672.448,25.042 672.864,25.041 673.281,25.039 673.697,25.038 674.113,25.036 674.529,25.035 674.945,25.034 675.362,25.032 675.778,25.031 676.194,25.029 676.610,25.028 677.027,25.027 677.443,25.025 677.859,25.024 678.275,25.023 678.691,25.021 679.108,25.020 679.524,25.019 679.940,25.017 680.356,25.016 680.772,25.014 681.189,25.013 681.605,25.012 682.021,25.010 682.437,25.009 682.853,25.008 683.270,25.006 683.686,25.005 684.102,25.004 684.518,25.002 684.934,25.001 685.351,25.000 685.767,24.999 686.183,24.997 686.599,24.996 687.016,24.995 687.432,24.993 687.848,24.992 688.264,24.991 688.680,24.989 689.097,24.988 689.513,24.987 689.929,24.985 690.345,24.984 690.761,24.983 691.178,24.982 691.594,24.980 692.010,24.979 692.426,24.978 692.842,24.976 693.259,24.975 693.675,24.974 694.091,24.973 694.507,24.971 694.923,24.970 695.340,24.969 695.756,24.968 696.172,24.966 696.588,24.965 697.005,24.964 697.421,24.963 697.837,24.961 698.253,24.960 698.669,24.959 699.086,24.958 699.502,24.956 699.918,24.955 700.334,24.954 700.750,24.953 701.167,24.952 701.583,24.950 701.999,24.949 702.415,24.948 702.831,24.947 703.248,24.945 703.664,24.944 704.080,24.943 704.496,24.942 704.912,24.941 705.329,24.939 705.745,24.938 706.161,24.937 706.577,24.936 706.993,24.935 707.410,24.933 707.826,24.932 708.242,24.931 708.658,24.930 709.075,24.929 709.491,24.927 709.907,24.926 710.323,24.925 710.739,24.924 711.156,24.923 711.572,24.922 711.988,24.920 712.404,24.919 712.820,24.918 713.237,24.917 713.653,24.916 714.069,24.915 714.485,24.914 714.901,24.912 715.318,24.911 715.734,24.910 716.150,24.909 716.566,24.908 716.982,24.907 717.399,24.906 717.815,24.904 718.231,24.903 718.647,24.902 719.064,24.901 719.480,24.900 719.896,24.899 720.312,24.898 720.728,24.896 721.145,24.895 721.561,24.894 721.977,24.893 722.393,24.892 722.809,24.891 723.226,24.890 723.642,24.889 724.058,24.888 724.474,24.886 724.890,24.885 725.307,24.884 725.723,24.883 726.139,24.882 726.555,24.881 726.971,24.880 727.388,24.879 727.804,24.878 728.220,24.877 728.636,24.876 729.053,24.874 729.469,24.873 729.885,24.872 730.301,24.871 730.717,24.870 731.134,24.869 731.550,24.868 731.966,24.867 732.382,24.866 732.798,24.865 733.215,24.864 733.631,24.863 734.047,24.862 734.463,24.861 734.879,24.860 735.296,24.859 735.712,24.857 736.128,24.856 736.544,24.855 736.960,24.854 737.377,24.853 737.793,24.852 738.209,24.851 738.625,24.850 739.042,24.849 739.458,24.848 739.874,24.847 740.290,24.846 740.706,24.845 741.123,24.844 741.539,24.843 741.955,24.842 742.371,24.841 742.787,24.840 743.204,24.839 743.620,24.838 744.036,24.837 744.452,24.836 744.868,24.835 745.285,24.834 745.701,24.833 746.117,24.832 746.533,24.831 746.949,24.830 747.366,24.829 747.782,24.828 748.198,24.827 748.614,24.826 749.031,24.825 749.447,24.824 749.863,24.823 750.279,24.822 750.695,24.821 751.112,24.820 751.528,24.819 751.944,24.818 752.360,24.817 752.776,24.816 753.193,24.815 753.609,24.814 754.025,24.813 754.441,24.812 754.857,24.811 755.274,24.810 755.690,24.809 756.106,24.808 756.522,24.807 756.938,24.806 757.355,24.805 757.771,24.805 758.187,24.804 758.603,24.803 759.020,24.802 759.436,24.801 759.852,24.800 760.268,24.799 760.684,24.798 761.101,24.797 761.517,24.796 761.933,24.795 762.349,24.794 762.765,24.793 763.182,24.792 763.598,24.791 764.014,24.790 764.430,24.790 764.846,24.789 765.263,24.788 765.679,24.787 766.095,24.786 766.511,24.785 766.927,24.784 767.344,24.783 767.760,24.782 768.176,24.781 768.592,24.780 769.009,24.779 769.425,24.779 769.841,24.778 770.257,24.777 770.673,24.776 771.090,24.775 771.506,24.774 771.922,24.773 772.338,24.772 772.754,24.771 773.171,24.770 773.587,24.770 774.003,24.769 774.419,24.768 774.835,24.767 775.252,24.766 775.668,24.765 776.084,24.764 776.500,24.763 776.916,24.762 777.333,24.762 777.749,24.761 778.165,24.760 778.581,24.759 778.997,24.758 779.414,24.757 779.830,24.756 780.246,24.755 780.662,24.755 781.079,24.754 781.495,24.753 781.911,24.752 782.327,24.751 782.743,24.750 783.160,24.749 783.576,24.749 783.992,24.748 784.408,24.747 784.824,24.746 785.241,24.745 785.657,24.744 786.073,24.743 786.489,24.743 786.905,24.742 787.322,24.741 787.738,24.740 788.154,24.739 788.570,24.738 788.986,24.738 789.403,24.737 789.819,24.736 790.235,24.735 790.651,24.734 791.068,24.733 791.484,24.733 791.900,24.732 792.316,24.731 792.732,24.730 793.149,24.729 793.565,24.729 793.981,24.728 794.397,24.727 794.813,24.726 795.230,24.725 795.646,24.724 796.062,24.724 796.478,24.723 796.894,24.722 797.311,24.721 797.727,24.720 798.143,24.720 798.559,24.719 798.975,24.718 799.392,24.717 799.808,24.716 800.224,24.716 800.640,24.715 801.057,24.714 801.473,24.713 801.889,24.712 802.305,24.712 802.721,24.711 803.138,24.710 803.554,24.709 803.970,24.708 804.386,24.708 804.802,24.707 805.219,24.706 805.635,24.705 806.051,24.705 806.467,24.704 806.883,24.703 807.300,24.702 807.716,24.701 808.132,24.701 808.548,24.700 808.964,24.699 809.381,24.698 809.797,24.698 810.213,24.697 810.629,24.696 811.046,24.695 811.462,24.694 811.878,24.694 812.294,24.693 812.710,24.692 813.127,24.691 813.543,24.691 813.959,24.690 814.375,24.689 814.791,24.688 815.208,24.688 815.624,24.687 816.040,24.686 816.456,24.685 816.872,24.685 817.289,24.684 817.705,24.683 818.121,24.682 818.537,24.682 818.953,24.681 819.370,24.680 819.786,24.679 820.202,24.679 820.618,24.678 821.035,24.677 821.451,24.676 821.867,24.676 822.283,24.675 822.699,24.674 823.116,24.674 823.532,24.673 823.948,24.672 824.364,24.671 824.780,24.671 825.197,24.670 825.613,24.669 826.029,24.668 826.445,24.668 826.861,24.667 827.278,24.666 827.694,24.666 828.110,24.665 828.526,24.664 828.942,24.663 829.359,24.663 829.775,24.662 830.191,24.661 830.607,24.661 831.024,24.660 831.440,24.659 831.856,24.659 832.272,24.658 832.688,24.657 833.105,24.656 833.521,24.656 833.937,24.655 834.353,24.654 834.769,24.654 835.186,24.653 835.602,24.652 836.018,24.652 836.434,24.651 836.850,24.650 837.267,24.649 837.683,24.649 838.099,24.648 838.515,24.647 838.931,24.647 839.348,24.646 839.764,24.645 840.180,24.645 840.596,24.644 841.013,24.643 841.429,24.643 841.845,24.642 842.261,24.641 842.677,24.641 843.094,24.640 843.510,24.639 843.926,24.639 844.342,24.638 844.758,24.637 845.175,24.637 845.591,24.636 846.007,24.635 846.423,24.635 846.839,24.634 847.256,24.633 847.672,24.633 848.088,24.632 848.504,24.631 848.920,24.631 849.337,24.630 849.753,24.629 850.169,24.629 850.585,24.628 851.002,24.627 851.418,24.627 851.834,24.626 852.250,24.625 852.666,24.625 853.083,24.624 853.499,24.623 853.915,24.623 854.331,24.622 854.747,24.621 855.164,24.621 855.580,24.620 855.996,24.619 856.412,24.619 856.828,24.618 857.245,24.618 857.661,24.617 858.077,24.616 858.493,24.616 858.909,24.615 859.326,24.614 859.742,24.614 860.158,24.613 860.574,24.612 860.990,24.612 861.407,24.611 861.823,24.611 862.239,24.610 862.655,24.609 863.072,24.609 863.488,24.608 863.904,24.607 864.320,24.607 864.736,24.606 865.153,24.606 865.569,24.605 865.985,24.604 866.401,24.604 866.817,24.603 867.234,24.602 867.650,24.602 868.066,24.601 868.482,24.601 868.898,24.600 869.315,24.599 869.731,24.599 870.147,24.598 870.563,24.598 870.979,24.597 871.396,24.596 871.812,24.596 872.228,24.595 872.644,24.594 873.061,24.594 873.477,24.593 873.893,24.593 874.309,24.592 874.725,24.591 875.142,24.591 875.558,24.590 875.974,24.590 876.390,24.589 876.806,24.588 877.223,24.588 877.639,24.587 878.055,24.587 878.471,24.586 878.887,24.586 879.304,24.585 879.720,24.584 880.136,24.584 880.552,24.583 880.968,24.583 881.385,24.582 881.801,24.581 882.217,24.581 882.633,24.580 883.050,24.580 883.466,24.579 883.882,24.578 884.298,24.578 884.714,24.577 885.131,24.577 885.547,24.576 885.963,24.576 886.379,24.575 886.795,24.574 887.212,24.574 887.628,24.573 888.044,24.573 888.460,24.572 888.876,24.572 889.293,24.571 889.709,24.570 890.125,24.570 890.541,24.569 890.957,24.569 891.374,24.568 891.790,24.568 892.206,24.567 892.622,24.566 893.039,24.566 893.455,24.565 893.871,24.565 894.287,24.564 894.703,24.564 895.120,24.563 895.536,24.563 895.952,24.562 896.368,24.561 896.784,24.561 897.201,24.560 897.617,24.560 898.033,24.559 898.449,24.559 898.865,24.558 899.282,24.558 899.698,24.557 900.114,24.557 900.530,24.556 900.946,24.555 901.363,24.555 901.779,24.554 902.195,24.554 902.611,24.553 903.028,24.553 903.444,24.552 903.860,24.552 904.276,24.551 904.692,24.551 905.109,24.550 905.525,24.549 905.941,24.549 906.357,24.548 906.773,24.548 907.190,24.547 907.606,24.547 908.022,24.546 908.438,24.546 908.854,24.545 909.271,24.545 909.687,24.544 910.103,24.544 910.519,24.543 910.935,24.543 911.352,24.542 911.768,24.541 912.184,24.541 912.600,24.540 913.017,24.540 913.433,24.539 913.849,24.539 914.265,24.538 914.681,24.538 915.098,24.537 915.514,24.537 915.930,24.536 916.346,24.536 916.762,24.535 917.179,24.535 917.595,24.534 918.011,24.534 918.427,24.533 918.843,24.533 919.260,24.532 919.676,24.532 920.092,24.531 920.508,24.531 920.924,24.530 921.341,24.530 921.757,24.529 922.173,24.529 922.589,24.528 923.006,24.528 923.422,24.527 923.838,24.527 924.254,24.526 924.670,24.526 925.087,24.525 925.503,24.525 925.919,24.524 926.335,24.524 926.751,24.523 927.168,24.523 927.584,24.522 928.000,24.522" fill="none" stroke="#000000" stroke-width="2.800" stroke-opacity="1.000"/>
    <polyline points="96.000,254.000 96.416,254.000 96.832,254.000 97.249,254.000 97.665,254.000 98.081,254.000 98.497,254.000 98.913,254.000 99.330,254.000 99.746,254.000 100.162,254.000 100.578,254.000 100.994,254.000 101.411,254.000 101.827,254.000 102.243,254.000 102.659,254.000 103.076,254.000 103.492,254.000 103.908,254.000 104.324,254.000 104.740,254.000 105.157,254.000 105.573,254.000 105.989,254.000 106.405,254.000 106.821,254.000 107.238,254.000 107.654,254.000 108.070,254.000 108.486,254.000 108.902,254.000 109.319,254.000 109.735,254.000 110.151,254.000 110.567,254.000 110.983,254.000 111.400,254.000 111.816,254.000 112.232,254.000 112.648,254.000 113.065,254.000 113.481,254.000 113.897,254.000 114.313,254.000 114.729,254.000 115.146,254.000 115.562,254.000 115.978,254.000 116.394,254.000 116.810,254.000 117.227,254.000 117.643,254.000 118.059,254.000 118.475,254.000 118.891,254.000 119.308,254.000 119.724,254.000 120.140,254.000 120.556,254.000 120.972,254.000 121.389,254.000 121.805,254.000 122.221,254.000 122.637,254.000 123.054,254.000 123.470,254.000 123.886,254.000 124.302,254.000 124.718,254.000 125.135,254.000 125.551,254.000 125.967,254.000 126.383,254.000 126.799,254.000 127.216,254.000 127.632,254.000 128.048,254.000 128.464,254.000 128.880,254.000 129.297,254.000 129.713,254.000 130.129,254.000 130.545,254.000 130.961,254.000 131.378,254.000 131.794,254.000 132.210,254.000 132.626,254.000 133.043,254.000 133.459,254.000 133.875,254.000 134.291,254.000 134.707,254.000 135.124,254.000 135.540,254.000 135.956,254.000 136.372,254.000 136.788,254.000 137.205,254.000 137.621,253.942 138.037,252.798 138.453,251.665 138.869,250.543 139.286,249.433 139.702,248.333 140.118,247.244 140.534,246.165 140.950,245.096 141.367,244.038 141.783,242.990 142.199,241.952 142.615,240.924 143.032,239.905 143.448,238.896 143.864,237.896 144.280,236.906 144.696,235.924 145.113,234.952 145.529,233.989 145.945,233.034 146.361,232.088 146.777,231.150 147.194,230.221 147.610,229.300 148.026,228.388 148.442,227.483 148.858,226.586 149.275,225.698 149.691,224.817 150.107,223.943 150.523,223.078 150.939,222.219 151.356,221.369 151.772,220.525 152.188,219.688 152.604,218.859 153.021,218.037 153.437,217.221 153.853,216.413 154.269,215.611 154.685,214.816 155.102,214.027 155.518,213.245 155.934,212.469 156.350,211.700 156.766,210.936 157.183,210.179 157.599,209.429 158.015,208.684 158.431,207.945 158.847,207.212 159.264,206.485 159.680,205.763 160.096,205.047 160.512,204.337 160.928,203.633 161.345,202.934 161.761,202.240 162.177,201.552 162.593,200.869 163.010,200.191 163.426,199.518 163.842,198.851 164.258,198.188 164.674,197.531 165.091,196.878 165.507,196.231 165.923,195.588 166.339,194.950 166.755,194.317 167.172,193.688 167.588,193.064 168.004,192.445 168.420,191.830 168.836,191.219 169.253,190.614 169.669,190.012 170.085,189.415 170.501,188.822 170.917,188.233 171.334,187.648 171.750,187.068 172.166,186.492 172.582,185.919 172.998,185.351 173.415,184.787 173.831,184.227 174.247,183.670 174.663,183.117 175.080,182.569 175.496,182.024 175.912,181.482 176.328,180.945 176.744,180.411 177.161,179.881 177.577,179.354 177.993,178.831 178.409,178.311 178.825,177.795 179.242,177.282 179.658,176.773 180.074,176.267 180.490,175.764 180.906,175.265 181.323,174.769 181.739,174.276 182.155,173.787 182.571,173.300 182.987,172.817 183.404,172.337 183.820,171.860 184.236,171.386 184.652,170.915 185.069,170.447 185.485,169.982 185.901,169.520 186.317,169.061 186.733,168.604 187.150,168.151 187.566,167.701 187.982,167.253 188.398,166.808 188.814,166.366 189.231,165.926 189.647,165.489 190.063,165.055 190.479,164.624 190.895,164.195 191.312,163.769 191.728,163.345 192.144,162.924 192.560,162.506 192.976,162.090 193.393,161.676 193.809,161.265 194.225,160.857 194.641,160.451 195.058,160.047 195.474,159.645 195.890,159.246 196.306,158.850 196.722,158.455 197.139,158.063 197.555,157.673 197.971,157.286 198.387,156.901 198.803,156.518 199.220,156.137 199.636,155.758 200.052,155.382 200.468,155.007 200.884,154.635 201.301,154.265 201.717,153.897 202.133,153.531 202.549,153.167 202.965,152.805 203.382,152.445 203.798,152.087 204.214,151.732 204.630,151.378 205.047,151.026 205.463,150.676 205.879,150.328 206.295,149.982 206.711,149.637 207.128,149.295 207.544,148.954 207.960,148.616 208.376,148.279 208.792,147.944 209.209,147.611 209.625,147.279 210.041,146.950 210.457,146.622 210.873,146.296 211.290,145.971 211.706,145.648 212.122,145.327 212.538,145.008 212.954,144.690 213.371,144.374 213.787,144.060 214.203,143.747 214.619,143.436 215.036,143.127 215.452,142.819 215.868,142.513 216.284,142.208 216.700,141.905 217.117,141.603 217.533,141.303 217.949,141.005 218.365,140.708 218.781,140.412 219.198,140.118 219.614,139.826 220.030,139.535 220.446,139.245 220.862,138.957 221.279,138.670 221.695,138.385 222.111,138.101 222.527,137.819 222.943,137.537 223.360,137.258 223.776,136.979 224.192,136.703 224.608,136.427 225.025,136.153 225.441,135.880 225.857,135.608 226.273,135.338 226.689,135.069 227.106,134.801 227.522,134.535 227.938,134.270 228.354,134.006 228.770,133.743 229.187,133.482 229.603,133.222 230.019,132.963 230.435,132.706 230.851,132.449 231.268,132.194 231.684,131.940 232.100,131.687 232.516,131.435 232.932,131.185 233.349,130.936 233.765,130.688 234.181,130.441 234.597,130.195 235.014,129.950 235.430,129.706 235.846,129.464 236.262,129.223 236.678,128.982 237.095,128.743 237.511,128.505 237.927,128.268 238.343,128.032 238.759,127.797 239.176,127.563 239.592,127.331 240.008,127.099 240.424,126.868 240.840,126.639 241.257,126.410 241.673,126.182 242.089,125.956 242.505,125.730 242.921,125.506 243.338,125.282 243.754,125.059 244.170,124.838 244.586,124.617 245.003,124.397 245.419,124.179 245.835,123.961 246.251,123.744 246.667,123.528 247.084,123.313 247.500,123.099 247.916,122.886 248.332,122.674 248.748,122.462 249.165,122.252 249.581,122.042 249.997,121.834 250.413,121.626 250.829,121.419 251.246,121.213 251.662,121.008 252.078,120.804 252.494,120.600 252.910,120.398 253.327,120.196 253.743,119.995 254.159,119.795 254.575,119.596 254.991,119.398 255.408,119.200 255.824,119.004 256.240,118.808 256.656,118.613 257.073,118.418 257.489,118.225 257.905,118.032 258.321,117.840 258.737,117.649 259.154,117.459 259.570,117.269 259.986,117.080 260.402,116.892 260.818,116.705 261.235,116.518 261.651,116.333 262.067,116.148 262.483,115.963 262.899,115.780 263.316,115.597 263.732,115.415 264.148,115.233 264.564,115.053 264.980,114.873 265.397,114.693 265.813,114.515 266.229,114.337 266.645,114.160 267.062,113.983 267.478,113.808 267.894,113.633 268.310,113.458 268.726,113.284 269.143,113.111 269.559,112.939 269.975,112.767 270.391,112.596 270.807,112.426 271.224,112.256 271.640,112.087 272.056,111.919 272.472,111.751 272.888,111.584 273.305,111.417 273.721,111.251 274.137,111.086 274.553,110.921 274.969,110.757 275.386,110.594 275.802,110.431 276.218,110.269 276.634,110.107 277.051,109.946 277.467,109.786 277.883,109.626 278.299,109.467 278.715,109.308 279.132,109.150 279.548,108.993 279.964,108.836 280.380,108.680 280.796,108.524 281.213,108.369 281.629,108.215 282.045,108.061 282.461,107.907 282.877,107.754 283.294,107.602 283.710,107.450 284.126,107.299 284.542,107.149 284.958,106.998 285.375,106.849 285.791,106.700 286.207,106.551 286.623,106.403 287.040,106.256 287.456,106.109 287.872,105.963 288.288,105.817 288.704,105.672 289.121,105.527 289.537,105.382 289.953,105.239 290.369,105.095 290.785,104.953 291.202,104.810 291.618,104.668 292.034,104.527 292.450,104.386 292.866,104.246 293.283,104.106 293.699,103.967 294.115,103.828 294.531,103.690 294.947,103.552 295.364,103.414 295.780,103.278 296.196,103.141 296.612,103.005 297.029,102.870 297.445,102.734 297.861,102.600 298.277,102.466 298.693,102.332 299.110,102.199 299.526,102.066 299.942,101.934 300.358,101.802 300.774,101.670 301.191,101.539 301.607,101.409 302.023,101.279 302.439,101.149 302.855,101.020 303.272,100.891 303.688,100.763 304.104,100.635 304.520,100.507 304.936,100.380 305.353,100.253 305.769,100.127 306.185,100.001 306.601,99.876 307.018,99.751 307.434,99.626 307.850,99.502 308.266,99.378 308.682,99.255 309.099,99.132 309.515,99.009 309.931,98.887 310.347,98.765 310.763,98.644 311.180,98.523 311.596,98.402 312.012,98.282 312.428,98.162 312.844,98.043 313.261,97.924 313.677,97.805 314.093,97.687 314.509,97.569 314.925,97.452 315.342,97.334 315.758,97.218 316.174,97.101 316.590,96.985 317.007,96.869 317.423,96.754 317.839,96.639 318.255,96.525 318.671,96.410 319.088,96.297 319.504,96.183 319.920,96.070 320.336,95.957 320.752,95.845 321.169,95.733 321.585,95.621 322.001,95.509 322.417,95.398 322.833,95.288 323.250,95.177 323.666,95.067 324.082,94.958 324.498,94.848 324.914,94.739 325.331,94.631 325.747,94.522 326.163,94.414 326.579,94.307 326.995,94.199 327.412,94.092 327.828,93.986 328.244,93.879 328.660,93.773 329.077,93.667 329.493,93.562 329.909,93.457 330.325,93.352 330.741,93.248 331.158,93.144 331.574,93.040 331.990,92.936 332.406,92.833 332.822,92.730 333.239,92.628 333.655,92.525 334.071,92.423 334.487,92.322 334.903,92.220 335.320,92.119 335.736,92.018 336.152,91.918 336.568,91.818 336.984,91.718 337.401,91.618 337.817,91.519 338.233,91.420 338.649,91.321 339.066,91.223 339.482,91.125 339.898,91.027 340.314,90.929 340.730,90.832 341.147,90.735 341.563,90.638 341.979,90.542 342.395,90.446 342.811,90.350 343.228,90.254 343.644,90.159 344.060,90.064 344.476,89.969 344.892,89.874 345.309,89.780 345.725,89.686 346.141,89.592 346.557,89.499 346.973,89.406 347.390,89.313 347.806,89.220 348.222,89.128 348.638,89.036 349.055,88.944 349.471,88.852 349.887,88.761 350.303,88.670 350.719,88.579 351.136,88.488 351.552,88.398 351.968,88.308 352.384,88.218 352.800,88.129 353.217,88.039 353.633,87.950 354.049,87.861 354.465,87.773 354.881,87.684 355.298,87.596 355.714,87.509 356.130,87.421 356.546,87.334 356.962,87.246 357.379,87.160 357.795,87.073 358.211,86.987 358.627,86.900 359.044,86.814 359.460,86.729 359.876,86.643 360.292,86.558 360.708,86.473 361.125,86.388 361.541,86.304 361.957,86.219 362.373,86.135 362.789,86.051 363.206,85.968 363.622,85.884 364.038,85.801 364.454,85.718 364.870,85.635 365.287,85.553 365.703,85.471 366.119,85.389 366.535,85.307 366.951,85.225 367.368,85.144 367.784,85.062 368.200,84.981 368.616,84.901 369.033,84.820 369.449,84.740 369.865,84.660 370.281,84.580 370.697,84.500 371.114,84.421 371.530,84.341 371.946,84.262 372.362,84.183 372.778,84.105 373.195,84.026 373.611,83.948 374.027,83.870 374.443,83.792 374.859,83.714 375.276,83.637 375.692,83.560 376.108,83.483 376.524,83.406 376.940,83.329 377.357,83.253 377.773,83.176 378.189,83.100 378.605,83.024 379.022,82.949 379.438,82.873 379.854,82.798 380.270,82.723 380.686,82.648 381.103,82.573 381.519,82.499 381.935,82.424 382.351,82.350 382.767,82.276 383.184,82.202 383.600,82.129 384.016,82.055 384.432,81.982 384.848,81.909 385.265,81.836 385.681,81.764 386.097,81.691 386.513,81.619 386.929,81.547 387.346,81.475 387.762,81.403 388.178,81.332 388.594,81.260 389.011,81.189 389.427,81.118 389.843,81.047 390.259,80.976 390.675,80.906 391.092,80.835 391.508,80.765 391.924,80.695 392.340,80.625 392.756,80.556 393.173,80.486 393.589,80.417 394.005,80.348 394.421,80.279 394.837,80.210 395.254,80.141 395.670,80.073 396.086,80.005 396.502,79.936 396.918,79.869 397.335,79.801 397.751,79.733 398.167,79.666 398.583,79.598 398.999,79.531 399.416,79.464 399.832,79.397 400.248,79.331 400.664,79.264 401.081,79.198 401.497,79.132 401.913,79.066 402.329,79.000 402.745,78.934 403.162,78.868 403.578,78.803 403.994,78.738 404.410,78.673 404.826,78.608 405.243,78.543 405.659,78.478 406.075,78.414 406.491,78.350 406.907,78.285 407.324,78.221 407.740,78.157 408.156,78.094 408.572,78.030 408.988,77.967 409.405,77.904 409.821,77.840 410.237,77.777 410.653,77.715 411.070,77.652 411.486,77.589 411.902,77.527 412.318,77.465 412.734,77.403 413.151,77.341 413.567,77.279 413.983,77.217 414.399,77.156 414.815,77.094 415.232,77.033 415.648,76.972 416.064,76.911 416.480,76.850 416.896,76.789 417.313,76.729 417.729,76.669 418.145,76.608 418.561,76.548 418.977,76.488 419.394,76.428 419.810,76.369 420.226,76.309 420.642,76.250 421.059,76.190 421.475,76.131 421.891,76.072 422.307,76.013 422.723,75.954 423.140,75.896 423.556,75.837 423.972,75.779 424.388,75.721 424.804,75.662 425.221,75.604 425.637,75.547 426.053,75.489 426.469,75.431 426.885,75.374 427.302,75.316 427.718,75.259 428.134,75.202 428.550,75.145 428.966,75.088 429.383,75.032 429.799,74.975 430.215,74.919 430.631,74.862 431.048,74.806 431.464,74.750 431.880,74.694 432.296,74.638 432.712,74.583 433.129,74.527 433.545,74.471 433.961,74.416 434.377,74.361 434.793,74.306 435.210,74.251 435.626,74.196 436.042,74.141 436.458,74.087 436.874,74.032 437.291,73.978 437.707,73.923 438.123,73.869 438.539,73.815 438.955,73.761 439.372,73.708 439.788,73.654 440.204,73.600 440.620,73.547 441.037,73.494 441.453,73.440 441.869,73.387 442.285,73.334 442.701,73.281 443.118,73.229 443.534,73.176 443.950,73.123 444.366,73.071 444.782,73.019 445.199,72.966 445.615,72.914 446.031,72.862 446.447,72.810 446.863,72.759 447.280,72.707 447.696,72.655 448.112,72.604 448.528,72.553 448.944,72.502 449.361,72.450 449.777,72.399 450.193,72.348 450.609,72.298 451.026,72.247 451.442,72.196 451.858,72.146 452.274,72.096 452.690,72.045 453.107,71.995 453.523,71.945 453.939,71.895 454.355,71.845 454.771,71.796 455.188,71.746 455.604,71.696 456.020,71.647 456.436,71.598 456.852,71.548 457.269,71.499 457.685,71.450 458.101,71.401 458.517,71.353 458.933,71.304 459.350,71.255 459.766,71.207 460.182,71.158 460.598,71.110 461.015,71.062 461.431,71.014 461.847,70.966 462.263,70.918 462.679,70.870 463.096,70.822 463.512,70.775 463.928,70.727 464.344,70.680 464.760,70.632 465.177,70.585 465.593,70.538 466.009,70.491 466.425,70.444 466.841,70.397 467.258,70.350 467.674,70.303 468.090,70.257 468.506,70.210 468.922,70.164 469.339,70.118 469.755,70.071 470.171,70.025 470.587,69.979 471.004,69.933 471.420,69.888 471.836,69.842 472.252,69.796 472.668,69.751 473.085,69.705 473.501,69.660 473.917,69.614 474.333,69.569 474.749,69.524 475.166,69.479 475.582,69.434 475.998,69.389 476.414,69.344 476.830,69.300 477.247,69.255 477.663,69.211 478.079,69.166 478.495,69.122 478.911,69.078 479.328,69.034 479.744,68.989 480.160,68.946 480.576,68.902 480.992,68.858 481.409,68.814 481.825,68.770 482.241,68.727 482.657,68.683 483.074,68.640 483.490,68.597 483.906,68.554 484.322,68.510 484.738,68.467 485.155,68.424 485.571,68.381 485.987,68.339 486.403,68.296 486.819,68.253 487.236,68.211 487.652,68.168 488.068,68.126 488.484,68.084 488.900,68.041 489.317,67.999 489.733,67.957 490.149,67.915 490.565,67.873 490.981,67.831 491.398,67.790 491.814,67.748 492.230,67.706 492.646,67.665 493.063,67.624 493.479,67.582 493.895,67.541 494.311,67.500 494.727,67.459 495.144,67.418 495.560,67.377 495.976,67.336 496.392,67.295 496.808,67.254 497.225,67.213 497.641,67.173 498.057,67.132 498.473,67.092 498.889,67.052 499.306,67.011 499.722,66.971 500.138,66.931 500.554,66.891 500.970,66.851 501.387,66.811 501.803,66.771 502.219,66.732 502.635,66.692 503.052,66.652 503.468,66.613 503.884,66.573 504.300,66.534 504.716,66.495 505.133,66.455 505.549,66.416 505.965,66.377 506.381,66.338 506.797,66.299 507.214,66.260 507.630,66.221 508.046,66.183 508.462,66.144 508.878,66.105 509.295,66.067 509.711,66.028 510.127,65.990 510.543,65.952 510.959,65.913 511.376,65.875 511.792,65.837 512.208,65.799 512.624,65.761 513.041,65.723 513.457,65.685 513.873,65.648 514.289,65.610 514.705,65.572 515.122,65.535 515.538,65.497 515.954,65.460 516.370,65.423 516.786,65.385 517.203,65.348 517.619,65.311 518.035,65.274 518.451,65.237 518.867,65.200 519.284,65.163 519.700,65.126 520.116,65.089 520.532,65.053 520.948,65.016 521.365,64.980 521.781,64.943 522.197,64.907 522.613,64.870 523.030,64.834 523.446,64.798 523.862,64.762 524.278,64.725 524.694,64.689 525.111,64.653 525.527,64.618 525.943,64.582 526.359,64.546 526.775,64.510 527.192,64.474 527.608,64.439 528.024,64.403 528.440,64.368 528.856,64.332 529.273,64.297 529.689,64.262 530.105,64.227 530.521,64.191 530.937,64.156 531.354,64.121 531.770,64.086 532.186,64.051 532.602,64.017 533.019,63.982 533.435,63.947 533.851,63.912 534.267,63.878 534.683,63.843 535.100,63.809 535.516,63.774 535.932,63.740 536.348,63.706 536.764,63.671 537.181,63.637 537.597,63.603 538.013,63.569 538.429,63.535 538.845,63.501 539.262,63.467 539.678,63.433 540.094,63.399 540.510,63.366 540.926,63.332 541.343,63.298 541.759,63.265 542.175,63.231 542.591,63.198 543.008,63.164 543.424,63.131 543.840,63.098 544.256,63.065 544.672,63.031 545.089,62.998 545.505,62.965 545.921,62.932 546.337,62.899 546.753,62.866 547.170,62.834 547.586,62.801 548.002,62.768 548.418,62.735 548.834,62.703 549.251,62.670 549.667,62.638 550.083,62.605 550.499,62.573 550.915,62.541 551.332,62.508 551.748,62.476 552.164,62.444 552.580,62.412 552.996,62.380 553.413,62.348 553.829,62.316 554.245,62.284 554.661,62.252 555.078,62.220 555.494,62.188 555.910,62.157 556.326,62.125 556.742,62.094 557.159,62.062 557.575,62.031 557.991,61.999 558.407,61.968 558.823,61.936 559.240,61.905 559.656,61.874 560.072,61.843 560.488,61.812 560.904,61.781 561.321,61.749 561.737,61.719 562.153,61.688 562.569,61.657 562.985,61.626 563.402,61.595 563.818,61.564 564.234,61.534 564.650,61.503 565.067,61.473 565.483,61.442 565.899,61.412 566.315,61.381 566.731,61.351 567.148,61.321 567.564,61.290 567.980,61.260 568.396,61.230 568.812,61.200 569.229,61.170 569.645,61.140 570.061,61.110 570.477,61.080 570.893,61.050 571.310,61.020 571.726,60.990 572.142,60.960 572.558,60.931 572.974,60.901 573.391,60.872 573.807,60.842 574.223,60.813 574.639,60.783 575.056,60.754 575.472,60.724 575.888,60.695 576.304,60.666 576.720,60.637 577.137,60.607 577.553,60.578 577.969,60.549 578.385,60.520 578.801,60.491 579.218,60.462 579.634,60.433 580.050,60.404 580.466,60.376 580.882,60.347 581.299,60.318 581.715,60.290 582.131,60.261 582.547,60.232 582.963,60.204 583.380,60.175 583.796,60.147 584.212,60.118 584.628,60.090 585.045,60.062 585.461,60.034 585.877,60.005 586.293,59.977 586.709,59.949 587.126,59.921 587.542,59.893 587.958,59.865 588.374,59.837 588.790,59.809 589.207,59.781 589.623,59.753 590.039,59.726 590.455,59.698 590.871,59.670 591.288,59.642 591.704,59.615 592.120,59.587 592.536,59.560 592.952,59.532 593.369,59.505 593.785,59.477 594.201,59.450 594.617,59.423 595.034,59.396 595.450,59.368 595.866,59.341 596.282,59.314 596.698,59.287 597.115,59.260 597.531,59.233 597.947,59.206 598.363,59.179 598.779,59.152 599.196,59.125 599.612,59.098 600.028,59.072 600.444,59.045 600.860,59.018 601.277,58.991 601.693,58.965 602.109,58.938 602.525,58.912 602.941,58.885 603.358,58.859 603.774,58.832 604.190,58.806 604.606,58.780 605.023,58.753 605.439,58.727 605.855,58.701 606.271,58.675 606.687,58.649 607.104,58.623 607.520,58.596 607.936,58.570 608.352,58.544 608.768,58.519 609.185,58.493 609.601,58.467 610.017,58.441 610.433,58.415 610.849,58.389 611.266,58.364 611.682,58.338 612.098,58.312 612.514,58.287 612.930,58.261 613.347,58.236 613.763,58.210 614.179,58.185 614.595,58.160 615.012,58.134 615.428,58.109 615.844,58.084 616.260,58.058 616.676,58.033 617.093,58.008 617.509,57.983 617.925,57.958 618.341,57.933 618.757,57.908 619.174,57.883 619.590,57.858 620.006,57.833 620.422,57.808 620.838,57.783 621.255,57.758 621.671,57.733 622.087,57.709 622.503,57.684 622.919,57.659 623.336,57.635 623.752,57.610 624.168,57.586 624.584,57.561 625.001,57.537 625.417,57.512 625.833,57.488 626.249,57.463 626.665,57.439 627.082,57.415 627.498,57.390 627.914,57.366 628.330,57.342 628.746,57.318 629.163,57.294 629.579,57.270 629.995,57.246 630.411,57.222 630.827,57.198 631.244,57.174 631.660,57.150 632.076,57.126 632.492,57.102 632.908,57.078 633.325,57.054 633.741,57.031 634.157,57.007 634.573,56.983 634.989,56.960 635.406,56.936 635.822,56.912 636.238,56.889 636.654,56.865 637.071,56.842 637.487,56.818 637.903,56.795 638.319,56.772 638.735,56.748 639.152,56.725 639.568,56.702 639.984,56.678 640.400,56.655 640.816,56.632 641.233,56.609 641.649,56.586 642.065,56.563 642.481,56.540 642.897,56.517 643.314,56.494 643.730,56.471 644.146,56.448 644.562,56.425 644.978,56.402 645.395,56.379 645.811,56.357 646.227,56.334 646.643,56.311 647.060,56.288 647.476,56.266 647.892,56.243 648.308,56.220 648.724,56.198 649.141,56.175 649.557,56.153 649.973,56.130 650.389,56.108 650.805,56.086 651.222,56.063 651.638,56.041 652.054,56.019 652.470,55.996 652.886,55.974 653.303,55.952 653.719,55.930 654.135,55.907 654.551,55.885 654.967,55.863 655.384,55.841 655.800,55.819 656.216,55.797 656.632,55.775 657.049,55.753 657.465,55.731 657.881,55.709 658.297,55.688 658.713,55.666 659.130,55.644 659.546,55.622 659.962,55.600 660.378,55.579 660.794,55.557 661.211,55.535 661.627,55.514 662.043,55.492 662.459,55.471 662.875,55.449 663.292,55.428 663.708,55.406 664.124,55.385 664.540,55.363 664.956,55.342 665.373,55.321 665.789,55.299 666.205,55.278 666.621,55.257 667.038,55.235 667.454,55.214 667.870,55.193 668.286,55.172 668.702,55.151 669.119,55.130 669.535,55.109 669.951,55.088 670.367,55.067 670.783,55.046 671.200,55.025 671.616,55.004 672.032,54.983 672.448,54.962 672.864,54.941 673.281,54.920 673.697,54.900 674.113,54.879 674.529,54.858 674.945,54.837 675.362,54.817 675.778,54.796 676.194,54.775 676.610,54.755 677.027,54.734 677.443,54.714 677.859,54.693 678.275,54.673 678.691,54.652 679.108,54.632 679.524,54.612 679.940,54.591 680.356,54.571 680.772,54.551 681.189,54.530 681.605,54.510 682.021,54.490 682.437,54.470 682.853,54.449 683.270,54.429 683.686,54.409 684.102,54.389 684.518,54.369 684.934,54.349 685.351,54.329 685.767,54.309 686.183,54.289 686.599,54.269 687.016,54.249 687.432,54.229 687.848,54.209 688.264,54.189 688.680,54.170 689.097,54.150 689.513,54.130 689.929,54.110 690.345,54.091 690.761,54.071 691.178,54.051 691.594,54.032 692.010,54.012 692.426,53.992 692.842,53.973 693.259,53.953 693.675,53.934 694.091,53.914 694.507,53.895 694.923,53.876 695.340,53.856 695.756,53.837 696.172,53.817 696.588,53.798 697.005,53.779 697.421,53.760 697.837,53.740 698.253,53.721 698.669,53.702 699.086,53.683 699.502,53.664 699.918,53.644 700.334,53.625 700.750,53.606 701.167,53.587 701.583,53.568 701.999,53.549 702.415,53.530 702.831,53.511 703.248,53.492 703.664,53.473 704.080,53.454 704.496,53.436 704.912,53.417 705.329,53.398 705.745,53.379 706.161,53.360 706.577,53.342 706.993,53.323 707.410,53.304 707.826,53.286 708.242,53.267 708.658,53.248 709.075,53.230 709.491,53.211 709.907,53.193 710.323,53.174 710.739,53.156 711.156,53.137 711.572,53.119 711.988,53.100 712.404,53.082 712.820,53.063 713.237,53.045 713.653,53.027 714.069,53.008 714.485,52.990 714.901,52.972 715.318,52.954 715.734,52.935 716.150,52.917 716.566,52.899 716.982,52.881 717.399,52.863 717.815,52.845 718.231,52.827 718.647,52.809 719.064,52.791 719.480,52.772 719.896,52.754 720.312,52.737 720.728,52.719 721.145,52.701 721.561,52.683 721.977,52.665 722.393,52.647 722.809,52.629 723.226,52.611 723.642,52.594 724.058,52.576 724.474,52.558 724.890,52.540 725.307,52.523 725.723,52.505 726.139,52.487 726.555,52.470 726.971,52.452 727.388,52.434 727.804,52.417 728.220,52.399 728.636,52.382 729.053,52.364 729.469,52.347 729.885,52.329 730.301,52.312 730.717,52.294 731.134,52.277 731.550,52.260 731.966,52.242 732.382,52.225 732.798,52.208 733.215,52.190 733.631,52.173 734.047,52.156 734.463,52.139 734.879,52.121 735.296,52.104 735.712,52.087 736.128,52.070 736.544,52.053 736.960,52.036 737.377,52.019 737.793,52.001 738.209,51.984 738.625,51.967 739.042,51.950 739.458,51.933 739.874,51.916 740.290,51.900 740.706,51.883 741.123,51.866 741.539,51.849 741.955,51.832 742.371,51.815 742.787,51.798 743.204,51.782 743.620,51.765 744.036,51.748 744.452,51.731 744.868,51.715 745.285,51.698 745.701,51.681 746.117,51.664 746.533,51.648 746.949,51.631 747.366,51.615 747.782,51.598 748.198,51.582 748.614,51.565 749.031,51.548 749.447,51.532 749.863,51.515 750.279,51.499 750.695,51.483 751.112,51.466 751.528,51.450 751.944,51.433 752.360,51.417 752.776,51.401 753.193,51.384 753.609,51.368 754.025,51.352 754.441,51.336 754.857,51.319 755.274,51.303 755.690,51.287 756.106,51.271 756.522,51.255 756.938,51.238 757.355,51.222 757.771,51.206 758.187,51.190 758.603,51.174 759.020,51.158 759.436,51.142 759.852,51.126 760.268,51.110 760.684,51.094 761.101,51.078 761.517,51.062 761.933,51.046 762.349,51.030 762.765,51.014 763.182,50.998 763.598,50.983 764.014,50.967 764.430,50.951 764.846,50.935 765.263,50.919 765.679,50.904 766.095,50.888 766.511,50.872 766.927,50.857 767.344,50.841 767.760,50.825 768.176,50.810 768.592,50.794 769.009,50.778 769.425,50.763 769.841,50.747 770.257,50.732 770.673,50.716 771.090,50.701 771.506,50.685 771.922,50.670 772.338,50.654 772.754,50.639 773.171,50.623 773.587,50.608 774.003,50.592 774.419,50.577 774.835,50.562 775.252,50.546 775.668,50.531 776.084,50.516 776.500,50.500 776.916,50.485 777.333,50.470 777.749,50.455 778.165,50.440 778.581,50.424 778.997,50.409 779.414,50.394 779.830,50.379 780.246,50.364 780.662,50.349 781.079,50.334 781.495,50.318 781.911,50.303 782.327,50.288 782.743,50.273 783.160,50.258 783.576,50.243 783.992,50.228 784.408,50.213 784.824,50.198 785.241,50.184 785.657,50.169 786.073,50.154 786.489,50.139 786.905,50.124 787.322,50.109 787.738,50.094 788.154,50.080 788.570,50.065 788.986,50.050 789.403,50.035 789.819,50.021 790.235,50.006 790.651,49.991 791.068,49.976 791.484,49.962 791.900,49.947 792.316,49.932 792.732,49.918 793.149,49.903 793.565,49.889 793.981,49.874 794.397,49.860 794.813,49.845 795.230,49.831 795.646,49.816 796.062,49.802 796.478,49.787 796.894,49.773 797.311,49.758 797.727,49.744 798.143,49.729 798.559,49.715 798.975,49.701 799.392,49.686 799.808,49.672 800.224,49.658 800.640,49.643 801.057,49.629 801.473,49.615 801.889,49.600 802.305,49.586 802.721,49.572 803.138,49.558 803.554,49.543 803.970,49.529 804.386,49.515 804.802,49.501 805.219,49.487 805.635,49.473 806.051,49.459 806.467,49.445 806.883,49.430 807.300,49.416 807.716,49.402 808.132,49.388 808.548,49.374 808.964,49.360 809.381,49.346 809.797,49.332 810.213,49.318 810.629,49.304 811.046,49.291 811.462,49.277 811.878,49.263 812.294,49.249 812.710,49.235 813.127,49.221 813.543,49.207 813.959,49.194 814.375,49.180 814.791,49.166 815.208,49.152 815.624,49.138 816.040,49.125 816.456,49.111 816.872,49.097 817.289,49.084 817.705,49.070 818.121,49.056 818.537,49.043 818.953,49.029 819.370,49.015 819.786,49.002 820.202,48.988 820.618,48.975 821.035,48.961 821.451,48.948 821.867,48.934 822.283,48.920 822.699,48.907 823.116,48.893 823.532,48.880 823.948,48.867 824.364,48.853 824.780,48.840 825.197,48.826 825.613,48.813 826.029,48.799 826.445,48.786 826.861,48.773 827.278,48.759 827.694,48.746 828.110,48.733 828.526,48.719 828.942,48.706 829.359,48.693 829.775,48.680 830.191,48.666 830.607,48.653 831.024,48.640 831.440,48.627 831.856,48.614 832.272,48.600 832.688,48.587 833.105,48.574 833.521,48.561 833.937,48.548 834.353,48.535 834.769,48.522 835.186,48.509 835.602,48.496 836.018,48.483 836.434,48.470 836.850,48.457 837.267,48.443 837.683,48.431 838.099,48.418 838.515,48.405 838.931,48.392 839.348,48.379 839.764,48.366 840.180,48.353 840.596,48.340 841.013,48.327 841.429,48.314 841.845,48.301 842.261,48.289 842.677,48.276 843.094,48.263 843.510,48.250 843.926,48.237 844.342,48.225 844.758,48.212 845.175,48.199 845.591,48.186 846.007,48.174 846.423,48.161 846.839,48.148 847.256,48.136 847.672,48.123 848.088,48.110 848.504,48.098 848.920,48.085 849.337,48.072 849.753,48.060 850.169,48.047 850.585,48.035 851.002,48.022 851.418,48.010 851.834,47.997 852.250,47.984 852.666,47.972 853.083,47.959 853.499,47.947 853.915,47.935 854.331,47.922 854.747,47.910 855.164,47.897 855.580,47.885 855.996,47.872 856.412,47.860 856.828,47.848 857.245,47.835 857.661,47.823 858.077,47.811 858.493,47.798 858.909,47.786 859.326,47.774 859.742,47.761 860.158,47.749 860.574,47.737 860.990,47.725 861.407,47.712 861.823,47.700 862.239,47.688 862.655,47.676 863.072,47.664 863.488,47.651 863.904,47.639 864.320,47.627 864.736,47.615 865.153,47.603 865.569,47.591 865.985,47.579 866.401,47.566 866.817,47.554 867.234,47.542 867.650,47.530 868.066,47.518 868.482,47.506 868.898,47.494 869.315,47.482 869.731,47.470 870.147,47.458 870.563,47.446 870.979,47.434 871.396,47.422 871.812,47.410 872.228,47.399 872.644,47.387 873.061,47.375 873.477,47.363 873.893,47.351 874.309,47.339 874.725,47.327 875.142,47.315 875.558,47.304 875.974,47.292 876.390,47.280 876.806,47.268 877.223,47.257 877.639,47.245 878.055,47.233 878.471,47.221 878.887,47.210 879.304,47.198 879.720,47.186 880.136,47.174 880.552,47.163 880.968,47.151 881.385,47.139 881.801,47.128 882.217,47.116 882.633,47.105 883.050,47.093 883.466,47.081 883.882,47.070 884.298,47.058 884.714,47.047 885.131,47.035 885.547,47.024 885.963,47.012 886.379,47.001 886.795,46.989 887.212,46.978 887.628,46.966 888.044,46.955 888.460,46.943 888.876,46.932 889.293,46.920 889.709,46.909 890.125,46.897 890.541,46.886 890.957,46.875 891.374,46.863 891.790,46.852 892.206,46.841 892.622,46.829 893.039,46.818 893.455,46.807 893.871,46.795 894.287,46.784 894.703,46.773 895.120,46.761 895.536,46.750 895.952,46.739 896.368,46.728 896.784,46.716 897.201,46.705 897.617,46.694 898.033,46.683 898.449,46.672 898.865,46.660 899.282,46.649 899.698,46.638 900.114,46.627 900.530,46.616 900.946,46.605 901.363,46.594 901.779,46.583 902.195,46.571 902.611,46.560 903.028,46.549 903.444,46.538 903.860,46.527 904.276,46.516 904.692,46.505 905.109,46.494 905.525,46.483 905.941,46.472 906.357,46.461 906.773,46.450 907.190,46.439 907.606,46.428 908.022,46.417 908.438,46.406 908.854,46.396 909.271,46.385 909.687,46.374 910.103,46.363 910.519,46.352 910.935,46.341 911.352,46.330 911.768,46.319 912.184,46.309 912.600,46.298 913.017,46.287 913.433,46.276 913.849,46.265 914.265,46.255 914.681,46.244 915.098,46.233 915.514,46.222 915.930,46.212 916.346,46.201 916.762,46.190 917.179,46.180 917.595,46.169 918.011,46.158 918.427,46.147 918.843,46.137 919.260,46.126 919.676,46.115 920.092,46.105 920.508,46.094 920.924,46.084 921.341,46.073 921.757,46.062 922.173,46.052 922.589,46.041 923.006,46.031 923.422,46.020 923.838,46.010 924.254,45.999 924.670,45.989 925.087,45.978 925.503,45.968 925.919,45.957 926.335,45.947 926.751,45.936 927.168,45.926 927.584,45.915 928.000,45.905" fill="none" stroke="#6b7280" stroke-width="2.800" stroke-opacity="1.000" stroke-dasharray="9 7"/>
  </g>
  <rect x="96.000" y="24.000" width="832.000" height="368.000" fill="none" stroke="#3f3f46" stroke-width="1.8"/>
  <rect x="498.000" y="264.000" width="414.000" height="112.000" rx="6" ry="6" fill="#ffffff" fill-opacity="0.94" stroke="#000000" stroke-width="1.2"/>
  <line x1="512.000" y1="290.000" x2="552.000" y2="290.000" stroke="#000000" stroke-width="2.800" stroke-opacity="1.000"/>
  <text x="562.000" y="297.000" text-anchor="start" fill="#111827" font-family="'Lato', 'Avenir Next', 'Segoe UI', 'Helvetica Neue', sans-serif" font-size="20.0">Davis-Yin theoretical rate</text>
  <line x1="512.000" y1="320.000" x2="552.000" y2="320.000" stroke="#6b7280" stroke-width="2.800" stroke-opacity="1.000" stroke-dasharray="9 7"/>
  <text x="562.000" y="327.000" text-anchor="start" fill="#111827" font-family="'Lato', 'Avenir Next', 'Segoe UI', 'Helvetica Neue', sans-serif" font-size="20.0">Pedregosa-Gidel theoretical rate</text>
  <circle cx="532.000" cy="350.000" r="4.500" fill="#5fa8e8" fill-opacity="1.000"/>
  <text x="562.000" y="357.000" text-anchor="start" fill="#111827" font-family="'Lato', 'Avenir Next', 'Segoe UI', 'Helvetica Neue', sans-serif" font-size="20.0">AutoLyap</text>
  <line x1="96.000" y1="392.000" x2="96.000" y2="384.000" stroke="#3f3f46" stroke-width="1.4"/>
  <text x="96.000" y="438.000" text-anchor="middle" fill="#52525b" font-family="'Lato', 'Avenir Next', 'Segoe UI', 'Helvetica Neue', sans-serif" font-size="21">0</text>
  <line x1="262.400" y1="392.000" x2="262.400" y2="384.000" stroke="#3f3f46" stroke-width="1.4"/>
  <text x="262.400" y="438.000" text-anchor="middle" fill="#52525b" font-family="'Lato', 'Avenir Next', 'Segoe UI', 'Helvetica Neue', sans-serif" font-size="21">8</text>
  <line x1="428.800" y1="392.000" x2="428.800" y2="384.000" stroke="#3f3f46" stroke-width="1.4"/>
  <text x="428.800" y="438.000" text-anchor="middle" fill="#52525b" font-family="'Lato', 'Avenir Next', 'Segoe UI', 'Helvetica Neue', sans-serif" font-size="21">16</text>
  <line x1="595.200" y1="392.000" x2="595.200" y2="384.000" stroke="#3f3f46" stroke-width="1.4"/>
  <text x="595.200" y="438.000" text-anchor="middle" fill="#52525b" font-family="'Lato', 'Avenir Next', 'Segoe UI', 'Helvetica Neue', sans-serif" font-size="21">24</text>
  <line x1="761.600" y1="392.000" x2="761.600" y2="384.000" stroke="#3f3f46" stroke-width="1.4"/>
  <text x="761.600" y="438.000" text-anchor="middle" fill="#52525b" font-family="'Lato', 'Avenir Next', 'Segoe UI', 'Helvetica Neue', sans-serif" font-size="21">32</text>
  <line x1="928.000" y1="392.000" x2="928.000" y2="384.000" stroke="#3f3f46" stroke-width="1.4"/>
  <text x="928.000" y="438.000" text-anchor="middle" fill="#52525b" font-family="'Lato', 'Avenir Next', 'Segoe UI', 'Helvetica Neue', sans-serif" font-size="21">40</text>
  <line x1="104.000" y1="392.000" x2="96.000" y2="392.000" stroke="#3f3f46" stroke-width="1.4"/>
  <text x="82.000" y="399.000" text-anchor="end" fill="#52525b" font-family="'Lato', 'Avenir Next', 'Segoe UI', 'Helvetica Neue', sans-serif" font-size="21">0.2</text>
  <line x1="104.000" y1="346.000" x2="96.000" y2="346.000" stroke="#3f3f46" stroke-width="1.4"/>
  <text x="82.000" y="353.000" text-anchor="end" fill="#52525b" font-family="'Lato', 'Avenir Next', 'Segoe UI', 'Helvetica Neue', sans-serif" font-size="21">0.3</text>
  <line x1="104.000" y1="300.000" x2="96.000" y2="300.000" stroke="#3f3f46" stroke-width="1.4"/>
  <text x="82.000" y="307.000" text-anchor="end" fill="#52525b" font-family="'Lato', 'Avenir Next', 'Segoe UI', 'Helvetica Neue', sans-serif" font-size="21">0.4</text>
  <line x1="104.000" y1="254.000" x2="96.000" y2="254.000" stroke="#3f3f46" stroke-width="1.4"/>
  <text x="82.000" y="261.000" text-anchor="end" fill="#52525b" font-family="'Lato', 'Avenir Next', 'Segoe UI', 'Helvetica Neue', sans-serif" font-size="21">0.5</text>
  <line x1="104.000" y1="208.000" x2="96.000" y2="208.000" stroke="#3f3f46" stroke-width="1.4"/>
  <text x="82.000" y="215.000" text-anchor="end" fill="#52525b" font-family="'Lato', 'Avenir Next', 'Segoe UI', 'Helvetica Neue', sans-serif" font-size="21">0.6</text>
  <line x1="104.000" y1="162.000" x2="96.000" y2="162.000" stroke="#3f3f46" stroke-width="1.4"/>
  <text x="82.000" y="169.000" text-anchor="end" fill="#52525b" font-family="'Lato', 'Avenir Next', 'Segoe UI', 'Helvetica Neue', sans-serif" font-size="21">0.7</text>
  <line x1="104.000" y1="116.000" x2="96.000" y2="116.000" stroke="#3f3f46" stroke-width="1.4"/>
  <text x="82.000" y="123.000" text-anchor="end" fill="#52525b" font-family="'Lato', 'Avenir Next', 'Segoe UI', 'Helvetica Neue', sans-serif" font-size="21">0.8</text>
  <line x1="104.000" y1="70.000" x2="96.000" y2="70.000" stroke="#3f3f46" stroke-width="1.4"/>
  <text x="82.000" y="77.000" text-anchor="end" fill="#52525b" font-family="'Lato', 'Avenir Next', 'Segoe UI', 'Helvetica Neue', sans-serif" font-size="21">0.9</text>
  <line x1="104.000" y1="24.000" x2="96.000" y2="24.000" stroke="#3f3f46" stroke-width="1.4"/>
  <text x="82.000" y="31.000" text-anchor="end" fill="#52525b" font-family="'Lato', 'Avenir Next', 'Segoe UI', 'Helvetica Neue', sans-serif" font-size="21">1</text>
  <text x="512.000" y="470.000" text-anchor="middle" fill="#111827" font-family="'Lato', 'Avenir Next', 'Segoe UI', 'Helvetica Neue', sans-serif" font-size="28">L<tspan baseline-shift="sub" font-size="65%">1</tspan></text>
  <text x="30.0" y="208.000" text-anchor="middle" transform="rotate(0 30.0 208.000)" fill="#111827" font-family="'Lato', 'Avenir Next', 'Segoe UI', 'Helvetica Neue', sans-serif" font-size="28">ρ</text>
</svg>
