<?xml version="1.0" encoding="UTF-8"?>
<svg xmlns="http://www.w3.org/2000/svg" width="960" height="480" viewBox="0 0 960 480" role="img" aria-label="Douglas-Rachford rho versus lambda">
  <title>Douglas-Rachford contraction factor vs relaxation parameter</title>
  <desc>Rho vs lambda for Douglas-Rachford: theoretical curve and AutoLyap points.</desc>
  <rect x="0" y="0" width="960" height="480" fill="#ffffff"/>
  <rect x="96.000" y="24.000" width="832.000" height="368.000" fill="#f8fafc"/>
  <defs>
    <clipPath id="plot-area-clip">
      <rect x="96.000" y="24.000" width="832.000" height="368.000"/>
    </clipPath>
  </defs>
  <style type="text/css"><![CDATA[
@font-face {
  font-family: 'Lato';
  src:
    url('css/fonts/lato-normal.woff2') format('woff2'),
    url('../_static/css/fonts/lato-normal.woff2') format('woff2'),
    url('css/fonts/lato-normal.woff') format('woff'),
    url('../_static/css/fonts/lato-normal.woff') format('woff');
  font-style: normal;
  font-weight: 400;
}
@font-face {
  font-family: 'Lato';
  src:
    url('css/fonts/lato-normal-italic.woff2') format('woff2'),
    url('../_static/css/fonts/lato-normal-italic.woff2') format('woff2'),
    url('css/fonts/lato-normal-italic.woff') format('woff'),
    url('../_static/css/fonts/lato-normal-italic.woff') format('woff');
  font-style: italic;
  font-weight: 400;
}
@font-face {
  font-family: 'Lato';
  src:
    url('css/fonts/lato-bold.woff2') format('woff2'),
    url('../_static/css/fonts/lato-bold.woff2') format('woff2'),
    url('css/fonts/lato-bold.woff') format('woff'),
    url('../_static/css/fonts/lato-bold.woff') format('woff');
  font-style: normal;
  font-weight: 700;
}
@font-face {
  font-family: 'Lato';
  src:
    url('css/fonts/lato-bold-italic.woff2') format('woff2'),
    url('../_static/css/fonts/lato-bold-italic.woff2') format('woff2'),
    url('css/fonts/lato-bold-italic.woff') format('woff'),
    url('../_static/css/fonts/lato-bold-italic.woff') format('woff');
  font-style: italic;
  font-weight: 700;
}
  ]]></style>
  <line x1="96.000" y1="24.000" x2="96.000" y2="392.000" stroke="#9ca3af" stroke-width="1.350"/>
  <line x1="262.400" y1="24.000" x2="262.400" y2="392.000" stroke="#9ca3af" stroke-width="1.350"/>
  <line x1="428.800" y1="24.000" x2="428.800" y2="392.000" stroke="#9ca3af" stroke-width="1.350"/>
  <line x1="595.200" y1="24.000" x2="595.200" y2="392.000" stroke="#9ca3af" stroke-width="1.350"/>
  <line x1="761.600" y1="24.000" x2="761.600" y2="392.000" stroke="#9ca3af" stroke-width="1.350"/>
  <line x1="928.000" y1="24.000" x2="928.000" y2="392.000" stroke="#9ca3af" stroke-width="1.350"/>
  <line x1="96.000" y1="392.000" x2="928.000" y2="392.000" stroke="#9ca3af" stroke-width="1.350"/>
  <line x1="96.000" y1="346.000" x2="928.000" y2="346.000" stroke="#9ca3af" stroke-width="1.350"/>
  <line x1="96.000" y1="300.000" x2="928.000" y2="300.000" stroke="#9ca3af" stroke-width="1.350"/>
  <line x1="96.000" y1="254.000" x2="928.000" y2="254.000" stroke="#9ca3af" stroke-width="1.350"/>
  <line x1="96.000" y1="208.000" x2="928.000" y2="208.000" stroke="#9ca3af" stroke-width="1.350"/>
  <line x1="96.000" y1="162.000" x2="928.000" y2="162.000" stroke="#9ca3af" stroke-width="1.350"/>
  <line x1="96.000" y1="116.000" x2="928.000" y2="116.000" stroke="#9ca3af" stroke-width="1.350"/>
  <line x1="96.000" y1="70.000" x2="928.000" y2="70.000" stroke="#9ca3af" stroke-width="1.350"/>
  <line x1="96.000" y1="24.000" x2="928.000" y2="24.000" stroke="#9ca3af" stroke-width="1.350"/>
  <g clip-path="url(#plot-area-clip)">
    <g fill="#5fa8e8" fill-opacity="0.900">
    <circle cx="100.160" cy="28.016" r="4.500"/>
    <circle cx="108.480" cy="35.991" r="4.500"/>
    <circle cx="116.800" cy="43.891" r="4.500"/>
    <circle cx="125.120" cy="51.717" r="4.500"/>
    <circle cx="133.440" cy="59.467" r="4.500"/>
    <circle cx="141.760" cy="67.143" r="4.500"/>
    <circle cx="150.080" cy="74.744" r="4.500"/>
    <circle cx="158.400" cy="82.269" r="4.500"/>
    <circle cx="166.720" cy="89.720" r="4.500"/>
    <circle cx="175.040" cy="97.095" r="4.500"/>
    <circle cx="183.360" cy="104.395" r="4.500"/>
    <circle cx="191.680" cy="111.619" r="4.500"/>
    <circle cx="200.000" cy="118.769" r="4.500"/>
    <circle cx="208.320" cy="125.842" r="4.500"/>
    <circle cx="216.640" cy="132.840" r="4.500"/>
    <circle cx="224.960" cy="139.762" r="4.500"/>
    <circle cx="233.280" cy="146.609" r="4.500"/>
    <circle cx="241.600" cy="153.380" r="4.500"/>
    <circle cx="249.920" cy="160.074" r="4.500"/>
    <circle cx="258.240" cy="166.693" r="4.500"/>
    <circle cx="266.560" cy="173.235" r="4.500"/>
    <circle cx="274.880" cy="179.701" r="4.500"/>
    <circle cx="283.200" cy="186.090" r="4.500"/>
    <circle cx="291.520" cy="192.403" r="4.500"/>
    <circle cx="299.840" cy="198.638" r="4.500"/>
    <circle cx="308.160" cy="204.797" r="4.500"/>
    <circle cx="316.480" cy="210.878" r="4.500"/>
    <circle cx="324.800" cy="216.882" r="4.500"/>
    <circle cx="333.120" cy="222.809" r="4.500"/>
    <circle cx="341.440" cy="228.657" r="4.500"/>
    <circle cx="349.760" cy="234.427" r="4.500"/>
    <circle cx="358.080" cy="240.119" r="4.500"/>
    <circle cx="366.400" cy="245.732" r="4.500"/>
    <circle cx="374.720" cy="251.266" r="4.500"/>
    <circle cx="383.040" cy="256.720" r="4.500"/>
    <circle cx="391.360" cy="262.095" r="4.500"/>
    <circle cx="399.680" cy="267.389" r="4.500"/>
    <circle cx="408.000" cy="272.603" r="4.500"/>
    <circle cx="416.320" cy="277.735" r="4.500"/>
    <circle cx="424.640" cy="282.786" r="4.500"/>
    <circle cx="432.960" cy="287.754" r="4.500"/>
    <circle cx="441.280" cy="292.638" r="4.500"/>
    <circle cx="449.600" cy="297.439" r="4.500"/>
    <circle cx="457.920" cy="302.155" r="4.500"/>
    <circle cx="466.240" cy="306.786" r="4.500"/>
    <circle cx="474.560" cy="311.329" r="4.500"/>
    <circle cx="482.880" cy="315.785" r="4.500"/>
    <circle cx="491.200" cy="320.152" r="4.500"/>
    <circle cx="499.520" cy="324.427" r="4.500"/>
    <circle cx="507.840" cy="328.610" r="4.500"/>
    <circle cx="516.160" cy="332.699" r="4.500"/>
    <circle cx="524.480" cy="336.691" r="4.500"/>
    <circle cx="532.800" cy="340.585" r="4.500"/>
    <circle cx="541.120" cy="344.376" r="4.500"/>
    <circle cx="549.440" cy="348.062" r="4.500"/>
    <circle cx="557.760" cy="351.638" r="4.500"/>
    <circle cx="566.080" cy="355.102" r="4.500"/>
    <circle cx="574.400" cy="358.446" r="4.500"/>
    <circle cx="582.720" cy="361.664" r="4.500"/>
    <circle cx="591.040" cy="364.750" r="4.500"/>
    <circle cx="599.360" cy="367.693" r="4.500"/>
    <circle cx="607.680" cy="370.484" r="4.500"/>
    <circle cx="616.000" cy="373.107" r="4.500"/>
    <circle cx="624.320" cy="375.547" r="4.500"/>
    <circle cx="632.640" cy="377.781" r="4.500"/>
    <circle cx="640.960" cy="379.783" r="4.500"/>
    <circle cx="649.280" cy="381.518" r="4.500"/>
    <circle cx="657.600" cy="382.938" r="4.500"/>
    <circle cx="665.920" cy="383.981" r="4.500"/>
    <circle cx="674.240" cy="384.561" r="4.500"/>
    <circle cx="682.560" cy="384.553" r="4.500"/>
    <circle cx="690.880" cy="383.778" r="4.500"/>
    <circle cx="699.200" cy="381.957" r="4.500"/>
    <circle cx="707.520" cy="378.641" r="4.500"/>
    <circle cx="715.840" cy="373.056" r="4.500"/>
    <circle cx="724.160" cy="364.354" r="4.500"/>
    <circle cx="732.480" cy="354.786" r="4.500"/>
    <circle cx="740.800" cy="344.850" r="4.500"/>
    <circle cx="749.120" cy="334.546" r="4.500"/>
    <circle cx="757.440" cy="323.874" r="4.500"/>
    <circle cx="765.760" cy="312.834" r="4.500"/>
    <circle cx="774.080" cy="301.426" r="4.500"/>
    <circle cx="782.400" cy="289.650" r="4.500"/>
    <circle cx="790.720" cy="277.506" r="4.500"/>
    <circle cx="799.040" cy="264.994" r="4.500"/>
    <circle cx="807.360" cy="252.114" r="4.500"/>
    <circle cx="815.680" cy="238.866" r="4.500"/>
    <circle cx="824.000" cy="225.250" r="4.500"/>
    <circle cx="832.320" cy="211.266" r="4.500"/>
    <circle cx="840.640" cy="196.914" r="4.500"/>
    <circle cx="848.960" cy="182.194" r="4.500"/>
    <circle cx="857.280" cy="167.106" r="4.500"/>
    <circle cx="865.600" cy="151.650" r="4.500"/>
    <circle cx="873.920" cy="135.826" r="4.500"/>
    <circle cx="882.240" cy="119.634" r="4.500"/>
    <circle cx="890.560" cy="103.074" r="4.500"/>
    <circle cx="898.880" cy="86.146" r="4.500"/>
    <circle cx="907.200" cy="68.850" r="4.500"/>
    <circle cx="915.520" cy="51.186" r="4.500"/>
    <circle cx="923.840" cy="33.154" r="4.500"/>
    </g>
    <polyline points="96.000,24.000 96.000,24.000 96.167,24.161 96.333,24.322 96.500,24.483 96.666,24.644 96.833,24.805 96.999,24.966 97.165,25.127 97.332,25.288 97.498,25.448 97.665,25.609 97.831,25.770 97.998,25.931 98.164,26.091 98.330,26.252 98.497,26.413 98.663,26.573 98.830,26.734 98.996,26.894 99.163,27.055 99.329,27.215 99.496,27.375 99.662,27.536 99.828,27.696 99.995,27.857 100.161,28.017 100.328,28.177 100.494,28.337 100.661,28.498 100.827,28.658 100.993,28.818 101.160,28.978 101.326,29.138 101.493,29.298 101.659,29.458 101.826,29.618 101.992,29.778 102.158,29.938 102.325,30.098 102.491,30.258 102.658,30.418 102.824,30.578 102.991,30.737 103.157,30.897 103.323,31.057 103.490,31.217 103.656,31.376 103.823,31.536 103.989,31.695 104.156,31.855 104.322,32.015 104.489,32.174 104.655,32.334 104.821,32.493 104.988,32.653 105.154,32.812 105.321,32.971 105.487,33.131 105.654,33.290 105.820,33.449 105.986,33.608 106.153,33.768 106.319,33.927 106.486,34.086 106.652,34.245 106.819,34.404 106.985,34.563 107.151,34.722 107.318,34.881 107.484,35.040 107.651,35.199 107.817,35.358 107.984,35.517 108.150,35.676 108.316,35.835 108.483,35.994 108.649,36.152 108.816,36.311 108.982,36.470 109.149,36.629 109.315,36.787 109.481,36.946 109.648,37.104 109.814,37.263 109.981,37.422 110.147,37.580 110.314,37.739 110.480,37.897 110.647,38.055 110.813,38.214 110.979,38.372 111.146,38.530 111.312,38.689 111.479,38.847 111.645,39.005 111.812,39.163 111.978,39.322 112.144,39.480 112.311,39.638 112.477,39.796 112.644,39.954 112.810,40.112 112.977,40.270 113.143,40.428 113.309,40.586 113.476,40.744 113.642,40.902 113.809,41.060 113.975,41.217 114.142,41.375 114.308,41.533 114.474,41.691 114.641,41.848 114.807,42.006 114.974,42.164 115.140,42.321 115.307,42.479 115.473,42.636 115.640,42.794 115.806,42.951 115.972,43.109 116.139,43.266 116.305,43.424 116.472,43.581 116.638,43.738 116.805,43.896 116.971,44.053 117.137,44.210 117.304,44.367 117.470,44.525 117.637,44.682 117.803,44.839 117.970,44.996 118.136,45.153 118.302,45.310 118.469,45.467 118.635,45.624 118.802,45.781 118.968,45.938 119.135,46.095 119.301,46.252 119.467,46.408 119.634,46.565 119.800,46.722 119.967,46.879 120.133,47.035 120.300,47.192 120.466,47.349 120.633,47.505 120.799,47.662 120.965,47.818 121.132,47.975 121.298,48.132 121.465,48.288 121.631,48.444 121.798,48.601 121.964,48.757 122.130,48.914 122.297,49.070 122.463,49.226 122.630,49.382 122.796,49.539 122.963,49.695 123.129,49.851 123.295,50.007 123.462,50.163 123.628,50.319 123.795,50.475 123.961,50.631 124.128,50.787 124.294,50.943 124.460,51.099 124.627,51.255 124.793,51.411 124.960,51.567 125.126,51.723 125.293,51.878 125.459,52.034 125.626,52.190 125.792,52.346 125.958,52.501 126.125,52.657 126.291,52.812 126.458,52.968 126.624,53.124 126.791,53.279 126.957,53.435 127.123,53.590 127.290,53.745 127.456,53.901 127.623,54.056 127.789,54.211 127.956,54.367 128.122,54.522 128.288,54.677 128.455,54.832 128.621,54.988 128.788,55.143 128.954,55.298 129.121,55.453 129.287,55.608 129.453,55.763 129.620,55.918 129.786,56.073 129.953,56.228 130.119,56.383 130.286,56.538 130.452,56.693 130.619,56.847 130.785,57.002 130.951,57.157 131.118,57.312 131.284,57.466 131.451,57.621 131.617,57.776 131.784,57.930 131.950,58.085 132.116,58.239 132.283,58.394 132.449,58.548 132.616,58.703 132.782,58.857 132.949,59.012 133.115,59.166 133.281,59.320 133.448,59.475 133.614,59.629 133.781,59.783 133.947,59.937 134.114,60.092 134.280,60.246 134.446,60.400 134.613,60.554 134.779,60.708 134.946,60.862 135.112,61.016 135.279,61.170 135.445,61.324 135.611,61.478 135.778,61.632 135.944,61.786 136.111,61.940 136.277,62.093 136.444,62.247 136.610,62.401 136.777,62.555 136.943,62.708 137.109,62.862 137.276,63.016 137.442,63.169 137.609,63.323 137.775,63.476 137.942,63.630 138.108,63.783 138.274,63.937 138.441,64.090 138.607,64.243 138.774,64.397 138.940,64.550 139.107,64.703 139.273,64.857 139.439,65.010 139.606,65.163 139.772,65.316 139.939,65.469 140.105,65.622 140.272,65.776 140.438,65.929 140.604,66.082 140.771,66.235 140.937,66.388 141.104,66.540 141.270,66.693 141.437,66.846 141.603,66.999 141.770,67.152 141.936,67.305 142.102,67.457 142.269,67.610 142.435,67.763 142.602,67.915 142.768,68.068 142.935,68.221 143.101,68.373 143.267,68.526 143.434,68.678 143.600,68.831 143.767,68.983 143.933,69.136 144.100,69.288 144.266,69.440 144.432,69.593 144.599,69.745 144.765,69.897 144.932,70.049 145.098,70.202 145.265,70.354 145.431,70.506 145.597,70.658 145.764,70.810 145.930,70.962 146.097,71.114 146.263,71.266 146.430,71.418 146.596,71.570 146.763,71.722 146.929,71.874 147.095,72.026 147.262,72.178 147.428,72.329 147.595,72.481 147.761,72.633 147.928,72.785 148.094,72.936 148.260,73.088 148.427,73.240 148.593,73.391 148.760,73.543 148.926,73.694 149.093,73.846 149.259,73.997 149.425,74.149 149.592,74.300 149.758,74.451 149.925,74.603 150.091,74.754 150.258,74.905 150.424,75.056 150.590,75.208 150.757,75.359 150.923,75.510 151.090,75.661 151.256,75.812 151.423,75.963 151.589,76.114 151.756,76.265 151.922,76.416 152.088,76.567 152.255,76.718 152.421,76.869 152.588,77.020 152.754,77.171 152.921,77.322 153.087,77.472 153.253,77.623 153.420,77.774 153.586,77.924 153.753,78.075 153.919,78.226 154.086,78.376 154.252,78.527 154.418,78.677 154.585,78.828 154.751,78.978 154.918,79.129 155.084,79.279 155.251,79.429 155.417,79.580 155.583,79.730 155.750,79.880 155.916,80.031 156.083,80.181 156.249,80.331 156.416,80.481 156.582,80.631 156.749,80.781 156.915,80.932 157.081,81.082 157.248,81.232 157.414,81.382 157.581,81.532 157.747,81.681 157.914,81.831 158.080,81.981 158.246,82.131 158.413,82.281 158.579,82.431 158.746,82.580 158.912,82.730 159.079,82.880 159.245,83.029 159.411,83.179 159.578,83.329 159.744,83.478 159.911,83.628 160.077,83.777 160.244,83.927 160.410,84.076 160.576,84.226 160.743,84.375 160.909,84.524 161.076,84.674 161.242,84.823 161.409,84.972 161.575,85.121 161.741,85.271 161.908,85.420 162.074,85.569 162.241,85.718 162.407,85.867 162.574,86.016 162.740,86.165 162.907,86.314 163.073,86.463 163.239,86.612 163.406,86.761 163.572,86.910 163.739,87.059 163.905,87.207 164.072,87.356 164.238,87.505 164.404,87.654 164.571,87.802 164.737,87.951 164.904,88.100 165.070,88.248 165.237,88.397 165.403,88.545 165.569,88.694 165.736,88.842 165.902,88.991 166.069,89.139 166.235,89.288 166.402,89.436 166.568,89.584 166.734,89.733 166.901,89.881 167.067,90.029 167.234,90.177 167.400,90.326 167.567,90.474 167.733,90.622 167.900,90.770 168.066,90.918 168.232,91.066 168.399,91.214 168.565,91.362 168.732,91.510 168.898,91.658 169.065,91.806 169.231,91.953 169.397,92.101 169.564,92.249 169.730,92.397 169.897,92.545 170.063,92.692 170.230,92.840 170.396,92.988 170.562,93.135 170.729,93.283 170.895,93.430 171.062,93.578 171.228,93.725 171.395,93.873 171.561,94.020 171.727,94.168 171.894,94.315 172.060,94.462 172.227,94.610 172.393,94.757 172.560,94.904 172.726,95.051 172.893,95.199 173.059,95.346 173.225,95.493 173.392,95.640 173.558,95.787 173.725,95.934 173.891,96.081 174.058,96.228 174.224,96.375 174.390,96.522 174.557,96.669 174.723,96.816 174.890,96.962 175.056,97.109 175.223,97.256 175.389,97.403 175.555,97.549 175.722,97.696 175.888,97.843 176.055,97.989 176.221,98.136 176.388,98.282 176.554,98.429 176.720,98.575 176.887,98.722 177.053,98.868 177.220,99.015 177.386,99.161 177.553,99.307 177.719,99.454 177.886,99.600 178.052,99.746 178.218,99.892 178.385,100.039 178.551,100.185 178.718,100.331 178.884,100.477 179.051,100.623 179.217,100.769 179.383,100.915 179.550,101.061 179.716,101.207 179.883,101.353 180.049,101.499 180.216,101.645 180.382,101.791 180.548,101.936 180.715,102.082 180.881,102.228 181.048,102.374 181.214,102.519 181.381,102.665 181.547,102.811 181.713,102.956 181.880,103.102 182.046,103.247 182.213,103.393 182.379,103.538 182.546,103.684 182.712,103.829 182.879,103.974 183.045,104.120 183.211,104.265 183.378,104.410 183.544,104.556 183.711,104.701 183.877,104.846 184.044,104.991 184.210,105.136 184.376,105.281 184.543,105.427 184.709,105.572 184.876,105.717 185.042,105.862 185.209,106.007 185.375,106.151 185.541,106.296 185.708,106.441 185.874,106.586 186.041,106.731 186.207,106.876 186.374,107.020 186.540,107.165 186.706,107.310 186.873,107.454 187.039,107.599 187.206,107.744 187.372,107.888 187.539,108.033 187.705,108.177 187.871,108.322 188.038,108.466 188.204,108.611 188.371,108.755 188.537,108.899 188.704,109.044 188.870,109.188 189.037,109.332 189.203,109.476 189.369,109.621 189.536,109.765 189.702,109.909 189.869,110.053 190.035,110.197 190.202,110.341 190.368,110.485 190.534,110.629 190.701,110.773 190.867,110.917 191.034,111.061 191.200,111.205 191.367,111.349 191.533,111.492 191.699,111.636 191.866,111.780 192.032,111.924 192.199,112.067 192.365,112.211 192.532,112.355 192.698,112.498 192.864,112.642 193.031,112.785 193.197,112.929 193.364,113.072 193.530,113.216 193.697,113.359 193.863,113.503 194.030,113.646 194.196,113.789 194.362,113.933 194.529,114.076 194.695,114.219 194.862,114.362 195.028,114.505 195.195,114.649 195.361,114.792 195.527,114.935 195.694,115.078 195.860,115.221 196.027,115.364 196.193,115.507 196.360,115.650 196.526,115.793 196.692,115.935 196.859,116.078 197.025,116.221 197.192,116.364 197.358,116.507 197.525,116.649 197.691,116.792 197.857,116.935 198.024,117.077 198.190,117.220 198.357,117.363 198.523,117.505 198.690,117.648 198.856,117.790 199.023,117.933 199.189,118.075 199.355,118.217 199.522,118.360 199.688,118.502 199.855,118.644 200.021,118.787 200.188,118.929 200.354,119.071 200.520,119.213 200.687,119.355 200.853,119.497 201.020,119.640 201.186,119.782 201.353,119.924 201.519,120.066 201.685,120.208 201.852,120.350 202.018,120.491 202.185,120.633 202.351,120.775 202.518,120.917 202.684,121.059 202.850,121.200 203.017,121.342 203.183,121.484 203.350,121.626 203.516,121.767 203.683,121.909 203.849,122.050 204.016,122.192 204.182,122.333 204.348,122.475 204.515,122.616 204.681,122.758 204.848,122.899 205.014,123.041 205.181,123.182 205.347,123.323 205.513,123.464 205.680,123.606 205.846,123.747 206.013,123.888 206.179,124.029 206.346,124.170 206.512,124.311 206.678,124.452 206.845,124.594 207.011,124.734 207.178,124.875 207.344,125.016 207.511,125.157 207.677,125.298 207.843,125.439 208.010,125.580 208.176,125.721 208.343,125.861 208.509,126.002 208.676,126.143 208.842,126.283 209.009,126.424 209.175,126.565 209.341,126.705 209.508,126.846 209.674,126.986 209.841,127.127 210.007,127.267 210.174,127.408 210.340,127.548 210.506,127.688 210.673,127.829 210.839,127.969 211.006,128.109 211.172,128.250 211.339,128.390 211.505,128.530 211.671,128.670 211.838,128.810 212.004,128.950 212.171,129.090 212.337,129.230 212.504,129.370 212.670,129.510 212.836,129.650 213.003,129.790 213.169,129.930 213.336,130.070 213.502,130.210 213.669,130.350 213.835,130.489 214.001,130.629 214.168,130.769 214.334,130.908 214.501,131.048 214.667,131.188 214.834,131.327 215.000,131.467 215.167,131.606 215.333,131.746 215.499,131.885 215.666,132.025 215.832,132.164 215.999,132.303 216.165,132.443 216.332,132.582 216.498,132.721 216.664,132.861 216.831,133.000 216.997,133.139 217.164,133.278 217.330,133.417 217.497,133.556 217.663,133.695 217.829,133.834 217.996,133.973 218.162,134.112 218.329,134.251 218.495,134.390 218.662,134.529 218.828,134.668 218.994,134.807 219.161,134.946 219.327,135.084 219.494,135.223 219.660,135.362 219.827,135.500 219.993,135.639 220.160,135.778 220.326,135.916 220.492,136.055 220.659,136.193 220.825,136.332 220.992,136.470 221.158,136.609 221.325,136.747 221.491,136.885 221.657,137.024 221.824,137.162 221.990,137.300 222.157,137.439 222.323,137.577 222.490,137.715 222.656,137.853 222.822,137.991 222.989,138.129 223.155,138.267 223.322,138.405 223.488,138.543 223.655,138.681 223.821,138.819 223.987,138.957 224.154,139.095 224.320,139.233 224.487,139.371 224.653,139.509 224.820,139.646 224.986,139.784 225.153,139.922 225.319,140.059 225.485,140.197 225.652,140.335 225.818,140.472 225.985,140.610 226.151,140.747 226.318,140.885 226.484,141.022 226.650,141.160 226.817,141.297 226.983,141.434 227.150,141.572 227.316,141.709 227.483,141.846 227.649,141.984 227.815,142.121 227.982,142.258 228.148,142.395 228.315,142.532 228.481,142.669 228.648,142.806 228.814,142.943 228.980,143.080 229.147,143.217 229.313,143.354 229.480,143.491 229.646,143.628 229.813,143.765 229.979,143.902 230.146,144.039 230.312,144.175 230.478,144.312 230.645,144.449 230.811,144.585 230.978,144.722 231.144,144.859 231.311,144.995 231.477,145.132 231.643,145.268 231.810,145.405 231.976,145.541 232.143,145.678 232.309,145.814 232.476,145.950 232.642,146.087 232.808,146.223 232.975,146.359 233.141,146.495 233.308,146.632 233.474,146.768 233.641,146.904 233.807,147.040 233.973,147.176 234.140,147.312 234.306,147.448 234.473,147.584 234.639,147.720 234.806,147.856 234.972,147.992 235.139,148.128 235.305,148.264 235.471,148.400 235.638,148.535 235.804,148.671 235.971,148.807 236.137,148.943 236.304,149.078 236.470,149.214 236.636,149.349 236.803,149.485 236.969,149.621 237.136,149.756 237.302,149.892 237.469,150.027 237.635,150.162 237.801,150.298 237.968,150.433 238.134,150.569 238.301,150.704 238.467,150.839 238.634,150.974 238.800,151.110 238.966,151.245 239.133,151.380 239.299,151.515 239.466,151.650 239.632,151.785 239.799,151.920 239.965,152.055 240.131,152.190 240.298,152.325 240.464,152.460 240.631,152.595 240.797,152.730 240.964,152.864 241.130,152.999 241.297,153.134 241.463,153.269 241.629,153.403 241.796,153.538 241.962,153.673 242.129,153.807 242.295,153.942 242.462,154.076 242.628,154.211 242.794,154.345 242.961,154.480 243.127,154.614 243.294,154.749 243.460,154.883 243.627,155.017 243.793,155.152 243.959,155.286 244.126,155.420 244.292,155.554 244.459,155.688 244.625,155.823 244.792,155.957 244.958,156.091 245.124,156.225 245.291,156.359 245.457,156.493 245.624,156.627 245.790,156.761 245.957,156.895 246.123,157.028 246.290,157.162 246.456,157.296 246.622,157.430 246.789,157.564 246.955,157.697 247.122,157.831 247.288,157.965 247.455,158.098 247.621,158.232 247.787,158.366 247.954,158.499 248.120,158.633 248.287,158.766 248.453,158.899 248.620,159.033 248.786,159.166 248.952,159.300 249.119,159.433 249.285,159.566 249.452,159.699 249.618,159.833 249.785,159.966 249.951,160.099 250.117,160.232 250.284,160.365 250.450,160.498 250.617,160.631 250.783,160.764 250.950,160.897 251.116,161.030 251.283,161.163 251.449,161.296 251.615,161.429 251.782,161.562 251.948,161.695 252.115,161.827 252.281,161.960 252.448,162.093 252.614,162.226 252.780,162.358 252.947,162.491 253.113,162.623 253.280,162.756 253.446,162.889 253.613,163.021 253.779,163.153 253.945,163.286 254.112,163.418 254.278,163.551 254.445,163.683 254.611,163.815 254.778,163.948 254.944,164.080 255.110,164.212 255.277,164.344 255.443,164.476 255.610,164.609 255.776,164.741 255.943,164.873 256.109,165.005 256.276,165.137 256.442,165.269 256.608,165.401 256.775,165.533 256.941,165.665 257.108,165.796 257.274,165.928 257.441,166.060 257.607,166.192 257.773,166.324 257.940,166.455 258.106,166.587 258.273,166.719 258.439,166.850 258.606,166.982 258.772,167.113 258.938,167.245 259.105,167.376 259.271,167.508 259.438,167.639 259.604,167.771 259.771,167.902 259.937,168.033 260.103,168.165 260.270,168.296 260.436,168.427 260.603,168.558 260.769,168.690 260.936,168.821 261.102,168.952 261.269,169.083 261.435,169.214 261.601,169.345 261.768,169.476 261.934,169.607 262.101,169.738 262.267,169.869 262.434,170.000 262.600,170.131 262.766,170.261 262.933,170.392 263.099,170.523 263.266,170.654 263.432,170.784 263.599,170.915 263.765,171.046 263.931,171.176 264.098,171.307 264.264,171.437 264.431,171.568 264.597,171.698 264.764,171.829 264.930,171.959 265.096,172.090 265.263,172.220 265.429,172.350 265.596,172.481 265.762,172.611 265.929,172.741 266.095,172.871 266.261,173.002 266.428,173.132 266.594,173.262 266.761,173.392 266.927,173.522 267.094,173.652 267.260,173.782 267.427,173.912 267.593,174.042 267.759,174.172 267.926,174.302 268.092,174.431 268.259,174.561 268.425,174.691 268.592,174.821 268.758,174.950 268.924,175.080 269.091,175.210 269.257,175.339 269.424,175.469 269.590,175.599 269.757,175.728 269.923,175.858 270.089,175.987 270.256,176.117 270.422,176.246 270.589,176.375 270.755,176.505 270.922,176.634 271.088,176.763 271.254,176.893 271.421,177.022 271.587,177.151 271.754,177.280 271.920,177.409 272.087,177.538 272.253,177.668 272.420,177.797 272.586,177.926 272.752,178.055 272.919,178.183 273.085,178.312 273.252,178.441 273.418,178.570 273.585,178.699 273.751,178.828 273.917,178.957 274.084,179.085 274.250,179.214 274.417,179.343 274.583,179.471 274.750,179.600 274.916,179.729 275.082,179.857 275.249,179.986 275.415,180.114 275.582,180.243 275.748,180.371 275.915,180.499 276.081,180.628 276.247,180.756 276.414,180.884 276.580,181.013 276.747,181.141 276.913,181.269 277.080,181.397 277.246,181.526 277.413,181.654 277.579,181.782 277.745,181.910 277.912,182.038 278.078,182.166 278.245,182.294 278.411,182.422 278.578,182.550 278.744,182.678 278.910,182.805 279.077,182.933 279.243,183.061 279.410,183.189 279.576,183.317 279.743,183.444 279.909,183.572 280.075,183.700 280.242,183.827 280.408,183.955 280.575,184.082 280.741,184.210 280.908,184.337 281.074,184.465 281.240,184.592 281.407,184.719 281.573,184.847 281.740,184.974 281.906,185.101 282.073,185.229 282.239,185.356 282.406,185.483 282.572,185.610 282.738,185.738 282.905,185.865 283.071,185.992 283.238,186.119 283.404,186.246 283.571,186.373 283.737,186.500 283.903,186.627 284.070,186.754 284.236,186.880 284.403,187.007 284.569,187.134 284.736,187.261 284.902,187.388 285.068,187.514 285.235,187.641 285.401,187.768 285.568,187.894 285.734,188.021 285.901,188.147 286.067,188.274 286.233,188.400 286.400,188.527 286.566,188.653 286.733,188.780 286.899,188.906 287.066,189.033 287.232,189.159 287.399,189.285 287.565,189.411 287.731,189.538 287.898,189.664 288.064,189.790 288.231,189.916 288.397,190.042 288.564,190.168 288.730,190.294 288.896,190.420 289.063,190.546 289.229,190.672 289.396,190.798 289.562,190.924 289.729,191.050 289.895,191.176 290.061,191.301 290.228,191.427 290.394,191.553 290.561,191.679 290.727,191.804 290.894,191.930 291.060,192.056 291.226,192.181 291.393,192.307 291.559,192.432 291.726,192.558 291.892,192.683 292.059,192.809 292.225,192.934 292.391,193.059 292.558,193.185 292.724,193.310 292.891,193.435 293.057,193.561 293.224,193.686 293.390,193.811 293.557,193.936 293.723,194.061 293.889,194.186 294.056,194.311 294.222,194.436 294.389,194.561 294.555,194.686 294.722,194.811 294.888,194.936 295.054,195.061 295.221,195.186 295.387,195.311 295.554,195.435 295.720,195.560 295.887,195.685 296.053,195.810 296.219,195.934 296.386,196.059 296.552,196.183 296.719,196.308 296.885,196.433 297.052,196.557 297.218,196.681 297.384,196.806 297.551,196.930 297.717,197.055 297.884,197.179 298.050,197.303 298.217,197.428 298.383,197.552 298.550,197.676 298.716,197.800 298.882,197.925 299.049,198.049 299.215,198.173 299.382,198.297 299.548,198.421 299.715,198.545 299.881,198.669 300.047,198.793 300.214,198.917 300.380,199.041 300.547,199.164 300.713,199.288 300.880,199.412 301.046,199.536 301.212,199.660 301.379,199.783 301.545,199.907 301.712,200.031 301.878,200.154 302.045,200.278 302.211,200.401 302.377,200.525 302.544,200.648 302.710,200.772 302.877,200.895 303.043,201.019 303.210,201.142 303.376,201.265 303.543,201.389 303.709,201.512 303.875,201.635 304.042,201.758 304.208,201.881 304.375,202.005 304.541,202.128 304.708,202.251 304.874,202.374 305.040,202.497 305.207,202.620 305.373,202.743 305.540,202.866 305.706,202.989 305.873,203.111 306.039,203.234 306.205,203.357 306.372,203.480 306.538,203.603 306.705,203.725 306.871,203.848 307.038,203.971 307.204,204.093 307.370,204.216 307.537,204.338 307.703,204.461 307.870,204.583 308.036,204.706 308.203,204.828 308.369,204.951 308.536,205.073 308.702,205.195 308.868,205.318 309.035,205.440 309.201,205.562 309.368,205.685 309.534,205.807 309.701,205.929 309.867,206.051 310.033,206.173 310.200,206.295 310.366,206.417 310.533,206.539 310.699,206.661 310.866,206.783 311.032,206.905 311.198,207.027 311.365,207.149 311.531,207.271 311.698,207.392 311.864,207.514 312.031,207.636 312.197,207.757 312.363,207.879 312.530,208.001 312.696,208.122 312.863,208.244 313.029,208.365 313.196,208.487 313.362,208.608 313.529,208.730 313.695,208.851 313.861,208.973 314.028,209.094 314.194,209.215 314.361,209.337 314.527,209.458 314.694,209.579 314.860,209.700 315.026,209.821 315.193,209.943 315.359,210.064 315.526,210.185 315.692,210.306 315.859,210.427 316.025,210.548 316.191,210.669 316.358,210.790 316.524,210.911 316.691,211.031 316.857,211.152 317.024,211.273 317.190,211.394 317.356,211.515 317.523,211.635 317.689,211.756 317.856,211.877 318.022,211.997 318.189,212.118 318.355,212.238 318.521,212.359 318.688,212.479 318.854,212.600 319.021,212.720 319.187,212.841 319.354,212.961 319.520,213.081 319.687,213.202 319.853,213.322 320.019,213.442 320.186,213.562 320.352,213.682 320.519,213.803 320.685,213.923 320.852,214.043 321.018,214.163 321.184,214.283 321.351,214.403 321.517,214.523 321.684,214.643 321.850,214.763 322.017,214.882 322.183,215.002 322.349,215.122 322.516,215.242 322.682,215.362 322.849,215.481 323.015,215.601 323.182,215.721 323.348,215.840 323.514,215.960 323.681,216.079 323.847,216.199 324.014,216.318 324.180,216.438 324.347,216.557 324.513,216.677 324.680,216.796 324.846,216.915 325.012,217.035 325.179,217.154 325.345,217.273 325.512,217.392 325.678,217.512 325.845,217.631 326.011,217.750 326.177,217.869 326.344,217.988 326.510,218.107 326.677,218.226 326.843,218.345 327.010,218.464 327.176,218.583 327.342,218.702 327.509,218.820 327.675,218.939 327.842,219.058 328.008,219.177 328.175,219.295 328.341,219.414 328.507,219.533 328.674,219.651 328.840,219.770 329.007,219.889 329.173,220.007 329.340,220.126 329.506,220.244 329.673,220.363 329.839,220.481 330.005,220.599 330.172,220.718 330.338,220.836 330.505,220.954 330.671,221.072 330.838,221.191 331.004,221.309 331.170,221.427 331.337,221.545 331.503,221.663 331.670,221.781 331.836,221.899 332.003,222.017 332.169,222.135 332.335,222.253 332.502,222.371 332.668,222.489 332.835,222.607 333.001,222.725 333.168,222.842 333.334,222.960 333.500,223.078 333.667,223.196 333.833,223.313 334.000,223.431 334.166,223.548 334.333,223.666 334.499,223.783 334.666,223.901 334.832,224.018 334.998,224.136 335.165,224.253 335.331,224.371 335.498,224.488 335.664,224.605 335.831,224.723 335.997,224.840 336.163,224.957 336.330,225.074 336.496,225.191 336.663,225.309 336.829,225.426 336.996,225.543 337.162,225.660 337.328,225.777 337.495,225.894 337.661,226.011 337.828,226.128 337.994,226.244 338.161,226.361 338.327,226.478 338.493,226.595 338.660,226.712 338.826,226.828 338.993,226.945 339.159,227.062 339.326,227.178 339.492,227.295 339.659,227.411 339.825,227.528 339.991,227.644 340.158,227.761 340.324,227.877 340.491,227.994 340.657,228.110 340.824,228.226 340.990,228.343 341.156,228.459 341.323,228.575 341.489,228.691 341.656,228.808 341.822,228.924 341.989,229.040 342.155,229.156 342.321,229.272 342.488,229.388 342.654,229.504 342.821,229.620 342.987,229.736 343.154,229.852 343.320,229.968 343.486,230.084 343.653,230.199 343.819,230.315 343.986,230.431 344.152,230.547 344.319,230.662 344.485,230.778 344.651,230.894 344.818,231.009 344.984,231.125 345.151,231.240 345.317,231.356 345.484,231.471 345.650,231.587 345.817,231.702 345.983,231.818 346.149,231.933 346.316,232.048 346.482,232.163 346.649,232.279 346.815,232.394 346.982,232.509 347.148,232.624 347.314,232.739 347.481,232.854 347.647,232.970 347.814,233.085 347.980,233.200 348.147,233.314 348.313,233.429 348.479,233.544 348.646,233.659 348.812,233.774 348.979,233.889 349.145,234.004 349.312,234.118 349.478,234.233 349.644,234.348 349.811,234.462 349.977,234.577 350.144,234.692 350.310,234.806 350.477,234.921 350.643,235.035 350.810,235.150 350.976,235.264 351.142,235.378 351.309,235.493 351.475,235.607 351.642,235.721 351.808,235.836 351.975,235.950 352.141,236.064 352.307,236.178 352.474,236.293 352.640,236.407 352.807,236.521 352.973,236.635 353.140,236.749 353.306,236.863 353.472,236.977 353.639,237.091 353.805,237.205 353.972,237.318 354.138,237.432 354.305,237.546 354.471,237.660 354.637,237.774 354.804,237.887 354.970,238.001 355.137,238.115 355.303,238.228 355.470,238.342 355.636,238.455 355.803,238.569 355.969,238.682 356.135,238.796 356.302,238.909 356.468,239.023 356.635,239.136 356.801,239.249 356.968,239.363 357.134,239.476 357.300,239.589 357.467,239.702 357.633,239.815 357.800,239.929 357.966,240.042 358.133,240.155 358.299,240.268 358.465,240.381 358.632,240.494 358.798,240.607 358.965,240.720 359.131,240.833 359.298,240.945 359.464,241.058 359.630,241.171 359.797,241.284 359.963,241.397 360.130,241.509 360.296,241.622 360.463,241.735 360.629,241.847 360.796,241.960 360.962,242.072 361.128,242.185 361.295,242.297 361.461,242.410 361.628,242.522 361.794,242.635 361.961,242.747 362.127,242.859 362.293,242.971 362.460,243.084 362.626,243.196 362.793,243.308 362.959,243.420 363.126,243.532 363.292,243.645 363.458,243.757 363.625,243.869 363.791,243.981 363.958,244.093 364.124,244.205 364.291,244.316 364.457,244.428 364.623,244.540 364.790,244.652 364.956,244.764 365.123,244.876 365.289,244.987 365.456,245.099 365.622,245.211 365.789,245.322 365.955,245.434 366.121,245.545 366.288,245.657 366.454,245.768 366.621,245.880 366.787,245.991 366.954,246.103 367.120,246.214 367.286,246.325 367.453,246.437 367.619,246.548 367.786,246.659 367.952,246.770 368.119,246.882 368.285,246.993 368.451,247.104 368.618,247.215 368.784,247.326 368.951,247.437 369.117,247.548 369.284,247.659 369.450,247.770 369.616,247.881 369.783,247.992 369.949,248.103 370.116,248.213 370.282,248.324 370.449,248.435 370.615,248.546 370.781,248.656 370.948,248.767 371.114,248.878 371.281,248.988 371.447,249.099 371.614,249.209 371.780,249.320 371.947,249.430 372.113,249.541 372.279,249.651 372.446,249.761 372.612,249.872 372.779,249.982 372.945,250.092 373.112,250.202 373.278,250.313 373.444,250.423 373.611,250.533 373.777,250.643 373.944,250.753 374.110,250.863 374.277,250.973 374.443,251.083 374.609,251.193 374.776,251.303 374.942,251.413 375.109,251.523 375.275,251.632 375.442,251.742 375.608,251.852 375.774,251.962 375.941,252.071 376.107,252.181 376.274,252.291 376.440,252.400 376.607,252.510 376.773,252.619 376.940,252.729 377.106,252.838 377.272,252.948 377.439,253.057 377.605,253.167 377.772,253.276 377.938,253.385 378.105,253.494 378.271,253.604 378.437,253.713 378.604,253.822 378.770,253.931 378.937,254.040 379.103,254.149 379.270,254.259 379.436,254.368 379.602,254.477 379.769,254.585 379.935,254.694 380.102,254.803 380.268,254.912 380.435,255.021 380.601,255.130 380.767,255.239 380.934,255.347 381.100,255.456 381.267,255.565 381.433,255.673 381.600,255.782 381.766,255.890 381.933,255.999 382.099,256.108 382.265,256.216 382.432,256.324 382.598,256.433 382.765,256.541 382.931,256.650 383.098,256.758 383.264,256.866 383.430,256.974 383.597,257.083 383.763,257.191 383.930,257.299 384.096,257.407 384.263,257.515 384.429,257.623 384.595,257.731 384.762,257.839 384.928,257.947 385.095,258.055 385.261,258.163 385.428,258.271 385.594,258.379 385.760,258.487 385.927,258.594 386.093,258.702 386.260,258.810 386.426,258.918 386.593,259.025 386.759,259.133 386.926,259.240 387.092,259.348 387.258,259.455 387.425,259.563 387.591,259.670 387.758,259.778 387.924,259.885 388.091,259.993 388.257,260.100 388.423,260.207 388.590,260.314 388.756,260.422 388.923,260.529 389.089,260.636 389.256,260.743 389.422,260.850 389.588,260.957 389.755,261.064 389.921,261.171 390.088,261.278 390.254,261.385 390.421,261.492 390.587,261.599 390.753,261.706 390.920,261.813 391.086,261.920 391.253,262.026 391.419,262.133 391.586,262.240 391.752,262.346 391.919,262.453 392.085,262.560 392.251,262.666 392.418,262.773 392.584,262.879 392.751,262.986 392.917,263.092 393.084,263.198 393.250,263.305 393.416,263.411 393.583,263.517 393.749,263.624 393.916,263.730 394.082,263.836 394.249,263.942 394.415,264.048 394.581,264.155 394.748,264.261 394.914,264.367 395.081,264.473 395.247,264.579 395.414,264.685 395.580,264.790 395.746,264.896 395.913,265.002 396.079,265.108 396.246,265.214 396.412,265.320 396.579,265.425 396.745,265.531 396.911,265.637 397.078,265.742 397.244,265.848 397.411,265.953 397.577,266.059 397.744,266.164 397.910,266.270 398.077,266.375 398.243,266.481 398.409,266.586 398.576,266.691 398.742,266.797 398.909,266.902 399.075,267.007 399.242,267.112 399.408,267.218 399.574,267.323 399.741,267.428 399.907,267.533 400.074,267.638 400.240,267.743 400.407,267.848 400.573,267.953 400.739,268.058 400.906,268.163 401.072,268.267 401.239,268.372 401.405,268.477 401.572,268.582 401.738,268.687 401.904,268.791 402.071,268.896 402.237,269.001 402.404,269.105 402.570,269.210 402.737,269.314 402.903,269.419 403.070,269.523 403.236,269.628 403.402,269.732 403.569,269.836 403.735,269.941 403.902,270.045 404.068,270.149 404.235,270.253 404.401,270.358 404.567,270.462 404.734,270.566 404.900,270.670 405.067,270.774 405.233,270.878 405.400,270.982 405.566,271.086 405.732,271.190 405.899,271.294 406.065,271.398 406.232,271.502 406.398,271.605 406.565,271.709 406.731,271.813 406.897,271.917 407.064,272.020 407.230,272.124 407.397,272.228 407.563,272.331 407.730,272.435 407.896,272.538 408.063,272.642 408.229,272.745 408.395,272.849 408.562,272.952 408.728,273.055 408.895,273.159 409.061,273.262 409.228,273.365 409.394,273.469 409.560,273.572 409.727,273.675 409.893,273.778 410.060,273.881 410.226,273.984 410.393,274.087 410.559,274.190 410.725,274.293 410.892,274.396 411.058,274.499 411.225,274.602 411.391,274.705 411.558,274.807 411.724,274.910 411.890,275.013 412.057,275.116 412.223,275.218 412.390,275.321 412.556,275.424 412.723,275.526 412.889,275.629 413.056,275.731 413.222,275.834 413.388,275.936 413.555,276.039 413.721,276.141 413.888,276.243 414.054,276.346 414.221,276.448 414.387,276.550 414.553,276.652 414.720,276.754 414.886,276.857 415.053,276.959 415.219,277.061 415.386,277.163 415.552,277.265 415.718,277.367 415.885,277.469 416.051,277.571 416.218,277.673 416.384,277.774 416.551,277.876 416.717,277.978 416.883,278.080 417.050,278.182 417.216,278.283 417.383,278.385 417.549,278.487 417.716,278.588 417.882,278.690 418.049,278.791 418.215,278.893 418.381,278.994 418.548,279.096 418.714,279.197 418.881,279.298 419.047,279.400 419.214,279.501 419.380,279.602 419.546,279.703 419.713,279.805 419.879,279.906 420.046,280.007 420.212,280.108 420.379,280.209 420.545,280.310 420.711,280.411 420.878,280.512 421.044,280.613 421.211,280.714 421.377,280.815 421.544,280.916 421.710,281.016 421.876,281.117 422.043,281.218 422.209,281.319 422.376,281.419 422.542,281.520 422.709,281.621 422.875,281.721 423.041,281.822 423.208,281.922 423.374,282.023 423.541,282.123 423.707,282.224 423.874,282.324 424.040,282.424 424.207,282.525 424.373,282.625 424.539,282.725 424.706,282.825 424.872,282.925 425.039,283.026 425.205,283.126 425.372,283.226 425.538,283.326 425.704,283.426 425.871,283.526 426.037,283.626 426.204,283.726 426.370,283.826 426.537,283.925 426.703,284.025 426.869,284.125 427.036,284.225 427.202,284.324 427.369,284.424 427.535,284.524 427.702,284.623 427.868,284.723 428.034,284.823 428.201,284.922 428.367,285.022 428.534,285.121 428.700,285.220 428.867,285.320 429.033,285.419 429.200,285.518 429.366,285.618 429.532,285.717 429.699,285.816 429.865,285.915 430.032,286.015 430.198,286.114 430.365,286.213 430.531,286.312 430.697,286.411 430.864,286.510 431.030,286.609 431.197,286.708 431.363,286.807 431.530,286.905 431.696,287.004 431.862,287.103 432.029,287.202 432.195,287.300 432.362,287.399 432.528,287.498 432.695,287.596 432.861,287.695 433.027,287.794 433.194,287.892 433.360,287.991 433.527,288.089 433.693,288.187 433.860,288.286 434.026,288.384 434.193,288.483 434.359,288.581 434.525,288.679 434.692,288.777 434.858,288.875 435.025,288.974 435.191,289.072 435.358,289.170 435.524,289.268 435.690,289.366 435.857,289.464 436.023,289.562 436.190,289.660 436.356,289.758 436.523,289.856 436.689,289.953 436.855,290.051 437.022,290.149 437.188,290.247 437.355,290.344 437.521,290.442 437.688,290.540 437.854,290.637 438.020,290.735 438.187,290.832 438.353,290.930 438.520,291.027 438.686,291.125 438.853,291.222 439.019,291.319 439.186,291.417 439.352,291.514 439.518,291.611 439.685,291.708 439.851,291.806 440.018,291.903 440.184,292.000 440.351,292.097 440.517,292.194 440.683,292.291 440.850,292.388 441.016,292.485 441.183,292.582 441.349,292.679 441.516,292.776 441.682,292.872 441.848,292.969 442.015,293.066 442.181,293.163 442.348,293.259 442.514,293.356 442.681,293.453 442.847,293.549 443.013,293.646 443.180,293.742 443.346,293.839 443.513,293.935 443.679,294.032 443.846,294.128 444.012,294.224 444.179,294.321 444.345,294.417 444.511,294.513 444.678,294.609 444.844,294.705 445.011,294.802 445.177,294.898 445.344,294.994 445.510,295.090 445.676,295.186 445.843,295.282 446.009,295.378 446.176,295.474 446.342,295.569 446.509,295.665 446.675,295.761 446.841,295.857 447.008,295.953 447.174,296.048 447.341,296.144 447.507,296.240 447.674,296.335 447.840,296.431 448.006,296.526 448.173,296.622 448.339,296.717 448.506,296.813 448.672,296.908 448.839,297.004 449.005,297.099 449.171,297.194 449.338,297.289 449.504,297.385 449.671,297.480 449.837,297.575 450.004,297.670 450.170,297.765 450.337,297.860 450.503,297.955 450.669,298.050 450.836,298.145 451.002,298.240 451.169,298.335 451.335,298.430 451.502,298.525 451.668,298.620 451.834,298.714 452.001,298.809 452.167,298.904 452.334,298.998 452.500,299.093 452.667,299.188 452.833,299.282 452.999,299.377 453.166,299.471 453.332,299.566 453.499,299.660 453.665,299.754 453.832,299.849 453.998,299.943 454.164,300.037 454.331,300.131 454.497,300.226 454.664,300.320 454.830,300.414 454.997,300.508 455.163,300.602 455.330,300.696 455.496,300.790 455.662,300.884 455.829,300.978 455.995,301.072 456.162,301.166 456.328,301.260 456.495,301.354 456.661,301.447 456.827,301.541 456.994,301.635 457.160,301.728 457.327,301.822 457.493,301.916 457.660,302.009 457.826,302.103 457.992,302.196 458.159,302.290 458.325,302.383 458.492,302.476 458.658,302.570 458.825,302.663 458.991,302.756 459.157,302.850 459.324,302.943 459.490,303.036 459.657,303.129 459.823,303.222 459.990,303.315 460.156,303.408 460.323,303.501 460.489,303.594 460.655,303.687 460.822,303.780 460.988,303.873 461.155,303.966 461.321,304.059 461.488,304.151 461.654,304.244 461.820,304.337 461.987,304.430 462.153,304.522 462.320,304.615 462.486,304.707 462.653,304.800 462.819,304.892 462.985,304.985 463.152,305.077 463.318,305.170 463.485,305.262 463.651,305.354 463.818,305.447 463.984,305.539 464.150,305.631 464.317,305.723 464.483,305.815 464.650,305.907 464.816,306.000 464.983,306.092 465.149,306.184 465.316,306.276 465.482,306.368 465.648,306.459 465.815,306.551 465.981,306.643 466.148,306.735 466.314,306.827 466.481,306.918 466.647,307.010 466.813,307.102 466.980,307.193 467.146,307.285 467.313,307.377 467.479,307.468 467.646,307.560 467.812,307.651 467.978,307.742 468.145,307.834 468.311,307.925 468.478,308.016 468.644,308.108 468.811,308.199 468.977,308.290 469.143,308.381 469.310,308.473 469.476,308.564 469.643,308.655 469.809,308.746 469.976,308.837 470.142,308.928 470.309,309.019 470.475,309.109 470.641,309.200 470.808,309.291 470.974,309.382 471.141,309.473 471.307,309.563 471.474,309.654 471.640,309.745 471.806,309.835 471.973,309.926 472.139,310.017 472.306,310.107 472.472,310.197 472.639,310.288 472.805,310.378 472.971,310.469 473.138,310.559 473.304,310.649 473.471,310.740 473.637,310.830 473.804,310.920 473.970,311.010 474.136,311.100 474.303,311.190 474.469,311.280 474.636,311.370 474.802,311.460 474.969,311.550 475.135,311.640 475.301,311.730 475.468,311.820 475.634,311.910 475.801,312.000 475.967,312.089 476.134,312.179 476.300,312.269 476.467,312.358 476.633,312.448 476.799,312.537 476.966,312.627 477.132,312.716 477.299,312.806 477.465,312.895 477.632,312.985 477.798,313.074 477.964,313.163 478.131,313.253 478.297,313.342 478.464,313.431 478.630,313.520 478.797,313.609 478.963,313.698 479.129,313.788 479.296,313.877 479.462,313.966 479.629,314.055 479.795,314.143 479.962,314.232 480.128,314.321 480.294,314.410 480.461,314.499 480.627,314.588 480.794,314.676 480.960,314.765 481.127,314.854 481.293,314.942 481.460,315.031 481.626,315.119 481.792,315.208 481.959,315.296 482.125,315.385 482.292,315.473 482.458,315.561 482.625,315.650 482.791,315.738 482.957,315.826 483.124,315.914 483.290,316.003 483.457,316.091 483.623,316.179 483.790,316.267 483.956,316.355 484.122,316.443 484.289,316.531 484.455,316.619 484.622,316.707 484.788,316.795 484.955,316.882 485.121,316.970 485.287,317.058 485.454,317.146 485.620,317.233 485.787,317.321 485.953,317.408 486.120,317.496 486.286,317.584 486.453,317.671 486.619,317.758 486.785,317.846 486.952,317.933 487.118,318.021 487.285,318.108 487.451,318.195 487.618,318.282 487.784,318.370 487.950,318.457 488.117,318.544 488.283,318.631 488.450,318.718 488.616,318.805 488.783,318.892 488.949,318.979 489.115,319.066 489.282,319.153 489.448,319.240 489.615,319.327 489.781,319.413 489.948,319.500 490.114,319.587 490.280,319.673 490.447,319.760 490.613,319.847 490.780,319.933 490.946,320.020 491.113,320.106 491.279,320.193 491.446,320.279 491.612,320.365 491.778,320.452 491.945,320.538 492.111,320.624 492.278,320.711 492.444,320.797 492.611,320.883 492.777,320.969 492.943,321.055 493.110,321.141 493.276,321.227 493.443,321.313 493.609,321.399 493.776,321.485 493.942,321.571 494.108,321.657 494.275,321.742 494.441,321.828 494.608,321.914 494.774,322.000 494.941,322.085 495.107,322.171 495.273,322.256 495.440,322.342 495.606,322.427 495.773,322.513 495.939,322.598 496.106,322.684 496.272,322.769 496.439,322.854 496.605,322.940 496.771,323.025 496.938,323.110 497.104,323.195 497.271,323.280 497.437,323.365 497.604,323.450 497.770,323.535 497.936,323.620 498.103,323.705 498.269,323.790 498.436,323.875 498.602,323.960 498.769,324.045 498.935,324.130 499.101,324.214 499.268,324.299 499.434,324.384 499.601,324.468 499.767,324.553 499.934,324.637 500.100,324.722 500.266,324.806 500.433,324.891 500.599,324.975 500.766,325.059 500.932,325.144 501.099,325.228 501.265,325.312 501.431,325.396 501.598,325.481 501.764,325.565 501.931,325.649 502.097,325.733 502.264,325.817 502.430,325.901 502.597,325.985 502.763,326.069 502.929,326.153 503.096,326.236 503.262,326.320 503.429,326.404 503.595,326.488 503.762,326.571 503.928,326.655 504.094,326.739 504.261,326.822 504.427,326.906 504.594,326.989 504.760,327.073 504.927,327.156 505.093,327.240 505.259,327.323 505.426,327.406 505.592,327.489 505.759,327.573 505.925,327.656 506.092,327.739 506.258,327.822 506.424,327.905 506.591,327.988 506.757,328.071 506.924,328.154 507.090,328.237 507.257,328.320 507.423,328.403 507.590,328.486 507.756,328.569 507.922,328.651 508.089,328.734 508.255,328.817 508.422,328.899 508.588,328.982 508.755,329.064 508.921,329.147 509.087,329.229 509.254,329.312 509.420,329.394 509.587,329.477 509.753,329.559 509.920,329.641 510.086,329.724 510.252,329.806 510.419,329.888 510.585,329.970 510.752,330.052 510.918,330.134 511.085,330.216 511.251,330.298 511.417,330.380 511.584,330.462 511.750,330.544 511.917,330.626 512.083,330.708 512.250,330.789 512.416,330.871 512.583,330.953 512.749,331.034 512.915,331.116 513.082,331.198 513.248,331.279 513.415,331.361 513.581,331.442 513.748,331.523 513.914,331.605 514.080,331.686 514.247,331.767 514.413,331.849 514.580,331.930 514.746,332.011 514.913,332.092 515.079,332.173 515.245,332.254 515.412,332.335 515.578,332.416 515.745,332.497 515.911,332.578 516.078,332.659 516.244,332.740 516.410,332.821 516.577,332.902 516.743,332.982 516.910,333.063 517.076,333.144 517.243,333.224 517.409,333.305 517.576,333.385 517.742,333.466 517.908,333.546 518.075,333.627 518.241,333.707 518.408,333.787 518.574,333.868 518.741,333.948 518.907,334.028 519.073,334.108 519.240,334.188 519.406,334.268 519.573,334.348 519.739,334.429 519.906,334.508 520.072,334.588 520.238,334.668 520.405,334.748 520.571,334.828 520.738,334.908 520.904,334.988 521.071,335.067 521.237,335.147 521.403,335.227 521.570,335.306 521.736,335.386 521.903,335.465 522.069,335.545 522.236,335.624 522.402,335.703 522.569,335.783 522.735,335.862 522.901,335.941 523.068,336.021 523.234,336.100 523.401,336.179 523.567,336.258 523.734,336.337 523.900,336.416 524.066,336.495 524.233,336.574 524.399,336.653 524.566,336.732 524.732,336.811 524.899,336.890 525.065,336.968 525.231,337.047 525.398,337.126 525.564,337.204 525.731,337.283 525.897,337.362 526.064,337.440 526.230,337.519 526.396,337.597 526.563,337.675 526.729,337.754 526.896,337.832 527.062,337.910 527.229,337.989 527.395,338.067 527.561,338.145 527.728,338.223 527.894,338.301 528.061,338.379 528.227,338.457 528.394,338.535 528.560,338.613 528.727,338.691 528.893,338.769 529.059,338.847 529.226,338.924 529.392,339.002 529.559,339.080 529.725,339.157 529.892,339.235 530.058,339.313 530.224,339.390 530.391,339.468 530.557,339.545 530.724,339.622 530.890,339.700 531.057,339.777 531.223,339.854 531.389,339.932 531.556,340.009 531.722,340.086 531.889,340.163 532.055,340.240 532.222,340.317 532.388,340.394 532.554,340.471 532.721,340.548 532.887,340.625 533.054,340.702 533.220,340.779 533.387,340.855 533.553,340.932 533.720,341.009 533.886,341.085 534.052,341.162 534.219,341.238 534.385,341.315 534.552,341.391 534.718,341.468 534.885,341.544 535.051,341.620 535.217,341.697 535.384,341.773 535.550,341.849 535.717,341.925 535.883,342.002 536.050,342.078 536.216,342.154 536.382,342.230 536.549,342.306 536.715,342.382 536.882,342.457 537.048,342.533 537.215,342.609 537.381,342.685 537.547,342.761 537.714,342.836 537.880,342.912 538.047,342.987 538.213,343.063 538.380,343.139 538.546,343.214 538.713,343.289 538.879,343.365 539.045,343.440 539.212,343.515 539.378,343.591 539.545,343.666 539.711,343.741 539.878,343.816 540.044,343.891 540.210,343.966 540.377,344.041 540.543,344.116 540.710,344.191 540.876,344.266 541.043,344.341 541.209,344.416 541.375,344.491 541.542,344.565 541.708,344.640 541.875,344.715 542.041,344.789 542.208,344.864 542.374,344.938 542.540,345.013 542.707,345.087 542.873,345.161 543.040,345.236 543.206,345.310 543.373,345.384 543.539,345.458 543.706,345.533 543.872,345.607 544.038,345.681 544.205,345.755 544.371,345.829 544.538,345.903 544.704,345.977 544.871,346.051 545.037,346.124 545.203,346.198 545.370,346.272 545.536,346.346 545.703,346.419 545.869,346.493 546.036,346.566 546.202,346.640 546.368,346.713 546.535,346.787 546.701,346.860 546.868,346.934 547.034,347.007 547.201,347.080 547.367,347.153 547.533,347.227 547.700,347.300 547.866,347.373 548.033,347.446 548.199,347.519 548.366,347.592 548.532,347.665 548.699,347.738 548.865,347.810 549.031,347.883 549.198,347.956 549.364,348.029 549.531,348.101 549.697,348.174 549.864,348.246 550.030,348.319 550.196,348.391 550.363,348.464 550.529,348.536 550.696,348.609 550.862,348.681 551.029,348.753 551.195,348.825 551.361,348.898 551.528,348.970 551.694,349.042 551.861,349.114 552.027,349.186 552.194,349.258 552.360,349.330 552.526,349.402 552.693,349.473 552.859,349.545 553.026,349.617 553.192,349.689 553.359,349.760 553.525,349.832 553.691,349.903 553.858,349.975 554.024,350.046 554.191,350.118 554.357,350.189 554.524,350.260 554.690,350.332 554.857,350.403 555.023,350.474 555.189,350.545 555.356,350.616 555.522,350.687 555.689,350.758 555.855,350.829 556.022,350.900 556.188,350.971 556.354,351.042 556.521,351.113 556.687,351.184 556.854,351.254 557.020,351.325 557.187,351.396 557.353,351.466 557.519,351.537 557.686,351.607 557.852,351.678 558.019,351.748 558.185,351.818 558.352,351.889 558.518,351.959 558.684,352.029 558.851,352.099 559.017,352.169 559.184,352.239 559.350,352.309 559.517,352.379 559.683,352.449 559.850,352.519 560.016,352.589 560.182,352.659 560.349,352.728 560.515,352.798 560.682,352.868 560.848,352.937 561.015,353.007 561.181,353.076 561.347,353.146 561.514,353.215 561.680,353.285 561.847,353.354 562.013,353.423 562.180,353.493 562.346,353.562 562.512,353.631 562.679,353.700 562.845,353.769 563.012,353.838 563.178,353.907 563.345,353.976 563.511,354.045 563.677,354.114 563.844,354.182 564.010,354.251 564.177,354.320 564.343,354.388 564.510,354.457 564.676,354.525 564.843,354.594 565.009,354.662 565.175,354.731 565.342,354.799 565.508,354.867 565.675,354.936 565.841,355.004 566.008,355.072 566.174,355.140 566.340,355.208 566.507,355.276 566.673,355.344 566.840,355.412 567.006,355.480 567.173,355.548 567.339,355.615 567.505,355.683 567.672,355.751 567.838,355.818 568.005,355.886 568.171,355.953 568.338,356.021 568.504,356.088 568.670,356.156 568.837,356.223 569.003,356.290 569.170,356.358 569.336,356.425 569.503,356.492 569.669,356.559 569.836,356.626 570.002,356.693 570.168,356.760 570.335,356.827 570.501,356.894 570.668,356.961 570.834,357.027 571.001,357.094 571.167,357.161 571.333,357.227 571.500,357.294 571.666,357.360 571.833,357.427 571.999,357.493 572.166,357.560 572.332,357.626 572.498,357.692 572.665,357.758 572.831,357.824 572.998,357.891 573.164,357.957 573.331,358.023 573.497,358.089 573.663,358.154 573.830,358.220 573.996,358.286 574.163,358.352 574.329,358.418 574.496,358.483 574.662,358.549 574.829,358.614 574.995,358.680 575.161,358.745 575.328,358.811 575.494,358.876 575.661,358.941 575.827,359.007 575.994,359.072 576.160,359.137 576.326,359.202 576.493,359.267 576.659,359.332 576.826,359.397 576.992,359.462 577.159,359.527 577.325,359.592 577.491,359.657 577.658,359.721 577.824,359.786 577.991,359.850 578.157,359.915 578.324,359.979 578.490,360.044 578.656,360.108 578.823,360.173 578.989,360.237 579.156,360.301 579.322,360.365 579.489,360.429 579.655,360.494 579.821,360.558 579.988,360.622 580.154,360.685 580.321,360.749 580.487,360.813 580.654,360.877 580.820,360.941 580.987,361.004 581.153,361.068 581.319,361.131 581.486,361.195 581.652,361.258 581.819,361.322 581.985,361.385 582.152,361.448 582.318,361.512 582.484,361.575 582.651,361.638 582.817,361.701 582.984,361.764 583.150,361.827 583.317,361.890 583.483,361.953 583.649,362.016 583.816,362.078 583.982,362.141 584.149,362.204 584.315,362.266 584.482,362.329 584.648,362.391 584.814,362.454 584.981,362.516 585.147,362.579 585.314,362.641 585.480,362.703 585.647,362.765 585.813,362.827 585.980,362.889 586.146,362.951 586.312,363.013 586.479,363.075 586.645,363.137 586.812,363.199 586.978,363.261 587.145,363.322 587.311,363.384 587.477,363.445 587.644,363.507 587.810,363.568 587.977,363.630 588.143,363.691 588.310,363.752 588.476,363.814 588.642,363.875 588.809,363.936 588.975,363.997 589.142,364.058 589.308,364.119 589.475,364.180 589.641,364.241 589.807,364.301 589.974,364.362 590.140,364.423 590.307,364.483 590.473,364.544 590.640,364.605 590.806,364.665 590.973,364.725 591.139,364.786 591.305,364.846 591.472,364.906 591.638,364.966 591.805,365.026 591.971,365.086 592.138,365.146 592.304,365.206 592.470,365.266 592.637,365.326 592.803,365.386 592.970,365.446 593.136,365.505 593.303,365.565 593.469,365.624 593.635,365.684 593.802,365.743 593.968,365.803 594.135,365.862 594.301,365.921 594.468,365.980 594.634,366.039 594.800,366.098 594.967,366.157 595.133,366.216 595.300,366.275 595.466,366.334 595.633,366.393 595.799,366.452 595.966,366.510 596.132,366.569 596.298,366.627 596.465,366.686 596.631,366.744 596.798,366.803 596.964,366.861 597.131,366.919 597.297,366.977 597.463,367.035 597.630,367.093 597.796,367.151 597.963,367.209 598.129,367.267 598.296,367.325 598.462,367.383 598.628,367.441 598.795,367.498 598.961,367.556 599.128,367.613 599.294,367.671 599.461,367.728 599.627,367.785 599.793,367.843 599.960,367.900 600.126,367.957 600.293,368.014 600.459,368.071 600.626,368.128 600.792,368.185 600.959,368.242 601.125,368.299 601.291,368.355 601.458,368.412 601.624,368.468 601.791,368.525 601.957,368.581 602.124,368.638 602.290,368.694 602.456,368.750 602.623,368.807 602.789,368.863 602.956,368.919 603.122,368.975 603.289,369.031 603.455,369.087 603.621,369.142 603.788,369.198 603.954,369.254 604.121,369.310 604.287,369.365 604.454,369.421 604.620,369.476 604.786,369.531 604.953,369.587 605.119,369.642 605.286,369.697 605.452,369.752 605.619,369.807 605.785,369.862 605.951,369.917 606.118,369.972 606.284,370.027 606.451,370.082 606.617,370.136 606.784,370.191 606.950,370.245 607.117,370.300 607.283,370.354 607.449,370.409 607.616,370.463 607.782,370.517 607.949,370.571 608.115,370.625 608.282,370.679 608.448,370.733 608.614,370.787 608.781,370.841 608.947,370.894 609.114,370.948 609.280,371.002 609.447,371.055 609.613,371.109 609.779,371.162 609.946,371.215 610.112,371.269 610.279,371.322 610.445,371.375 610.612,371.428 610.778,371.481 610.944,371.534 611.111,371.587 611.277,371.639 611.444,371.692 611.610,371.745 611.777,371.797 611.943,371.850 612.110,371.902 612.276,371.955 612.442,372.007 612.609,372.059 612.775,372.111 612.942,372.163 613.108,372.215 613.275,372.267 613.441,372.319 613.607,372.371 613.774,372.422 613.940,372.474 614.107,372.526 614.273,372.577 614.440,372.629 614.606,372.680 614.772,372.731 614.939,372.782 615.105,372.834 615.272,372.885 615.438,372.936 615.605,372.986 615.771,373.037 615.937,373.088 616.104,373.139 616.270,373.189 616.437,373.240 616.603,373.290 616.770,373.341 616.936,373.391 617.103,373.441 617.269,373.492 617.435,373.542 617.602,373.592 617.768,373.642 617.935,373.692 618.101,373.741 618.268,373.791 618.434,373.841 618.600,373.890 618.767,373.940 618.933,373.989 619.100,374.039 619.266,374.088 619.433,374.137 619.599,374.186 619.765,374.235 619.932,374.284 620.098,374.333 620.265,374.382 620.431,374.431 620.598,374.479 620.764,374.528 620.930,374.576 621.097,374.625 621.263,374.673 621.430,374.721 621.596,374.770 621.763,374.818 621.929,374.866 622.096,374.914 622.262,374.961 622.428,375.009 622.595,375.057 622.761,375.105 622.928,375.152 623.094,375.200 623.261,375.247 623.427,375.294 623.593,375.342 623.760,375.389 623.926,375.436 624.093,375.483 624.259,375.530 624.426,375.576 624.592,375.623 624.758,375.670 624.925,375.716 625.091,375.763 625.258,375.809 625.424,375.856 625.591,375.902 625.757,375.948 625.923,375.994 626.090,376.040 626.256,376.086 626.423,376.132 626.589,376.178 626.756,376.223 626.922,376.269 627.089,376.314 627.255,376.360 627.421,376.405 627.588,376.450 627.754,376.495 627.921,376.540 628.087,376.585 628.254,376.630 628.420,376.675 628.586,376.720 628.753,376.764 628.919,376.809 629.086,376.853 629.252,376.898 629.419,376.942 629.585,376.986 629.751,377.030 629.918,377.074 630.084,377.118 630.251,377.162 630.417,377.206 630.584,377.249 630.750,377.293 630.916,377.336 631.083,377.380 631.249,377.423 631.416,377.466 631.582,377.509 631.749,377.552 631.915,377.595 632.081,377.638 632.248,377.681 632.414,377.724 632.581,377.766 632.747,377.809 632.914,377.851 633.080,377.893 633.247,377.935 633.413,377.978 633.579,378.020 633.746,378.061 633.912,378.103 634.079,378.145 634.245,378.187 634.412,378.228 634.578,378.270 634.744,378.311 634.911,378.352 635.077,378.393 635.244,378.434 635.410,378.475 635.577,378.516 635.743,378.557 635.909,378.597 636.076,378.638 636.242,378.678 636.409,378.719 636.575,378.759 636.742,378.799 636.908,378.839 637.074,378.879 637.241,378.919 637.407,378.959 637.574,378.999 637.740,379.038 637.907,379.078 638.073,379.117 638.240,379.156 638.406,379.195 638.572,379.234 638.739,379.273 638.905,379.312 639.072,379.351 639.238,379.390 639.405,379.428 639.571,379.467 639.737,379.505 639.904,379.543 640.070,379.581 640.237,379.619 640.403,379.657 640.570,379.695 640.736,379.733 640.902,379.770 641.069,379.808 641.235,379.845 641.402,379.883 641.568,379.920 641.735,379.957 641.901,379.994 642.067,380.031 642.234,380.067 642.400,380.104 642.567,380.140 642.733,380.177 642.900,380.213 643.066,380.249 643.233,380.285 643.399,380.321 643.565,380.357 643.732,380.393 643.898,380.429 644.065,380.464 644.231,380.499 644.398,380.535 644.564,380.570 644.730,380.605 644.897,380.640 645.063,380.675 645.230,380.710 645.396,380.744 645.563,380.779 645.729,380.813 645.895,380.847 646.062,380.881 646.228,380.915 646.395,380.949 646.561,380.983 646.728,381.017 646.894,381.050 647.060,381.084 647.227,381.117 647.393,381.150 647.560,381.183 647.726,381.216 647.893,381.249 648.059,381.282 648.226,381.314 648.392,381.347 648.558,381.379 648.725,381.411 648.891,381.443 649.058,381.475 649.224,381.507 649.391,381.539 649.557,381.570 649.723,381.602 649.890,381.633 650.056,381.664 650.223,381.696 650.389,381.726 650.556,381.757 650.722,381.788 650.888,381.819 651.055,381.849 651.221,381.879 651.388,381.909 651.554,381.939 651.721,381.969 651.887,381.999 652.053,382.029 652.220,382.058 652.386,382.088 652.553,382.117 652.719,382.146 652.886,382.175 653.052,382.204 653.219,382.233 653.385,382.261 653.551,382.290 653.718,382.318 653.884,382.346 654.051,382.374 654.217,382.402 654.384,382.430 654.550,382.457 654.716,382.485 654.883,382.512 655.049,382.539 655.216,382.566 655.382,382.593 655.549,382.620 655.715,382.647 655.881,382.673 656.048,382.700 656.214,382.726 656.381,382.752 656.547,382.778 656.714,382.803 656.880,382.829 657.046,382.854 657.213,382.880 657.379,382.905 657.546,382.930 657.712,382.955 657.879,382.979 658.045,383.004 658.211,383.028 658.378,383.053 658.544,383.077 658.711,383.101 658.877,383.124 659.044,383.148 659.210,383.172 659.377,383.195 659.543,383.218 659.709,383.241 659.876,383.264 660.042,383.287 660.209,383.309 660.375,383.332 660.542,383.354 660.708,383.376 660.874,383.398 661.041,383.419 661.207,383.441 661.374,383.462 661.540,383.484 661.707,383.505 661.873,383.526 662.039,383.546 662.206,383.567 662.372,383.587 662.539,383.608 662.705,383.628 662.872,383.648 663.038,383.667 663.204,383.687 663.371,383.706 663.537,383.725 663.704,383.745 663.870,383.763 664.037,383.782 664.203,383.801 664.370,383.819 664.536,383.837 664.702,383.855 664.869,383.873 665.035,383.891 665.202,383.908 665.368,383.925 665.535,383.942 665.701,383.959 665.867,383.976 666.034,383.992 666.200,384.009 666.367,384.025 666.533,384.041 666.700,384.057 666.866,384.072 667.032,384.088 667.199,384.103 667.365,384.118 667.532,384.133 667.698,384.148 667.865,384.162 668.031,384.176 668.197,384.190 668.364,384.204 668.530,384.218 668.697,384.231 668.863,384.245 669.030,384.258 669.196,384.271 669.363,384.283 669.529,384.296 669.695,384.308 669.862,384.320 670.028,384.332 670.195,384.344 670.361,384.355 670.528,384.366 670.694,384.377 670.860,384.388 671.027,384.399 671.193,384.409 671.360,384.419 671.526,384.429 671.693,384.439 671.859,384.449 672.025,384.458 672.192,384.467 672.358,384.476 672.525,384.485 672.691,384.493 672.858,384.501 673.024,384.509 673.190,384.517 673.357,384.524 673.523,384.532 673.690,384.539 673.856,384.546 674.023,384.552 674.189,384.559 674.356,384.565 674.522,384.571 674.688,384.577 674.855,384.582 675.021,384.587 675.188,384.592 675.354,384.597 675.521,384.602 675.687,384.606 675.853,384.610 676.020,384.614 676.186,384.617 676.353,384.620 676.519,384.623 676.686,384.626 676.852,384.629 677.018,384.631 677.185,384.633 677.351,384.635 677.518,384.636 677.684,384.638 677.851,384.639 678.017,384.639 678.183,384.640 678.350,384.640 678.516,384.640 678.683,384.640 678.849,384.639 679.016,384.638 679.182,384.637 679.349,384.636 679.515,384.634 679.681,384.632 679.848,384.630 680.014,384.627 680.181,384.625 680.347,384.621 680.514,384.618 680.680,384.615 680.846,384.611 681.013,384.606 681.179,384.602 681.346,384.597 681.512,384.592 681.679,384.587 681.845,384.581 682.011,384.575 682.178,384.569 682.344,384.562 682.511,384.555 682.677,384.548 682.844,384.541 683.010,384.533 683.176,384.525 683.343,384.517 683.509,384.508 683.676,384.499 683.842,384.489 684.009,384.480 684.175,384.470 684.341,384.460 684.508,384.449 684.674,384.438 684.841,384.427 685.007,384.415 685.174,384.403 685.340,384.391 685.507,384.378 685.673,384.365 685.839,384.352 686.006,384.338 686.172,384.325 686.339,384.310 686.505,384.296 686.672,384.281 686.838,384.265 687.004,384.249 687.171,384.233 687.337,384.217 687.504,384.200 687.670,384.183 687.837,384.165 688.003,384.148 688.169,384.129 688.336,384.111 688.502,384.092 688.669,384.072 688.835,384.053 689.002,384.032 689.168,384.012 689.334,383.991 689.501,383.970 689.667,383.948 689.834,383.926 690.000,383.903 690.167,383.881 690.333,383.857 690.500,383.834 690.666,383.809 690.832,383.785 690.999,383.760 691.165,383.735 691.332,383.709 691.498,383.683 691.665,383.656 691.831,383.629 691.997,383.602 692.164,383.574 692.330,383.546 692.497,383.517 692.663,383.488 692.830,383.458 692.996,383.428 693.162,383.397 693.329,383.366 693.495,383.335 693.662,383.303 693.828,383.271 693.995,383.238 694.161,383.205 694.327,383.171 694.494,383.137 694.660,383.102 694.827,383.067 694.993,383.031 695.160,382.995 695.326,382.958 695.493,382.921 695.659,382.883 695.825,382.845 695.992,382.806 696.158,382.767 696.325,382.728 696.491,382.687 696.658,382.647 696.824,382.605 696.990,382.564 697.157,382.521 697.323,382.478 697.490,382.435 697.656,382.391 697.823,382.346 697.989,382.301 698.155,382.256 698.322,382.210 698.488,382.163 698.655,382.116 698.821,382.068 698.988,382.019 699.154,381.970 699.320,381.921 699.487,381.870 699.653,381.820 699.820,381.768 699.986,381.716 700.153,381.664 700.319,381.610 700.486,381.557 700.652,381.502 700.818,381.447 700.985,381.391 701.151,381.335 701.318,381.278 701.484,381.220 701.651,381.162 701.817,381.103 701.983,381.043 702.150,380.983 702.316,380.922 702.483,380.860 702.649,380.798 702.816,380.735 702.982,380.671 703.148,380.607 703.315,380.541 703.481,380.476 703.648,380.409 703.814,380.342 703.981,380.274 704.147,380.205 704.313,380.135 704.480,380.065 704.646,379.994 704.813,379.922 704.979,379.850 705.146,379.776 705.312,379.702 705.479,379.627 705.645,379.551 705.811,379.475 705.978,379.397 706.144,379.319 706.311,379.240 706.477,379.160 706.644,379.080 706.810,378.998 706.976,378.916 707.143,378.833 707.309,378.749 707.476,378.664 707.642,378.578 707.809,378.491 707.975,378.403 708.141,378.315 708.308,378.225 708.474,378.135 708.641,378.044 708.807,377.951 708.974,377.858 709.140,377.764 709.306,377.669 709.473,377.573 709.639,377.475 709.806,377.377 709.972,377.278 710.139,377.178 710.305,377.077 710.471,376.975 710.638,376.871 710.804,376.767 710.971,376.662 711.137,376.555 711.304,376.448 711.470,376.339 711.637,376.229 711.803,376.119 711.969,376.007 712.136,375.893 712.302,375.779 712.469,375.664 712.635,375.547 712.802,375.429 712.968,375.310 713.134,375.190 713.301,375.069 713.467,374.946 713.634,374.822 713.800,374.697 713.967,374.571 714.133,374.443 714.299,374.314 714.466,374.183 714.632,374.052 714.799,373.919 714.965,373.785 715.132,373.649 715.298,373.512 715.464,373.373 715.631,373.233 715.797,373.092 715.964,372.949 716.130,372.805 716.297,372.659 716.463,372.512 716.630,372.363 716.796,372.213 716.962,372.061 717.129,371.908 717.295,371.753 717.462,371.597 717.628,371.439 717.795,371.279 717.961,371.118 718.127,370.955 718.294,370.790 718.460,370.624 718.627,370.455 718.793,370.286 718.960,370.114 719.126,369.941 719.292,369.765 719.459,369.588 719.625,369.410 719.792,369.229 719.958,369.046 720.125,368.862 720.291,368.678 720.457,368.494 720.624,368.309 720.790,368.124 720.957,367.940 721.123,367.755 721.290,367.570 721.456,367.384 721.623,367.199 721.789,367.013 721.955,366.828 722.122,366.642 722.288,366.456 722.455,366.270 722.621,366.083 722.788,365.897 722.954,365.710 723.120,365.524 723.287,365.337 723.453,365.150 723.620,364.963 723.786,364.775 723.953,364.588 724.119,364.400 724.285,364.212 724.452,364.025 724.618,363.837 724.785,363.648 724.951,363.460 725.118,363.271 725.284,363.083 725.450,362.894 725.617,362.705 725.783,362.516 725.950,362.327 726.116,362.137 726.283,361.948 726.449,361.758 726.616,361.568 726.782,361.378 726.948,361.188 727.115,360.998 727.281,360.808 727.448,360.617 727.614,360.426 727.781,360.236 727.947,360.045 728.113,359.853 728.280,359.662 728.446,359.471 728.613,359.279 728.779,359.087 728.946,358.896 729.112,358.704 729.278,358.511 729.445,358.319 729.611,358.127 729.778,357.934 729.944,357.741 730.111,357.548 730.277,357.355 730.443,357.162 730.610,356.969 730.776,356.775 730.943,356.582 731.109,356.388 731.276,356.194 731.442,356.000 731.609,355.805 731.775,355.611 731.941,355.417 732.108,355.222 732.274,355.027 732.441,354.832 732.607,354.637 732.774,354.442 732.940,354.246 733.106,354.051 733.273,353.855 733.439,353.659 733.606,353.463 733.772,353.267 733.939,353.071 734.105,352.874 734.271,352.678 734.438,352.481 734.604,352.284 734.771,352.087 734.937,351.890 735.104,351.693 735.270,351.495 735.436,351.297 735.603,351.100 735.769,350.902 735.936,350.704 736.102,350.505 736.269,350.307 736.435,350.109 736.601,349.910 736.768,349.711 736.934,349.512 737.101,349.313 737.267,349.114 737.434,348.915 737.600,348.715 737.767,348.515 737.933,348.315 738.099,348.115 738.266,347.915 738.432,347.715 738.599,347.515 738.765,347.314 738.932,347.113 739.098,346.913 739.264,346.712 739.431,346.510 739.597,346.309 739.764,346.108 739.930,345.906 740.097,345.704 740.263,345.502 740.429,345.300 740.596,345.098 740.762,344.896 740.929,344.693 741.095,344.491 741.262,344.288 741.428,344.085 741.594,343.882 741.761,343.679 741.927,343.475 742.094,343.272 742.260,343.068 742.427,342.864 742.593,342.660 742.760,342.456 742.926,342.252 743.092,342.048 743.259,341.843 743.425,341.638 743.592,341.434 743.758,341.229 743.925,341.024 744.091,340.818 744.257,340.613 744.424,340.407 744.590,340.202 744.757,339.996 744.923,339.790 745.090,339.583 745.256,339.377 745.422,339.171 745.589,338.964 745.755,338.757 745.922,338.550 746.088,338.343 746.255,338.136 746.421,337.929 746.587,337.721 746.754,337.514 746.920,337.306 747.087,337.098 747.253,336.890 747.420,336.682 747.586,336.473 747.753,336.265 747.919,336.056 748.085,335.847 748.252,335.638 748.418,335.429 748.585,335.220 748.751,335.011 748.918,334.801 749.084,334.591 749.250,334.382 749.417,334.172 749.583,333.961 749.750,333.751 749.916,333.541 750.083,333.330 750.249,333.119 750.415,332.909 750.582,332.698 750.748,332.486 750.915,332.275 751.081,332.064 751.248,331.852 751.414,331.640 751.580,331.428 751.747,331.216 751.913,331.004 752.080,330.792 752.246,330.579 752.413,330.367 752.579,330.154 752.746,329.941 752.912,329.728 753.078,329.515 753.245,329.301 753.411,329.088 753.578,328.874 753.744,328.660 753.911,328.446 754.077,328.232 754.243,328.018 754.410,327.803 754.576,327.589 754.743,327.374 754.909,327.159 755.076,326.944 755.242,326.729 755.408,326.514 755.575,326.298 755.741,326.083 755.908,325.867 756.074,325.651 756.241,325.435 756.407,325.219 756.573,325.003 756.740,324.786 756.906,324.570 757.073,324.353 757.239,324.136 757.406,323.919 757.572,323.702 757.739,323.484 757.905,323.267 758.071,323.049 758.238,322.831 758.404,322.613 758.571,322.395 758.737,322.177 758.904,321.959 759.070,321.740 759.236,321.521 759.403,321.303 759.569,321.084 759.736,320.865 759.902,320.645 760.069,320.426 760.235,320.206 760.401,319.987 760.568,319.767 760.734,319.547 760.901,319.327 761.067,319.106 761.234,318.886 761.400,318.665 761.566,318.444 761.733,318.224 761.899,318.003 762.066,317.781 762.232,317.560 762.399,317.339 762.565,317.117 762.731,316.895 762.898,316.673 763.064,316.451 763.231,316.229 763.397,316.007 763.564,315.784 763.730,315.561 763.897,315.339 764.063,315.116 764.229,314.893 764.396,314.669 764.562,314.446 764.729,314.222 764.895,313.999 765.062,313.775 765.228,313.551 765.394,313.327 765.561,313.103 765.727,312.878 765.894,312.654 766.060,312.429 766.227,312.204 766.393,311.979 766.559,311.754 766.726,311.528 766.892,311.303 767.059,311.077 767.225,310.852 767.392,310.626 767.558,310.400 767.724,310.174 767.891,309.947 768.057,309.721 768.224,309.494 768.390,309.267 768.557,309.040 768.723,308.813 768.890,308.586 769.056,308.359 769.222,308.131 769.389,307.904 769.555,307.676 769.722,307.448 769.888,307.220 770.055,306.991 770.221,306.763 770.387,306.535 770.554,306.306 770.720,306.077 770.887,305.848 771.053,305.619 771.220,305.390 771.386,305.160 771.552,304.931 771.719,304.701 771.885,304.471 772.052,304.241 772.218,304.011 772.385,303.780 772.551,303.550 772.717,303.319 772.884,303.089 773.050,302.858 773.217,302.627 773.383,302.396 773.550,302.164 773.716,301.933 773.883,301.701 774.049,301.469 774.215,301.237 774.382,301.005 774.548,300.773 774.715,300.541 774.881,300.308 775.048,300.075 775.214,299.843 775.380,299.610 775.547,299.377 775.713,299.143 775.880,298.910 776.046,298.676 776.213,298.443 776.379,298.209 776.545,297.975 776.712,297.741 776.878,297.506 777.045,297.272 777.211,297.037 777.378,296.803 777.544,296.568 777.710,296.333 777.877,296.098 778.043,295.862 778.210,295.627 778.376,295.391 778.543,295.155 778.709,294.919 778.876,294.683 779.042,294.447 779.208,294.211 779.375,293.974 779.541,293.738 779.708,293.501 779.874,293.264 780.041,293.027 780.207,292.790 780.373,292.552 780.540,292.315 780.706,292.077 780.873,291.839 781.039,291.601 781.206,291.363 781.372,291.125 781.538,290.887 781.705,290.648 781.871,290.409 782.038,290.170 782.204,289.931 782.371,289.692 782.537,289.453 782.703,289.214 782.870,288.974 783.036,288.734 783.203,288.494 783.369,288.254 783.536,288.014 783.702,287.774 783.869,287.533 784.035,287.293 784.201,287.052 784.368,286.811 784.534,286.570 784.701,286.329 784.867,286.087 785.034,285.846 785.200,285.604 785.366,285.362 785.533,285.120 785.699,284.878 785.866,284.636 786.032,284.394 786.199,284.151 786.365,283.909 786.531,283.666 786.698,283.423 786.864,283.180 787.031,282.936 787.197,282.693 787.364,282.449 787.530,282.206 787.696,281.962 787.863,281.718 788.029,281.474 788.196,281.229 788.362,280.985 788.529,280.740 788.695,280.496 788.861,280.251 789.028,280.006 789.194,279.760 789.361,279.515 789.527,279.270 789.694,279.024 789.860,278.778 790.027,278.532 790.193,278.286 790.359,278.040 790.526,277.794 790.692,277.547 790.859,277.300 791.025,277.054 791.192,276.807 791.358,276.560 791.524,276.312 791.691,276.065 791.857,275.817 792.024,275.570 792.190,275.322 792.357,275.074 792.523,274.826 792.689,274.577 792.856,274.329 793.022,274.080 793.189,273.832 793.355,273.583 793.522,273.334 793.688,273.085 793.854,272.835 794.021,272.586 794.187,272.336 794.354,272.087 794.520,271.837 794.687,271.587 794.853,271.336 795.020,271.086 795.186,270.836 795.352,270.585 795.519,270.334 795.685,270.083 795.852,269.832 796.018,269.581 796.185,269.330 796.351,269.078 796.517,268.826 796.684,268.575 796.850,268.323 797.017,268.071 797.183,267.818 797.350,267.566 797.516,267.313 797.682,267.061 797.849,266.808 798.015,266.555 798.182,266.302 798.348,266.048 798.515,265.795 798.681,265.541 798.847,265.288 799.014,265.034 799.180,264.780 799.347,264.526 799.513,264.271 799.680,264.017 799.846,263.762 800.013,263.507 800.179,263.253 800.345,262.998 800.512,262.742 800.678,262.487 800.845,262.231 801.011,261.976 801.178,261.720 801.344,261.464 801.510,261.208 801.677,260.952 801.843,260.695 802.010,260.439 802.176,260.182 802.343,259.925 802.509,259.668 802.675,259.411 802.842,259.154 803.008,258.897 803.175,258.639 803.341,258.381 803.508,258.124 803.674,257.866 803.840,257.607 804.007,257.349 804.173,257.091 804.340,256.832 804.506,256.573 804.673,256.314 804.839,256.055 805.006,255.796 805.172,255.537 805.338,255.277 805.505,255.018 805.671,254.758 805.838,254.498 806.004,254.238 806.171,253.978 806.337,253.718 806.503,253.457 806.670,253.196 806.836,252.936 807.003,252.675 807.169,252.414 807.336,252.152 807.502,251.891 807.668,251.629 807.835,251.368 808.001,251.106 808.168,250.844 808.334,250.582 808.501,250.320 808.667,250.057 808.833,249.795 809.000,249.532 809.166,249.269 809.333,249.006 809.499,248.743 809.666,248.480 809.832,248.216 809.999,247.953 810.165,247.689 810.331,247.425 810.498,247.161 810.664,246.897 810.831,246.632 810.997,246.368 811.164,246.103 811.330,245.838 811.496,245.574 811.663,245.309 811.829,245.043 811.996,244.778 812.162,244.512 812.329,244.247 812.495,243.981 812.661,243.715 812.828,243.449 812.994,243.183 813.161,242.916 813.327,242.650 813.494,242.383 813.660,242.116 813.826,241.849 813.993,241.582 814.159,241.315 814.326,241.047 814.492,240.780 814.659,240.512 814.825,240.244 814.991,239.976 815.158,239.708 815.324,239.440 815.491,239.171 815.657,238.903 815.824,238.634 815.990,238.365 816.157,238.096 816.323,237.827 816.489,237.558 816.656,237.288 816.822,237.018 816.989,236.749 817.155,236.479 817.322,236.209 817.488,235.938 817.654,235.668 817.821,235.398 817.987,235.127 818.154,234.856 818.320,234.585 818.487,234.314 818.653,234.043 818.819,233.771 818.986,233.500 819.152,233.228 819.319,232.956 819.485,232.684 819.652,232.412 819.818,232.140 819.984,231.867 820.151,231.595 820.317,231.322 820.484,231.049 820.650,230.776 820.817,230.503 820.983,230.230 821.150,229.956 821.316,229.683 821.482,229.409 821.649,229.135 821.815,228.861 821.982,228.587 822.148,228.313 822.315,228.038 822.481,227.763 822.647,227.489 822.814,227.214 822.980,226.939 823.147,226.663 823.313,226.388 823.480,226.112 823.646,225.837 823.812,225.561 823.979,225.285 824.145,225.009 824.312,224.733 824.478,224.456 824.645,224.180 824.811,223.903 824.977,223.626 825.144,223.349 825.310,223.072 825.477,222.795 825.643,222.517 825.810,222.240 825.976,221.962 826.143,221.684 826.309,221.406 826.475,221.128 826.642,220.850 826.808,220.571 826.975,220.293 827.141,220.014 827.308,219.735 827.474,219.456 827.640,219.177 827.807,218.897 827.973,218.618 828.140,218.338 828.306,218.058 828.473,217.778 828.639,217.498 828.805,217.218 828.972,216.938 829.138,216.657 829.305,216.376 829.471,216.096 829.638,215.815 829.804,215.534 829.970,215.252 830.137,214.971 830.303,214.689 830.470,214.408 830.636,214.126 830.803,213.844 830.969,213.562 831.136,213.279 831.302,212.997 831.468,212.714 831.635,212.432 831.801,212.149 831.968,211.866 832.134,211.582 832.301,211.299 832.467,211.016 832.633,210.732 832.800,210.448 832.966,210.164 833.133,209.880 833.299,209.596 833.466,209.312 833.632,209.027 833.798,208.743 833.965,208.458 834.131,208.173 834.298,207.888 834.464,207.603 834.631,207.317 834.797,207.032 834.963,206.746 835.130,206.460 835.296,206.174 835.463,205.888 835.629,205.602 835.796,205.315 835.962,205.029 836.129,204.742 836.295,204.455 836.461,204.168 836.628,203.881 836.794,203.594 836.961,203.306 837.127,203.019 837.294,202.731 837.460,202.443 837.626,202.155 837.793,201.867 837.959,201.578 838.126,201.290 838.292,201.001 838.459,200.713 838.625,200.424 838.791,200.135 838.958,199.845 839.124,199.556 839.291,199.266 839.457,198.977 839.624,198.687 839.790,198.397 839.956,198.107 840.123,197.817 840.289,197.526 840.456,197.236 840.622,196.945 840.789,196.654 840.955,196.363 841.121,196.072 841.288,195.781 841.454,195.489 841.621,195.198 841.787,194.906 841.954,194.614 842.120,194.322 842.287,194.030 842.453,193.738 842.619,193.445 842.786,193.153 842.952,192.860 843.119,192.567 843.285,192.274 843.452,191.981 843.618,191.688 843.784,191.394 843.951,191.100 844.117,190.807 844.284,190.513 844.450,190.219 844.617,189.924 844.783,189.630 844.949,189.336 845.116,189.041 845.282,188.746 845.449,188.451 845.615,188.156 845.782,187.861 845.948,187.565 846.114,187.270 846.281,186.974 846.447,186.678 846.614,186.382 846.780,186.086 846.947,185.790 847.113,185.493 847.280,185.197 847.446,184.900 847.612,184.603 847.779,184.306 847.945,184.009 848.112,183.712 848.278,183.414 848.445,183.117 848.611,182.819 848.777,182.521 848.944,182.223 849.110,181.925 849.277,181.626 849.443,181.328 849.610,181.029 849.776,180.730 849.942,180.432 850.109,180.132 850.275,179.833 850.442,179.534 850.608,179.234 850.775,178.935 850.941,178.635 851.107,178.335 851.274,178.035 851.440,177.734 851.607,177.434 851.773,177.134 851.940,176.833 852.106,176.532 852.273,176.231 852.439,175.930 852.605,175.629 852.772,175.327 852.938,175.026 853.105,174.724 853.271,174.422 853.438,174.120 853.604,173.818 853.770,173.515 853.937,173.213 854.103,172.910 854.270,172.608 854.436,172.305 854.603,172.002 854.769,171.698 854.935,171.395 855.102,171.092 855.268,170.788 855.435,170.484 855.601,170.180 855.768,169.876 855.934,169.572 856.100,169.267 856.267,168.963 856.433,168.658 856.600,168.353 856.766,168.048 856.933,167.743 857.099,167.438 857.266,167.133 857.432,166.827 857.598,166.521 857.765,166.215 857.931,165.909 858.098,165.603 858.264,165.297 858.431,164.991 858.597,164.684 858.763,164.377 858.930,164.070 859.096,163.763 859.263,163.456 859.429,163.149 859.596,162.841 859.762,162.534 859.928,162.226 860.095,161.918 860.261,161.610 860.428,161.302 860.594,160.993 860.761,160.685 860.927,160.376 861.093,160.067 861.260,159.758 861.426,159.449 861.593,159.140 861.759,158.831 861.926,158.521 862.092,158.212 862.259,157.902 862.425,157.592 862.591,157.282 862.758,156.971 862.924,156.661 863.091,156.350 863.257,156.040 863.424,155.729 863.590,155.418 863.756,155.107 863.923,154.795 864.089,154.484 864.256,154.172 864.422,153.860 864.589,153.549 864.755,153.237 864.921,152.924 865.088,152.612 865.254,152.300 865.421,151.987 865.587,151.674 865.754,151.361 865.920,151.048 866.086,150.735 866.253,150.422 866.419,150.108 866.586,149.794 866.752,149.481 866.919,149.167 867.085,148.853 867.251,148.538 867.418,148.224 867.584,147.909 867.751,147.595 867.917,147.280 868.084,146.965 868.250,146.650 868.417,146.334 868.583,146.019 868.749,145.703 868.916,145.388 869.082,145.072 869.249,144.756 869.415,144.440 869.582,144.123 869.748,143.807 869.914,143.490 870.081,143.173 870.247,142.857 870.414,142.540 870.580,142.222 870.747,141.905 870.913,141.588 871.079,141.270 871.246,140.952 871.412,140.634 871.579,140.316 871.745,139.998 871.912,139.679 872.078,139.361 872.244,139.042 872.411,138.723 872.577,138.405 872.744,138.085 872.910,137.766 873.077,137.447 873.243,137.127 873.410,136.807 873.576,136.488 873.742,136.168 873.909,135.848 874.075,135.527 874.242,135.207 874.408,134.886 874.575,134.565 874.741,134.245 874.907,133.924 875.074,133.602 875.240,133.281 875.407,132.960 875.573,132.638 875.740,132.316 875.906,131.994 876.072,131.672 876.239,131.350 876.405,131.028 876.572,130.705 876.738,130.383 876.905,130.060 877.071,129.737 877.237,129.414 877.404,129.091 877.570,128.767 877.737,128.444 877.903,128.120 878.070,127.796 878.236,127.472 878.403,127.148 878.569,126.824 878.735,126.499 878.902,126.175 879.068,125.850 879.235,125.525 879.401,125.200 879.568,124.875 879.734,124.550 879.900,124.224 880.067,123.899 880.233,123.573 880.400,123.247 880.566,122.921 880.733,122.595 880.899,122.269 881.065,121.942 881.232,121.616 881.398,121.289 881.565,120.962 881.731,120.635 881.898,120.308 882.064,119.980 882.230,119.653 882.397,119.325 882.563,118.997 882.730,118.669 882.896,118.341 883.063,118.013 883.229,117.685 883.396,117.356 883.562,117.027 883.728,116.699 883.895,116.370 884.061,116.040 884.228,115.711 884.394,115.382 884.561,115.052 884.727,114.723 884.893,114.393 885.060,114.063 885.226,113.733 885.393,113.402 885.559,113.072 885.726,112.741 885.892,112.410 886.058,112.080 886.225,111.748 886.391,111.417 886.558,111.086 886.724,110.754 886.891,110.423 887.057,110.091 887.223,109.759 887.390,109.427 887.556,109.095 887.723,108.763 887.889,108.430 888.056,108.097 888.222,107.765 888.389,107.432 888.555,107.099 888.721,106.765 888.888,106.432 889.054,106.098 889.221,105.765 889.387,105.431 889.554,105.097 889.720,104.763 889.886,104.428 890.053,104.094 890.219,103.759 890.386,103.425 890.552,103.090 890.719,102.755 890.885,102.420 891.051,102.084 891.218,101.749 891.384,101.413 891.551,101.078 891.717,100.742 891.884,100.406 892.050,100.069 892.216,99.733 892.383,99.397 892.549,99.060 892.716,98.723 892.882,98.386 893.049,98.049 893.215,97.712 893.381,97.375 893.548,97.037 893.714,96.699 893.881,96.362 894.047,96.024 894.214,95.686 894.380,95.347 894.547,95.009 894.713,94.670 894.879,94.332 895.046,93.993 895.212,93.654 895.379,93.315 895.545,92.975 895.712,92.636 895.878,92.296 896.044,91.957 896.211,91.617 896.377,91.277 896.544,90.937 896.710,90.596 896.877,90.256 897.043,89.915 897.209,89.574 897.376,89.234 897.542,88.892 897.709,88.551 897.875,88.210 898.042,87.868 898.208,87.527 898.374,87.185 898.541,86.843 898.707,86.501 898.874,86.159 899.040,85.816 899.207,85.474 899.373,85.131 899.540,84.788 899.706,84.445 899.872,84.102 900.039,83.759 900.205,83.416 900.372,83.072 900.538,82.728 900.705,82.385 900.871,82.041 901.037,81.696 901.204,81.352 901.370,81.008 901.537,80.663 901.703,80.318 901.870,79.973 902.036,79.628 902.202,79.283 902.369,78.938 902.535,78.592 902.702,78.247 902.868,77.901 903.035,77.555 903.201,77.209 903.367,76.863 903.534,76.517 903.700,76.170 903.867,75.823 904.033,75.477 904.200,75.130 904.366,74.783 904.533,74.435 904.699,74.088 904.865,73.740 905.032,73.393 905.198,73.045 905.365,72.697 905.531,72.349 905.698,72.001 905.864,71.652 906.030,71.304 906.197,70.955 906.363,70.606 906.530,70.257 906.696,69.908 906.863,69.559 907.029,69.209 907.195,68.860 907.362,68.510 907.528,68.160 907.695,67.810 907.861,67.460 908.028,67.109 908.194,66.759 908.360,66.408 908.527,66.058 908.693,65.707 908.860,65.356 909.026,65.004 909.193,64.653 909.359,64.301 909.526,63.950 909.692,63.598 909.858,63.246 910.025,62.894 910.191,62.542 910.358,62.189 910.524,61.837 910.691,61.484 910.857,61.131 911.023,60.778 911.190,60.425 911.356,60.072 911.523,59.718 911.689,59.365 911.856,59.011 912.022,58.657 912.188,58.303 912.355,57.949 912.521,57.595 912.688,57.240 912.854,56.886 913.021,56.531 913.187,56.176 913.353,55.821 913.520,55.466 913.686,55.111 913.853,54.755 914.019,54.400 914.186,54.044 914.352,53.688 914.519,53.332 914.685,52.976 914.851,52.619 915.018,52.263 915.184,51.906 915.351,51.549 915.517,51.192 915.684,50.835 915.850,50.478 916.016,50.120 916.183,49.763 916.349,49.405 916.516,49.047 916.682,48.689 916.849,48.331 917.015,47.973 917.181,47.615 917.348,47.256 917.514,46.897 917.681,46.538 917.847,46.179 918.014,45.820 918.180,45.461 918.346,45.101 918.513,44.742 918.679,44.382 918.846,44.022 919.012,43.662 919.179,43.302 919.345,42.942 919.511,42.581 919.678,42.220 919.844,41.860 920.011,41.499 920.177,41.138 920.344,40.776 920.510,40.415 920.677,40.054 920.843,39.692 921.009,39.330 921.176,38.968 921.342,38.606 921.509,38.244 921.675,37.881 921.842,37.519 922.008,37.156 922.174,36.793 922.341,36.430 922.507,36.067 922.674,35.704 922.840,35.340 923.007,34.977 923.173,34.613 923.339,34.249 923.506,33.885 923.672,33.521 923.839,33.157 924.005,32.792 924.172,32.428 924.338,32.063 924.504,31.698 924.671,31.333 924.837,30.968 925.004,30.602 925.170,30.237 925.337,29.871 925.503,29.505 925.670,29.140 925.836,28.773 926.002,28.407 926.169,28.041 926.335,27.674 926.502,27.308 926.668,26.941 926.835,26.574 927.001,26.207 927.167,25.839 927.334,25.472 927.500,25.104 927.667,24.737 927.833,24.369 928.000,24.001 928.000,24.000" fill="none" stroke="#000000" stroke-width="2.800" stroke-opacity="1.000"/>
  </g>
  <rect x="96.000" y="24.000" width="832.000" height="368.000" fill="none" stroke="#3f3f46" stroke-width="1.8"/>
  <rect x="718.500" y="40.000" width="193.500" height="82.000" rx="6" ry="6" fill="#ffffff" fill-opacity="0.94" stroke="#000000" stroke-width="1.2"/>
  <line x1="732.500" y1="66.000" x2="772.500" y2="66.000" stroke="#000000" stroke-width="2.800" stroke-opacity="1.000"/>
  <text x="782.500" y="73.000" text-anchor="start" fill="#111827" font-family="'Lato', 'Avenir Next', 'Segoe UI', 'Helvetica Neue', sans-serif" font-size="20.0">Theoretical</text>
  <circle cx="752.500" cy="96.000" r="4.500" fill="#5fa8e8" fill-opacity="1.000"/>
  <text x="782.500" y="103.000" text-anchor="start" fill="#111827" font-family="'Lato', 'Avenir Next', 'Segoe UI', 'Helvetica Neue', sans-serif" font-size="20.0">AutoLyap</text>
  <line x1="96.000" y1="392.000" x2="96.000" y2="384.000" stroke="#3f3f46" stroke-width="1.4"/>
  <text x="96.000" y="438.000" text-anchor="middle" fill="#52525b" font-family="'Lato', 'Avenir Next', 'Segoe UI', 'Helvetica Neue', sans-serif" font-size="21">0</text>
  <line x1="262.400" y1="392.000" x2="262.400" y2="384.000" stroke="#3f3f46" stroke-width="1.4"/>
  <text x="262.400" y="438.000" text-anchor="middle" fill="#52525b" font-family="'Lato', 'Avenir Next', 'Segoe UI', 'Helvetica Neue', sans-serif" font-size="21">0.4</text>
  <line x1="428.800" y1="392.000" x2="428.800" y2="384.000" stroke="#3f3f46" stroke-width="1.4"/>
  <text x="428.800" y="438.000" text-anchor="middle" fill="#52525b" font-family="'Lato', 'Avenir Next', 'Segoe UI', 'Helvetica Neue', sans-serif" font-size="21">0.8</text>
  <line x1="595.200" y1="392.000" x2="595.200" y2="384.000" stroke="#3f3f46" stroke-width="1.4"/>
  <text x="595.200" y="438.000" text-anchor="middle" fill="#52525b" font-family="'Lato', 'Avenir Next', 'Segoe UI', 'Helvetica Neue', sans-serif" font-size="21">1.2</text>
  <line x1="761.600" y1="392.000" x2="761.600" y2="384.000" stroke="#3f3f46" stroke-width="1.4"/>
  <text x="761.600" y="438.000" text-anchor="middle" fill="#52525b" font-family="'Lato', 'Avenir Next', 'Segoe UI', 'Helvetica Neue', sans-serif" font-size="21">1.6</text>
  <line x1="928.000" y1="392.000" x2="928.000" y2="384.000" stroke="#3f3f46" stroke-width="1.4"/>
  <text x="928.000" y="438.000" text-anchor="middle" fill="#52525b" font-family="'Lato', 'Avenir Next', 'Segoe UI', 'Helvetica Neue', sans-serif" font-size="21">2</text>
  <line x1="104.000" y1="392.000" x2="96.000" y2="392.000" stroke="#3f3f46" stroke-width="1.4"/>
  <text x="82.000" y="399.000" text-anchor="end" fill="#52525b" font-family="'Lato', 'Avenir Next', 'Segoe UI', 'Helvetica Neue', sans-serif" font-size="21">0.2</text>
  <line x1="104.000" y1="346.000" x2="96.000" y2="346.000" stroke="#3f3f46" stroke-width="1.4"/>
  <text x="82.000" y="353.000" text-anchor="end" fill="#52525b" font-family="'Lato', 'Avenir Next', 'Segoe UI', 'Helvetica Neue', sans-serif" font-size="21">0.3</text>
  <line x1="104.000" y1="300.000" x2="96.000" y2="300.000" stroke="#3f3f46" stroke-width="1.4"/>
  <text x="82.000" y="307.000" text-anchor="end" fill="#52525b" font-family="'Lato', 'Avenir Next', 'Segoe UI', 'Helvetica Neue', sans-serif" font-size="21">0.4</text>
  <line x1="104.000" y1="254.000" x2="96.000" y2="254.000" stroke="#3f3f46" stroke-width="1.4"/>
  <text x="82.000" y="261.000" text-anchor="end" fill="#52525b" font-family="'Lato', 'Avenir Next', 'Segoe UI', 'Helvetica Neue', sans-serif" font-size="21">0.5</text>
  <line x1="104.000" y1="208.000" x2="96.000" y2="208.000" stroke="#3f3f46" stroke-width="1.4"/>
  <text x="82.000" y="215.000" text-anchor="end" fill="#52525b" font-family="'Lato', 'Avenir Next', 'Segoe UI', 'Helvetica Neue', sans-serif" font-size="21">0.6</text>
  <line x1="104.000" y1="162.000" x2="96.000" y2="162.000" stroke="#3f3f46" stroke-width="1.4"/>
  <text x="82.000" y="169.000" text-anchor="end" fill="#52525b" font-family="'Lato', 'Avenir Next', 'Segoe UI', 'Helvetica Neue', sans-serif" font-size="21">0.7</text>
  <line x1="104.000" y1="116.000" x2="96.000" y2="116.000" stroke="#3f3f46" stroke-width="1.4"/>
  <text x="82.000" y="123.000" text-anchor="end" fill="#52525b" font-family="'Lato', 'Avenir Next', 'Segoe UI', 'Helvetica Neue', sans-serif" font-size="21">0.8</text>
  <line x1="104.000" y1="70.000" x2="96.000" y2="70.000" stroke="#3f3f46" stroke-width="1.4"/>
  <text x="82.000" y="77.000" text-anchor="end" fill="#52525b" font-family="'Lato', 'Avenir Next', 'Segoe UI', 'Helvetica Neue', sans-serif" font-size="21">0.9</text>
  <line x1="104.000" y1="24.000" x2="96.000" y2="24.000" stroke="#3f3f46" stroke-width="1.4"/>
  <text x="82.000" y="31.000" text-anchor="end" fill="#52525b" font-family="'Lato', 'Avenir Next', 'Segoe UI', 'Helvetica Neue', sans-serif" font-size="21">1</text>
  <text x="512.000" y="470.000" text-anchor="middle" fill="#111827" font-family="'Lato', 'Avenir Next', 'Segoe UI', 'Helvetica Neue', sans-serif" font-size="28">λ</text>
  <text x="30.0" y="208.000" text-anchor="middle" transform="rotate(0 30.0 208.000)" fill="#111827" font-family="'Lato', 'Avenir Next', 'Segoe UI', 'Helvetica Neue', sans-serif" font-size="28">ρ</text>
</svg>
