<?xml version="1.0" encoding="UTF-8"?>
<svg xmlns="http://www.w3.org/2000/svg" width="960" height="480" viewBox="0 0 960 480" role="img" aria-label="Douglas-Rachford rho versus gamma">
  <title>Douglas-Rachford contraction factor vs step size</title>
  <desc>Rho vs gamma for Douglas-Rachford: theoretical curve and AutoLyap points.</desc>
  <rect x="0" y="0" width="960" height="480" fill="#ffffff"/>
  <rect x="96.000" y="24.000" width="832.000" height="368.000" fill="#f8fafc"/>
  <defs>
    <clipPath id="plot-area-clip">
      <rect x="96.000" y="24.000" width="832.000" height="368.000"/>
    </clipPath>
  </defs>
  <style type="text/css"><![CDATA[
@font-face {
  font-family: 'Lato';
  src:
    url('css/fonts/lato-normal.woff2') format('woff2'),
    url('../_static/css/fonts/lato-normal.woff2') format('woff2'),
    url('css/fonts/lato-normal.woff') format('woff'),
    url('../_static/css/fonts/lato-normal.woff') format('woff');
  font-style: normal;
  font-weight: 400;
}
@font-face {
  font-family: 'Lato';
  src:
    url('css/fonts/lato-normal-italic.woff2') format('woff2'),
    url('../_static/css/fonts/lato-normal-italic.woff2') format('woff2'),
    url('css/fonts/lato-normal-italic.woff') format('woff'),
    url('../_static/css/fonts/lato-normal-italic.woff') format('woff');
  font-style: italic;
  font-weight: 400;
}
@font-face {
  font-family: 'Lato';
  src:
    url('css/fonts/lato-bold.woff2') format('woff2'),
    url('../_static/css/fonts/lato-bold.woff2') format('woff2'),
    url('css/fonts/lato-bold.woff') format('woff'),
    url('../_static/css/fonts/lato-bold.woff') format('woff');
  font-style: normal;
  font-weight: 700;
}
@font-face {
  font-family: 'Lato';
  src:
    url('css/fonts/lato-bold-italic.woff2') format('woff2'),
    url('../_static/css/fonts/lato-bold-italic.woff2') format('woff2'),
    url('css/fonts/lato-bold-italic.woff') format('woff'),
    url('../_static/css/fonts/lato-bold-italic.woff') format('woff');
  font-style: italic;
  font-weight: 700;
}
  ]]></style>
  <line x1="96.000" y1="24.000" x2="96.000" y2="392.000" stroke="#9ca3af" stroke-width="1.350"/>
  <line x1="262.400" y1="24.000" x2="262.400" y2="392.000" stroke="#9ca3af" stroke-width="1.350"/>
  <line x1="428.800" y1="24.000" x2="428.800" y2="392.000" stroke="#9ca3af" stroke-width="1.350"/>
  <line x1="595.200" y1="24.000" x2="595.200" y2="392.000" stroke="#9ca3af" stroke-width="1.350"/>
  <line x1="761.600" y1="24.000" x2="761.600" y2="392.000" stroke="#9ca3af" stroke-width="1.350"/>
  <line x1="928.000" y1="24.000" x2="928.000" y2="392.000" stroke="#9ca3af" stroke-width="1.350"/>
  <line x1="96.000" y1="392.000" x2="928.000" y2="392.000" stroke="#9ca3af" stroke-width="1.350"/>
  <line x1="96.000" y1="339.429" x2="928.000" y2="339.429" stroke="#9ca3af" stroke-width="1.350"/>
  <line x1="96.000" y1="286.857" x2="928.000" y2="286.857" stroke="#9ca3af" stroke-width="1.350"/>
  <line x1="96.000" y1="234.286" x2="928.000" y2="234.286" stroke="#9ca3af" stroke-width="1.350"/>
  <line x1="96.000" y1="181.714" x2="928.000" y2="181.714" stroke="#9ca3af" stroke-width="1.350"/>
  <line x1="96.000" y1="129.143" x2="928.000" y2="129.143" stroke="#9ca3af" stroke-width="1.350"/>
  <line x1="96.000" y1="76.571" x2="928.000" y2="76.571" stroke="#9ca3af" stroke-width="1.350"/>
  <line x1="96.000" y1="24.000" x2="928.000" y2="24.000" stroke="#9ca3af" stroke-width="1.350"/>
  <g clip-path="url(#plot-area-clip)">
    <g fill="#5fa8e8" fill-opacity="0.900">
    <circle cx="104.320" cy="118.723" r="4.500"/>
    <circle cx="112.640" cy="193.585" r="4.500"/>
    <circle cx="120.960" cy="250.927" r="4.500"/>
    <circle cx="129.280" cy="293.597" r="4.500"/>
    <circle cx="137.600" cy="324.408" r="4.500"/>
    <circle cx="145.920" cy="345.866" r="4.500"/>
    <circle cx="154.240" cy="360.073" r="4.500"/>
    <circle cx="162.560" cy="368.731" r="4.500"/>
    <circle cx="170.880" cy="373.183" r="4.500"/>
    <circle cx="179.200" cy="374.476" r="4.500"/>
    <circle cx="187.520" cy="373.417" r="4.500"/>
    <circle cx="195.840" cy="370.625" r="4.500"/>
    <circle cx="204.160" cy="366.571" r="4.500"/>
    <circle cx="212.480" cy="361.615" r="4.500"/>
    <circle cx="220.800" cy="356.030" r="4.500"/>
    <circle cx="229.120" cy="350.024" r="4.500"/>
    <circle cx="237.440" cy="343.755" r="4.500"/>
    <circle cx="245.760" cy="337.340" r="4.500"/>
    <circle cx="254.080" cy="330.869" r="4.500"/>
    <circle cx="262.400" cy="324.408" r="4.500"/>
    <circle cx="270.720" cy="318.008" r="4.500"/>
    <circle cx="279.040" cy="311.704" r="4.500"/>
    <circle cx="287.360" cy="305.523" r="4.500"/>
    <circle cx="295.680" cy="299.483" r="4.500"/>
    <circle cx="304.000" cy="293.597" r="4.500"/>
    <circle cx="312.320" cy="287.872" r="4.500"/>
    <circle cx="320.640" cy="282.313" r="4.500"/>
    <circle cx="328.960" cy="276.921" r="4.500"/>
    <circle cx="337.280" cy="271.696" r="4.500"/>
    <circle cx="345.600" cy="266.637" r="4.500"/>
    <circle cx="353.920" cy="261.741" r="4.500"/>
    <circle cx="362.240" cy="257.004" r="4.500"/>
    <circle cx="370.560" cy="252.421" r="4.500"/>
    <circle cx="378.880" cy="247.989" r="4.500"/>
    <circle cx="387.200" cy="243.701" r="4.500"/>
    <circle cx="395.520" cy="239.555" r="4.500"/>
    <circle cx="403.840" cy="235.544" r="4.500"/>
    <circle cx="412.160" cy="231.663" r="4.500"/>
    <circle cx="420.480" cy="227.907" r="4.500"/>
    <circle cx="428.800" cy="224.272" r="4.500"/>
    <circle cx="437.120" cy="220.753" r="4.500"/>
    <circle cx="445.440" cy="217.345" r="4.500"/>
    <circle cx="453.760" cy="214.044" r="4.500"/>
    <circle cx="462.080" cy="210.845" r="4.500"/>
    <circle cx="470.400" cy="207.745" r="4.500"/>
    <circle cx="478.720" cy="204.739" r="4.500"/>
    <circle cx="487.040" cy="201.823" r="4.500"/>
    <circle cx="495.360" cy="198.995" r="4.500"/>
    <circle cx="503.680" cy="196.250" r="4.500"/>
    <circle cx="512.000" cy="193.585" r="4.500"/>
    <circle cx="520.320" cy="190.997" r="4.500"/>
    <circle cx="528.640" cy="188.483" r="4.500"/>
    <circle cx="536.960" cy="186.040" r="4.500"/>
    <circle cx="545.280" cy="183.666" r="4.500"/>
    <circle cx="553.600" cy="181.357" r="4.500"/>
    <circle cx="561.920" cy="179.111" r="4.500"/>
    <circle cx="570.240" cy="176.925" r="4.500"/>
    <circle cx="578.560" cy="174.798" r="4.500"/>
    <circle cx="586.880" cy="172.728" r="4.500"/>
    <circle cx="595.200" cy="170.711" r="4.500"/>
    <circle cx="603.520" cy="168.746" r="4.500"/>
    <circle cx="611.840" cy="166.832" r="4.500"/>
    <circle cx="620.160" cy="164.964" r="4.500"/>
    <circle cx="628.480" cy="163.147" r="4.500"/>
    <circle cx="636.800" cy="161.373" r="4.500"/>
    <circle cx="645.120" cy="159.642" r="4.500"/>
    <circle cx="653.440" cy="157.951" r="4.500"/>
    <circle cx="661.760" cy="156.304" r="4.500"/>
    <circle cx="670.080" cy="154.695" r="4.500"/>
    <circle cx="678.400" cy="153.123" r="4.500"/>
    <circle cx="686.720" cy="151.584" r="4.500"/>
    <circle cx="695.040" cy="150.087" r="4.500"/>
    <circle cx="703.360" cy="148.621" r="4.500"/>
    <circle cx="711.680" cy="147.188" r="4.500"/>
    <circle cx="720.000" cy="145.785" r="4.500"/>
    <circle cx="728.320" cy="144.415" r="4.500"/>
    <circle cx="736.640" cy="143.076" r="4.500"/>
    <circle cx="744.960" cy="141.765" r="4.500"/>
    <circle cx="753.280" cy="140.479" r="4.500"/>
    <circle cx="761.600" cy="139.225" r="4.500"/>
    <circle cx="769.920" cy="137.993" r="4.500"/>
    <circle cx="778.240" cy="136.788" r="4.500"/>
    <circle cx="786.560" cy="135.609" r="4.500"/>
    <circle cx="794.880" cy="134.454" r="4.500"/>
    <circle cx="803.200" cy="133.320" r="4.500"/>
    <circle cx="811.520" cy="132.211" r="4.500"/>
    <circle cx="819.840" cy="131.123" r="4.500"/>
    <circle cx="828.160" cy="130.056" r="4.500"/>
    <circle cx="836.480" cy="129.013" r="4.500"/>
    <circle cx="844.800" cy="127.986" r="4.500"/>
    <circle cx="853.120" cy="126.979" r="4.500"/>
    <circle cx="861.440" cy="125.992" r="4.500"/>
    <circle cx="869.760" cy="125.022" r="4.500"/>
    <circle cx="878.080" cy="124.071" r="4.500"/>
    <circle cx="886.400" cy="123.138" r="4.500"/>
    <circle cx="894.720" cy="122.221" r="4.500"/>
    <circle cx="903.040" cy="121.324" r="4.500"/>
    <circle cx="911.360" cy="120.440" r="4.500"/>
    <circle cx="919.680" cy="119.571" r="4.500"/>
    <circle cx="928.000" cy="118.711" r="4.500"/>
    </g>
    <polyline points="96.000,24.000 96.083,25.050 96.084,25.058 96.084,25.067 96.085,25.075 96.086,25.083 96.086,25.091 96.087,25.100 96.088,25.108 96.088,25.117 96.089,25.125 96.090,25.134 96.091,25.143 96.091,25.152 96.092,25.161 96.093,25.170 96.093,25.179 96.094,25.188 96.095,25.197 96.096,25.206 96.096,25.215 96.097,25.225 96.098,25.234 96.099,25.244 96.099,25.253 96.100,25.263 96.101,25.272 96.102,25.282 96.102,25.292 96.103,25.302 96.104,25.312 96.105,25.322 96.106,25.332 96.106,25.343 96.107,25.353 96.108,25.363 96.109,25.374 96.110,25.385 96.111,25.395 96.111,25.406 96.112,25.417 96.113,25.428 96.114,25.439 96.115,25.450 96.116,25.461 96.117,25.472 96.118,25.484 96.118,25.495 96.119,25.506 96.120,25.518 96.121,25.530 96.122,25.542 96.123,25.553 96.124,25.565 96.125,25.577 96.126,25.590 96.127,25.602 96.128,25.614 96.129,25.627 96.130,25.639 96.131,25.652 96.132,25.664 96.133,25.677 96.134,25.690 96.135,25.703 96.136,25.716 96.137,25.729 96.138,25.743 96.139,25.756 96.140,25.770 96.141,25.783 96.142,25.797 96.144,25.811 96.145,25.825 96.146,25.839 96.147,25.853 96.148,25.867 96.149,25.882 96.150,25.896 96.151,25.911 96.153,25.925 96.154,25.940 96.155,25.955 96.156,25.970 96.157,25.985 96.159,26.001 96.160,26.016 96.161,26.032 96.162,26.047 96.164,26.063 96.165,26.079 96.166,26.095 96.167,26.111 96.169,26.127 96.170,26.144 96.171,26.160 96.173,26.177 96.174,26.194 96.175,26.210 96.177,26.227 96.178,26.245 96.179,26.262 96.181,26.279 96.182,26.297 96.184,26.314 96.185,26.332 96.186,26.350 96.188,26.368 96.189,26.386 96.191,26.405 96.192,26.423 96.194,26.442 96.195,26.461 96.197,26.480 96.198,26.499 96.200,26.518 96.201,26.537 96.203,26.557 96.204,26.577 96.206,26.596 96.208,26.616 96.209,26.636 96.211,26.657 96.212,26.677 96.214,26.698 96.216,26.719 96.217,26.739 96.219,26.760 96.221,26.782 96.222,26.803 96.224,26.825 96.226,26.846 96.228,26.868 96.229,26.890 96.231,26.913 96.233,26.935 96.235,26.958 96.237,26.980 96.238,27.003 96.240,27.026 96.242,27.050 96.244,27.073 96.246,27.097 96.248,27.120 96.250,27.144 96.251,27.169 96.253,27.193 96.255,27.217 96.257,27.242 96.259,27.267 96.261,27.292 96.263,27.318 96.265,27.343 96.267,27.369 96.269,27.395 96.272,27.421 96.274,27.447 96.276,27.474 96.278,27.500 96.280,27.527 96.282,27.554 96.284,27.582 96.287,27.609 96.289,27.637 96.291,27.665 96.293,27.693 96.296,27.721 96.298,27.750 96.300,27.779 96.302,27.808 96.305,27.837 96.307,27.866 96.309,27.896 96.312,27.926 96.314,27.956 96.317,27.987 96.319,28.017 96.322,28.048 96.324,28.079 96.327,28.111 96.329,28.142 96.332,28.174 96.334,28.206 96.337,28.238 96.339,28.271 96.342,28.304 96.345,28.337 96.347,28.370 96.350,28.404 96.353,28.437 96.355,28.471 96.358,28.506 96.361,28.540 96.364,28.575 96.366,28.610 96.369,28.646 96.372,28.681 96.375,28.717 96.378,28.754 96.381,28.790 96.384,28.827 96.387,28.864 96.390,28.901 96.393,28.939 96.396,28.977 96.399,29.015 96.402,29.053 96.405,29.092 96.408,29.131 96.411,29.171 96.414,29.210 96.418,29.250 96.421,29.291 96.424,29.331 96.427,29.372 96.431,29.413 96.434,29.455 96.437,29.497 96.441,29.539 96.444,29.581 96.447,29.624 96.451,29.667 96.454,29.711 96.458,29.754 96.461,29.799 96.465,29.843 96.469,29.888 96.472,29.933 96.476,29.978 96.479,30.024 96.483,30.070 96.487,30.117 96.491,30.164 96.494,30.211 96.498,30.259 96.502,30.307 96.506,30.355 96.510,30.404 96.514,30.453 96.518,30.502 96.522,30.552 96.526,30.602 96.530,30.653 96.534,30.704 96.538,30.755 96.542,30.807 96.546,30.859 96.551,30.912 96.555,30.965 96.559,31.018 96.563,31.072 96.568,31.126 96.572,31.180 96.577,31.235 96.581,31.291 96.585,31.347 96.590,31.403 96.595,31.460 96.599,31.517 96.604,31.574 96.608,31.632 96.613,31.691 96.618,31.749 96.623,31.809 96.627,31.868 96.632,31.929 96.637,31.989 96.642,32.050 96.647,32.112 96.652,32.174 96.657,32.237 96.662,32.300 96.667,32.363 96.672,32.427 96.677,32.492 96.683,32.557 96.688,32.622 96.693,32.688 96.699,32.754 96.704,32.821 96.709,32.889 96.715,32.957 96.720,33.025 96.726,33.094 96.732,33.164 96.737,33.234 96.743,33.304 96.749,33.375 96.754,33.447 96.760,33.519 96.766,33.592 96.772,33.665 96.778,33.739 96.784,33.813 96.790,33.888 96.796,33.964 96.802,34.040 96.808,34.116 96.815,34.194 96.821,34.272 96.827,34.350 96.834,34.429 96.840,34.509 96.847,34.589 96.853,34.670 96.860,34.751 96.866,34.833 96.873,34.916 96.880,34.999 96.886,35.083 96.893,35.167 96.900,35.253 96.907,35.338 96.914,35.425 96.921,35.512 96.928,35.600 96.935,35.688 96.943,35.777 96.950,35.867 96.957,35.957 96.965,36.049 96.972,36.140 96.980,36.233 96.987,36.326 96.995,36.420 97.002,36.515 97.010,36.610 97.018,36.706 97.026,36.803 97.034,36.900 97.042,36.998 97.050,37.097 97.058,37.197 97.066,37.298 97.074,37.399 97.082,37.501 97.091,37.603 97.099,37.707 97.108,37.811 97.116,37.916 97.125,38.022 97.133,38.129 97.142,38.236 97.151,38.344 97.160,38.453 97.169,38.563 97.178,38.674 97.187,38.786 97.196,38.898 97.205,39.011 97.215,39.125 97.224,39.240 97.233,39.356 97.243,39.472 97.252,39.590 97.262,39.708 97.272,39.827 97.282,39.948 97.292,40.069 97.302,40.191 97.312,40.313 97.322,40.437 97.332,40.562 97.342,40.688 97.352,40.814 97.363,40.942 97.373,41.070 97.384,41.199 97.395,41.330 97.405,41.461 97.416,41.593 97.427,41.727 97.438,41.861 97.449,41.996 97.460,42.133 97.472,42.270 97.483,42.408 97.495,42.548 97.506,42.688 97.518,42.829 97.529,42.972 97.541,43.115 97.553,43.260 97.565,43.406 97.577,43.553 97.589,43.700 97.602,43.849 97.614,43.999 97.626,44.150 97.639,44.303 97.651,44.456 97.664,44.611 97.677,44.766 97.690,44.923 97.703,45.081 97.716,45.240 97.729,45.401 97.743,45.562 97.756,45.725 97.770,45.889 97.783,46.054 97.797,46.220 97.811,46.388 97.825,46.556 97.839,46.726 97.853,46.898 97.867,47.070 97.882,47.244 97.896,47.419 97.911,47.595 97.926,47.773 97.941,47.952 97.956,48.132 97.971,48.314 97.986,48.497 98.001,48.681 98.017,48.867 98.032,49.054 98.048,49.242 98.064,49.432 98.079,49.623 98.096,49.815 98.112,50.009 98.128,50.204 98.144,50.401 98.161,50.599 98.178,50.799 98.194,51.000 98.211,51.203 98.228,51.407 98.246,51.612 98.263,51.819 98.280,52.028 98.298,52.238 98.316,52.449 98.333,52.662 98.351,52.877 98.370,53.093 98.388,53.311 98.406,53.530 98.425,53.751 98.444,53.973 98.462,54.197 98.481,54.423 98.500,54.650 98.520,54.879 98.539,55.110 98.559,55.342 98.578,55.576 98.598,55.812 98.618,56.049 98.639,56.289 98.659,56.529 98.679,56.772 98.700,57.016 98.721,57.262 98.742,57.510 98.763,57.759 98.784,58.011 98.806,58.264 98.827,58.519 98.849,58.776 98.871,59.034 98.893,59.295 98.916,59.557 98.938,59.821 98.961,60.087 98.984,60.355 99.007,60.625 99.030,60.897 99.053,61.171 99.077,61.446 99.101,61.724 99.124,62.004 99.149,62.285 99.173,62.569 99.197,62.854 99.222,63.142 99.247,63.432 99.272,63.723 99.297,64.017 99.322,64.313 99.348,64.611 99.374,64.911 99.400,65.213 99.426,65.517 99.453,65.823 99.479,66.132 99.506,66.443 99.533,66.755 99.560,67.070 99.588,67.388 99.615,67.707 99.643,68.029 99.671,68.353 99.700,68.679 99.728,69.007 99.757,69.338 99.786,69.671 99.815,70.007 99.845,70.344 99.874,70.684 99.904,71.027 99.934,71.372 99.964,71.719 99.995,72.068 100.026,72.420 100.057,72.775 100.088,73.131 100.120,73.491 100.152,73.852 100.184,74.217 100.216,74.583 100.248,74.953 100.281,75.324 100.314,75.699 100.347,76.075 100.381,76.455 100.415,76.837 100.449,77.222 100.483,77.609 100.518,77.999 100.552,78.391 100.587,78.786 100.623,79.184 100.659,79.585 100.694,79.988 100.731,80.394 100.767,80.803 100.804,81.214 100.841,81.628 100.878,82.045 100.916,82.465 100.954,82.888 100.992,83.313 101.030,83.741 101.069,84.172 101.108,84.606 101.148,85.043 101.187,85.483 101.227,85.926 101.268,86.371 101.308,86.820 101.349,87.271 101.391,87.726 101.432,88.183 101.474,88.644 101.516,89.108 101.559,89.574 101.602,90.044 101.645,90.516 101.688,90.992 101.732,91.471 101.776,91.953 101.821,92.438 101.866,92.927 101.911,93.418 101.957,93.913 102.003,94.411 102.049,94.912 102.096,95.416 102.143,95.923 102.190,96.434 102.238,96.948 102.286,97.465 102.334,97.986 102.383,98.510 102.432,99.037 102.482,99.568 102.532,100.102 102.582,100.639 102.633,101.180 102.684,101.724 102.736,102.271 102.788,102.822 102.840,103.377 102.893,103.935 102.946,104.496 102.999,105.061 103.053,105.629 103.108,106.201 103.163,106.776 103.218,107.355 103.273,107.938 103.330,108.524 103.386,109.114 103.443,109.707 103.500,110.304 103.558,110.904 103.617,111.509 103.675,112.117 103.734,112.728 103.794,113.343 103.854,113.962 103.915,114.585 103.976,115.211 104.037,115.841 104.099,116.475 104.162,117.113 104.225,117.754 104.288,118.399 104.352,119.048 104.416,119.701 104.481,120.358 104.547,121.018 104.613,121.682 104.679,122.351 104.746,123.023 104.813,123.698 104.881,124.378 104.950,125.062 105.019,125.750 105.088,126.441 105.159,127.137 105.229,127.836 105.300,128.539 105.372,129.247 105.444,129.958 105.517,130.673 105.591,131.393 105.664,132.116 105.739,132.843 105.814,133.574 105.890,134.310 105.966,135.049 106.043,135.792 106.120,136.540 106.198,137.291 106.277,138.047 106.356,138.806 106.436,139.570 106.517,140.338 106.598,141.110 106.679,141.886 106.762,142.666 106.845,143.450 106.928,144.238 107.013,145.030 107.098,145.827 107.183,146.627 107.269,147.432 107.356,148.241 107.444,149.054 107.532,149.871 107.621,150.692 107.711,151.517 107.801,152.346 107.892,153.180 107.984,154.017 108.076,154.859 108.169,155.705 108.263,156.555 108.358,157.409 108.453,158.267 108.549,159.130 108.646,159.996 108.743,160.866 108.841,161.741 108.940,162.620 109.040,163.503 109.141,164.390 109.242,165.281 109.344,166.176 109.447,167.075 109.551,167.978 109.655,168.885 109.761,169.796 109.867,170.712 109.974,171.631 110.081,172.554 110.190,173.482 110.299,174.413 110.410,175.348 110.521,176.288 110.633,177.231 110.746,178.178 110.859,179.129 110.974,180.084 111.089,181.043 111.206,182.006 111.323,182.972 111.441,183.943 111.560,184.917 111.680,185.895 111.801,186.877 111.923,187.863 112.046,188.852 112.170,189.845 112.294,190.842 112.420,191.842 112.546,192.846 112.674,193.854 112.803,194.865 112.932,195.880 113.063,196.898 113.194,197.920 113.327,198.946 113.461,199.975 113.595,201.007 113.731,202.043 113.868,203.082 114.005,204.124 114.144,205.170 114.284,206.219 114.425,207.271 114.567,208.326 114.710,209.385 114.855,210.446 115.000,211.511 115.147,212.579 115.294,213.649 115.443,214.723 115.593,215.799 115.744,216.879 115.896,217.961 116.050,219.046 116.204,220.134 116.360,221.224 116.517,222.317 116.675,223.413 116.835,224.511 116.995,225.612 117.157,226.715 117.320,227.820 117.485,228.928 117.651,230.038 117.818,231.150 117.986,232.265 118.155,233.381 118.326,234.500 118.498,235.620 118.672,236.743 118.847,237.867 119.023,238.993 119.200,240.121 119.379,241.250 119.560,242.381 119.741,243.514 119.924,244.648 120.109,245.783 120.295,246.920 120.482,248.058 120.671,249.197 120.861,250.337 121.053,251.478 121.246,252.620 121.441,253.763 121.637,254.907 121.834,256.052 122.034,257.197 122.234,258.342 122.437,259.489 122.641,260.635 122.846,261.782 123.053,262.929 123.262,264.076 123.472,265.223 123.684,266.370 123.897,267.517 124.112,268.664 124.329,269.810 124.548,270.956 124.768,272.102 124.990,273.246 125.213,274.391 125.438,275.534 125.665,276.676 125.894,277.818 126.125,278.958 126.357,280.097 126.591,281.235 126.827,282.371 127.065,283.506 127.304,284.639 127.546,285.770 127.789,286.900 128.034,288.028 128.281,289.153 128.530,290.277 128.781,291.398 129.034,292.517 129.288,293.633 129.545,294.747 129.804,295.858 130.064,296.966 130.327,298.071 130.592,299.174 130.858,300.273 131.127,301.368 131.398,302.460 131.671,303.549 131.946,304.634 132.223,305.715 132.503,306.793 132.784,307.866 133.068,308.935 133.354,310.000 133.642,311.061 133.932,312.117 134.225,313.168 134.519,314.215 134.816,315.257 135.116,316.293 135.417,317.325 135.721,318.351 136.028,319.372 136.336,320.388 136.647,321.398 136.961,322.402 137.277,323.400 137.595,324.392 137.916,325.378 138.239,326.358 138.564,327.331 138.893,328.298 139.223,329.258 139.557,330.211 139.893,331.158 140.231,332.097 140.572,333.029 140.916,333.954 141.262,334.872 141.611,335.782 141.963,336.684 142.317,337.579 142.675,338.465 143.035,339.344 143.397,340.214 143.763,341.076 144.131,341.930 144.502,342.775 144.876,343.611 145.253,344.438 145.633,345.257 146.016,346.067 146.401,346.867 146.790,347.658 147.182,348.440 147.576,349.212 147.974,349.975 148.375,350.728 148.779,351.471 149.186,352.204 149.596,352.927 150.009,353.640 150.426,354.342 150.845,355.034 151.268,355.716 151.694,356.387 152.124,357.047 152.557,357.696 152.993,358.334 153.432,358.961 153.875,359.577 154.321,360.182 154.771,360.776 155.224,361.358 155.681,361.928 156.141,362.487 156.605,363.034 157.072,363.569 157.543,364.092 158.018,364.604 158.496,365.103 158.978,365.590 159.464,366.065 159.953,366.527 160.446,366.977 160.943,367.415 161.444,367.840 161.949,368.252 162.457,368.652 162.970,369.039 163.486,369.413 164.006,369.774 164.531,370.122 165.059,370.457 165.592,370.779 166.129,371.088 166.669,371.384 167.214,371.666 167.763,371.936 168.317,372.191 168.874,372.434 169.436,372.663 170.003,372.878 170.573,373.081 171.148,373.269 171.728,373.444 172.312,373.605 172.900,373.753 173.493,373.887 174.091,374.007 174.693,374.114 175.300,374.207 175.911,374.286 176.528,374.352 177.149,374.403 177.774,374.441 178.405,374.465 179.040,374.476 179.681,374.472 180.326,374.455 180.976,374.424 181.632,374.379 182.292,374.321 182.957,374.248 183.628,374.162 184.304,374.063 184.984,373.949 185.671,373.822 186.362,373.681 187.059,373.526 187.761,373.358 188.469,373.176 189.182,372.981 189.900,372.772 190.624,372.550 191.354,372.314 192.089,372.065 192.830,371.803 193.577,371.527 194.329,371.238 195.088,370.935 195.852,370.620 196.622,370.291 197.398,369.950 198.180,369.595 198.968,369.227 199.762,368.847 200.562,368.454 201.368,368.048 202.181,367.629 202.999,367.198 203.824,366.754 204.656,366.298 205.494,365.829 206.338,365.348 207.189,364.855 208.046,364.350 208.910,363.832 209.781,363.303 210.658,362.762 211.543,362.209 212.434,361.644 213.331,361.068 214.236,360.480 215.148,359.881 216.067,359.271 216.993,358.649 217.926,358.016 218.866,357.373 219.813,356.718 220.768,356.052 221.730,355.376 222.700,354.690 223.677,353.992 224.661,353.285 225.653,352.567 226.653,351.839 227.661,351.101 228.676,350.353 229.699,349.595 230.730,348.828 231.769,348.050 232.816,347.264 233.871,346.468 234.934,345.663 236.005,344.849 237.085,344.026 238.173,343.194 239.269,342.353 240.374,341.504 241.487,340.646 242.609,339.780 243.740,338.905 244.879,338.023 246.027,337.132 247.184,336.234 248.350,335.328 249.525,334.414 250.709,333.493 251.902,332.564 253.104,331.628 254.315,330.685 255.536,329.736 256.766,328.779 258.006,327.815 259.255,326.845 260.514,325.869 261.783,324.886 263.061,323.897 264.349,322.902 265.648,321.900 266.956,320.894 268.274,319.881 269.603,318.863 270.941,317.839 272.290,316.810 273.650,315.776 275.020,314.736 276.400,313.692 277.791,312.643 279.193,311.589 280.606,310.531 282.029,309.468 283.464,308.401 284.909,307.330 286.366,306.255 287.834,305.175 289.313,304.092 290.804,303.005 292.306,301.915 293.820,300.821 295.345,299.723 296.883,298.623 298.432,297.519 299.993,296.413 301.566,295.303 303.151,294.191 304.748,293.075 306.358,291.958 307.980,290.838 309.615,289.715 311.262,288.591 312.922,287.464 314.595,286.336 316.280,285.205 317.979,284.073 319.691,282.939 321.416,281.803 323.154,280.666 324.906,279.528 326.671,278.388 328.449,277.247 330.242,276.105 332.048,274.962 333.868,273.819 335.703,272.674 337.551,271.529 339.414,270.383 341.291,269.237 343.182,268.091 345.088,266.944 347.009,265.797 348.945,264.650 350.895,263.502 352.861,262.355 354.842,261.208 356.838,260.062 358.849,258.915 360.876,257.770 362.918,256.624 364.977,255.479 367.051,254.335 369.141,253.192 371.247,252.049 373.370,250.908 375.509,249.767 377.664,248.627 379.836,247.489 382.025,246.351 384.230,245.215 386.453,244.081 388.693,242.947 390.950,241.816 393.224,240.685 395.516,239.557 397.826,238.430 400.153,237.305 402.499,236.181 404.862,235.060 407.244,233.940 409.644,232.823 412.063,231.707 414.500,230.594 416.956,229.483 419.431,228.374 421.925,227.267 424.438,226.163 426.971,225.061 429.523,223.962 432.095,222.865 434.687,221.770 437.298,220.679 439.930,219.590 442.582,218.503 445.255,217.420 447.948,216.339 450.662,215.261 453.397,214.186 456.153,213.114 458.930,212.044 461.729,210.978 464.549,209.915 467.391,208.855 470.255,207.798 473.141,206.744 476.049,205.694 478.980,204.646 481.933,203.602 484.909,202.562 487.908,201.524 490.930,200.490 493.976,199.460 497.044,198.433 500.137,197.409 503.253,196.389 506.394,195.372 509.559,194.359 512.748,193.350 515.961,192.344 519.200,191.341 522.463,190.343 525.752,189.348 529.066,188.357 532.405,187.369 535.770,186.386 539.162,185.406 542.579,184.429 546.023,183.457 549.493,182.489 552.990,181.524 556.514,180.563 560.065,179.606 563.643,178.653 567.250,177.704 570.883,176.759 574.545,175.818 578.236,174.880 581.954,173.947 585.702,173.018 589.478,172.092 593.283,171.171 597.118,170.254 600.982,169.340 604.876,168.431 608.800,167.526 612.755,166.625 616.739,165.728 620.755,164.835 624.801,163.946 628.879,163.061 632.988,162.180 637.129,161.303 641.302,160.431 645.507,159.562 649.744,158.698 654.014,157.838 658.317,156.981 662.654,156.129 667.023,155.281 671.427,154.438 675.864,153.598 680.335,152.762 684.841,151.931 689.382,151.104 693.958,150.281 698.569,149.462 703.215,148.647 707.898,147.836 712.616,147.029 717.371,146.226 722.163,145.428 726.991,144.634 731.857,143.843 736.760,143.057 741.701,142.275 746.680,141.497 751.698,140.723 756.754,139.954 761.849,139.188 766.984,138.426 772.158,137.669 777.372,136.915 782.626,136.166 787.921,135.420 793.257,134.679 798.633,133.942 804.052,133.208 809.512,132.479 815.014,131.754 820.558,131.032 826.145,130.315 831.776,129.602 837.450,128.893 843.167,128.187 848.929,127.486 854.735,126.788 860.586,126.095 866.481,125.405 872.423,124.720 878.410,124.038 884.443,123.360 890.523,122.686 896.650,122.016 902.824,121.350 909.046,120.687 915.315,120.029 921.633,119.374 928.000,118.723" fill="none" stroke="#000000" stroke-width="2.800" stroke-opacity="1.000"/>
  </g>
  <rect x="96.000" y="24.000" width="832.000" height="368.000" fill="none" stroke="#3f3f46" stroke-width="1.8"/>
  <rect x="718.500" y="40.000" width="193.500" height="82.000" rx="6" ry="6" fill="#ffffff" fill-opacity="0.94" stroke="#000000" stroke-width="1.2"/>
  <line x1="732.500" y1="66.000" x2="772.500" y2="66.000" stroke="#000000" stroke-width="2.800" stroke-opacity="1.000"/>
  <text x="782.500" y="73.000" text-anchor="start" fill="#111827" font-family="'Lato', 'Avenir Next', 'Segoe UI', 'Helvetica Neue', sans-serif" font-size="20.0">Theoretical</text>
  <circle cx="752.500" cy="96.000" r="4.500" fill="#5fa8e8" fill-opacity="1.000"/>
  <text x="782.500" y="103.000" text-anchor="start" fill="#111827" font-family="'Lato', 'Avenir Next', 'Segoe UI', 'Helvetica Neue', sans-serif" font-size="20.0">AutoLyap</text>
  <line x1="96.000" y1="392.000" x2="96.000" y2="384.000" stroke="#3f3f46" stroke-width="1.4"/>
  <text x="96.000" y="438.000" text-anchor="middle" fill="#52525b" font-family="'Lato', 'Avenir Next', 'Segoe UI', 'Helvetica Neue', sans-serif" font-size="21">0</text>
  <line x1="262.400" y1="392.000" x2="262.400" y2="384.000" stroke="#3f3f46" stroke-width="1.4"/>
  <text x="262.400" y="438.000" text-anchor="middle" fill="#52525b" font-family="'Lato', 'Avenir Next', 'Segoe UI', 'Helvetica Neue', sans-serif" font-size="21">1</text>
  <line x1="428.800" y1="392.000" x2="428.800" y2="384.000" stroke="#3f3f46" stroke-width="1.4"/>
  <text x="428.800" y="438.000" text-anchor="middle" fill="#52525b" font-family="'Lato', 'Avenir Next', 'Segoe UI', 'Helvetica Neue', sans-serif" font-size="21">2</text>
  <line x1="595.200" y1="392.000" x2="595.200" y2="384.000" stroke="#3f3f46" stroke-width="1.4"/>
  <text x="595.200" y="438.000" text-anchor="middle" fill="#52525b" font-family="'Lato', 'Avenir Next', 'Segoe UI', 'Helvetica Neue', sans-serif" font-size="21">3</text>
  <line x1="761.600" y1="392.000" x2="761.600" y2="384.000" stroke="#3f3f46" stroke-width="1.4"/>
  <text x="761.600" y="438.000" text-anchor="middle" fill="#52525b" font-family="'Lato', 'Avenir Next', 'Segoe UI', 'Helvetica Neue', sans-serif" font-size="21">4</text>
  <line x1="928.000" y1="392.000" x2="928.000" y2="384.000" stroke="#3f3f46" stroke-width="1.4"/>
  <text x="928.000" y="438.000" text-anchor="middle" fill="#52525b" font-family="'Lato', 'Avenir Next', 'Segoe UI', 'Helvetica Neue', sans-serif" font-size="21">5</text>
  <line x1="104.000" y1="392.000" x2="96.000" y2="392.000" stroke="#3f3f46" stroke-width="1.4"/>
  <text x="82.000" y="399.000" text-anchor="end" fill="#52525b" font-family="'Lato', 'Avenir Next', 'Segoe UI', 'Helvetica Neue', sans-serif" font-size="21">0.3</text>
  <line x1="104.000" y1="339.429" x2="96.000" y2="339.429" stroke="#3f3f46" stroke-width="1.4"/>
  <text x="82.000" y="346.429" text-anchor="end" fill="#52525b" font-family="'Lato', 'Avenir Next', 'Segoe UI', 'Helvetica Neue', sans-serif" font-size="21">0.4</text>
  <line x1="104.000" y1="286.857" x2="96.000" y2="286.857" stroke="#3f3f46" stroke-width="1.4"/>
  <text x="82.000" y="293.857" text-anchor="end" fill="#52525b" font-family="'Lato', 'Avenir Next', 'Segoe UI', 'Helvetica Neue', sans-serif" font-size="21">0.5</text>
  <line x1="104.000" y1="234.286" x2="96.000" y2="234.286" stroke="#3f3f46" stroke-width="1.4"/>
  <text x="82.000" y="241.286" text-anchor="end" fill="#52525b" font-family="'Lato', 'Avenir Next', 'Segoe UI', 'Helvetica Neue', sans-serif" font-size="21">0.6</text>
  <line x1="104.000" y1="181.714" x2="96.000" y2="181.714" stroke="#3f3f46" stroke-width="1.4"/>
  <text x="82.000" y="188.714" text-anchor="end" fill="#52525b" font-family="'Lato', 'Avenir Next', 'Segoe UI', 'Helvetica Neue', sans-serif" font-size="21">0.7</text>
  <line x1="104.000" y1="129.143" x2="96.000" y2="129.143" stroke="#3f3f46" stroke-width="1.4"/>
  <text x="82.000" y="136.143" text-anchor="end" fill="#52525b" font-family="'Lato', 'Avenir Next', 'Segoe UI', 'Helvetica Neue', sans-serif" font-size="21">0.8</text>
  <line x1="104.000" y1="76.571" x2="96.000" y2="76.571" stroke="#3f3f46" stroke-width="1.4"/>
  <text x="82.000" y="83.571" text-anchor="end" fill="#52525b" font-family="'Lato', 'Avenir Next', 'Segoe UI', 'Helvetica Neue', sans-serif" font-size="21">0.9</text>
  <line x1="104.000" y1="24.000" x2="96.000" y2="24.000" stroke="#3f3f46" stroke-width="1.4"/>
  <text x="82.000" y="31.000" text-anchor="end" fill="#52525b" font-family="'Lato', 'Avenir Next', 'Segoe UI', 'Helvetica Neue', sans-serif" font-size="21">1</text>
  <text x="512.000" y="470.000" text-anchor="middle" fill="#111827" font-family="'Lato', 'Avenir Next', 'Segoe UI', 'Helvetica Neue', sans-serif" font-size="28">γ</text>
  <text x="30.0" y="208.000" text-anchor="middle" transform="rotate(0 30.0 208.000)" fill="#111827" font-family="'Lato', 'Avenir Next', 'Segoe UI', 'Helvetica Neue', sans-serif" font-size="28">ρ</text>
</svg>
