<?xml version="1.0" encoding="UTF-8"?>
<svg xmlns="http://www.w3.org/2000/svg" width="960" height="480" viewBox="0 0 960 480" role="img" aria-label="Douglas-Rachford rho versus lambda">
  <title>Douglas-Rachford contraction factor vs relaxation parameter</title>
  <desc>Rho vs lambda for Douglas-Rachford: theoretical curve and AutoLyap points.</desc>
  <rect x="0" y="0" width="960" height="480" fill="#ffffff"/>
  <rect x="96.000" y="24.000" width="832.000" height="368.000" fill="#f8fafc"/>
  <defs>
    <clipPath id="plot-area-clip">
      <rect x="96.000" y="24.000" width="832.000" height="368.000"/>
    </clipPath>
  </defs>
  <style type="text/css"><![CDATA[
@font-face {
  font-family: 'Lato';
  src:
    url('css/fonts/lato-normal.woff2') format('woff2'),
    url('../_static/css/fonts/lato-normal.woff2') format('woff2'),
    url('css/fonts/lato-normal.woff') format('woff'),
    url('../_static/css/fonts/lato-normal.woff') format('woff');
  font-style: normal;
  font-weight: 400;
}
@font-face {
  font-family: 'Lato';
  src:
    url('css/fonts/lato-normal-italic.woff2') format('woff2'),
    url('../_static/css/fonts/lato-normal-italic.woff2') format('woff2'),
    url('css/fonts/lato-normal-italic.woff') format('woff'),
    url('../_static/css/fonts/lato-normal-italic.woff') format('woff');
  font-style: italic;
  font-weight: 400;
}
@font-face {
  font-family: 'Lato';
  src:
    url('css/fonts/lato-bold.woff2') format('woff2'),
    url('../_static/css/fonts/lato-bold.woff2') format('woff2'),
    url('css/fonts/lato-bold.woff') format('woff'),
    url('../_static/css/fonts/lato-bold.woff') format('woff');
  font-style: normal;
  font-weight: 700;
}
@font-face {
  font-family: 'Lato';
  src:
    url('css/fonts/lato-bold-italic.woff2') format('woff2'),
    url('../_static/css/fonts/lato-bold-italic.woff2') format('woff2'),
    url('css/fonts/lato-bold-italic.woff') format('woff'),
    url('../_static/css/fonts/lato-bold-italic.woff') format('woff');
  font-style: italic;
  font-weight: 700;
}
  ]]></style>
  <line x1="96.000" y1="24.000" x2="96.000" y2="392.000" stroke="#9ca3af" stroke-width="1.350"/>
  <line x1="262.400" y1="24.000" x2="262.400" y2="392.000" stroke="#9ca3af" stroke-width="1.350"/>
  <line x1="428.800" y1="24.000" x2="428.800" y2="392.000" stroke="#9ca3af" stroke-width="1.350"/>
  <line x1="595.200" y1="24.000" x2="595.200" y2="392.000" stroke="#9ca3af" stroke-width="1.350"/>
  <line x1="761.600" y1="24.000" x2="761.600" y2="392.000" stroke="#9ca3af" stroke-width="1.350"/>
  <line x1="928.000" y1="24.000" x2="928.000" y2="392.000" stroke="#9ca3af" stroke-width="1.350"/>
  <line x1="96.000" y1="392.000" x2="928.000" y2="392.000" stroke="#9ca3af" stroke-width="1.350"/>
  <line x1="96.000" y1="300.000" x2="928.000" y2="300.000" stroke="#9ca3af" stroke-width="1.350"/>
  <line x1="96.000" y1="208.000" x2="928.000" y2="208.000" stroke="#9ca3af" stroke-width="1.350"/>
  <line x1="96.000" y1="116.000" x2="928.000" y2="116.000" stroke="#9ca3af" stroke-width="1.350"/>
  <line x1="96.000" y1="24.000" x2="928.000" y2="24.000" stroke="#9ca3af" stroke-width="1.350"/>
  <g clip-path="url(#plot-area-clip)">
    <g fill="#5fa8e8" fill-opacity="0.900">
    <circle cx="100.160" cy="28.589" r="4.500"/>
    <circle cx="108.480" cy="37.696" r="4.500"/>
    <circle cx="116.800" cy="46.711" r="4.500"/>
    <circle cx="125.120" cy="55.631" r="4.500"/>
    <circle cx="133.440" cy="64.458" r="4.500"/>
    <circle cx="141.760" cy="73.188" r="4.500"/>
    <circle cx="150.080" cy="81.823" r="4.500"/>
    <circle cx="158.400" cy="90.360" r="4.500"/>
    <circle cx="166.720" cy="98.799" r="4.500"/>
    <circle cx="175.040" cy="107.140" r="4.500"/>
    <circle cx="183.360" cy="115.380" r="4.500"/>
    <circle cx="191.680" cy="123.519" r="4.500"/>
    <circle cx="200.000" cy="131.556" r="4.500"/>
    <circle cx="208.320" cy="139.490" r="4.500"/>
    <circle cx="216.640" cy="147.319" r="4.500"/>
    <circle cx="224.960" cy="155.043" r="4.500"/>
    <circle cx="233.280" cy="162.659" r="4.500"/>
    <circle cx="241.600" cy="170.168" r="4.500"/>
    <circle cx="249.920" cy="177.566" r="4.500"/>
    <circle cx="258.240" cy="184.853" r="4.500"/>
    <circle cx="266.560" cy="192.027" r="4.500"/>
    <circle cx="274.880" cy="199.087" r="4.500"/>
    <circle cx="283.200" cy="206.031" r="4.500"/>
    <circle cx="291.520" cy="212.857" r="4.500"/>
    <circle cx="299.840" cy="219.563" r="4.500"/>
    <circle cx="308.160" cy="226.147" r="4.500"/>
    <circle cx="316.480" cy="232.608" r="4.500"/>
    <circle cx="324.800" cy="238.943" r="4.500"/>
    <circle cx="333.120" cy="245.149" r="4.500"/>
    <circle cx="341.440" cy="251.226" r="4.500"/>
    <circle cx="349.760" cy="257.169" r="4.500"/>
    <circle cx="358.080" cy="262.977" r="4.500"/>
    <circle cx="366.400" cy="268.646" r="4.500"/>
    <circle cx="374.720" cy="274.175" r="4.500"/>
    <circle cx="383.040" cy="279.560" r="4.500"/>
    <circle cx="391.360" cy="284.797" r="4.500"/>
    <circle cx="399.680" cy="289.885" r="4.500"/>
    <circle cx="408.000" cy="294.818" r="4.500"/>
    <circle cx="416.320" cy="299.595" r="4.500"/>
    <circle cx="424.640" cy="304.210" r="4.500"/>
    <circle cx="432.960" cy="308.661" r="4.500"/>
    <circle cx="441.280" cy="312.942" r="4.500"/>
    <circle cx="449.600" cy="317.051" r="4.500"/>
    <circle cx="457.920" cy="320.981" r="4.500"/>
    <circle cx="466.240" cy="324.729" r="4.500"/>
    <circle cx="474.560" cy="328.290" r="4.500"/>
    <circle cx="482.880" cy="331.658" r="4.500"/>
    <circle cx="491.200" cy="334.829" r="4.500"/>
    <circle cx="499.520" cy="337.796" r="4.500"/>
    <circle cx="507.840" cy="340.554" r="4.500"/>
    <circle cx="516.160" cy="343.096" r="4.500"/>
    <circle cx="524.480" cy="345.417" r="4.500"/>
    <circle cx="532.800" cy="347.510" r="4.500"/>
    <circle cx="541.120" cy="349.368" r="4.500"/>
    <circle cx="549.440" cy="350.983" r="4.500"/>
    <circle cx="557.760" cy="352.349" r="4.500"/>
    <circle cx="566.080" cy="353.458" r="4.500"/>
    <circle cx="574.400" cy="354.303" r="4.500"/>
    <circle cx="582.720" cy="354.874" r="4.500"/>
    <circle cx="591.040" cy="355.163" r="4.500"/>
    <circle cx="599.360" cy="355.163" r="4.500"/>
    <circle cx="607.680" cy="354.864" r="4.500"/>
    <circle cx="616.000" cy="354.257" r="4.500"/>
    <circle cx="624.320" cy="353.332" r="4.500"/>
    <circle cx="632.640" cy="352.082" r="4.500"/>
    <circle cx="640.960" cy="350.495" r="4.500"/>
    <circle cx="649.280" cy="348.562" r="4.500"/>
    <circle cx="657.600" cy="346.273" r="4.500"/>
    <circle cx="665.920" cy="343.619" r="4.500"/>
    <circle cx="674.240" cy="340.589" r="4.500"/>
    <circle cx="682.560" cy="337.174" r="4.500"/>
    <circle cx="690.880" cy="333.364" r="4.500"/>
    <circle cx="699.200" cy="329.148" r="4.500"/>
    <circle cx="707.520" cy="324.517" r="4.500"/>
    <circle cx="715.840" cy="319.461" r="4.500"/>
    <circle cx="724.160" cy="313.971" r="4.500"/>
    <circle cx="732.480" cy="308.038" r="4.500"/>
    <circle cx="740.800" cy="301.652" r="4.500"/>
    <circle cx="749.120" cy="294.805" r="4.500"/>
    <circle cx="757.440" cy="287.488" r="4.500"/>
    <circle cx="765.760" cy="279.693" r="4.500"/>
    <circle cx="774.080" cy="271.413" r="4.500"/>
    <circle cx="782.400" cy="262.640" r="4.500"/>
    <circle cx="790.720" cy="253.367" r="4.500"/>
    <circle cx="799.040" cy="243.589" r="4.500"/>
    <circle cx="807.360" cy="233.297" r="4.500"/>
    <circle cx="815.680" cy="222.489" r="4.500"/>
    <circle cx="824.000" cy="211.157" r="4.500"/>
    <circle cx="832.320" cy="199.298" r="4.500"/>
    <circle cx="840.640" cy="186.907" r="4.500"/>
    <circle cx="848.960" cy="173.981" r="4.500"/>
    <circle cx="857.280" cy="160.515" r="4.500"/>
    <circle cx="865.600" cy="146.509" r="4.500"/>
    <circle cx="873.920" cy="131.958" r="4.500"/>
    <circle cx="882.240" cy="116.860" r="4.500"/>
    <circle cx="890.560" cy="101.215" r="4.500"/>
    <circle cx="898.880" cy="85.020" r="4.500"/>
    <circle cx="907.200" cy="68.275" r="4.500"/>
    <circle cx="915.520" cy="50.979" r="4.500"/>
    <circle cx="923.840" cy="33.131" r="4.500"/>
    </g>
    <polyline points="96.000,24.000 96.000,24.000 96.167,24.184 96.333,24.368 96.500,24.552 96.666,24.736 96.833,24.920 96.999,25.104 97.165,25.288 97.332,25.472 97.498,25.655 97.665,25.839 97.831,26.023 97.998,26.206 98.164,26.390 98.330,26.573 98.497,26.757 98.663,26.940 98.830,27.124 98.996,27.307 99.163,27.491 99.329,27.674 99.496,27.857 99.662,28.040 99.828,28.224 99.995,28.407 100.161,28.590 100.328,28.773 100.494,28.956 100.661,29.139 100.827,29.322 100.993,29.505 101.160,29.688 101.326,29.871 101.493,30.054 101.659,30.236 101.826,30.419 101.992,30.602 102.158,30.785 102.325,30.967 102.491,31.150 102.658,31.332 102.824,31.515 102.991,31.697 103.157,31.880 103.323,32.062 103.490,32.245 103.656,32.427 103.823,32.609 103.989,32.792 104.156,32.974 104.322,33.156 104.489,33.338 104.655,33.520 104.821,33.703 104.988,33.885 105.154,34.067 105.321,34.249 105.487,34.431 105.654,34.612 105.820,34.794 105.986,34.976 106.153,35.158 106.319,35.340 106.486,35.521 106.652,35.703 106.819,35.885 106.985,36.066 107.151,36.248 107.318,36.430 107.484,36.611 107.651,36.793 107.817,36.974 107.984,37.155 108.150,37.337 108.316,37.518 108.483,37.699 108.649,37.881 108.816,38.062 108.982,38.243 109.149,38.424 109.315,38.605 109.481,38.786 109.648,38.967 109.814,39.148 109.981,39.329 110.147,39.510 110.314,39.691 110.480,39.872 110.647,40.052 110.813,40.233 110.979,40.414 111.146,40.595 111.312,40.775 111.479,40.956 111.645,41.136 111.812,41.317 111.978,41.497 112.144,41.678 112.311,41.858 112.477,42.039 112.644,42.219 112.810,42.399 112.977,42.580 113.143,42.760 113.309,42.940 113.476,43.120 113.642,43.300 113.809,43.480 113.975,43.661 114.142,43.841 114.308,44.020 114.474,44.200 114.641,44.380 114.807,44.560 114.974,44.740 115.140,44.920 115.307,45.100 115.473,45.279 115.640,45.459 115.806,45.639 115.972,45.818 116.139,45.998 116.305,46.177 116.472,46.357 116.638,46.536 116.805,46.716 116.971,46.895 117.137,47.074 117.304,47.254 117.470,47.433 117.637,47.612 117.803,47.791 117.970,47.970 118.136,48.149 118.302,48.329 118.469,48.508 118.635,48.687 118.802,48.866 118.968,49.044 119.135,49.223 119.301,49.402 119.467,49.581 119.634,49.760 119.800,49.939 119.967,50.117 120.133,50.296 120.300,50.474 120.466,50.653 120.633,50.832 120.799,51.010 120.965,51.189 121.132,51.367 121.298,51.545 121.465,51.724 121.631,51.902 121.798,52.080 121.964,52.259 122.130,52.437 122.297,52.615 122.463,52.793 122.630,52.971 122.796,53.149 122.963,53.327 123.129,53.505 123.295,53.683 123.462,53.861 123.628,54.039 123.795,54.217 123.961,54.395 124.128,54.572 124.294,54.750 124.460,54.928 124.627,55.105 124.793,55.283 124.960,55.460 125.126,55.638 125.293,55.816 125.459,55.993 125.626,56.170 125.792,56.348 125.958,56.525 126.125,56.702 126.291,56.880 126.458,57.057 126.624,57.234 126.791,57.411 126.957,57.588 127.123,57.765 127.290,57.942 127.456,58.119 127.623,58.296 127.789,58.473 127.956,58.650 128.122,58.827 128.288,59.004 128.455,59.181 128.621,59.357 128.788,59.534 128.954,59.711 129.121,59.887 129.287,60.064 129.453,60.240 129.620,60.417 129.786,60.593 129.953,60.770 130.119,60.946 130.286,61.122 130.452,61.299 130.619,61.475 130.785,61.651 130.951,61.827 131.118,62.004 131.284,62.180 131.451,62.356 131.617,62.532 131.784,62.708 131.950,62.884 132.116,63.060 132.283,63.236 132.449,63.412 132.616,63.587 132.782,63.763 132.949,63.939 133.115,64.115 133.281,64.290 133.448,64.466 133.614,64.641 133.781,64.817 133.947,64.992 134.114,65.168 134.280,65.343 134.446,65.519 134.613,65.694 134.779,65.869 134.946,66.045 135.112,66.220 135.279,66.395 135.445,66.570 135.611,66.745 135.778,66.921 135.944,67.096 136.111,67.271 136.277,67.446 136.444,67.621 136.610,67.795 136.777,67.970 136.943,68.145 137.109,68.320 137.276,68.495 137.442,68.669 137.609,68.844 137.775,69.019 137.942,69.193 138.108,69.368 138.274,69.542 138.441,69.717 138.607,69.891 138.774,70.066 138.940,70.240 139.107,70.414 139.273,70.589 139.439,70.763 139.606,70.937 139.772,71.111 139.939,71.285 140.105,71.459 140.272,71.633 140.438,71.807 140.604,71.981 140.771,72.155 140.937,72.329 141.104,72.503 141.270,72.677 141.437,72.851 141.603,73.024 141.770,73.198 141.936,73.372 142.102,73.545 142.269,73.719 142.435,73.893 142.602,74.066 142.768,74.240 142.935,74.413 143.101,74.586 143.267,74.760 143.434,74.933 143.600,75.106 143.767,75.280 143.933,75.453 144.100,75.626 144.266,75.799 144.432,75.972 144.599,76.145 144.765,76.318 144.932,76.491 145.098,76.664 145.265,76.837 145.431,77.010 145.597,77.183 145.764,77.356 145.930,77.528 146.097,77.701 146.263,77.874 146.430,78.046 146.596,78.219 146.763,78.391 146.929,78.564 147.095,78.736 147.262,78.909 147.428,79.081 147.595,79.254 147.761,79.426 147.928,79.598 148.094,79.770 148.260,79.943 148.427,80.115 148.593,80.287 148.760,80.459 148.926,80.631 149.093,80.803 149.259,80.975 149.425,81.147 149.592,81.319 149.758,81.491 149.925,81.662 150.091,81.834 150.258,82.006 150.424,82.178 150.590,82.349 150.757,82.521 150.923,82.693 151.090,82.864 151.256,83.036 151.423,83.207 151.589,83.378 151.756,83.550 151.922,83.721 152.088,83.893 152.255,84.064 152.421,84.235 152.588,84.406 152.754,84.577 152.921,84.748 153.087,84.920 153.253,85.091 153.420,85.262 153.586,85.432 153.753,85.603 153.919,85.774 154.086,85.945 154.252,86.116 154.418,86.287 154.585,86.457 154.751,86.628 154.918,86.799 155.084,86.969 155.251,87.140 155.417,87.310 155.583,87.481 155.750,87.651 155.916,87.822 156.083,87.992 156.249,88.162 156.416,88.333 156.582,88.503 156.749,88.673 156.915,88.843 157.081,89.014 157.248,89.184 157.414,89.354 157.581,89.524 157.747,89.694 157.914,89.864 158.080,90.033 158.246,90.203 158.413,90.373 158.579,90.543 158.746,90.713 158.912,90.882 159.079,91.052 159.245,91.222 159.411,91.391 159.578,91.561 159.744,91.730 159.911,91.900 160.077,92.069 160.244,92.239 160.410,92.408 160.576,92.577 160.743,92.747 160.909,92.916 161.076,93.085 161.242,93.254 161.409,93.423 161.575,93.592 161.741,93.761 161.908,93.930 162.074,94.099 162.241,94.268 162.407,94.437 162.574,94.606 162.740,94.775 162.907,94.943 163.073,95.112 163.239,95.281 163.406,95.449 163.572,95.618 163.739,95.787 163.905,95.955 164.072,96.124 164.238,96.292 164.404,96.460 164.571,96.629 164.737,96.797 164.904,96.965 165.070,97.134 165.237,97.302 165.403,97.470 165.569,97.638 165.736,97.806 165.902,97.974 166.069,98.142 166.235,98.310 166.402,98.478 166.568,98.646 166.734,98.814 166.901,98.982 167.067,99.150 167.234,99.317 167.400,99.485 167.567,99.653 167.733,99.820 167.900,99.988 168.066,100.155 168.232,100.323 168.399,100.490 168.565,100.658 168.732,100.825 168.898,100.992 169.065,101.160 169.231,101.327 169.397,101.494 169.564,101.661 169.730,101.828 169.897,101.996 170.063,102.163 170.230,102.330 170.396,102.497 170.562,102.664 170.729,102.830 170.895,102.997 171.062,103.164 171.228,103.331 171.395,103.498 171.561,103.664 171.727,103.831 171.894,103.998 172.060,104.164 172.227,104.331 172.393,104.497 172.560,104.664 172.726,104.830 172.893,104.996 173.059,105.163 173.225,105.329 173.392,105.495 173.558,105.662 173.725,105.828 173.891,105.994 174.058,106.160 174.224,106.326 174.390,106.492 174.557,106.658 174.723,106.824 174.890,106.990 175.056,107.156 175.223,107.322 175.389,107.487 175.555,107.653 175.722,107.819 175.888,107.984 176.055,108.150 176.221,108.316 176.388,108.481 176.554,108.647 176.720,108.812 176.887,108.978 177.053,109.143 177.220,109.308 177.386,109.474 177.553,109.639 177.719,109.804 177.886,109.969 178.052,110.134 178.218,110.299 178.385,110.464 178.551,110.629 178.718,110.794 178.884,110.959 179.051,111.124 179.217,111.289 179.383,111.454 179.550,111.619 179.716,111.783 179.883,111.948 180.049,112.113 180.216,112.277 180.382,112.442 180.548,112.607 180.715,112.771 180.881,112.935 181.048,113.100 181.214,113.264 181.381,113.429 181.547,113.593 181.713,113.757 181.880,113.921 182.046,114.086 182.213,114.250 182.379,114.414 182.546,114.578 182.712,114.742 182.879,114.906 183.045,115.070 183.211,115.234 183.378,115.397 183.544,115.561 183.711,115.725 183.877,115.889 184.044,116.052 184.210,116.216 184.376,116.380 184.543,116.543 184.709,116.707 184.876,116.870 185.042,117.034 185.209,117.197 185.375,117.360 185.541,117.524 185.708,117.687 185.874,117.850 186.041,118.013 186.207,118.177 186.374,118.340 186.540,118.503 186.706,118.666 186.873,118.829 187.039,118.992 187.206,119.155 187.372,119.318 187.539,119.480 187.705,119.643 187.871,119.806 188.038,119.969 188.204,120.131 188.371,120.294 188.537,120.457 188.704,120.619 188.870,120.782 189.037,120.944 189.203,121.107 189.369,121.269 189.536,121.431 189.702,121.594 189.869,121.756 190.035,121.918 190.202,122.080 190.368,122.242 190.534,122.404 190.701,122.567 190.867,122.729 191.034,122.890 191.200,123.052 191.367,123.214 191.533,123.376 191.699,123.538 191.866,123.700 192.032,123.862 192.199,124.023 192.365,124.185 192.532,124.346 192.698,124.508 192.864,124.670 193.031,124.831 193.197,124.992 193.364,125.154 193.530,125.315 193.697,125.477 193.863,125.638 194.030,125.799 194.196,125.960 194.362,126.121 194.529,126.283 194.695,126.444 194.862,126.605 195.028,126.766 195.195,126.927 195.361,127.088 195.527,127.248 195.694,127.409 195.860,127.570 196.027,127.731 196.193,127.891 196.360,128.052 196.526,128.213 196.692,128.373 196.859,128.534 197.025,128.694 197.192,128.855 197.358,129.015 197.525,129.176 197.691,129.336 197.857,129.496 198.024,129.657 198.190,129.817 198.357,129.977 198.523,130.137 198.690,130.297 198.856,130.457 199.023,130.617 199.189,130.777 199.355,130.937 199.522,131.097 199.688,131.257 199.855,131.417 200.021,131.576 200.188,131.736 200.354,131.896 200.520,132.055 200.687,132.215 200.853,132.375 201.020,132.534 201.186,132.694 201.353,132.853 201.519,133.012 201.685,133.172 201.852,133.331 202.018,133.490 202.185,133.650 202.351,133.809 202.518,133.968 202.684,134.127 202.850,134.286 203.017,134.445 203.183,134.604 203.350,134.763 203.516,134.922 203.683,135.081 203.849,135.239 204.016,135.398 204.182,135.557 204.348,135.716 204.515,135.874 204.681,136.033 204.848,136.191 205.014,136.350 205.181,136.508 205.347,136.667 205.513,136.825 205.680,136.984 205.846,137.142 206.013,137.300 206.179,137.458 206.346,137.617 206.512,137.775 206.678,137.933 206.845,138.091 207.011,138.249 207.178,138.407 207.344,138.565 207.511,138.723 207.677,138.880 207.843,139.038 208.010,139.196 208.176,139.354 208.343,139.511 208.509,139.669 208.676,139.827 208.842,139.984 209.009,140.142 209.175,140.299 209.341,140.457 209.508,140.614 209.674,140.771 209.841,140.929 210.007,141.086 210.174,141.243 210.340,141.400 210.506,141.558 210.673,141.715 210.839,141.872 211.006,142.029 211.172,142.186 211.339,142.343 211.505,142.499 211.671,142.656 211.838,142.813 212.004,142.970 212.171,143.127 212.337,143.283 212.504,143.440 212.670,143.596 212.836,143.753 213.003,143.910 213.169,144.066 213.336,144.222 213.502,144.379 213.669,144.535 213.835,144.691 214.001,144.848 214.168,145.004 214.334,145.160 214.501,145.316 214.667,145.472 214.834,145.628 215.000,145.784 215.167,145.940 215.333,146.096 215.499,146.252 215.666,146.408 215.832,146.564 215.999,146.719 216.165,146.875 216.332,147.031 216.498,147.186 216.664,147.342 216.831,147.498 216.997,147.653 217.164,147.809 217.330,147.964 217.497,148.119 217.663,148.275 217.829,148.430 217.996,148.585 218.162,148.740 218.329,148.895 218.495,149.051 218.662,149.206 218.828,149.361 218.994,149.516 219.161,149.671 219.327,149.826 219.494,149.980 219.660,150.135 219.827,150.290 219.993,150.445 220.160,150.599 220.326,150.754 220.492,150.909 220.659,151.063 220.825,151.218 220.992,151.372 221.158,151.527 221.325,151.681 221.491,151.835 221.657,151.990 221.824,152.144 221.990,152.298 222.157,152.452 222.323,152.606 222.490,152.761 222.656,152.915 222.822,153.069 222.989,153.223 223.155,153.376 223.322,153.530 223.488,153.684 223.655,153.838 223.821,153.992 223.987,154.145 224.154,154.299 224.320,154.453 224.487,154.606 224.653,154.760 224.820,154.913 224.986,155.067 225.153,155.220 225.319,155.374 225.485,155.527 225.652,155.680 225.818,155.833 225.985,155.987 226.151,156.140 226.318,156.293 226.484,156.446 226.650,156.599 226.817,156.752 226.983,156.905 227.150,157.058 227.316,157.211 227.483,157.363 227.649,157.516 227.815,157.669 227.982,157.822 228.148,157.974 228.315,158.127 228.481,158.279 228.648,158.432 228.814,158.584 228.980,158.737 229.147,158.889 229.313,159.041 229.480,159.194 229.646,159.346 229.813,159.498 229.979,159.650 230.146,159.802 230.312,159.955 230.478,160.107 230.645,160.259 230.811,160.411 230.978,160.562 231.144,160.714 231.311,160.866 231.477,161.018 231.643,161.170 231.810,161.321 231.976,161.473 232.143,161.625 232.309,161.776 232.476,161.928 232.642,162.079 232.808,162.231 232.975,162.382 233.141,162.533 233.308,162.685 233.474,162.836 233.641,162.987 233.807,163.138 233.973,163.289 234.140,163.440 234.306,163.591 234.473,163.742 234.639,163.893 234.806,164.044 234.972,164.195 235.139,164.346 235.305,164.497 235.471,164.647 235.638,164.798 235.804,164.949 235.971,165.099 236.137,165.250 236.304,165.400 236.470,165.551 236.636,165.701 236.803,165.852 236.969,166.002 237.136,166.152 237.302,166.303 237.469,166.453 237.635,166.603 237.801,166.753 237.968,166.903 238.134,167.053 238.301,167.203 238.467,167.353 238.634,167.503 238.800,167.653 238.966,167.803 239.133,167.953 239.299,168.102 239.466,168.252 239.632,168.402 239.799,168.551 239.965,168.701 240.131,168.850 240.298,169.000 240.464,169.149 240.631,169.299 240.797,169.448 240.964,169.597 241.130,169.746 241.297,169.896 241.463,170.045 241.629,170.194 241.796,170.343 241.962,170.492 242.129,170.641 242.295,170.790 242.462,170.939 242.628,171.088 242.794,171.236 242.961,171.385 243.127,171.534 243.294,171.683 243.460,171.831 243.627,171.980 243.793,172.128 243.959,172.277 244.126,172.425 244.292,172.574 244.459,172.722 244.625,172.870 244.792,173.019 244.958,173.167 245.124,173.315 245.291,173.463 245.457,173.611 245.624,173.759 245.790,173.907 245.957,174.055 246.123,174.203 246.290,174.351 246.456,174.499 246.622,174.647 246.789,174.795 246.955,174.942 247.122,175.090 247.288,175.238 247.455,175.385 247.621,175.533 247.787,175.680 247.954,175.828 248.120,175.975 248.287,176.122 248.453,176.270 248.620,176.417 248.786,176.564 248.952,176.711 249.119,176.858 249.285,177.005 249.452,177.152 249.618,177.299 249.785,177.446 249.951,177.593 250.117,177.740 250.284,177.887 250.450,178.034 250.617,178.181 250.783,178.327 250.950,178.474 251.116,178.620 251.283,178.767 251.449,178.913 251.615,179.060 251.782,179.206 251.948,179.353 252.115,179.499 252.281,179.645 252.448,179.792 252.614,179.938 252.780,180.084 252.947,180.230 253.113,180.376 253.280,180.522 253.446,180.668 253.613,180.814 253.779,180.960 253.945,181.106 254.112,181.251 254.278,181.397 254.445,181.543 254.611,181.689 254.778,181.834 254.944,181.980 255.110,182.125 255.277,182.271 255.443,182.416 255.610,182.562 255.776,182.707 255.943,182.852 256.109,182.997 256.276,183.143 256.442,183.288 256.608,183.433 256.775,183.578 256.941,183.723 257.108,183.868 257.274,184.013 257.441,184.158 257.607,184.303 257.773,184.447 257.940,184.592 258.106,184.737 258.273,184.882 258.439,185.026 258.606,185.171 258.772,185.315 258.938,185.460 259.105,185.604 259.271,185.749 259.438,185.893 259.604,186.037 259.771,186.181 259.937,186.326 260.103,186.470 260.270,186.614 260.436,186.758 260.603,186.902 260.769,187.046 260.936,187.190 261.102,187.334 261.269,187.478 261.435,187.622 261.601,187.765 261.768,187.909 261.934,188.053 262.101,188.196 262.267,188.340 262.434,188.483 262.600,188.627 262.766,188.770 262.933,188.914 263.099,189.057 263.266,189.200 263.432,189.344 263.599,189.487 263.765,189.630 263.931,189.773 264.098,189.916 264.264,190.059 264.431,190.202 264.597,190.345 264.764,190.488 264.930,190.631 265.096,190.774 265.263,190.916 265.429,191.059 265.596,191.202 265.762,191.344 265.929,191.487 266.095,191.630 266.261,191.772 266.428,191.914 266.594,192.057 266.761,192.199 266.927,192.341 267.094,192.484 267.260,192.626 267.427,192.768 267.593,192.910 267.759,193.052 267.926,193.194 268.092,193.336 268.259,193.478 268.425,193.620 268.592,193.762 268.758,193.904 268.924,194.045 269.091,194.187 269.257,194.329 269.424,194.470 269.590,194.612 269.757,194.754 269.923,194.895 270.089,195.036 270.256,195.178 270.422,195.319 270.589,195.460 270.755,195.602 270.922,195.743 271.088,195.884 271.254,196.025 271.421,196.166 271.587,196.307 271.754,196.448 271.920,196.589 272.087,196.730 272.253,196.871 272.420,197.012 272.586,197.152 272.752,197.293 272.919,197.434 273.085,197.574 273.252,197.715 273.418,197.855 273.585,197.996 273.751,198.136 273.917,198.276 274.084,198.417 274.250,198.557 274.417,198.697 274.583,198.837 274.750,198.978 274.916,199.118 275.082,199.258 275.249,199.398 275.415,199.538 275.582,199.678 275.748,199.817 275.915,199.957 276.081,200.097 276.247,200.237 276.414,200.376 276.580,200.516 276.747,200.655 276.913,200.795 277.080,200.934 277.246,201.074 277.413,201.213 277.579,201.353 277.745,201.492 277.912,201.631 278.078,201.770 278.245,201.910 278.411,202.049 278.578,202.188 278.744,202.327 278.910,202.466 279.077,202.605 279.243,202.743 279.410,202.882 279.576,203.021 279.743,203.160 279.909,203.298 280.075,203.437 280.242,203.576 280.408,203.714 280.575,203.853 280.741,203.991 280.908,204.130 281.074,204.268 281.240,204.406 281.407,204.545 281.573,204.683 281.740,204.821 281.906,204.959 282.073,205.097 282.239,205.235 282.406,205.373 282.572,205.511 282.738,205.649 282.905,205.787 283.071,205.925 283.238,206.062 283.404,206.200 283.571,206.338 283.737,206.475 283.903,206.613 284.070,206.750 284.236,206.888 284.403,207.025 284.569,207.163 284.736,207.300 284.902,207.437 285.068,207.574 285.235,207.711 285.401,207.849 285.568,207.986 285.734,208.123 285.901,208.260 286.067,208.397 286.233,208.534 286.400,208.670 286.566,208.807 286.733,208.944 286.899,209.081 287.066,209.217 287.232,209.354 287.399,209.490 287.565,209.627 287.731,209.763 287.898,209.900 288.064,210.036 288.231,210.173 288.397,210.309 288.564,210.445 288.730,210.581 288.896,210.717 289.063,210.853 289.229,210.989 289.396,211.125 289.562,211.261 289.729,211.397 289.895,211.533 290.061,211.669 290.228,211.805 290.394,211.940 290.561,212.076 290.727,212.212 290.894,212.347 291.060,212.483 291.226,212.618 291.393,212.754 291.559,212.889 291.726,213.024 291.892,213.160 292.059,213.295 292.225,213.430 292.391,213.565 292.558,213.700 292.724,213.835 292.891,213.970 293.057,214.105 293.224,214.240 293.390,214.375 293.557,214.510 293.723,214.644 293.889,214.779 294.056,214.914 294.222,215.048 294.389,215.183 294.555,215.317 294.722,215.452 294.888,215.586 295.054,215.721 295.221,215.855 295.387,215.989 295.554,216.123 295.720,216.257 295.887,216.392 296.053,216.526 296.219,216.660 296.386,216.794 296.552,216.928 296.719,217.061 296.885,217.195 297.052,217.329 297.218,217.463 297.384,217.596 297.551,217.730 297.717,217.864 297.884,217.997 298.050,218.131 298.217,218.264 298.383,218.397 298.550,218.531 298.716,218.664 298.882,218.797 299.049,218.931 299.215,219.064 299.382,219.197 299.548,219.330 299.715,219.463 299.881,219.596 300.047,219.729 300.214,219.862 300.380,219.994 300.547,220.127 300.713,220.260 300.880,220.392 301.046,220.525 301.212,220.658 301.379,220.790 301.545,220.923 301.712,221.055 301.878,221.187 302.045,221.320 302.211,221.452 302.377,221.584 302.544,221.716 302.710,221.848 302.877,221.981 303.043,222.113 303.210,222.245 303.376,222.376 303.543,222.508 303.709,222.640 303.875,222.772 304.042,222.904 304.208,223.035 304.375,223.167 304.541,223.299 304.708,223.430 304.874,223.562 305.040,223.693 305.207,223.824 305.373,223.956 305.540,224.087 305.706,224.218 305.873,224.349 306.039,224.481 306.205,224.612 306.372,224.743 306.538,224.874 306.705,225.005 306.871,225.136 307.038,225.266 307.204,225.397 307.370,225.528 307.537,225.659 307.703,225.789 307.870,225.920 308.036,226.050 308.203,226.181 308.369,226.311 308.536,226.442 308.702,226.572 308.868,226.702 309.035,226.833 309.201,226.963 309.368,227.093 309.534,227.223 309.701,227.353 309.867,227.483 310.033,227.613 310.200,227.743 310.366,227.873 310.533,228.003 310.699,228.132 310.866,228.262 311.032,228.392 311.198,228.521 311.365,228.651 311.531,228.780 311.698,228.910 311.864,229.039 312.031,229.169 312.197,229.298 312.363,229.427 312.530,229.556 312.696,229.685 312.863,229.815 313.029,229.944 313.196,230.073 313.362,230.202 313.529,230.330 313.695,230.459 313.861,230.588 314.028,230.717 314.194,230.846 314.361,230.974 314.527,231.103 314.694,231.231 314.860,231.360 315.026,231.488 315.193,231.617 315.359,231.745 315.526,231.873 315.692,232.002 315.859,232.130 316.025,232.258 316.191,232.386 316.358,232.514 316.524,232.642 316.691,232.770 316.857,232.898 317.024,233.026 317.190,233.154 317.356,233.281 317.523,233.409 317.689,233.537 317.856,233.664 318.022,233.792 318.189,233.919 318.355,234.047 318.521,234.174 318.688,234.302 318.854,234.429 319.021,234.556 319.187,234.683 319.354,234.810 319.520,234.937 319.687,235.065 319.853,235.192 320.019,235.318 320.186,235.445 320.352,235.572 320.519,235.699 320.685,235.826 320.852,235.952 321.018,236.079 321.184,236.206 321.351,236.332 321.517,236.459 321.684,236.585 321.850,236.711 322.017,236.838 322.183,236.964 322.349,237.090 322.516,237.216 322.682,237.343 322.849,237.469 323.015,237.595 323.182,237.721 323.348,237.846 323.514,237.972 323.681,238.098 323.847,238.224 324.014,238.350 324.180,238.475 324.347,238.601 324.513,238.726 324.680,238.852 324.846,238.977 325.012,239.103 325.179,239.228 325.345,239.354 325.512,239.479 325.678,239.604 325.845,239.729 326.011,239.854 326.177,239.979 326.344,240.104 326.510,240.229 326.677,240.354 326.843,240.479 327.010,240.604 327.176,240.728 327.342,240.853 327.509,240.978 327.675,241.102 327.842,241.227 328.008,241.351 328.175,241.476 328.341,241.600 328.507,241.725 328.674,241.849 328.840,241.973 329.007,242.097 329.173,242.221 329.340,242.345 329.506,242.469 329.673,242.593 329.839,242.717 330.005,242.841 330.172,242.965 330.338,243.089 330.505,243.212 330.671,243.336 330.838,243.460 331.004,243.583 331.170,243.707 331.337,243.830 331.503,243.954 331.670,244.077 331.836,244.200 332.003,244.323 332.169,244.447 332.335,244.570 332.502,244.693 332.668,244.816 332.835,244.939 333.001,245.062 333.168,245.185 333.334,245.307 333.500,245.430 333.667,245.553 333.833,245.676 334.000,245.798 334.166,245.921 334.333,246.043 334.499,246.166 334.666,246.288 334.832,246.410 334.998,246.533 335.165,246.655 335.331,246.777 335.498,246.899 335.664,247.021 335.831,247.143 335.997,247.265 336.163,247.387 336.330,247.509 336.496,247.631 336.663,247.753 336.829,247.875 336.996,247.996 337.162,248.118 337.328,248.239 337.495,248.361 337.661,248.482 337.828,248.604 337.994,248.725 338.161,248.846 338.327,248.968 338.493,249.089 338.660,249.210 338.826,249.331 338.993,249.452 339.159,249.573 339.326,249.694 339.492,249.815 339.659,249.936 339.825,250.056 339.991,250.177 340.158,250.298 340.324,250.418 340.491,250.539 340.657,250.660 340.824,250.780 340.990,250.900 341.156,251.021 341.323,251.141 341.489,251.261 341.656,251.381 341.822,251.502 341.989,251.622 342.155,251.742 342.321,251.862 342.488,251.982 342.654,252.101 342.821,252.221 342.987,252.341 343.154,252.461 343.320,252.580 343.486,252.700 343.653,252.819 343.819,252.939 343.986,253.058 344.152,253.178 344.319,253.297 344.485,253.416 344.651,253.536 344.818,253.655 344.984,253.774 345.151,253.893 345.317,254.012 345.484,254.131 345.650,254.250 345.817,254.369 345.983,254.487 346.149,254.606 346.316,254.725 346.482,254.844 346.649,254.962 346.815,255.081 346.982,255.199 347.148,255.318 347.314,255.436 347.481,255.554 347.647,255.672 347.814,255.791 347.980,255.909 348.147,256.027 348.313,256.145 348.479,256.263 348.646,256.381 348.812,256.499 348.979,256.617 349.145,256.734 349.312,256.852 349.478,256.970 349.644,257.087 349.811,257.205 349.977,257.322 350.144,257.440 350.310,257.557 350.477,257.675 350.643,257.792 350.810,257.909 350.976,258.026 351.142,258.143 351.309,258.260 351.475,258.377 351.642,258.494 351.808,258.611 351.975,258.728 352.141,258.845 352.307,258.962 352.474,259.078 352.640,259.195 352.807,259.312 352.973,259.428 353.140,259.545 353.306,259.661 353.472,259.777 353.639,259.894 353.805,260.010 353.972,260.126 354.138,260.242 354.305,260.358 354.471,260.474 354.637,260.590 354.804,260.706 354.970,260.822 355.137,260.938 355.303,261.054 355.470,261.169 355.636,261.285 355.803,261.401 355.969,261.516 356.135,261.632 356.302,261.747 356.468,261.862 356.635,261.978 356.801,262.093 356.968,262.208 357.134,262.323 357.300,262.438 357.467,262.553 357.633,262.668 357.800,262.783 357.966,262.898 358.133,263.013 358.299,263.128 358.465,263.242 358.632,263.357 358.798,263.472 358.965,263.586 359.131,263.701 359.298,263.815 359.464,263.930 359.630,264.044 359.797,264.158 359.963,264.272 360.130,264.386 360.296,264.501 360.463,264.615 360.629,264.729 360.796,264.843 360.962,264.956 361.128,265.070 361.295,265.184 361.461,265.298 361.628,265.411 361.794,265.525 361.961,265.638 362.127,265.752 362.293,265.865 362.460,265.979 362.626,266.092 362.793,266.205 362.959,266.319 363.126,266.432 363.292,266.545 363.458,266.658 363.625,266.771 363.791,266.884 363.958,266.997 364.124,267.109 364.291,267.222 364.457,267.335 364.623,267.448 364.790,267.560 364.956,267.673 365.123,267.785 365.289,267.898 365.456,268.010 365.622,268.122 365.789,268.234 365.955,268.347 366.121,268.459 366.288,268.571 366.454,268.683 366.621,268.795 366.787,268.907 366.954,269.019 367.120,269.130 367.286,269.242 367.453,269.354 367.619,269.465 367.786,269.577 367.952,269.689 368.119,269.800 368.285,269.911 368.451,270.023 368.618,270.134 368.784,270.245 368.951,270.356 369.117,270.468 369.284,270.579 369.450,270.690 369.616,270.801 369.783,270.911 369.949,271.022 370.116,271.133 370.282,271.244 370.449,271.354 370.615,271.465 370.781,271.576 370.948,271.686 371.114,271.797 371.281,271.907 371.447,272.017 371.614,272.128 371.780,272.238 371.947,272.348 372.113,272.458 372.279,272.568 372.446,272.678 372.612,272.788 372.779,272.898 372.945,273.008 373.112,273.117 373.278,273.227 373.444,273.337 373.611,273.446 373.777,273.556 373.944,273.665 374.110,273.775 374.277,273.884 374.443,273.993 374.609,274.102 374.776,274.212 374.942,274.321 375.109,274.430 375.275,274.539 375.442,274.648 375.608,274.757 375.774,274.866 375.941,274.974 376.107,275.083 376.274,275.192 376.440,275.300 376.607,275.409 376.773,275.517 376.940,275.626 377.106,275.734 377.272,275.842 377.439,275.951 377.605,276.059 377.772,276.167 377.938,276.275 378.105,276.383 378.271,276.491 378.437,276.599 378.604,276.707 378.770,276.815 378.937,276.922 379.103,277.030 379.270,277.138 379.436,277.245 379.602,277.353 379.769,277.460 379.935,277.567 380.102,277.675 380.268,277.782 380.435,277.889 380.601,277.996 380.767,278.103 380.934,278.210 381.100,278.317 381.267,278.424 381.433,278.531 381.600,278.638 381.766,278.745 381.933,278.851 382.099,278.958 382.265,279.065 382.432,279.171 382.598,279.277 382.765,279.384 382.931,279.490 383.098,279.596 383.264,279.703 383.430,279.809 383.597,279.915 383.763,280.021 383.930,280.127 384.096,280.233 384.263,280.339 384.429,280.444 384.595,280.550 384.762,280.656 384.928,280.761 385.095,280.867 385.261,280.973 385.428,281.078 385.594,281.183 385.760,281.289 385.927,281.394 386.093,281.499 386.260,281.604 386.426,281.709 386.593,281.814 386.759,281.919 386.926,282.024 387.092,282.129 387.258,282.234 387.425,282.339 387.591,282.443 387.758,282.548 387.924,282.652 388.091,282.757 388.257,282.861 388.423,282.966 388.590,283.070 388.756,283.174 388.923,283.278 389.089,283.383 389.256,283.487 389.422,283.591 389.588,283.695 389.755,283.798 389.921,283.902 390.088,284.006 390.254,284.110 390.421,284.213 390.587,284.317 390.753,284.421 390.920,284.524 391.086,284.627 391.253,284.731 391.419,284.834 391.586,284.937 391.752,285.040 391.919,285.144 392.085,285.247 392.251,285.350 392.418,285.453 392.584,285.555 392.751,285.658 392.917,285.761 393.084,285.864 393.250,285.966 393.416,286.069 393.583,286.171 393.749,286.274 393.916,286.376 394.082,286.479 394.249,286.581 394.415,286.683 394.581,286.785 394.748,286.887 394.914,286.989 395.081,287.091 395.247,287.193 395.414,287.295 395.580,287.397 395.746,287.498 395.913,287.600 396.079,287.702 396.246,287.803 396.412,287.905 396.579,288.006 396.745,288.107 396.911,288.209 397.078,288.310 397.244,288.411 397.411,288.512 397.577,288.613 397.744,288.714 397.910,288.815 398.077,288.916 398.243,289.017 398.409,289.118 398.576,289.218 398.742,289.319 398.909,289.420 399.075,289.520 399.242,289.620 399.408,289.721 399.574,289.821 399.741,289.921 399.907,290.022 400.074,290.122 400.240,290.222 400.407,290.322 400.573,290.422 400.739,290.522 400.906,290.621 401.072,290.721 401.239,290.821 401.405,290.920 401.572,291.020 401.738,291.120 401.904,291.219 402.071,291.318 402.237,291.418 402.404,291.517 402.570,291.616 402.737,291.715 402.903,291.814 403.070,291.913 403.236,292.012 403.402,292.111 403.569,292.210 403.735,292.309 403.902,292.408 404.068,292.506 404.235,292.605 404.401,292.703 404.567,292.802 404.734,292.900 404.900,292.998 405.067,293.097 405.233,293.195 405.400,293.293 405.566,293.391 405.732,293.489 405.899,293.587 406.065,293.685 406.232,293.783 406.398,293.881 406.565,293.978 406.731,294.076 406.897,294.174 407.064,294.271 407.230,294.369 407.397,294.466 407.563,294.563 407.730,294.661 407.896,294.758 408.063,294.855 408.229,294.952 408.395,295.049 408.562,295.146 408.728,295.243 408.895,295.340 409.061,295.436 409.228,295.533 409.394,295.630 409.560,295.726 409.727,295.823 409.893,295.919 410.060,296.016 410.226,296.112 410.393,296.208 410.559,296.304 410.725,296.401 410.892,296.497 411.058,296.593 411.225,296.689 411.391,296.784 411.558,296.880 411.724,296.976 411.890,297.072 412.057,297.167 412.223,297.263 412.390,297.358 412.556,297.454 412.723,297.549 412.889,297.644 413.056,297.740 413.222,297.835 413.388,297.930 413.555,298.025 413.721,298.120 413.888,298.215 414.054,298.310 414.221,298.405 414.387,298.499 414.553,298.594 414.720,298.689 414.886,298.783 415.053,298.878 415.219,298.972 415.386,299.066 415.552,299.161 415.718,299.255 415.885,299.349 416.051,299.443 416.218,299.537 416.384,299.631 416.551,299.725 416.717,299.819 416.883,299.913 417.050,300.006 417.216,300.100 417.383,300.193 417.549,300.287 417.716,300.380 417.882,300.474 418.049,300.567 418.215,300.660 418.381,300.753 418.548,300.847 418.714,300.940 418.881,301.033 419.047,301.126 419.214,301.218 419.380,301.311 419.546,301.404 419.713,301.497 419.879,301.589 420.046,301.682 420.212,301.774 420.379,301.867 420.545,301.959 420.711,302.051 420.878,302.143 421.044,302.236 421.211,302.328 421.377,302.420 421.544,302.512 421.710,302.603 421.876,302.695 422.043,302.787 422.209,302.879 422.376,302.970 422.542,303.062 422.709,303.153 422.875,303.245 423.041,303.336 423.208,303.427 423.374,303.519 423.541,303.610 423.707,303.701 423.874,303.792 424.040,303.883 424.207,303.974 424.373,304.065 424.539,304.155 424.706,304.246 424.872,304.337 425.039,304.427 425.205,304.518 425.372,304.608 425.538,304.699 425.704,304.789 425.871,304.879 426.037,304.969 426.204,305.059 426.370,305.149 426.537,305.239 426.703,305.329 426.869,305.419 427.036,305.509 427.202,305.599 427.369,305.688 427.535,305.778 427.702,305.867 427.868,305.957 428.034,306.046 428.201,306.135 428.367,306.225 428.534,306.314 428.700,306.403 428.867,306.492 429.033,306.581 429.200,306.670 429.366,306.759 429.532,306.848 429.699,306.936 429.865,307.025 430.032,307.113 430.198,307.202 430.365,307.290 430.531,307.379 430.697,307.467 430.864,307.555 431.030,307.643 431.197,307.732 431.363,307.820 431.530,307.908 431.696,307.995 431.862,308.083 432.029,308.171 432.195,308.259 432.362,308.346 432.528,308.434 432.695,308.521 432.861,308.609 433.027,308.696 433.194,308.783 433.360,308.871 433.527,308.958 433.693,309.045 433.860,309.132 434.026,309.219 434.193,309.306 434.359,309.393 434.525,309.479 434.692,309.566 434.858,309.653 435.025,309.739 435.191,309.826 435.358,309.912 435.524,309.998 435.690,310.085 435.857,310.171 436.023,310.257 436.190,310.343 436.356,310.429 436.523,310.515 436.689,310.601 436.855,310.687 437.022,310.772 437.188,310.858 437.355,310.944 437.521,311.029 437.688,311.115 437.854,311.200 438.020,311.285 438.187,311.371 438.353,311.456 438.520,311.541 438.686,311.626 438.853,311.711 439.019,311.796 439.186,311.881 439.352,311.965 439.518,312.050 439.685,312.135 439.851,312.219 440.018,312.304 440.184,312.388 440.351,312.473 440.517,312.557 440.683,312.641 440.850,312.725 441.016,312.809 441.183,312.893 441.349,312.977 441.516,313.061 441.682,313.145 441.848,313.229 442.015,313.312 442.181,313.396 442.348,313.479 442.514,313.563 442.681,313.646 442.847,313.729 443.013,313.813 443.180,313.896 443.346,313.979 443.513,314.062 443.679,314.145 443.846,314.228 444.012,314.311 444.179,314.393 444.345,314.476 444.511,314.559 444.678,314.641 444.844,314.724 445.011,314.806 445.177,314.888 445.344,314.971 445.510,315.053 445.676,315.135 445.843,315.217 446.009,315.299 446.176,315.381 446.342,315.463 446.509,315.545 446.675,315.626 446.841,315.708 447.008,315.789 447.174,315.871 447.341,315.952 447.507,316.034 447.674,316.115 447.840,316.196 448.006,316.277 448.173,316.358 448.339,316.439 448.506,316.520 448.672,316.601 448.839,316.682 449.005,316.763 449.171,316.843 449.338,316.924 449.504,317.004 449.671,317.085 449.837,317.165 450.004,317.245 450.170,317.326 450.337,317.406 450.503,317.486 450.669,317.566 450.836,317.646 451.002,317.726 451.169,317.805 451.335,317.885 451.502,317.965 451.668,318.044 451.834,318.124 452.001,318.203 452.167,318.283 452.334,318.362 452.500,318.441 452.667,318.520 452.833,318.599 452.999,318.678 453.166,318.757 453.332,318.836 453.499,318.915 453.665,318.994 453.832,319.072 453.998,319.151 454.164,319.229 454.331,319.308 454.497,319.386 454.664,319.464 454.830,319.542 454.997,319.621 455.163,319.699 455.330,319.777 455.496,319.855 455.662,319.932 455.829,320.010 455.995,320.088 456.162,320.166 456.328,320.243 456.495,320.321 456.661,320.398 456.827,320.475 456.994,320.553 457.160,320.630 457.327,320.707 457.493,320.784 457.660,320.861 457.826,320.938 457.992,321.015 458.159,321.091 458.325,321.168 458.492,321.245 458.658,321.321 458.825,321.398 458.991,321.474 459.157,321.550 459.324,321.626 459.490,321.703 459.657,321.779 459.823,321.855 459.990,321.931 460.156,322.007 460.323,322.082 460.489,322.158 460.655,322.234 460.822,322.309 460.988,322.385 461.155,322.460 461.321,322.536 461.488,322.611 461.654,322.686 461.820,322.761 461.987,322.836 462.153,322.911 462.320,322.986 462.486,323.061 462.653,323.136 462.819,323.210 462.985,323.285 463.152,323.360 463.318,323.434 463.485,323.508 463.651,323.583 463.818,323.657 463.984,323.731 464.150,323.805 464.317,323.879 464.483,323.953 464.650,324.027 464.816,324.101 464.983,324.175 465.149,324.248 465.316,324.322 465.482,324.395 465.648,324.469 465.815,324.542 465.981,324.615 466.148,324.689 466.314,324.762 466.481,324.835 466.647,324.908 466.813,324.981 466.980,325.053 467.146,325.126 467.313,325.199 467.479,325.272 467.646,325.344 467.812,325.416 467.978,325.489 468.145,325.561 468.311,325.633 468.478,325.706 468.644,325.778 468.811,325.850 468.977,325.922 469.143,325.993 469.310,326.065 469.476,326.137 469.643,326.208 469.809,326.280 469.976,326.351 470.142,326.423 470.309,326.494 470.475,326.565 470.641,326.637 470.808,326.708 470.974,326.779 471.141,326.850 471.307,326.920 471.474,326.991 471.640,327.062 471.806,327.133 471.973,327.203 472.139,327.274 472.306,327.344 472.472,327.414 472.639,327.485 472.805,327.555 472.971,327.625 473.138,327.695 473.304,327.765 473.471,327.835 473.637,327.904 473.804,327.974 473.970,328.044 474.136,328.113 474.303,328.183 474.469,328.252 474.636,328.321 474.802,328.391 474.969,328.460 475.135,328.529 475.301,328.598 475.468,328.667 475.634,328.736 475.801,328.805 475.967,328.873 476.134,328.942 476.300,329.011 476.467,329.079 476.633,329.147 476.799,329.216 476.966,329.284 477.132,329.352 477.299,329.420 477.465,329.488 477.632,329.556 477.798,329.624 477.964,329.692 478.131,329.759 478.297,329.827 478.464,329.895 478.630,329.962 478.797,330.029 478.963,330.097 479.129,330.164 479.296,330.231 479.462,330.298 479.629,330.365 479.795,330.432 479.962,330.499 480.128,330.566 480.294,330.632 480.461,330.699 480.627,330.766 480.794,330.832 480.960,330.898 481.127,330.965 481.293,331.031 481.460,331.097 481.626,331.163 481.792,331.229 481.959,331.295 482.125,331.361 482.292,331.426 482.458,331.492 482.625,331.558 482.791,331.623 482.957,331.689 483.124,331.754 483.290,331.819 483.457,331.884 483.623,331.950 483.790,332.015 483.956,332.080 484.122,332.144 484.289,332.209 484.455,332.274 484.622,332.339 484.788,332.403 484.955,332.468 485.121,332.532 485.287,332.596 485.454,332.660 485.620,332.725 485.787,332.789 485.953,332.853 486.120,332.917 486.286,332.980 486.453,333.044 486.619,333.108 486.785,333.171 486.952,333.235 487.118,333.298 487.285,333.362 487.451,333.425 487.618,333.488 487.784,333.551 487.950,333.614 488.117,333.677 488.283,333.740 488.450,333.803 488.616,333.866 488.783,333.928 488.949,333.991 489.115,334.053 489.282,334.116 489.448,334.178 489.615,334.240 489.781,334.302 489.948,334.364 490.114,334.426 490.280,334.488 490.447,334.550 490.613,334.612 490.780,334.673 490.946,334.735 491.113,334.796 491.279,334.858 491.446,334.919 491.612,334.980 491.778,335.042 491.945,335.103 492.111,335.164 492.278,335.225 492.444,335.285 492.611,335.346 492.777,335.407 492.943,335.467 493.110,335.528 493.276,335.588 493.443,335.649 493.609,335.709 493.776,335.769 493.942,335.829 494.108,335.889 494.275,335.949 494.441,336.009 494.608,336.069 494.774,336.129 494.941,336.188 495.107,336.248 495.273,336.307 495.440,336.366 495.606,336.426 495.773,336.485 495.939,336.544 496.106,336.603 496.272,336.662 496.439,336.721 496.605,336.780 496.771,336.838 496.938,336.897 497.104,336.956 497.271,337.014 497.437,337.072 497.604,337.131 497.770,337.189 497.936,337.247 498.103,337.305 498.269,337.363 498.436,337.421 498.602,337.479 498.769,337.536 498.935,337.594 499.101,337.651 499.268,337.709 499.434,337.766 499.601,337.824 499.767,337.881 499.934,337.938 500.100,337.995 500.266,338.052 500.433,338.109 500.599,338.165 500.766,338.222 500.932,338.279 501.099,338.335 501.265,338.392 501.431,338.448 501.598,338.504 501.764,338.561 501.931,338.617 502.097,338.673 502.264,338.729 502.430,338.784 502.597,338.840 502.763,338.896 502.929,338.952 503.096,339.007 503.262,339.062 503.429,339.118 503.595,339.173 503.762,339.228 503.928,339.283 504.094,339.338 504.261,339.393 504.427,339.448 504.594,339.503 504.760,339.557 504.927,339.612 505.093,339.667 505.259,339.721 505.426,339.775 505.592,339.830 505.759,339.884 505.925,339.938 506.092,339.992 506.258,340.046 506.424,340.099 506.591,340.153 506.757,340.207 506.924,340.260 507.090,340.314 507.257,340.367 507.423,340.420 507.590,340.474 507.756,340.527 507.922,340.580 508.089,340.633 508.255,340.686 508.422,340.738 508.588,340.791 508.755,340.844 508.921,340.896 509.087,340.949 509.254,341.001 509.420,341.053 509.587,341.105 509.753,341.158 509.920,341.210 510.086,341.261 510.252,341.313 510.419,341.365 510.585,341.417 510.752,341.468 510.918,341.520 511.085,341.571 511.251,341.622 511.417,341.674 511.584,341.725 511.750,341.776 511.917,341.827 512.083,341.878 512.250,341.928 512.416,341.979 512.583,342.030 512.749,342.080 512.915,342.131 513.082,342.181 513.248,342.231 513.415,342.281 513.581,342.331 513.748,342.381 513.914,342.431 514.080,342.481 514.247,342.531 514.413,342.581 514.580,342.630 514.746,342.680 514.913,342.729 515.079,342.778 515.245,342.827 515.412,342.877 515.578,342.926 515.745,342.974 515.911,343.023 516.078,343.072 516.244,343.121 516.410,343.169 516.577,343.218 516.743,343.266 516.910,343.314 517.076,343.363 517.243,343.411 517.409,343.459 517.576,343.507 517.742,343.555 517.908,343.602 518.075,343.650 518.241,343.698 518.408,343.745 518.574,343.793 518.741,343.840 518.907,343.887 519.073,343.934 519.240,343.981 519.406,344.028 519.573,344.075 519.739,344.122 519.906,344.169 520.072,344.215 520.238,344.262 520.405,344.308 520.571,344.355 520.738,344.401 520.904,344.447 521.071,344.493 521.237,344.539 521.403,344.585 521.570,344.631 521.736,344.677 521.903,344.722 522.069,344.768 522.236,344.813 522.402,344.859 522.569,344.904 522.735,344.949 522.901,344.994 523.068,345.039 523.234,345.084 523.401,345.129 523.567,345.173 523.734,345.218 523.900,345.263 524.066,345.307 524.233,345.351 524.399,345.396 524.566,345.440 524.732,345.484 524.899,345.528 525.065,345.572 525.231,345.616 525.398,345.659 525.564,345.703 525.731,345.746 525.897,345.790 526.064,345.833 526.230,345.876 526.396,345.920 526.563,345.963 526.729,346.006 526.896,346.049 527.062,346.091 527.229,346.134 527.395,346.177 527.561,346.219 527.728,346.262 527.894,346.304 528.061,346.346 528.227,346.388 528.394,346.430 528.560,346.472 528.727,346.514 528.893,346.556 529.059,346.598 529.226,346.639 529.392,346.681 529.559,346.722 529.725,346.763 529.892,346.805 530.058,346.846 530.224,346.887 530.391,346.928 530.557,346.969 530.724,347.009 530.890,347.050 531.057,347.091 531.223,347.131 531.389,347.171 531.556,347.212 531.722,347.252 531.889,347.292 532.055,347.332 532.222,347.372 532.388,347.412 532.554,347.451 532.721,347.491 532.887,347.531 533.054,347.570 533.220,347.609 533.387,347.649 533.553,347.688 533.720,347.727 533.886,347.766 534.052,347.805 534.219,347.843 534.385,347.882 534.552,347.921 534.718,347.959 534.885,347.998 535.051,348.036 535.217,348.074 535.384,348.112 535.550,348.150 535.717,348.188 535.883,348.226 536.050,348.264 536.216,348.301 536.382,348.339 536.549,348.376 536.715,348.414 536.882,348.451 537.048,348.488 537.215,348.525 537.381,348.562 537.547,348.599 537.714,348.636 537.880,348.673 538.047,348.709 538.213,348.746 538.380,348.782 538.546,348.818 538.713,348.855 538.879,348.891 539.045,348.927 539.212,348.963 539.378,348.998 539.545,349.034 539.711,349.070 539.878,349.105 540.044,349.141 540.210,349.176 540.377,349.211 540.543,349.247 540.710,349.282 540.876,349.317 541.043,349.351 541.209,349.386 541.375,349.421 541.542,349.455 541.708,349.490 541.875,349.524 542.041,349.559 542.208,349.593 542.374,349.627 542.540,349.661 542.707,349.695 542.873,349.728 543.040,349.762 543.206,349.796 543.373,349.829 543.539,349.863 543.706,349.896 543.872,349.929 544.038,349.962 544.205,349.995 544.371,350.028 544.538,350.061 544.704,350.094 544.871,350.126 545.037,350.159 545.203,350.191 545.370,350.224 545.536,350.256 545.703,350.288 545.869,350.320 546.036,350.352 546.202,350.384 546.368,350.415 546.535,350.447 546.701,350.479 546.868,350.510 547.034,350.541 547.201,350.573 547.367,350.604 547.533,350.635 547.700,350.666 547.866,350.697 548.033,350.727 548.199,350.758 548.366,350.788 548.532,350.819 548.699,350.849 548.865,350.879 549.031,350.910 549.198,350.940 549.364,350.970 549.531,350.999 549.697,351.029 549.864,351.059 550.030,351.088 550.196,351.118 550.363,351.147 550.529,351.176 550.696,351.206 550.862,351.235 551.029,351.264 551.195,351.292 551.361,351.321 551.528,351.350 551.694,351.378 551.861,351.407 552.027,351.435 552.194,351.463 552.360,351.491 552.526,351.520 552.693,351.547 552.859,351.575 553.026,351.603 553.192,351.631 553.359,351.658 553.525,351.686 553.691,351.713 553.858,351.740 554.024,351.767 554.191,351.794 554.357,351.821 554.524,351.848 554.690,351.875 554.857,351.901 555.023,351.928 555.189,351.954 555.356,351.981 555.522,352.007 555.689,352.033 555.855,352.059 556.022,352.085 556.188,352.111 556.354,352.136 556.521,352.162 556.687,352.188 556.854,352.213 557.020,352.238 557.187,352.263 557.353,352.288 557.519,352.313 557.686,352.338 557.852,352.363 558.019,352.388 558.185,352.412 558.352,352.437 558.518,352.461 558.684,352.485 558.851,352.510 559.017,352.534 559.184,352.558 559.350,352.581 559.517,352.605 559.683,352.629 559.850,352.652 560.016,352.676 560.182,352.699 560.349,352.722 560.515,352.746 560.682,352.769 560.848,352.791 561.015,352.814 561.181,352.837 561.347,352.860 561.514,352.882 561.680,352.904 561.847,352.927 562.013,352.949 562.180,352.971 562.346,352.993 562.512,353.015 562.679,353.037 562.845,353.058 563.012,353.080 563.178,353.101 563.345,353.123 563.511,353.144 563.677,353.165 563.844,353.186 564.010,353.207 564.177,353.228 564.343,353.249 564.510,353.269 564.676,353.290 564.843,353.310 565.009,353.330 565.175,353.351 565.342,353.371 565.508,353.391 565.675,353.411 565.841,353.430 566.008,353.450 566.174,353.470 566.340,353.489 566.507,353.508 566.673,353.528 566.840,353.547 567.006,353.566 567.173,353.585 567.339,353.603 567.505,353.622 567.672,353.641 567.838,353.659 568.005,353.678 568.171,353.696 568.338,353.714 568.504,353.732 568.670,353.750 568.837,353.768 569.003,353.786 569.170,353.803 569.336,353.821 569.503,353.838 569.669,353.856 569.836,353.873 570.002,353.890 570.168,353.907 570.335,353.924 570.501,353.941 570.668,353.957 570.834,353.974 571.001,353.990 571.167,354.007 571.333,354.023 571.500,354.039 571.666,354.055 571.833,354.071 571.999,354.087 572.166,354.102 572.332,354.118 572.498,354.133 572.665,354.149 572.831,354.164 572.998,354.179 573.164,354.194 573.331,354.209 573.497,354.224 573.663,354.239 573.830,354.253 573.996,354.268 574.163,354.282 574.329,354.297 574.496,354.311 574.662,354.325 574.829,354.339 574.995,354.353 575.161,354.366 575.328,354.380 575.494,354.394 575.661,354.407 575.827,354.420 575.994,354.433 576.160,354.446 576.326,354.459 576.493,354.472 576.659,354.485 576.826,354.498 576.992,354.510 577.159,354.523 577.325,354.535 577.491,354.547 577.658,354.559 577.824,354.571 577.991,354.583 578.157,354.595 578.324,354.606 578.490,354.618 578.656,354.629 578.823,354.641 578.989,354.652 579.156,354.663 579.322,354.674 579.489,354.685 579.655,354.696 579.821,354.706 579.988,354.717 580.154,354.727 580.321,354.738 580.487,354.748 580.654,354.758 580.820,354.768 580.987,354.778 581.153,354.787 581.319,354.797 581.486,354.807 581.652,354.816 581.819,354.825 581.985,354.834 582.152,354.844 582.318,354.853 582.484,354.861 582.651,354.870 582.817,354.879 582.984,354.887 583.150,354.896 583.317,354.904 583.483,354.912 583.649,354.920 583.816,354.928 583.982,354.936 584.149,354.944 584.315,354.951 584.482,354.959 584.648,354.966 584.814,354.973 584.981,354.981 585.147,354.988 585.314,354.995 585.480,355.001 585.647,355.008 585.813,355.015 585.980,355.021 586.146,355.028 586.312,355.034 586.479,355.040 586.645,355.046 586.812,355.052 586.978,355.058 587.145,355.063 587.311,355.069 587.477,355.074 587.644,355.080 587.810,355.085 587.977,355.090 588.143,355.095 588.310,355.100 588.476,355.105 588.642,355.109 588.809,355.114 588.975,355.118 589.142,355.123 589.308,355.127 589.475,355.131 589.641,355.135 589.807,355.139 589.974,355.142 590.140,355.146 590.307,355.149 590.473,355.153 590.640,355.156 590.806,355.159 590.973,355.162 591.139,355.165 591.305,355.168 591.472,355.171 591.638,355.173 591.805,355.176 591.971,355.178 592.138,355.180 592.304,355.182 592.470,355.184 592.637,355.186 592.803,355.188 592.970,355.189 593.136,355.191 593.303,355.192 593.469,355.194 593.635,355.195 593.802,355.196 593.968,355.197 594.135,355.198 594.301,355.198 594.468,355.199 594.634,355.199 594.800,355.200 594.967,355.200 595.133,355.200 595.300,355.200 595.466,355.200 595.633,355.200 595.799,355.199 595.966,355.199 596.132,355.198 596.298,355.197 596.465,355.197 596.631,355.196 596.798,355.195 596.964,355.193 597.131,355.192 597.297,355.191 597.463,355.189 597.630,355.187 597.796,355.186 597.963,355.184 598.129,355.182 598.296,355.180 598.462,355.177 598.628,355.175 598.795,355.172 598.961,355.170 599.128,355.167 599.294,355.164 599.461,355.161 599.627,355.158 599.793,355.155 599.960,355.152 600.126,355.148 600.293,355.145 600.459,355.141 600.626,355.137 600.792,355.133 600.959,355.129 601.125,355.125 601.291,355.121 601.458,355.116 601.624,355.112 601.791,355.107 601.957,355.102 602.124,355.097 602.290,355.092 602.456,355.087 602.623,355.082 602.789,355.076 602.956,355.071 603.122,355.065 603.289,355.060 603.455,355.054 603.621,355.048 603.788,355.042 603.954,355.035 604.121,355.029 604.287,355.022 604.454,355.016 604.620,355.009 604.786,355.002 604.953,354.995 605.119,354.988 605.286,354.981 605.452,354.974 605.619,354.966 605.785,354.959 605.951,354.951 606.118,354.943 606.284,354.935 606.451,354.927 606.617,354.919 606.784,354.911 606.950,354.902 607.117,354.894 607.283,354.885 607.449,354.876 607.616,354.867 607.782,354.858 607.949,354.849 608.115,354.840 608.282,354.830 608.448,354.821 608.614,354.811 608.781,354.801 608.947,354.791 609.114,354.781 609.280,354.771 609.447,354.761 609.613,354.751 609.779,354.740 609.946,354.729 610.112,354.719 610.279,354.708 610.445,354.697 610.612,354.685 610.778,354.674 610.944,354.663 611.111,354.651 611.277,354.640 611.444,354.628 611.610,354.616 611.777,354.604 611.943,354.592 612.110,354.579 612.276,354.567 612.442,354.555 612.609,354.542 612.775,354.529 612.942,354.516 613.108,354.503 613.275,354.490 613.441,354.477 613.607,354.463 613.774,354.450 613.940,354.436 614.107,354.422 614.273,354.408 614.440,354.394 614.606,354.380 614.772,354.366 614.939,354.352 615.105,354.337 615.272,354.322 615.438,354.308 615.605,354.293 615.771,354.278 615.937,354.262 616.104,354.247 616.270,354.232 616.437,354.216 616.603,354.200 616.770,354.185 616.936,354.169 617.103,354.153 617.269,354.136 617.435,354.120 617.602,354.104 617.768,354.087 617.935,354.070 618.101,354.054 618.268,354.037 618.434,354.019 618.600,354.002 618.767,353.985 618.933,353.967 619.100,353.950 619.266,353.932 619.433,353.914 619.599,353.896 619.765,353.878 619.932,353.860 620.098,353.842 620.265,353.823 620.431,353.804 620.598,353.786 620.764,353.767 620.930,353.748 621.097,353.729 621.263,353.709 621.430,353.690 621.596,353.670 621.763,353.651 621.929,353.631 622.096,353.611 622.262,353.591 622.428,353.571 622.595,353.551 622.761,353.530 622.928,353.510 623.094,353.489 623.261,353.468 623.427,353.447 623.593,353.426 623.760,353.405 623.926,353.383 624.093,353.362 624.259,353.340 624.426,353.319 624.592,353.297 624.758,353.275 624.925,353.253 625.091,353.230 625.258,353.208 625.424,353.185 625.591,353.163 625.757,353.140 625.923,353.117 626.090,353.094 626.256,353.071 626.423,353.047 626.589,353.024 626.756,353.000 626.922,352.977 627.089,352.953 627.255,352.929 627.421,352.905 627.588,352.881 627.754,352.856 627.921,352.832 628.087,352.807 628.254,352.782 628.420,352.757 628.586,352.732 628.753,352.707 628.919,352.682 629.086,352.656 629.252,352.631 629.419,352.605 629.585,352.579 629.751,352.553 629.918,352.527 630.084,352.501 630.251,352.475 630.417,352.448 630.584,352.422 630.750,352.395 630.916,352.368 631.083,352.341 631.249,352.314 631.416,352.286 631.582,352.259 631.749,352.231 631.915,352.204 632.081,352.176 632.248,352.148 632.414,352.120 632.581,352.092 632.747,352.063 632.914,352.035 633.080,352.006 633.247,351.977 633.413,351.948 633.579,351.919 633.746,351.890 633.912,351.861 634.079,351.831 634.245,351.802 634.412,351.772 634.578,351.742 634.744,351.712 634.911,351.682 635.077,351.652 635.244,351.621 635.410,351.591 635.577,351.560 635.743,351.529 635.909,351.499 636.076,351.467 636.242,351.436 636.409,351.405 636.575,351.373 636.742,351.342 636.908,351.310 637.074,351.278 637.241,351.246 637.407,351.214 637.574,351.182 637.740,351.149 637.907,351.117 638.073,351.084 638.240,351.051 638.406,351.018 638.572,350.985 638.739,350.952 638.905,350.918 639.072,350.885 639.238,350.851 639.405,350.817 639.571,350.783 639.737,350.749 639.904,350.715 640.070,350.681 640.237,350.646 640.403,350.611 640.570,350.577 640.736,350.542 640.902,350.507 641.069,350.471 641.235,350.436 641.402,350.401 641.568,350.365 641.735,350.329 641.901,350.293 642.067,350.257 642.234,350.221 642.400,350.185 642.567,350.149 642.733,350.112 642.900,350.075 643.066,350.038 643.233,350.001 643.399,349.964 643.565,349.927 643.732,349.890 643.898,349.852 644.065,349.814 644.231,349.776 644.398,349.738 644.564,349.700 644.730,349.662 644.897,349.624 645.063,349.585 645.230,349.546 645.396,349.508 645.563,349.469 645.729,349.430 645.895,349.390 646.062,349.351 646.228,349.311 646.395,349.272 646.561,349.232 646.728,349.192 646.894,349.152 647.060,349.112 647.227,349.071 647.393,349.031 647.560,348.990 647.726,348.949 647.893,348.908 648.059,348.867 648.226,348.826 648.392,348.785 648.558,348.743 648.725,348.702 648.891,348.660 649.058,348.618 649.224,348.576 649.391,348.534 649.557,348.491 649.723,348.449 649.890,348.406 650.056,348.363 650.223,348.320 650.389,348.277 650.556,348.234 650.722,348.191 650.888,348.147 651.055,348.104 651.221,348.060 651.388,348.016 651.554,347.972 651.721,347.928 651.887,347.883 652.053,347.839 652.220,347.794 652.386,347.749 652.553,347.704 652.719,347.659 652.886,347.614 653.052,347.569 653.219,347.523 653.385,347.478 653.551,347.432 653.718,347.386 653.884,347.340 654.051,347.294 654.217,347.247 654.384,347.201 654.550,347.154 654.716,347.107 654.883,347.060 655.049,347.013 655.216,346.966 655.382,346.919 655.549,346.871 655.715,346.823 655.881,346.775 656.048,346.728 656.214,346.679 656.381,346.631 656.547,346.583 656.714,346.534 656.880,346.485 657.046,346.437 657.213,346.388 657.379,346.339 657.546,346.289 657.712,346.240 657.879,346.190 658.045,346.141 658.211,346.091 658.378,346.041 658.544,345.990 658.711,345.940 658.877,345.890 659.044,345.839 659.210,345.788 659.377,345.737 659.543,345.686 659.709,345.635 659.876,345.584 660.042,345.532 660.209,345.481 660.375,345.429 660.542,345.377 660.708,345.325 660.874,345.273 661.041,345.220 661.207,345.168 661.374,345.115 661.540,345.062 661.707,345.009 661.873,344.956 662.039,344.903 662.206,344.850 662.372,344.796 662.539,344.742 662.705,344.689 662.872,344.635 663.038,344.580 663.204,344.526 663.371,344.472 663.537,344.417 663.704,344.362 663.870,344.307 664.037,344.252 664.203,344.197 664.370,344.142 664.536,344.086 664.702,344.031 664.869,343.975 665.035,343.919 665.202,343.863 665.368,343.807 665.535,343.750 665.701,343.694 665.867,343.637 666.034,343.580 666.200,343.523 666.367,343.466 666.533,343.409 666.700,343.351 666.866,343.294 667.032,343.236 667.199,343.178 667.365,343.120 667.532,343.062 667.698,343.003 667.865,342.945 668.031,342.886 668.197,342.827 668.364,342.769 668.530,342.709 668.697,342.650 668.863,342.591 669.030,342.531 669.196,342.471 669.363,342.412 669.529,342.352 669.695,342.291 669.862,342.231 670.028,342.171 670.195,342.110 670.361,342.049 670.528,341.988 670.694,341.927 670.860,341.866 671.027,341.805 671.193,341.743 671.360,341.681 671.526,341.620 671.693,341.558 671.859,341.495 672.025,341.433 672.192,341.371 672.358,341.308 672.525,341.245 672.691,341.182 672.858,341.119 673.024,341.056 673.190,340.993 673.357,340.929 673.523,340.865 673.690,340.802 673.856,340.738 674.023,340.673 674.189,340.609 674.356,340.545 674.522,340.480 674.688,340.415 674.855,340.350 675.021,340.285 675.188,340.220 675.354,340.155 675.521,340.089 675.687,340.023 675.853,339.958 676.020,339.892 676.186,339.825 676.353,339.759 676.519,339.693 676.686,339.626 676.852,339.559 677.018,339.492 677.185,339.425 677.351,339.358 677.518,339.291 677.684,339.223 677.851,339.155 678.017,339.087 678.183,339.019 678.350,338.951 678.516,338.883 678.683,338.814 678.849,338.746 679.016,338.677 679.182,338.608 679.349,338.539 679.515,338.470 679.681,338.400 679.848,338.331 680.014,338.261 680.181,338.191 680.347,338.121 680.514,338.051 680.680,337.980 680.846,337.910 681.013,337.839 681.179,337.768 681.346,337.697 681.512,337.626 681.679,337.555 681.845,337.483 682.011,337.412 682.178,337.340 682.344,337.268 682.511,337.196 682.677,337.123 682.844,337.051 683.010,336.978 683.176,336.906 683.343,336.833 683.509,336.760 683.676,336.686 683.842,336.613 684.009,336.540 684.175,336.466 684.341,336.392 684.508,336.318 684.674,336.244 684.841,336.169 685.007,336.095 685.174,336.020 685.340,335.946 685.507,335.871 685.673,335.795 685.839,335.720 686.006,335.645 686.172,335.569 686.339,335.493 686.505,335.417 686.672,335.341 686.838,335.265 687.004,335.189 687.171,335.112 687.337,335.035 687.504,334.958 687.670,334.881 687.837,334.804 688.003,334.727 688.169,334.649 688.336,334.572 688.502,334.494 688.669,334.416 688.835,334.337 689.002,334.259 689.168,334.181 689.334,334.102 689.501,334.023 689.667,333.944 689.834,333.865 690.000,333.786 690.167,333.706 690.333,333.627 690.500,333.547 690.666,333.467 690.832,333.387 690.999,333.306 691.165,333.226 691.332,333.145 691.498,333.065 691.665,332.984 691.831,332.903 691.997,332.821 692.164,332.740 692.330,332.658 692.497,332.577 692.663,332.495 692.830,332.413 692.996,332.330 693.162,332.248 693.329,332.165 693.495,332.083 693.662,332.000 693.828,331.917 693.995,331.834 694.161,331.750 694.327,331.667 694.494,331.583 694.660,331.499 694.827,331.415 694.993,331.331 695.160,331.246 695.326,331.162 695.493,331.077 695.659,330.992 695.825,330.907 695.992,330.822 696.158,330.737 696.325,330.651 696.491,330.566 696.658,330.480 696.824,330.394 696.990,330.308 697.157,330.221 697.323,330.135 697.490,330.048 697.656,329.961 697.823,329.874 697.989,329.787 698.155,329.700 698.322,329.612 698.488,329.525 698.655,329.437 698.821,329.349 698.988,329.261 699.154,329.172 699.320,329.084 699.487,328.995 699.653,328.906 699.820,328.817 699.986,328.728 700.153,328.639 700.319,328.549 700.486,328.460 700.652,328.370 700.818,328.280 700.985,328.190 701.151,328.099 701.318,328.009 701.484,327.918 701.651,327.828 701.817,327.737 701.983,327.645 702.150,327.554 702.316,327.463 702.483,327.371 702.649,327.279 702.816,327.187 702.982,327.095 703.148,327.003 703.315,326.910 703.481,326.817 703.648,326.725 703.814,326.632 703.981,326.538 704.147,326.445 704.313,326.352 704.480,326.258 704.646,326.164 704.813,326.070 704.979,325.976 705.146,325.881 705.312,325.787 705.479,325.692 705.645,325.597 705.811,325.502 705.978,325.407 706.144,325.312 706.311,325.216 706.477,325.121 706.644,325.025 706.810,324.929 706.976,324.832 707.143,324.736 707.309,324.639 707.476,324.543 707.642,324.446 707.809,324.349 707.975,324.252 708.141,324.154 708.308,324.057 708.474,323.959 708.641,323.861 708.807,323.763 708.974,323.665 709.140,323.566 709.306,323.468 709.473,323.369 709.639,323.270 709.806,323.171 709.972,323.071 710.139,322.972 710.305,322.872 710.471,322.773 710.638,322.673 710.804,322.572 710.971,322.472 711.137,322.372 711.304,322.271 711.470,322.170 711.637,322.069 711.803,321.968 711.969,321.867 712.136,321.765 712.302,321.664 712.469,321.562 712.635,321.460 712.802,321.357 712.968,321.255 713.134,321.153 713.301,321.050 713.467,320.947 713.634,320.844 713.800,320.741 713.967,320.637 714.133,320.534 714.299,320.430 714.466,320.326 714.632,320.222 714.799,320.118 714.965,320.013 715.132,319.909 715.298,319.804 715.464,319.699 715.631,319.594 715.797,319.488 715.964,319.383 716.130,319.277 716.297,319.171 716.463,319.065 716.630,318.959 716.796,318.853 716.962,318.746 717.129,318.640 717.295,318.533 717.462,318.426 717.628,318.318 717.795,318.211 717.961,318.103 718.127,317.996 718.294,317.888 718.460,317.780 718.627,317.671 718.793,317.563 718.960,317.454 719.126,317.345 719.292,317.236 719.459,317.127 719.625,317.018 719.792,316.908 719.958,316.799 720.125,316.689 720.291,316.579 720.457,316.469 720.624,316.358 720.790,316.248 720.957,316.137 721.123,316.026 721.290,315.915 721.456,315.804 721.623,315.692 721.789,315.581 721.955,315.469 722.122,315.357 722.288,315.245 722.455,315.132 722.621,315.020 722.788,314.907 722.954,314.794 723.120,314.681 723.287,314.568 723.453,314.455 723.620,314.341 723.786,314.228 723.953,314.114 724.119,314.000 724.285,313.885 724.452,313.771 724.618,313.656 724.785,313.541 724.951,313.426 725.118,313.311 725.284,313.196 725.450,313.080 725.617,312.965 725.783,312.849 725.950,312.733 726.116,312.617 726.283,312.500 726.449,312.384 726.616,312.267 726.782,312.150 726.948,312.033 727.115,311.915 727.281,311.798 727.448,311.680 727.614,311.562 727.781,311.444 727.947,311.326 728.113,311.208 728.280,311.089 728.446,310.971 728.613,310.852 728.779,310.733 728.946,310.613 729.112,310.494 729.278,310.374 729.445,310.254 729.611,310.134 729.778,310.014 729.944,309.894 730.111,309.773 730.277,309.653 730.443,309.532 730.610,309.411 730.776,309.289 730.943,309.168 731.109,309.046 731.276,308.925 731.442,308.803 731.609,308.681 731.775,308.558 731.941,308.436 732.108,308.313 732.274,308.190 732.441,308.067 732.607,307.944 732.774,307.820 732.940,307.697 733.106,307.573 733.273,307.449 733.439,307.325 733.606,307.201 733.772,307.076 733.939,306.951 734.105,306.827 734.271,306.702 734.438,306.576 734.604,306.451 734.771,306.325 734.937,306.199 735.104,306.074 735.270,305.947 735.436,305.821 735.603,305.695 735.769,305.568 735.936,305.441 736.102,305.314 736.269,305.187 736.435,305.059 736.601,304.932 736.768,304.804 736.934,304.676 737.101,304.548 737.267,304.419 737.434,304.291 737.600,304.162 737.767,304.033 737.933,303.904 738.099,303.775 738.266,303.646 738.432,303.516 738.599,303.386 738.765,303.256 738.932,303.126 739.098,302.996 739.264,302.865 739.431,302.734 739.597,302.603 739.764,302.472 739.930,302.341 740.097,302.210 740.263,302.078 740.429,301.946 740.596,301.814 740.762,301.682 740.929,301.550 741.095,301.417 741.262,301.284 741.428,301.151 741.594,301.018 741.761,300.885 741.927,300.751 742.094,300.618 742.260,300.484 742.427,300.350 742.593,300.216 742.760,300.081 742.926,299.947 743.092,299.812 743.259,299.677 743.425,299.542 743.592,299.406 743.758,299.271 743.925,299.135 744.091,298.999 744.257,298.863 744.424,298.727 744.590,298.590 744.757,298.454 744.923,298.317 745.090,298.180 745.256,298.043 745.422,297.905 745.589,297.768 745.755,297.630 745.922,297.492 746.088,297.354 746.255,297.216 746.421,297.077 746.587,296.938 746.754,296.800 746.920,296.660 747.087,296.521 747.253,296.382 747.420,296.242 747.586,296.102 747.753,295.962 747.919,295.822 748.085,295.682 748.252,295.541 748.418,295.400 748.585,295.259 748.751,295.118 748.918,294.977 749.084,294.835 749.250,294.694 749.417,294.552 749.583,294.410 749.750,294.268 749.916,294.125 750.083,293.982 750.249,293.840 750.415,293.697 750.582,293.553 750.748,293.410 750.915,293.266 751.081,293.123 751.248,292.979 751.414,292.835 751.580,292.690 751.747,292.546 751.913,292.401 752.080,292.256 752.246,292.111 752.413,291.966 752.579,291.820 752.746,291.675 752.912,291.529 753.078,291.383 753.245,291.237 753.411,291.090 753.578,290.944 753.744,290.797 753.911,290.650 754.077,290.503 754.243,290.355 754.410,290.208 754.576,290.060 754.743,289.912 754.909,289.764 755.076,289.616 755.242,289.467 755.408,289.318 755.575,289.169 755.741,289.020 755.908,288.871 756.074,288.722 756.241,288.572 756.407,288.422 756.573,288.272 756.740,288.122 756.906,287.972 757.073,287.821 757.239,287.670 757.406,287.519 757.572,287.368 757.739,287.217 757.905,287.065 758.071,286.913 758.238,286.761 758.404,286.609 758.571,286.457 758.737,286.304 758.904,286.152 759.070,285.999 759.236,285.846 759.403,285.692 759.569,285.539 759.736,285.385 759.902,285.231 760.069,285.077 760.235,284.923 760.401,284.769 760.568,284.614 760.734,284.459 760.901,284.304 761.067,284.149 761.234,283.994 761.400,283.838 761.566,283.682 761.733,283.526 761.899,283.370 762.066,283.214 762.232,283.057 762.399,282.900 762.565,282.743 762.731,282.586 762.898,282.429 763.064,282.271 763.231,282.114 763.397,281.956 763.564,281.798 763.730,281.639 763.897,281.481 764.063,281.322 764.229,281.163 764.396,281.004 764.562,280.845 764.729,280.686 764.895,280.526 765.062,280.366 765.228,280.206 765.394,280.046 765.561,279.885 765.727,279.725 765.894,279.564 766.060,279.403 766.227,279.242 766.393,279.080 766.559,278.919 766.726,278.757 766.892,278.595 767.059,278.433 767.225,278.270 767.392,278.108 767.558,277.945 767.724,277.782 767.891,277.619 768.057,277.456 768.224,277.292 768.390,277.128 768.557,276.965 768.723,276.800 768.890,276.636 769.056,276.472 769.222,276.307 769.389,276.142 769.555,275.977 769.722,275.812 769.888,275.646 770.055,275.480 770.221,275.314 770.387,275.148 770.554,274.982 770.720,274.816 770.887,274.649 771.053,274.482 771.220,274.315 771.386,274.148 771.552,273.980 771.719,273.813 771.885,273.645 772.052,273.477 772.218,273.309 772.385,273.140 772.551,272.971 772.717,272.803 772.884,272.634 773.050,272.464 773.217,272.295 773.383,272.125 773.550,271.956 773.716,271.785 773.883,271.615 774.049,271.445 774.215,271.274 774.382,271.103 774.548,270.932 774.715,270.761 774.881,270.590 775.048,270.418 775.214,270.247 775.380,270.075 775.547,269.902 775.713,269.730 775.880,269.557 776.046,269.385 776.213,269.212 776.379,269.038 776.545,268.865 776.712,268.692 776.878,268.518 777.045,268.344 777.211,268.170 777.378,267.995 777.544,267.821 777.710,267.646 777.877,267.471 778.043,267.296 778.210,267.120 778.376,266.945 778.543,266.769 778.709,266.593 778.876,266.417 779.042,266.241 779.208,266.064 779.375,265.887 779.541,265.710 779.708,265.533 779.874,265.356 780.041,265.178 780.207,265.001 780.373,264.823 780.540,264.645 780.706,264.466 780.873,264.288 781.039,264.109 781.206,263.930 781.372,263.751 781.538,263.572 781.705,263.392 781.871,263.212 782.038,263.032 782.204,262.852 782.371,262.672 782.537,262.491 782.703,262.311 782.870,262.130 783.036,261.949 783.203,261.767 783.369,261.586 783.536,261.404 783.702,261.222 783.869,261.040 784.035,260.858 784.201,260.675 784.368,260.492 784.534,260.309 784.701,260.126 784.867,259.943 785.034,259.759 785.200,259.576 785.366,259.392 785.533,259.208 785.699,259.023 785.866,258.839 786.032,258.654 786.199,258.469 786.365,258.284 786.531,258.098 786.698,257.913 786.864,257.727 787.031,257.541 787.197,257.355 787.364,257.169 787.530,256.982 787.696,256.795 787.863,256.608 788.029,256.421 788.196,256.234 788.362,256.046 788.529,255.859 788.695,255.671 788.861,255.482 789.028,255.294 789.194,255.105 789.361,254.917 789.527,254.728 789.694,254.538 789.860,254.349 790.027,254.160 790.193,253.970 790.359,253.780 790.526,253.590 790.692,253.399 790.859,253.209 791.025,253.018 791.192,252.827 791.358,252.636 791.524,252.444 791.691,252.252 791.857,252.061 792.024,251.869 792.190,251.676 792.357,251.484 792.523,251.291 792.689,251.099 792.856,250.906 793.022,250.712 793.189,250.519 793.355,250.325 793.522,250.131 793.688,249.937 793.854,249.743 794.021,249.549 794.187,249.354 794.354,249.159 794.520,248.964 794.687,248.769 794.853,248.573 795.020,248.378 795.186,248.182 795.352,247.986 795.519,247.789 795.685,247.593 795.852,247.396 796.018,247.199 796.185,247.002 796.351,246.805 796.517,246.607 796.684,246.410 796.850,246.212 797.017,246.013 797.183,245.815 797.350,245.617 797.516,245.418 797.682,245.219 797.849,245.020 798.015,244.820 798.182,244.621 798.348,244.421 798.515,244.221 798.681,244.021 798.847,243.821 799.014,243.620 799.180,243.419 799.347,243.218 799.513,243.017 799.680,242.816 799.846,242.614 800.013,242.412 800.179,242.210 800.345,242.008 800.512,241.805 800.678,241.603 800.845,241.400 801.011,241.197 801.178,240.994 801.344,240.790 801.510,240.587 801.677,240.383 801.843,240.179 802.010,239.974 802.176,239.770 802.343,239.565 802.509,239.360 802.675,239.155 802.842,238.950 803.008,238.744 803.175,238.539 803.341,238.333 803.508,238.127 803.674,237.920 803.840,237.714 804.007,237.507 804.173,237.300 804.340,237.093 804.506,236.885 804.673,236.678 804.839,236.470 805.006,236.262 805.172,236.054 805.338,235.845 805.505,235.637 805.671,235.428 805.838,235.219 806.004,235.010 806.171,234.800 806.337,234.591 806.503,234.381 806.670,234.171 806.836,233.960 807.003,233.750 807.169,233.539 807.336,233.328 807.502,233.117 807.668,232.906 807.835,232.695 808.001,232.483 808.168,232.271 808.334,232.059 808.501,231.846 808.667,231.634 808.833,231.421 809.000,231.208 809.166,230.995 809.333,230.782 809.499,230.568 809.666,230.354 809.832,230.140 809.999,229.926 810.165,229.712 810.331,229.497 810.498,229.282 810.664,229.067 810.831,228.852 810.997,228.636 811.164,228.421 811.330,228.205 811.496,227.989 811.663,227.772 811.829,227.556 811.996,227.339 812.162,227.122 812.329,226.905 812.495,226.688 812.661,226.470 812.828,226.253 812.994,226.035 813.161,225.816 813.327,225.598 813.494,225.380 813.660,225.161 813.826,224.942 813.993,224.723 814.159,224.503 814.326,224.283 814.492,224.064 814.659,223.844 814.825,223.623 814.991,223.403 815.158,223.182 815.324,222.961 815.491,222.740 815.657,222.519 815.824,222.297 815.990,222.076 816.157,221.854 816.323,221.632 816.489,221.409 816.656,221.187 816.822,220.964 816.989,220.741 817.155,220.518 817.322,220.294 817.488,220.071 817.654,219.847 817.821,219.623 817.987,219.399 818.154,219.174 818.320,218.950 818.487,218.725 818.653,218.500 818.819,218.274 818.986,218.049 819.152,217.823 819.319,217.597 819.485,217.371 819.652,217.145 819.818,216.918 819.984,216.692 820.151,216.465 820.317,216.237 820.484,216.010 820.650,215.782 820.817,215.555 820.983,215.327 821.150,215.098 821.316,214.870 821.482,214.641 821.649,214.413 821.815,214.183 821.982,213.954 822.148,213.725 822.315,213.495 822.481,213.265 822.647,213.035 822.814,212.805 822.980,212.574 823.147,212.343 823.313,212.112 823.480,211.881 823.646,211.650 823.812,211.418 823.979,211.186 824.145,210.954 824.312,210.722 824.478,210.490 824.645,210.257 824.811,210.024 824.977,209.791 825.144,209.558 825.310,209.324 825.477,209.091 825.643,208.857 825.810,208.623 825.976,208.388 826.143,208.154 826.309,207.919 826.475,207.684 826.642,207.449 826.808,207.213 826.975,206.978 827.141,206.742 827.308,206.506 827.474,206.270 827.640,206.033 827.807,205.796 827.973,205.560 828.140,205.323 828.306,205.085 828.473,204.848 828.639,204.610 828.805,204.372 828.972,204.134 829.138,203.895 829.305,203.657 829.471,203.418 829.638,203.179 829.804,202.940 829.970,202.700 830.137,202.461 830.303,202.221 830.470,201.981 830.636,201.741 830.803,201.500 830.969,201.259 831.136,201.019 831.302,200.777 831.468,200.536 831.635,200.294 831.801,200.053 831.968,199.811 832.134,199.569 832.301,199.326 832.467,199.084 832.633,198.841 832.800,198.598 832.966,198.354 833.133,198.111 833.299,197.867 833.466,197.623 833.632,197.379 833.798,197.135 833.965,196.890 834.131,196.646 834.298,196.401 834.464,196.156 834.631,195.910 834.797,195.665 834.963,195.419 835.130,195.173 835.296,194.926 835.463,194.680 835.629,194.433 835.796,194.186 835.962,193.939 836.129,193.692 836.295,193.445 836.461,193.197 836.628,192.949 836.794,192.701 836.961,192.452 837.127,192.204 837.294,191.955 837.460,191.706 837.626,191.457 837.793,191.207 837.959,190.958 838.126,190.708 838.292,190.458 838.459,190.207 838.625,189.957 838.791,189.706 838.958,189.455 839.124,189.204 839.291,188.953 839.457,188.701 839.624,188.449 839.790,188.197 839.956,187.945 840.123,187.693 840.289,187.440 840.456,187.187 840.622,186.934 840.789,186.681 840.955,186.427 841.121,186.173 841.288,185.920 841.454,185.665 841.621,185.411 841.787,185.156 841.954,184.902 842.120,184.647 842.287,184.391 842.453,184.136 842.619,183.880 842.786,183.624 842.952,183.368 843.119,183.112 843.285,182.856 843.452,182.599 843.618,182.342 843.784,182.085 843.951,181.827 844.117,181.570 844.284,181.312 844.450,181.054 844.617,180.796 844.783,180.537 844.949,180.279 845.116,180.020 845.282,179.761 845.449,179.501 845.615,179.242 845.782,178.982 845.948,178.722 846.114,178.462 846.281,178.202 846.447,177.941 846.614,177.680 846.780,177.419 846.947,177.158 847.113,176.896 847.280,176.635 847.446,176.373 847.612,176.111 847.779,175.848 847.945,175.586 848.112,175.323 848.278,175.060 848.445,174.797 848.611,174.534 848.777,174.270 848.944,174.006 849.110,173.742 849.277,173.478 849.443,173.213 849.610,172.949 849.776,172.684 849.942,172.419 850.109,172.153 850.275,171.888 850.442,171.622 850.608,171.356 850.775,171.090 850.941,170.823 851.107,170.557 851.274,170.290 851.440,170.023 851.607,169.756 851.773,169.488 851.940,169.220 852.106,168.952 852.273,168.684 852.439,168.416 852.605,168.147 852.772,167.879 852.938,167.610 853.105,167.340 853.271,167.071 853.438,166.801 853.604,166.531 853.770,166.261 853.937,165.991 854.103,165.720 854.270,165.450 854.436,165.179 854.603,164.908 854.769,164.636 854.935,164.365 855.102,164.093 855.268,163.821 855.435,163.548 855.601,163.276 855.768,163.003 855.934,162.730 856.100,162.457 856.267,162.184 856.433,161.910 856.600,161.637 856.766,161.363 856.933,161.088 857.099,160.814 857.266,160.539 857.432,160.264 857.598,159.989 857.765,159.714 857.931,159.439 858.098,159.163 858.264,158.887 858.431,158.611 858.597,158.334 858.763,158.058 858.930,157.781 859.096,157.504 859.263,157.227 859.429,156.949 859.596,156.672 859.762,156.394 859.928,156.116 860.095,155.837 860.261,155.559 860.428,155.280 860.594,155.001 860.761,154.722 860.927,154.442 861.093,154.163 861.260,153.883 861.426,153.603 861.593,153.323 861.759,153.042 861.926,152.761 862.092,152.480 862.259,152.199 862.425,151.918 862.591,151.636 862.758,151.355 862.924,151.073 863.091,150.790 863.257,150.508 863.424,150.225 863.590,149.942 863.756,149.659 863.923,149.376 864.089,149.092 864.256,148.809 864.422,148.525 864.589,148.240 864.755,147.956 864.921,147.671 865.088,147.386 865.254,147.101 865.421,146.816 865.587,146.531 865.754,146.245 865.920,145.959 866.086,145.673 866.253,145.386 866.419,145.100 866.586,144.813 866.752,144.526 866.919,144.239 867.085,143.951 867.251,143.664 867.418,143.376 867.584,143.088 867.751,142.799 867.917,142.511 868.084,142.222 868.250,141.933 868.417,141.644 868.583,141.354 868.749,141.065 868.916,140.775 869.082,140.485 869.249,140.194 869.415,139.904 869.582,139.613 869.748,139.322 869.914,139.031 870.081,138.740 870.247,138.448 870.414,138.156 870.580,137.864 870.747,137.572 870.913,137.279 871.079,136.987 871.246,136.694 871.412,136.401 871.579,136.107 871.745,135.814 871.912,135.520 872.078,135.226 872.244,134.932 872.411,134.637 872.577,134.343 872.744,134.048 872.910,133.753 873.077,133.457 873.243,133.162 873.410,132.866 873.576,132.570 873.742,132.274 873.909,131.978 874.075,131.681 874.242,131.384 874.408,131.087 874.575,130.790 874.741,130.492 874.907,130.194 875.074,129.897 875.240,129.598 875.407,129.300 875.573,129.001 875.740,128.703 875.906,128.404 876.072,128.104 876.239,127.805 876.405,127.505 876.572,127.205 876.738,126.905 876.905,126.605 877.071,126.304 877.237,126.003 877.404,125.702 877.570,125.401 877.737,125.100 877.903,124.798 878.070,124.496 878.236,124.194 878.403,123.892 878.569,123.589 878.735,123.286 878.902,122.983 879.068,122.680 879.235,122.377 879.401,122.073 879.568,121.769 879.734,121.465 879.900,121.161 880.067,120.857 880.233,120.552 880.400,120.247 880.566,119.942 880.733,119.636 880.899,119.331 881.065,119.025 881.232,118.719 881.398,118.413 881.565,118.106 881.731,117.799 881.898,117.492 882.064,117.185 882.230,116.878 882.397,116.570 882.563,116.263 882.730,115.955 882.896,115.646 883.063,115.338 883.229,115.029 883.396,114.720 883.562,114.411 883.728,114.102 883.895,113.792 884.061,113.483 884.228,113.173 884.394,112.862 884.561,112.552 884.727,112.241 884.893,111.930 885.060,111.619 885.226,111.308 885.393,110.996 885.559,110.685 885.726,110.373 885.892,110.061 886.058,109.748 886.225,109.436 886.391,109.123 886.558,108.810 886.724,108.496 886.891,108.183 887.057,107.869 887.223,107.555 887.390,107.241 887.556,106.927 887.723,106.612 887.889,106.297 888.056,105.982 888.222,105.667 888.389,105.351 888.555,105.036 888.721,104.720 888.888,104.404 889.054,104.087 889.221,103.771 889.387,103.454 889.554,103.137 889.720,102.820 889.886,102.502 890.053,102.185 890.219,101.867 890.386,101.549 890.552,101.230 890.719,100.912 890.885,100.593 891.051,100.274 891.218,99.955 891.384,99.635 891.551,99.316 891.717,98.996 891.884,98.676 892.050,98.355 892.216,98.035 892.383,97.714 892.549,97.393 892.716,97.072 892.882,96.750 893.049,96.429 893.215,96.107 893.381,95.785 893.548,95.462 893.714,95.140 893.881,94.817 894.047,94.494 894.214,94.171 894.380,93.848 894.547,93.524 894.713,93.200 894.879,92.876 895.046,92.552 895.212,92.227 895.379,91.903 895.545,91.578 895.712,91.253 895.878,90.927 896.044,90.602 896.211,90.276 896.377,89.950 896.544,89.624 896.710,89.297 896.877,88.970 897.043,88.643 897.209,88.316 897.376,87.989 897.542,87.661 897.709,87.334 897.875,87.006 898.042,86.677 898.208,86.349 898.374,86.020 898.541,85.691 898.707,85.362 898.874,85.033 899.040,84.703 899.207,84.373 899.373,84.043 899.540,83.713 899.706,83.383 899.872,83.052 900.039,82.721 900.205,82.390 900.372,82.059 900.538,81.727 900.705,81.395 900.871,81.063 901.037,80.731 901.204,80.399 901.370,80.066 901.537,79.733 901.703,79.400 901.870,79.067 902.036,78.733 902.202,78.400 902.369,78.066 902.535,77.732 902.702,77.397 902.868,77.062 903.035,76.728 903.201,76.393 903.367,76.057 903.534,75.722 903.700,75.386 903.867,75.050 904.033,74.714 904.200,74.377 904.366,74.041 904.533,73.704 904.699,73.367 904.865,73.030 905.032,72.692 905.198,72.355 905.365,72.017 905.531,71.678 905.698,71.340 905.864,71.001 906.030,70.663 906.197,70.324 906.363,69.984 906.530,69.645 906.696,69.305 906.863,68.965 907.029,68.625 907.195,68.285 907.362,67.944 907.528,67.603 907.695,67.262 907.861,66.921 908.028,66.580 908.194,66.238 908.360,65.896 908.527,65.554 908.693,65.211 908.860,64.869 909.026,64.526 909.193,64.183 909.359,63.840 909.526,63.496 909.692,63.153 909.858,62.809 910.025,62.465 910.191,62.120 910.358,61.776 910.524,61.431 910.691,61.086 910.857,60.741 911.023,60.395 911.190,60.050 911.356,59.704 911.523,59.358 911.689,59.011 911.856,58.665 912.022,58.318 912.188,57.971 912.355,57.624 912.521,57.277 912.688,56.929 912.854,56.581 913.021,56.233 913.187,55.885 913.353,55.536 913.520,55.187 913.686,54.838 913.853,54.489 914.019,54.140 914.186,53.790 914.352,53.440 914.519,53.090 914.685,52.740 914.851,52.389 915.018,52.039 915.184,51.688 915.351,51.337 915.517,50.985 915.684,50.634 915.850,50.282 916.016,49.930 916.183,49.577 916.349,49.225 916.516,48.872 916.682,48.519 916.849,48.166 917.015,47.813 917.181,47.459 917.348,47.105 917.514,46.751 917.681,46.397 917.847,46.042 918.014,45.688 918.180,45.333 918.346,44.978 918.513,44.622 918.679,44.267 918.846,43.911 919.012,43.555 919.179,43.199 919.345,42.842 919.511,42.485 919.678,42.128 919.844,41.771 920.011,41.414 920.177,41.056 920.344,40.699 920.510,40.341 920.677,39.982 920.843,39.624 921.009,39.265 921.176,38.906 921.342,38.547 921.509,38.188 921.675,37.828 921.842,37.468 922.008,37.108 922.174,36.748 922.341,36.388 922.507,36.027 922.674,35.666 922.840,35.305 923.007,34.944 923.173,34.582 923.339,34.220 923.506,33.858 923.672,33.496 923.839,33.134 924.005,32.771 924.172,32.408 924.338,32.045 924.504,31.682 924.671,31.318 924.837,30.954 925.004,30.590 925.170,30.226 925.337,29.862 925.503,29.497 925.670,29.132 925.836,28.767 926.002,28.402 926.169,28.036 926.335,27.671 926.502,27.305 926.668,26.938 926.835,26.572 927.001,26.205 927.167,25.839 927.334,25.471 927.500,25.104 927.667,24.737 927.833,24.369 928.000,24.001 928.000,24.000" fill="none" stroke="#000000" stroke-width="2.800" stroke-opacity="1.000"/>
  </g>
  <rect x="96.000" y="24.000" width="832.000" height="368.000" fill="none" stroke="#3f3f46" stroke-width="1.8"/>
  <rect x="718.500" y="40.000" width="193.500" height="82.000" rx="6" ry="6" fill="#ffffff" fill-opacity="0.94" stroke="#000000" stroke-width="1.2"/>
  <line x1="732.500" y1="66.000" x2="772.500" y2="66.000" stroke="#000000" stroke-width="2.800" stroke-opacity="1.000"/>
  <text x="782.500" y="73.000" text-anchor="start" fill="#111827" font-family="'Lato', 'Avenir Next', 'Segoe UI', 'Helvetica Neue', sans-serif" font-size="20.0">Theoretical</text>
  <circle cx="752.500" cy="96.000" r="4.500" fill="#5fa8e8" fill-opacity="1.000"/>
  <text x="782.500" y="103.000" text-anchor="start" fill="#111827" font-family="'Lato', 'Avenir Next', 'Segoe UI', 'Helvetica Neue', sans-serif" font-size="20.0">AutoLyap</text>
  <line x1="96.000" y1="392.000" x2="96.000" y2="384.000" stroke="#3f3f46" stroke-width="1.4"/>
  <text x="96.000" y="438.000" text-anchor="middle" fill="#52525b" font-family="'Lato', 'Avenir Next', 'Segoe UI', 'Helvetica Neue', sans-serif" font-size="21">0</text>
  <line x1="262.400" y1="392.000" x2="262.400" y2="384.000" stroke="#3f3f46" stroke-width="1.4"/>
  <text x="262.400" y="438.000" text-anchor="middle" fill="#52525b" font-family="'Lato', 'Avenir Next', 'Segoe UI', 'Helvetica Neue', sans-serif" font-size="21">0.4</text>
  <line x1="428.800" y1="392.000" x2="428.800" y2="384.000" stroke="#3f3f46" stroke-width="1.4"/>
  <text x="428.800" y="438.000" text-anchor="middle" fill="#52525b" font-family="'Lato', 'Avenir Next', 'Segoe UI', 'Helvetica Neue', sans-serif" font-size="21">0.8</text>
  <line x1="595.200" y1="392.000" x2="595.200" y2="384.000" stroke="#3f3f46" stroke-width="1.4"/>
  <text x="595.200" y="438.000" text-anchor="middle" fill="#52525b" font-family="'Lato', 'Avenir Next', 'Segoe UI', 'Helvetica Neue', sans-serif" font-size="21">1.2</text>
  <line x1="761.600" y1="392.000" x2="761.600" y2="384.000" stroke="#3f3f46" stroke-width="1.4"/>
  <text x="761.600" y="438.000" text-anchor="middle" fill="#52525b" font-family="'Lato', 'Avenir Next', 'Segoe UI', 'Helvetica Neue', sans-serif" font-size="21">1.6</text>
  <line x1="928.000" y1="392.000" x2="928.000" y2="384.000" stroke="#3f3f46" stroke-width="1.4"/>
  <text x="928.000" y="438.000" text-anchor="middle" fill="#52525b" font-family="'Lato', 'Avenir Next', 'Segoe UI', 'Helvetica Neue', sans-serif" font-size="21">2</text>
  <line x1="104.000" y1="392.000" x2="96.000" y2="392.000" stroke="#3f3f46" stroke-width="1.4"/>
  <text x="82.000" y="399.000" text-anchor="end" fill="#52525b" font-family="'Lato', 'Avenir Next', 'Segoe UI', 'Helvetica Neue', sans-serif" font-size="21">0.6</text>
  <line x1="104.000" y1="300.000" x2="96.000" y2="300.000" stroke="#3f3f46" stroke-width="1.4"/>
  <text x="82.000" y="307.000" text-anchor="end" fill="#52525b" font-family="'Lato', 'Avenir Next', 'Segoe UI', 'Helvetica Neue', sans-serif" font-size="21">0.7</text>
  <line x1="104.000" y1="208.000" x2="96.000" y2="208.000" stroke="#3f3f46" stroke-width="1.4"/>
  <text x="82.000" y="215.000" text-anchor="end" fill="#52525b" font-family="'Lato', 'Avenir Next', 'Segoe UI', 'Helvetica Neue', sans-serif" font-size="21">0.8</text>
  <line x1="104.000" y1="116.000" x2="96.000" y2="116.000" stroke="#3f3f46" stroke-width="1.4"/>
  <text x="82.000" y="123.000" text-anchor="end" fill="#52525b" font-family="'Lato', 'Avenir Next', 'Segoe UI', 'Helvetica Neue', sans-serif" font-size="21">0.9</text>
  <line x1="104.000" y1="24.000" x2="96.000" y2="24.000" stroke="#3f3f46" stroke-width="1.4"/>
  <text x="82.000" y="31.000" text-anchor="end" fill="#52525b" font-family="'Lato', 'Avenir Next', 'Segoe UI', 'Helvetica Neue', sans-serif" font-size="21">1</text>
  <text x="512.000" y="470.000" text-anchor="middle" fill="#111827" font-family="'Lato', 'Avenir Next', 'Segoe UI', 'Helvetica Neue', sans-serif" font-size="28">λ</text>
  <text x="30.0" y="208.000" text-anchor="middle" transform="rotate(0 30.0 208.000)" fill="#111827" font-family="'Lato', 'Avenir Next', 'Segoe UI', 'Helvetica Neue', sans-serif" font-size="28">ρ</text>
</svg>
