<?xml version="1.0" encoding="UTF-8"?>
<svg xmlns="http://www.w3.org/2000/svg" width="960" height="480" viewBox="0 0 960 480" role="img" aria-label="Gradient-method rho versus gamma">
  <title>Gradient-method contraction factor vs step size</title>
  <desc>Rho vs gamma for gradient method: theoretical curve and AutoLyap points.</desc>
  <rect x="0" y="0" width="960" height="480" fill="#ffffff"/>
  <rect x="96.000" y="24.000" width="832.000" height="368.000" fill="#f8fafc"/>
  <defs>
    <clipPath id="plot-area-clip">
      <rect x="96.000" y="24.000" width="832.000" height="368.000"/>
    </clipPath>
  </defs>
  <style type="text/css"><![CDATA[
@font-face {
  font-family: 'Lato';
  src:
    url('css/fonts/lato-normal.woff2') format('woff2'),
    url('../_static/css/fonts/lato-normal.woff2') format('woff2'),
    url('css/fonts/lato-normal.woff') format('woff'),
    url('../_static/css/fonts/lato-normal.woff') format('woff');
  font-style: normal;
  font-weight: 400;
}
@font-face {
  font-family: 'Lato';
  src:
    url('css/fonts/lato-normal-italic.woff2') format('woff2'),
    url('../_static/css/fonts/lato-normal-italic.woff2') format('woff2'),
    url('css/fonts/lato-normal-italic.woff') format('woff'),
    url('../_static/css/fonts/lato-normal-italic.woff') format('woff');
  font-style: italic;
  font-weight: 400;
}
@font-face {
  font-family: 'Lato';
  src:
    url('css/fonts/lato-bold.woff2') format('woff2'),
    url('../_static/css/fonts/lato-bold.woff2') format('woff2'),
    url('css/fonts/lato-bold.woff') format('woff'),
    url('../_static/css/fonts/lato-bold.woff') format('woff');
  font-style: normal;
  font-weight: 700;
}
@font-face {
  font-family: 'Lato';
  src:
    url('css/fonts/lato-bold-italic.woff2') format('woff2'),
    url('../_static/css/fonts/lato-bold-italic.woff2') format('woff2'),
    url('css/fonts/lato-bold-italic.woff') format('woff'),
    url('../_static/css/fonts/lato-bold-italic.woff') format('woff');
  font-style: italic;
  font-weight: 700;
}
  ]]></style>
  <line x1="96.000" y1="24.000" x2="96.000" y2="392.000" stroke="#9ca3af" stroke-width="1.350"/>
  <line x1="262.400" y1="24.000" x2="262.400" y2="392.000" stroke="#9ca3af" stroke-width="1.350"/>
  <line x1="428.800" y1="24.000" x2="428.800" y2="392.000" stroke="#9ca3af" stroke-width="1.350"/>
  <line x1="595.200" y1="24.000" x2="595.200" y2="392.000" stroke="#9ca3af" stroke-width="1.350"/>
  <line x1="761.600" y1="24.000" x2="761.600" y2="392.000" stroke="#9ca3af" stroke-width="1.350"/>
  <line x1="928.000" y1="24.000" x2="928.000" y2="392.000" stroke="#9ca3af" stroke-width="1.350"/>
  <line x1="96.000" y1="392.000" x2="928.000" y2="392.000" stroke="#9ca3af" stroke-width="1.350"/>
  <line x1="96.000" y1="339.429" x2="928.000" y2="339.429" stroke="#9ca3af" stroke-width="1.350"/>
  <line x1="96.000" y1="286.857" x2="928.000" y2="286.857" stroke="#9ca3af" stroke-width="1.350"/>
  <line x1="96.000" y1="234.286" x2="928.000" y2="234.286" stroke="#9ca3af" stroke-width="1.350"/>
  <line x1="96.000" y1="181.714" x2="928.000" y2="181.714" stroke="#9ca3af" stroke-width="1.350"/>
  <line x1="96.000" y1="129.143" x2="928.000" y2="129.143" stroke="#9ca3af" stroke-width="1.350"/>
  <line x1="96.000" y1="76.571" x2="928.000" y2="76.571" stroke="#9ca3af" stroke-width="1.350"/>
  <line x1="96.000" y1="24.000" x2="928.000" y2="24.000" stroke="#9ca3af" stroke-width="1.350"/>
  <g clip-path="url(#plot-area-clip)">
    <g fill="#5fa8e8" fill-opacity="0.900">
    <circle cx="104.320" cy="29.244" r="4.500"/>
    <circle cx="112.640" cy="34.462" r="4.500"/>
    <circle cx="120.960" cy="39.653" r="4.500"/>
    <circle cx="129.280" cy="44.818" r="4.500"/>
    <circle cx="137.600" cy="49.957" r="4.500"/>
    <circle cx="145.920" cy="55.070" r="4.500"/>
    <circle cx="154.240" cy="60.156" r="4.500"/>
    <circle cx="162.560" cy="65.216" r="4.500"/>
    <circle cx="170.880" cy="70.250" r="4.500"/>
    <circle cx="179.200" cy="75.257" r="4.500"/>
    <circle cx="187.520" cy="80.238" r="4.500"/>
    <circle cx="195.840" cy="85.193" r="4.500"/>
    <circle cx="204.160" cy="90.122" r="4.500"/>
    <circle cx="212.480" cy="95.024" r="4.500"/>
    <circle cx="220.800" cy="99.900" r="4.500"/>
    <circle cx="229.120" cy="104.750" r="4.500"/>
    <circle cx="237.440" cy="109.573" r="4.500"/>
    <circle cx="245.760" cy="114.370" r="4.500"/>
    <circle cx="254.080" cy="119.141" r="4.500"/>
    <circle cx="262.400" cy="123.886" r="4.500"/>
    <circle cx="270.720" cy="128.604" r="4.500"/>
    <circle cx="279.040" cy="133.296" r="4.500"/>
    <circle cx="287.360" cy="137.962" r="4.500"/>
    <circle cx="295.680" cy="142.601" r="4.500"/>
    <circle cx="304.000" cy="147.214" r="4.500"/>
    <circle cx="312.320" cy="151.801" r="4.500"/>
    <circle cx="320.640" cy="156.362" r="4.500"/>
    <circle cx="328.960" cy="160.896" r="4.500"/>
    <circle cx="337.280" cy="165.404" r="4.500"/>
    <circle cx="345.600" cy="169.886" r="4.500"/>
    <circle cx="353.920" cy="174.341" r="4.500"/>
    <circle cx="362.240" cy="178.770" r="4.500"/>
    <circle cx="370.560" cy="183.173" r="4.500"/>
    <circle cx="378.880" cy="187.550" r="4.500"/>
    <circle cx="387.200" cy="191.900" r="4.500"/>
    <circle cx="395.520" cy="196.224" r="4.500"/>
    <circle cx="403.840" cy="200.522" r="4.500"/>
    <circle cx="412.160" cy="204.793" r="4.500"/>
    <circle cx="420.480" cy="209.038" r="4.500"/>
    <circle cx="428.800" cy="213.257" r="4.500"/>
    <circle cx="437.120" cy="217.450" r="4.500"/>
    <circle cx="445.440" cy="221.616" r="4.500"/>
    <circle cx="453.760" cy="225.756" r="4.500"/>
    <circle cx="462.080" cy="229.870" r="4.500"/>
    <circle cx="470.400" cy="233.957" r="4.500"/>
    <circle cx="478.720" cy="238.018" r="4.500"/>
    <circle cx="487.040" cy="242.053" r="4.500"/>
    <circle cx="495.360" cy="246.062" r="4.500"/>
    <circle cx="503.680" cy="250.044" r="4.500"/>
    <circle cx="512.000" cy="254.000" r="4.500"/>
    <circle cx="520.320" cy="257.930" r="4.500"/>
    <circle cx="528.640" cy="261.833" r="4.500"/>
    <circle cx="536.960" cy="265.710" r="4.500"/>
    <circle cx="545.280" cy="269.561" r="4.500"/>
    <circle cx="553.600" cy="273.386" r="4.500"/>
    <circle cx="561.920" cy="277.184" r="4.500"/>
    <circle cx="570.240" cy="280.956" r="4.500"/>
    <circle cx="578.560" cy="284.702" r="4.500"/>
    <circle cx="586.880" cy="288.421" r="4.500"/>
    <circle cx="595.200" cy="292.114" r="4.500"/>
    <circle cx="603.520" cy="295.781" r="4.500"/>
    <circle cx="611.840" cy="299.422" r="4.500"/>
    <circle cx="620.160" cy="303.036" r="4.500"/>
    <circle cx="628.480" cy="306.624" r="4.500"/>
    <circle cx="636.800" cy="310.186" r="4.500"/>
    <circle cx="645.120" cy="313.721" r="4.500"/>
    <circle cx="653.440" cy="317.230" r="4.500"/>
    <circle cx="661.760" cy="320.713" r="4.500"/>
    <circle cx="670.080" cy="324.170" r="4.500"/>
    <circle cx="678.400" cy="327.600" r="4.500"/>
    <circle cx="686.720" cy="331.004" r="4.500"/>
    <circle cx="695.040" cy="334.382" r="4.500"/>
    <circle cx="703.360" cy="337.733" r="4.500"/>
    <circle cx="711.680" cy="341.058" r="4.500"/>
    <circle cx="720.000" cy="344.357" r="4.500"/>
    <circle cx="728.320" cy="347.630" r="4.500"/>
    <circle cx="736.640" cy="350.876" r="4.500"/>
    <circle cx="744.960" cy="354.096" r="4.500"/>
    <circle cx="753.280" cy="357.290" r="4.500"/>
    <circle cx="761.600" cy="360.457" r="4.500"/>
    <circle cx="769.920" cy="347.630" r="4.500"/>
    <circle cx="778.240" cy="334.382" r="4.500"/>
    <circle cx="786.560" cy="320.713" r="4.500"/>
    <circle cx="794.880" cy="306.624" r="4.500"/>
    <circle cx="803.200" cy="292.114" r="4.500"/>
    <circle cx="811.520" cy="277.184" r="4.500"/>
    <circle cx="819.840" cy="261.833" r="4.500"/>
    <circle cx="828.160" cy="246.062" r="4.500"/>
    <circle cx="836.480" cy="229.870" r="4.500"/>
    <circle cx="844.800" cy="213.257" r="4.500"/>
    <circle cx="853.120" cy="196.224" r="4.500"/>
    <circle cx="861.440" cy="178.770" r="4.500"/>
    <circle cx="869.760" cy="160.896" r="4.500"/>
    <circle cx="878.080" cy="142.601" r="4.500"/>
    <circle cx="886.400" cy="123.886" r="4.500"/>
    <circle cx="894.720" cy="104.750" r="4.500"/>
    <circle cx="903.040" cy="85.193" r="4.500"/>
    <circle cx="911.360" cy="65.216" r="4.500"/>
    <circle cx="919.680" cy="44.818" r="4.500"/>
    <circle cx="928.000" cy="24.000" r="4.500"/>
    </g>
    <polyline points="96.000,24.000 96.083,24.053 96.084,24.053 96.084,24.053 96.085,24.054 96.086,24.054 96.086,24.055 96.087,24.055 96.088,24.055 96.088,24.056 96.089,24.056 96.090,24.057 96.091,24.057 96.091,24.058 96.092,24.058 96.093,24.059 96.093,24.059 96.094,24.059 96.095,24.060 96.096,24.060 96.096,24.061 96.097,24.061 96.098,24.062 96.099,24.062 96.099,24.063 96.100,24.063 96.101,24.064 96.102,24.064 96.102,24.065 96.103,24.065 96.104,24.066 96.105,24.066 96.106,24.067 96.106,24.067 96.107,24.068 96.108,24.068 96.109,24.069 96.110,24.069 96.111,24.070 96.111,24.070 96.112,24.071 96.113,24.071 96.114,24.072 96.115,24.073 96.116,24.073 96.117,24.074 96.118,24.074 96.118,24.075 96.119,24.075 96.120,24.076 96.121,24.077 96.122,24.077 96.123,24.078 96.124,24.078 96.125,24.079 96.126,24.080 96.127,24.080 96.128,24.081 96.129,24.081 96.130,24.082 96.131,24.083 96.132,24.083 96.133,24.084 96.134,24.085 96.135,24.085 96.136,24.086 96.137,24.087 96.138,24.087 96.139,24.088 96.140,24.089 96.141,24.089 96.142,24.090 96.144,24.091 96.145,24.091 96.146,24.092 96.147,24.093 96.148,24.094 96.149,24.094 96.150,24.095 96.151,24.096 96.153,24.096 96.154,24.097 96.155,24.098 96.156,24.099 96.157,24.099 96.159,24.100 96.160,24.101 96.161,24.102 96.162,24.103 96.164,24.103 96.165,24.104 96.166,24.105 96.167,24.106 96.169,24.107 96.170,24.107 96.171,24.108 96.173,24.109 96.174,24.110 96.175,24.111 96.177,24.112 96.178,24.112 96.179,24.113 96.181,24.114 96.182,24.115 96.184,24.116 96.185,24.117 96.186,24.118 96.188,24.119 96.189,24.120 96.191,24.121 96.192,24.121 96.194,24.122 96.195,24.123 96.197,24.124 96.198,24.125 96.200,24.126 96.201,24.127 96.203,24.128 96.204,24.129 96.206,24.130 96.208,24.131 96.209,24.132 96.211,24.133 96.212,24.134 96.214,24.135 96.216,24.136 96.217,24.137 96.219,24.138 96.221,24.139 96.222,24.141 96.224,24.142 96.226,24.143 96.228,24.144 96.229,24.145 96.231,24.146 96.233,24.147 96.235,24.148 96.237,24.149 96.238,24.151 96.240,24.152 96.242,24.153 96.244,24.154 96.246,24.155 96.248,24.156 96.250,24.158 96.251,24.159 96.253,24.160 96.255,24.161 96.257,24.163 96.259,24.164 96.261,24.165 96.263,24.166 96.265,24.168 96.267,24.169 96.269,24.170 96.272,24.172 96.274,24.173 96.276,24.174 96.278,24.176 96.280,24.177 96.282,24.178 96.284,24.180 96.287,24.181 96.289,24.182 96.291,24.184 96.293,24.185 96.296,24.187 96.298,24.188 96.300,24.190 96.302,24.191 96.305,24.193 96.307,24.194 96.309,24.196 96.312,24.197 96.314,24.199 96.317,24.200 96.319,24.202 96.322,24.203 96.324,24.205 96.327,24.206 96.329,24.208 96.332,24.210 96.334,24.211 96.337,24.213 96.339,24.214 96.342,24.216 96.345,24.218 96.347,24.219 96.350,24.221 96.353,24.223 96.355,24.225 96.358,24.226 96.361,24.228 96.364,24.230 96.366,24.232 96.369,24.233 96.372,24.235 96.375,24.237 96.378,24.239 96.381,24.241 96.384,24.242 96.387,24.244 96.390,24.246 96.393,24.248 96.396,24.250 96.399,24.252 96.402,24.254 96.405,24.256 96.408,24.258 96.411,24.260 96.414,24.262 96.418,24.264 96.421,24.266 96.424,24.268 96.427,24.270 96.431,24.272 96.434,24.274 96.437,24.276 96.441,24.278 96.444,24.281 96.447,24.283 96.451,24.285 96.454,24.287 96.458,24.289 96.461,24.292 96.465,24.294 96.469,24.296 96.472,24.298 96.476,24.301 96.479,24.303 96.483,24.305 96.487,24.308 96.491,24.310 96.494,24.312 96.498,24.315 96.502,24.317 96.506,24.320 96.510,24.322 96.514,24.325 96.518,24.327 96.522,24.330 96.526,24.332 96.530,24.335 96.534,24.337 96.538,24.340 96.542,24.343 96.546,24.345 96.551,24.348 96.555,24.351 96.559,24.353 96.563,24.356 96.568,24.359 96.572,24.361 96.577,24.364 96.581,24.367 96.585,24.370 96.590,24.373 96.595,24.376 96.599,24.378 96.604,24.381 96.608,24.384 96.613,24.387 96.618,24.390 96.623,24.393 96.627,24.396 96.632,24.399 96.637,24.402 96.642,24.406 96.647,24.409 96.652,24.412 96.657,24.415 96.662,24.418 96.667,24.421 96.672,24.425 96.677,24.428 96.683,24.431 96.688,24.435 96.693,24.438 96.699,24.441 96.704,24.445 96.709,24.448 96.715,24.452 96.720,24.455 96.726,24.459 96.732,24.462 96.737,24.466 96.743,24.469 96.749,24.473 96.754,24.477 96.760,24.480 96.766,24.484 96.772,24.488 96.778,24.491 96.784,24.495 96.790,24.499 96.796,24.503 96.802,24.507 96.808,24.511 96.815,24.515 96.821,24.519 96.827,24.523 96.834,24.527 96.840,24.531 96.847,24.535 96.853,24.539 96.860,24.543 96.866,24.547 96.873,24.551 96.880,24.556 96.886,24.560 96.893,24.564 96.900,24.569 96.907,24.573 96.914,24.577 96.921,24.582 96.928,24.586 96.935,24.591 96.943,24.595 96.950,24.600 96.957,24.605 96.965,24.609 96.972,24.614 96.980,24.619 96.987,24.624 96.995,24.628 97.002,24.633 97.010,24.638 97.018,24.643 97.026,24.648 97.034,24.653 97.042,24.658 97.050,24.663 97.058,24.668 97.066,24.673 97.074,24.678 97.082,24.684 97.091,24.689 97.099,24.694 97.108,24.700 97.116,24.705 97.125,24.710 97.133,24.716 97.142,24.721 97.151,24.727 97.160,24.733 97.169,24.738 97.178,24.744 97.187,24.750 97.196,24.755 97.205,24.761 97.215,24.767 97.224,24.773 97.233,24.779 97.243,24.785 97.252,24.791 97.262,24.797 97.272,24.803 97.282,24.810 97.292,24.816 97.302,24.822 97.312,24.828 97.322,24.835 97.332,24.841 97.342,24.848 97.352,24.854 97.363,24.861 97.373,24.867 97.384,24.874 97.395,24.881 97.405,24.888 97.416,24.895 97.427,24.901 97.438,24.908 97.449,24.915 97.460,24.922 97.472,24.930 97.483,24.937 97.495,24.944 97.506,24.951 97.518,24.959 97.529,24.966 97.541,24.973 97.553,24.981 97.565,24.988 97.577,24.996 97.589,25.004 97.602,25.011 97.614,25.019 97.626,25.027 97.639,25.035 97.651,25.043 97.664,25.051 97.677,25.059 97.690,25.067 97.703,25.076 97.716,25.084 97.729,25.092 97.743,25.101 97.756,25.109 97.770,25.118 97.783,25.126 97.797,25.135 97.811,25.144 97.825,25.152 97.839,25.161 97.853,25.170 97.867,25.179 97.882,25.188 97.896,25.198 97.911,25.207 97.926,25.216 97.941,25.225 97.956,25.235 97.971,25.244 97.986,25.254 98.001,25.264 98.017,25.273 98.032,25.283 98.048,25.293 98.064,25.303 98.079,25.313 98.096,25.323 98.112,25.333 98.128,25.344 98.144,25.354 98.161,25.365 98.178,25.375 98.194,25.386 98.211,25.396 98.228,25.407 98.246,25.418 98.263,25.429 98.280,25.440 98.298,25.451 98.316,25.462 98.333,25.473 98.351,25.485 98.370,25.496 98.388,25.508 98.406,25.519 98.425,25.531 98.444,25.543 98.462,25.555 98.481,25.567 98.500,25.579 98.520,25.591 98.539,25.603 98.559,25.616 98.578,25.628 98.598,25.641 98.618,25.653 98.639,25.666 98.659,25.679 98.679,25.692 98.700,25.705 98.721,25.718 98.742,25.731 98.763,25.744 98.784,25.758 98.806,25.771 98.827,25.785 98.849,25.799 98.871,25.813 98.893,25.827 98.916,25.841 98.938,25.855 98.961,25.869 98.984,25.884 99.007,25.898 99.030,25.913 99.053,25.927 99.077,25.942 99.101,25.957 99.124,25.972 99.149,25.988 99.173,26.003 99.197,26.018 99.222,26.034 99.247,26.050 99.272,26.065 99.297,26.081 99.322,26.097 99.348,26.113 99.374,26.130 99.400,26.146 99.426,26.163 99.453,26.179 99.479,26.196 99.506,26.213 99.533,26.230 99.560,26.247 99.588,26.265 99.615,26.282 99.643,26.300 99.671,26.317 99.700,26.335 99.728,26.353 99.757,26.371 99.786,26.389 99.815,26.408 99.845,26.426 99.874,26.445 99.904,26.464 99.934,26.483 99.964,26.502 99.995,26.521 100.026,26.541 100.057,26.560 100.088,26.580 100.120,26.600 100.152,26.620 100.184,26.640 100.216,26.660 100.248,26.681 100.281,26.702 100.314,26.722 100.347,26.743 100.381,26.764 100.415,26.786 100.449,26.807 100.483,26.829 100.518,26.851 100.552,26.873 100.587,26.895 100.623,26.917 100.659,26.939 100.694,26.962 100.731,26.985 100.767,27.008 100.804,27.031 100.841,27.054 100.878,27.078 100.916,27.102 100.954,27.125 100.992,27.150 101.030,27.174 101.069,27.198 101.108,27.223 101.148,27.248 101.187,27.273 101.227,27.298 101.268,27.323 101.308,27.349 101.349,27.375 101.391,27.401 101.432,27.427 101.474,27.453 101.516,27.480 101.559,27.507 101.602,27.534 101.645,27.561 101.688,27.588 101.732,27.616 101.776,27.644 101.821,27.672 101.866,27.700 101.911,27.728 101.957,27.757 102.003,27.786 102.049,27.815 102.096,27.845 102.143,27.874 102.190,27.904 102.238,27.934 102.286,27.964 102.334,27.995 102.383,28.026 102.432,28.056 102.482,28.088 102.532,28.119 102.582,28.151 102.633,28.183 102.684,28.215 102.736,28.247 102.788,28.280 102.840,28.313 102.893,28.346 102.946,28.380 102.999,28.413 103.053,28.447 103.108,28.482 103.163,28.516 103.218,28.551 103.273,28.586 103.330,28.621 103.386,28.657 103.443,28.692 103.500,28.729 103.558,28.765 103.617,28.802 103.675,28.839 103.734,28.876 103.794,28.913 103.854,28.951 103.915,28.989 103.976,29.028 104.037,29.066 104.099,29.105 104.162,29.144 104.225,29.184 104.288,29.224 104.352,29.264 104.416,29.305 104.481,29.345 104.547,29.387 104.613,29.428 104.679,29.470 104.746,29.512 104.813,29.554 104.881,29.597 104.950,29.640 105.019,29.683 105.088,29.727 105.159,29.771 105.229,29.815 105.300,29.860 105.372,29.905 105.444,29.951 105.517,29.996 105.591,30.042 105.664,30.089 105.739,30.136 105.814,30.183 105.890,30.230 105.966,30.278 106.043,30.327 106.120,30.375 106.198,30.424 106.277,30.474 106.356,30.523 106.436,30.574 106.517,30.624 106.598,30.675 106.679,30.726 106.762,30.778 106.845,30.830 106.928,30.883 107.013,30.936 107.098,30.989 107.183,31.043 107.269,31.097 107.356,31.151 107.444,31.206 107.532,31.262 107.621,31.317 107.711,31.374 107.801,31.430 107.892,31.487 107.984,31.545 108.076,31.603 108.169,31.661 108.263,31.720 108.358,31.779 108.453,31.839 108.549,31.899 108.646,31.960 108.743,32.021 108.841,32.083 108.940,32.145 109.040,32.207 109.141,32.270 109.242,32.334 109.344,32.398 109.447,32.462 109.551,32.527 109.655,32.593 109.761,32.659 109.867,32.725 109.974,32.792 110.081,32.860 110.190,32.928 110.299,32.997 110.410,33.066 110.521,33.135 110.633,33.205 110.746,33.276 110.859,33.347 110.974,33.419 111.089,33.491 111.206,33.564 111.323,33.638 111.441,33.712 111.560,33.786 111.680,33.861 111.801,33.937 111.923,34.013 112.046,34.090 112.170,34.167 112.294,34.245 112.420,34.324 112.546,34.403 112.674,34.483 112.803,34.563 112.932,34.644 113.063,34.726 113.194,34.808 113.327,34.891 113.461,34.975 113.595,35.059 113.731,35.144 113.868,35.229 114.005,35.315 114.144,35.402 114.284,35.490 114.425,35.578 114.567,35.667 114.710,35.756 114.855,35.846 115.000,35.937 115.147,36.029 115.294,36.121 115.443,36.214 115.593,36.307 115.744,36.402 115.896,36.497 116.050,36.592 116.204,36.689 116.360,36.786 116.517,36.884 116.675,36.983 116.835,37.082 116.995,37.183 117.157,37.284 117.320,37.385 117.485,37.488 117.651,37.591 117.818,37.695 117.986,37.800 118.155,37.906 118.326,38.013 118.498,38.120 118.672,38.228 118.847,38.337 119.023,38.447 119.200,38.557 119.379,38.669 119.560,38.781 119.741,38.894 119.924,39.008 120.109,39.123 120.295,39.239 120.482,39.356 120.671,39.473 120.861,39.592 121.053,39.711 121.246,39.831 121.441,39.952 121.637,40.074 121.834,40.197 122.034,40.321 122.234,40.446 122.437,40.572 122.641,40.699 122.846,40.826 123.053,40.955 123.262,41.085 123.472,41.215 123.684,41.347 123.897,41.480 124.112,41.613 124.329,41.748 124.548,41.884 124.768,42.020 124.990,42.158 125.213,42.297 125.438,42.437 125.665,42.578 125.894,42.719 126.125,42.863 126.357,43.007 126.591,43.152 126.827,43.298 127.065,43.446 127.304,43.594 127.546,43.744 127.789,43.895 128.034,44.046 128.281,44.200 128.530,44.354 128.781,44.509 129.034,44.666 129.288,44.823 129.545,44.982 129.804,45.143 130.064,45.304 130.327,45.466 130.592,45.630 130.858,45.795 131.127,45.962 131.398,46.129 131.671,46.298 131.946,46.468 132.223,46.639 132.503,46.812 132.784,46.986 133.068,47.161 133.354,47.338 133.642,47.516 133.932,47.695 134.225,47.875 134.519,48.057 134.816,48.241 135.116,48.425 135.417,48.612 135.721,48.799 136.028,48.988 136.336,49.178 136.647,49.370 136.961,49.563 137.277,49.758 137.595,49.954 137.916,50.152 138.239,50.351 138.564,50.551 138.893,50.753 139.223,50.957 139.557,51.162 139.893,51.369 140.231,51.577 140.572,51.787 140.916,51.998 141.262,52.211 141.611,52.425 141.963,52.641 142.317,52.859 142.675,53.079 143.035,53.300 143.397,53.522 143.763,53.747 144.131,53.973 144.502,54.200 144.876,54.430 145.253,54.661 145.633,54.894 146.016,55.128 146.401,55.365 146.790,55.603 147.182,55.843 147.576,56.084 147.974,56.328 148.375,56.573 148.779,56.820 149.186,57.069 149.596,57.320 150.009,57.573 150.426,57.827 150.845,58.084 151.268,58.342 151.694,58.603 152.124,58.865 152.557,59.129 152.993,59.395 153.432,59.663 153.875,59.933 154.321,60.206 154.771,60.480 155.224,60.756 155.681,61.034 156.141,61.315 156.605,61.597 157.072,61.882 157.543,62.168 158.018,62.457 158.496,62.748 158.978,63.041 159.464,63.336 159.953,63.633 160.446,63.933 160.943,64.235 161.444,64.539 161.949,64.845 162.457,65.154 162.970,65.464 163.486,65.778 164.006,66.093 164.531,66.411 165.059,66.731 165.592,67.053 166.129,67.378 166.669,67.705 167.214,68.035 167.763,68.367 168.317,68.702 168.874,69.039 169.436,69.378 170.003,69.720 170.573,70.065 171.148,70.412 171.728,70.761 172.312,71.113 172.900,71.468 173.493,71.825 174.091,72.185 174.693,72.548 175.300,72.913 175.911,73.281 176.528,73.652 177.149,74.025 177.774,74.401 178.405,74.780 179.040,75.161 179.681,75.546 180.326,75.933 180.976,76.323 181.632,76.716 182.292,77.111 182.957,77.510 183.628,77.911 184.304,78.316 184.984,78.723 185.671,79.133 186.362,79.547 187.059,79.963 187.761,80.382 188.469,80.805 189.182,81.230 189.900,81.659 190.624,82.090 191.354,82.525 192.089,82.963 192.830,83.404 193.577,83.848 194.329,84.296 195.088,84.746 195.852,85.200 196.622,85.657 197.398,86.118 198.180,86.582 198.968,87.049 199.762,87.519 200.562,87.993 201.368,88.471 202.181,88.952 202.999,89.436 203.824,89.923 204.656,90.415 205.494,90.909 206.338,91.408 207.189,91.909 208.046,92.415 208.910,92.924 209.781,93.437 210.658,93.953 211.543,94.473 212.434,94.997 213.331,95.524 214.236,96.055 215.148,96.590 216.067,97.129 216.993,97.672 217.926,98.218 218.866,98.769 219.813,99.323 220.768,99.881 221.730,100.443 222.700,101.010 223.677,101.580 224.661,102.154 225.653,102.732 226.653,103.315 227.661,103.901 228.676,104.492 229.699,105.086 230.730,105.685 231.769,106.288 232.816,106.896 233.871,107.507 234.934,108.123 236.005,108.743 237.085,109.368 238.173,109.997 239.269,110.630 240.374,111.268 241.487,111.910 242.609,112.557 243.740,113.208 244.879,113.864 246.027,114.524 247.184,115.189 248.350,115.858 249.525,116.532 250.709,117.211 251.902,117.895 253.104,118.583 254.315,119.276 255.536,119.973 256.766,120.676 258.006,121.383 259.255,122.096 260.514,122.813 261.783,123.535 263.061,124.262 264.349,124.994 265.648,125.731 266.956,126.473 268.274,127.220 269.603,127.972 270.941,128.729 272.290,129.492 273.650,130.259 275.020,131.032 276.400,131.810 277.791,132.593 279.193,133.382 280.606,134.176 282.029,134.975 283.464,135.780 284.909,136.590 286.366,137.406 287.834,138.227 289.313,139.053 290.804,139.885 292.306,140.723 293.820,141.566 295.345,142.415 296.883,143.270 298.432,144.130 299.993,144.996 301.566,145.867 303.151,146.745 304.748,147.628 306.358,148.517 307.980,149.412 309.615,150.313 311.262,151.219 312.922,152.132 314.595,153.051 316.280,153.975 317.979,154.906 319.691,155.843 321.416,156.786 323.154,157.735 324.906,158.690 326.671,159.651 328.449,160.619 330.242,161.592 332.048,162.572 333.868,163.559 335.703,164.551 337.551,165.550 339.414,166.556 341.291,167.568 343.182,168.586 345.088,169.611 347.009,170.642 348.945,171.680 350.895,172.724 352.861,173.775 354.842,174.833 356.838,175.897 358.849,176.968 360.876,178.046 362.918,179.130 364.977,180.221 367.051,181.319 369.141,182.424 371.247,183.536 373.370,184.654 375.509,185.779 377.664,186.912 379.836,188.051 382.025,189.197 384.230,190.350 386.453,191.510 388.693,192.678 390.950,193.852 393.224,195.033 395.516,196.222 397.826,197.418 400.153,198.621 402.499,199.831 404.862,201.048 407.244,202.272 409.644,203.504 412.063,204.743 414.500,205.990 416.956,207.243 419.431,208.504 421.925,209.773 424.438,211.049 426.971,212.332 429.523,213.623 432.095,214.921 434.687,216.226 437.298,217.539 439.930,218.860 442.582,220.188 445.255,221.524 447.948,222.867 450.662,224.218 453.397,225.576 456.153,226.942 458.930,228.315 461.729,229.697 464.549,231.085 467.391,232.482 470.255,233.886 473.141,235.298 476.049,236.717 478.980,238.145 481.933,239.580 484.909,241.022 487.908,242.473 490.930,243.931 493.976,245.397 497.044,246.870 500.137,248.351 503.253,249.840 506.394,251.337 509.559,252.842 512.748,254.354 515.961,255.874 519.200,257.402 522.463,258.938 525.752,260.481 529.066,262.032 532.405,263.591 535.770,265.158 539.162,266.732 542.579,268.314 546.023,269.904 549.493,271.501 552.990,273.106 556.514,274.719 560.065,276.339 563.643,277.967 567.250,279.603 570.883,281.247 574.545,282.898 578.236,284.556 581.954,286.222 585.702,287.896 589.478,289.577 593.283,291.266 597.118,292.962 600.982,294.665 604.876,296.376 608.800,298.095 612.755,299.820 616.739,301.553 620.755,303.293 624.801,305.041 628.879,306.795 632.988,308.557 637.129,310.326 641.302,312.102 645.507,313.885 649.744,315.675 654.014,317.472 658.317,319.275 662.654,321.086 667.023,322.903 671.427,324.727 675.864,326.557 680.335,328.394 684.841,330.238 689.382,332.088 693.958,333.944 698.569,335.806 703.215,337.675 707.898,339.550 712.616,341.431 717.371,343.318 722.163,345.210 726.991,347.109 731.857,349.013 736.760,350.923 741.701,352.838 746.680,354.759 751.698,356.684 756.754,358.616 761.849,360.079 766.984,352.204 772.158,344.107 777.372,335.783 782.626,327.228 787.921,318.437 793.257,309.406 798.633,300.130 804.052,290.605 809.512,280.827 815.014,270.789 820.558,260.488 826.145,249.919 831.776,239.076 837.450,227.955 843.167,216.551 848.929,204.857 854.735,192.870 860.586,180.582 866.481,167.990 872.423,155.086 878.410,141.867 884.443,128.325 890.523,114.455 896.650,100.250 902.824,85.706 909.046,70.815 915.315,55.571 921.633,39.968 928.000,24.000" fill="none" stroke="#000000" stroke-width="2.800" stroke-opacity="1.000"/>
  </g>
  <rect x="96.000" y="24.000" width="832.000" height="368.000" fill="none" stroke="#3f3f46" stroke-width="1.8"/>
  <rect x="112.000" y="294.000" width="193.500" height="82.000" rx="6" ry="6" fill="#ffffff" fill-opacity="0.94" stroke="#000000" stroke-width="1.2"/>
  <line x1="126.000" y1="320.000" x2="166.000" y2="320.000" stroke="#000000" stroke-width="2.800" stroke-opacity="1.000"/>
  <text x="176.000" y="327.000" text-anchor="start" fill="#111827" font-family="'Lato', 'Avenir Next', 'Segoe UI', 'Helvetica Neue', sans-serif" font-size="20.0">Theoretical</text>
  <circle cx="146.000" cy="350.000" r="4.500" fill="#5fa8e8" fill-opacity="1.000"/>
  <text x="176.000" y="357.000" text-anchor="start" fill="#111827" font-family="'Lato', 'Avenir Next', 'Segoe UI', 'Helvetica Neue', sans-serif" font-size="20.0">AutoLyap</text>
  <line x1="96.000" y1="392.000" x2="96.000" y2="384.000" stroke="#3f3f46" stroke-width="1.4"/>
  <text x="96.000" y="438.000" text-anchor="middle" fill="#52525b" font-family="'Lato', 'Avenir Next', 'Segoe UI', 'Helvetica Neue', sans-serif" font-size="21">0</text>
  <line x1="262.400" y1="392.000" x2="262.400" y2="384.000" stroke="#3f3f46" stroke-width="1.4"/>
  <text x="262.400" y="438.000" text-anchor="middle" fill="#52525b" font-family="'Lato', 'Avenir Next', 'Segoe UI', 'Helvetica Neue', sans-serif" font-size="21">0.1</text>
  <line x1="428.800" y1="392.000" x2="428.800" y2="384.000" stroke="#3f3f46" stroke-width="1.4"/>
  <text x="428.800" y="438.000" text-anchor="middle" fill="#52525b" font-family="'Lato', 'Avenir Next', 'Segoe UI', 'Helvetica Neue', sans-serif" font-size="21">0.2</text>
  <line x1="595.200" y1="392.000" x2="595.200" y2="384.000" stroke="#3f3f46" stroke-width="1.4"/>
  <text x="595.200" y="438.000" text-anchor="middle" fill="#52525b" font-family="'Lato', 'Avenir Next', 'Segoe UI', 'Helvetica Neue', sans-serif" font-size="21">0.3</text>
  <line x1="761.600" y1="392.000" x2="761.600" y2="384.000" stroke="#3f3f46" stroke-width="1.4"/>
  <text x="761.600" y="438.000" text-anchor="middle" fill="#52525b" font-family="'Lato', 'Avenir Next', 'Segoe UI', 'Helvetica Neue', sans-serif" font-size="21">0.4</text>
  <line x1="928.000" y1="392.000" x2="928.000" y2="384.000" stroke="#3f3f46" stroke-width="1.4"/>
  <text x="928.000" y="438.000" text-anchor="middle" fill="#52525b" font-family="'Lato', 'Avenir Next', 'Segoe UI', 'Helvetica Neue', sans-serif" font-size="21">0.5</text>
  <line x1="104.000" y1="392.000" x2="96.000" y2="392.000" stroke="#3f3f46" stroke-width="1.4"/>
  <text x="82.000" y="399.000" text-anchor="end" fill="#52525b" font-family="'Lato', 'Avenir Next', 'Segoe UI', 'Helvetica Neue', sans-serif" font-size="21">0.3</text>
  <line x1="104.000" y1="339.429" x2="96.000" y2="339.429" stroke="#3f3f46" stroke-width="1.4"/>
  <text x="82.000" y="346.429" text-anchor="end" fill="#52525b" font-family="'Lato', 'Avenir Next', 'Segoe UI', 'Helvetica Neue', sans-serif" font-size="21">0.4</text>
  <line x1="104.000" y1="286.857" x2="96.000" y2="286.857" stroke="#3f3f46" stroke-width="1.4"/>
  <text x="82.000" y="293.857" text-anchor="end" fill="#52525b" font-family="'Lato', 'Avenir Next', 'Segoe UI', 'Helvetica Neue', sans-serif" font-size="21">0.5</text>
  <line x1="104.000" y1="234.286" x2="96.000" y2="234.286" stroke="#3f3f46" stroke-width="1.4"/>
  <text x="82.000" y="241.286" text-anchor="end" fill="#52525b" font-family="'Lato', 'Avenir Next', 'Segoe UI', 'Helvetica Neue', sans-serif" font-size="21">0.6</text>
  <line x1="104.000" y1="181.714" x2="96.000" y2="181.714" stroke="#3f3f46" stroke-width="1.4"/>
  <text x="82.000" y="188.714" text-anchor="end" fill="#52525b" font-family="'Lato', 'Avenir Next', 'Segoe UI', 'Helvetica Neue', sans-serif" font-size="21">0.7</text>
  <line x1="104.000" y1="129.143" x2="96.000" y2="129.143" stroke="#3f3f46" stroke-width="1.4"/>
  <text x="82.000" y="136.143" text-anchor="end" fill="#52525b" font-family="'Lato', 'Avenir Next', 'Segoe UI', 'Helvetica Neue', sans-serif" font-size="21">0.8</text>
  <line x1="104.000" y1="76.571" x2="96.000" y2="76.571" stroke="#3f3f46" stroke-width="1.4"/>
  <text x="82.000" y="83.571" text-anchor="end" fill="#52525b" font-family="'Lato', 'Avenir Next', 'Segoe UI', 'Helvetica Neue', sans-serif" font-size="21">0.9</text>
  <line x1="104.000" y1="24.000" x2="96.000" y2="24.000" stroke="#3f3f46" stroke-width="1.4"/>
  <text x="82.000" y="31.000" text-anchor="end" fill="#52525b" font-family="'Lato', 'Avenir Next', 'Segoe UI', 'Helvetica Neue', sans-serif" font-size="21">1</text>
  <text x="512.000" y="470.000" text-anchor="middle" fill="#111827" font-family="'Lato', 'Avenir Next', 'Segoe UI', 'Helvetica Neue', sans-serif" font-size="28">γ</text>
  <text x="30.0" y="208.000" text-anchor="middle" transform="rotate(0 30.0 208.000)" fill="#111827" font-family="'Lato', 'Avenir Next', 'Segoe UI', 'Helvetica Neue', sans-serif" font-size="28">ρ</text>
</svg>
