<?xml version="1.0" encoding="UTF-8"?>
<svg xmlns="http://www.w3.org/2000/svg" width="960" height="480" viewBox="0 0 960 480" role="img" aria-label="ITEM c_K versus K in log-log scale">
  <title>Information-theoretic exact method bound vs iteration budget (log-log)</title>
  <desc>Log-log c_K vs K for ITEM: theoretical curve and AutoLyap points.</desc>
  <rect x="0" y="0" width="960" height="480" fill="#ffffff"/>
  <rect x="96.000" y="24.000" width="832.000" height="368.000" fill="#f8fafc"/>
  <defs>
    <clipPath id="plot-area-clip">
      <rect x="96.000" y="24.000" width="832.000" height="368.000"/>
    </clipPath>
  </defs>
  <style type="text/css"><![CDATA[
@font-face {
  font-family: 'Lato';
  src:
    url('css/fonts/lato-normal.woff2') format('woff2'),
    url('../_static/css/fonts/lato-normal.woff2') format('woff2'),
    url('css/fonts/lato-normal.woff') format('woff'),
    url('../_static/css/fonts/lato-normal.woff') format('woff');
  font-style: normal;
  font-weight: 400;
}
@font-face {
  font-family: 'Lato';
  src:
    url('css/fonts/lato-normal-italic.woff2') format('woff2'),
    url('../_static/css/fonts/lato-normal-italic.woff2') format('woff2'),
    url('css/fonts/lato-normal-italic.woff') format('woff'),
    url('../_static/css/fonts/lato-normal-italic.woff') format('woff');
  font-style: italic;
  font-weight: 400;
}
@font-face {
  font-family: 'Lato';
  src:
    url('css/fonts/lato-bold.woff2') format('woff2'),
    url('../_static/css/fonts/lato-bold.woff2') format('woff2'),
    url('css/fonts/lato-bold.woff') format('woff'),
    url('../_static/css/fonts/lato-bold.woff') format('woff');
  font-style: normal;
  font-weight: 700;
}
@font-face {
  font-family: 'Lato';
  src:
    url('css/fonts/lato-bold-italic.woff2') format('woff2'),
    url('../_static/css/fonts/lato-bold-italic.woff2') format('woff2'),
    url('css/fonts/lato-bold-italic.woff') format('woff'),
    url('../_static/css/fonts/lato-bold-italic.woff') format('woff');
  font-style: italic;
  font-weight: 700;
}
  ]]></style>
  <line x1="96.000" y1="24.000" x2="96.000" y2="392.000" stroke="#9ca3af" stroke-width="1.350"/>
  <line x1="114.240" y1="24.000" x2="114.240" y2="392.000" stroke="#9ca3af" stroke-width="1.350"/>
  <line x1="234.240" y1="24.000" x2="234.240" y2="392.000" stroke="#9ca3af" stroke-width="1.350"/>
  <line x1="304.435" y1="24.000" x2="304.435" y2="392.000" stroke="#9ca3af" stroke-width="1.350"/>
  <line x1="354.239" y1="24.000" x2="354.239" y2="392.000" stroke="#9ca3af" stroke-width="1.350"/>
  <line x1="392.870" y1="24.000" x2="392.870" y2="392.000" stroke="#9ca3af" stroke-width="1.350"/>
  <line x1="424.434" y1="24.000" x2="424.434" y2="392.000" stroke="#9ca3af" stroke-width="1.350"/>
  <line x1="451.121" y1="24.000" x2="451.121" y2="392.000" stroke="#9ca3af" stroke-width="1.350"/>
  <line x1="474.239" y1="24.000" x2="474.239" y2="392.000" stroke="#9ca3af" stroke-width="1.350"/>
  <line x1="494.630" y1="24.000" x2="494.630" y2="392.000" stroke="#9ca3af" stroke-width="1.350"/>
  <line x1="512.870" y1="24.000" x2="512.870" y2="392.000" stroke="#9ca3af" stroke-width="1.350"/>
  <line x1="632.869" y1="24.000" x2="632.869" y2="392.000" stroke="#9ca3af" stroke-width="1.350"/>
  <line x1="703.065" y1="24.000" x2="703.065" y2="392.000" stroke="#9ca3af" stroke-width="1.350"/>
  <line x1="752.869" y1="24.000" x2="752.869" y2="392.000" stroke="#9ca3af" stroke-width="1.350"/>
  <line x1="791.500" y1="24.000" x2="791.500" y2="392.000" stroke="#9ca3af" stroke-width="1.350"/>
  <line x1="823.064" y1="24.000" x2="823.064" y2="392.000" stroke="#9ca3af" stroke-width="1.350"/>
  <line x1="849.751" y1="24.000" x2="849.751" y2="392.000" stroke="#9ca3af" stroke-width="1.350"/>
  <line x1="872.868" y1="24.000" x2="872.868" y2="392.000" stroke="#9ca3af" stroke-width="1.350"/>
  <line x1="893.259" y1="24.000" x2="893.259" y2="392.000" stroke="#9ca3af" stroke-width="1.350"/>
  <line x1="911.500" y1="24.000" x2="911.500" y2="392.000" stroke="#9ca3af" stroke-width="1.350"/>
  <line x1="96.000" y1="392.000" x2="928.000" y2="392.000" stroke="#9ca3af" stroke-width="1.350"/>
  <line x1="96.000" y1="373.537" x2="928.000" y2="373.537" stroke="#9ca3af" stroke-width="1.350"/>
  <line x1="96.000" y1="362.737" x2="928.000" y2="362.737" stroke="#9ca3af" stroke-width="1.350"/>
  <line x1="96.000" y1="355.074" x2="928.000" y2="355.074" stroke="#9ca3af" stroke-width="1.350"/>
  <line x1="96.000" y1="349.130" x2="928.000" y2="349.130" stroke="#9ca3af" stroke-width="1.350"/>
  <line x1="96.000" y1="344.273" x2="928.000" y2="344.273" stroke="#9ca3af" stroke-width="1.350"/>
  <line x1="96.000" y1="340.167" x2="928.000" y2="340.167" stroke="#9ca3af" stroke-width="1.350"/>
  <line x1="96.000" y1="336.610" x2="928.000" y2="336.610" stroke="#9ca3af" stroke-width="1.350"/>
  <line x1="96.000" y1="333.473" x2="928.000" y2="333.473" stroke="#9ca3af" stroke-width="1.350"/>
  <line x1="96.000" y1="330.667" x2="928.000" y2="330.667" stroke="#9ca3af" stroke-width="1.350"/>
  <line x1="96.000" y1="312.203" x2="928.000" y2="312.203" stroke="#9ca3af" stroke-width="1.350"/>
  <line x1="96.000" y1="301.403" x2="928.000" y2="301.403" stroke="#9ca3af" stroke-width="1.350"/>
  <line x1="96.000" y1="293.740" x2="928.000" y2="293.740" stroke="#9ca3af" stroke-width="1.350"/>
  <line x1="96.000" y1="287.797" x2="928.000" y2="287.797" stroke="#9ca3af" stroke-width="1.350"/>
  <line x1="96.000" y1="282.940" x2="928.000" y2="282.940" stroke="#9ca3af" stroke-width="1.350"/>
  <line x1="96.000" y1="278.834" x2="928.000" y2="278.834" stroke="#9ca3af" stroke-width="1.350"/>
  <line x1="96.000" y1="275.277" x2="928.000" y2="275.277" stroke="#9ca3af" stroke-width="1.350"/>
  <line x1="96.000" y1="272.140" x2="928.000" y2="272.140" stroke="#9ca3af" stroke-width="1.350"/>
  <line x1="96.000" y1="269.333" x2="928.000" y2="269.333" stroke="#9ca3af" stroke-width="1.350"/>
  <line x1="96.000" y1="250.870" x2="928.000" y2="250.870" stroke="#9ca3af" stroke-width="1.350"/>
  <line x1="96.000" y1="240.070" x2="928.000" y2="240.070" stroke="#9ca3af" stroke-width="1.350"/>
  <line x1="96.000" y1="232.407" x2="928.000" y2="232.407" stroke="#9ca3af" stroke-width="1.350"/>
  <line x1="96.000" y1="226.463" x2="928.000" y2="226.463" stroke="#9ca3af" stroke-width="1.350"/>
  <line x1="96.000" y1="221.607" x2="928.000" y2="221.607" stroke="#9ca3af" stroke-width="1.350"/>
  <line x1="96.000" y1="217.501" x2="928.000" y2="217.501" stroke="#9ca3af" stroke-width="1.350"/>
  <line x1="96.000" y1="213.944" x2="928.000" y2="213.944" stroke="#9ca3af" stroke-width="1.350"/>
  <line x1="96.000" y1="210.806" x2="928.000" y2="210.806" stroke="#9ca3af" stroke-width="1.350"/>
  <line x1="96.000" y1="208.000" x2="928.000" y2="208.000" stroke="#9ca3af" stroke-width="1.350"/>
  <line x1="96.000" y1="189.537" x2="928.000" y2="189.537" stroke="#9ca3af" stroke-width="1.350"/>
  <line x1="96.000" y1="178.737" x2="928.000" y2="178.737" stroke="#9ca3af" stroke-width="1.350"/>
  <line x1="96.000" y1="171.074" x2="928.000" y2="171.074" stroke="#9ca3af" stroke-width="1.350"/>
  <line x1="96.000" y1="165.130" x2="928.000" y2="165.130" stroke="#9ca3af" stroke-width="1.350"/>
  <line x1="96.000" y1="160.273" x2="928.000" y2="160.273" stroke="#9ca3af" stroke-width="1.350"/>
  <line x1="96.000" y1="156.167" x2="928.000" y2="156.167" stroke="#9ca3af" stroke-width="1.350"/>
  <line x1="96.000" y1="152.610" x2="928.000" y2="152.610" stroke="#9ca3af" stroke-width="1.350"/>
  <line x1="96.000" y1="149.473" x2="928.000" y2="149.473" stroke="#9ca3af" stroke-width="1.350"/>
  <line x1="96.000" y1="146.667" x2="928.000" y2="146.667" stroke="#9ca3af" stroke-width="1.350"/>
  <line x1="96.000" y1="128.203" x2="928.000" y2="128.203" stroke="#9ca3af" stroke-width="1.350"/>
  <line x1="96.000" y1="117.403" x2="928.000" y2="117.403" stroke="#9ca3af" stroke-width="1.350"/>
  <line x1="96.000" y1="109.740" x2="928.000" y2="109.740" stroke="#9ca3af" stroke-width="1.350"/>
  <line x1="96.000" y1="103.797" x2="928.000" y2="103.797" stroke="#9ca3af" stroke-width="1.350"/>
  <line x1="96.000" y1="98.940" x2="928.000" y2="98.940" stroke="#9ca3af" stroke-width="1.350"/>
  <line x1="96.000" y1="94.834" x2="928.000" y2="94.834" stroke="#9ca3af" stroke-width="1.350"/>
  <line x1="96.000" y1="91.277" x2="928.000" y2="91.277" stroke="#9ca3af" stroke-width="1.350"/>
  <line x1="96.000" y1="88.140" x2="928.000" y2="88.140" stroke="#9ca3af" stroke-width="1.350"/>
  <line x1="96.000" y1="85.333" x2="928.000" y2="85.333" stroke="#9ca3af" stroke-width="1.350"/>
  <line x1="96.000" y1="66.870" x2="928.000" y2="66.870" stroke="#9ca3af" stroke-width="1.350"/>
  <line x1="96.000" y1="56.070" x2="928.000" y2="56.070" stroke="#9ca3af" stroke-width="1.350"/>
  <line x1="96.000" y1="48.407" x2="928.000" y2="48.407" stroke="#9ca3af" stroke-width="1.350"/>
  <line x1="96.000" y1="42.463" x2="928.000" y2="42.463" stroke="#9ca3af" stroke-width="1.350"/>
  <line x1="96.000" y1="37.607" x2="928.000" y2="37.607" stroke="#9ca3af" stroke-width="1.350"/>
  <line x1="96.000" y1="33.501" x2="928.000" y2="33.501" stroke="#9ca3af" stroke-width="1.350"/>
  <line x1="96.000" y1="29.944" x2="928.000" y2="29.944" stroke="#9ca3af" stroke-width="1.350"/>
  <line x1="96.000" y1="26.806" x2="928.000" y2="26.806" stroke="#9ca3af" stroke-width="1.350"/>
  <line x1="96.000" y1="24.000" x2="928.000" y2="24.000" stroke="#9ca3af" stroke-width="1.350"/>
  <g clip-path="url(#plot-area-clip)">
    <g fill="#5fa8e8" fill-opacity="0.900">
    <circle cx="114.240" cy="24.533" r="4.500"/>
    <circle cx="234.240" cy="25.389" r="4.500"/>
    <circle cx="304.435" cy="26.536" r="4.500"/>
    <circle cx="354.239" cy="27.954" r="4.500"/>
    <circle cx="392.870" cy="29.623" r="4.500"/>
    <circle cx="424.434" cy="31.525" r="4.500"/>
    <circle cx="451.121" cy="33.643" r="4.500"/>
    <circle cx="474.239" cy="35.958" r="4.500"/>
    <circle cx="494.630" cy="38.453" r="4.500"/>
    <circle cx="512.870" cy="41.112" r="4.500"/>
    <circle cx="529.370" cy="43.918" r="4.500"/>
    <circle cx="544.434" cy="46.857" r="4.500"/>
    <circle cx="558.291" cy="49.914" r="4.500"/>
    <circle cx="571.121" cy="53.076" r="4.500"/>
    <circle cx="583.065" cy="56.332" r="4.500"/>
    <circle cx="594.238" cy="59.670" r="4.500"/>
    <circle cx="604.734" cy="63.082" r="4.500"/>
    <circle cx="614.629" cy="66.557" r="4.500"/>
    <circle cx="623.989" cy="70.088" r="4.500"/>
    <circle cx="632.869" cy="73.669" r="4.500"/>
    <circle cx="641.316" cy="77.292" r="4.500"/>
    <circle cx="649.370" cy="80.953" r="4.500"/>
    <circle cx="657.065" cy="84.647" r="4.500"/>
    <circle cx="664.433" cy="88.369" r="4.500"/>
    <circle cx="671.501" cy="92.116" r="4.500"/>
    <circle cx="678.291" cy="95.884" r="4.500"/>
    <circle cx="684.824" cy="99.671" r="4.500"/>
    <circle cx="691.120" cy="103.474" r="4.500"/>
    <circle cx="697.196" cy="107.291" r="4.500"/>
    <circle cx="703.065" cy="111.120" r="4.500"/>
    <circle cx="708.741" cy="114.960" r="4.500"/>
    <circle cx="714.238" cy="118.809" r="4.500"/>
    <circle cx="719.565" cy="122.665" r="4.500"/>
    <circle cx="724.733" cy="126.529" r="4.500"/>
    <circle cx="729.752" cy="130.398" r="4.500"/>
    <circle cx="734.629" cy="134.272" r="4.500"/>
    <circle cx="739.372" cy="138.151" r="4.500"/>
    <circle cx="743.989" cy="142.034" r="4.500"/>
    <circle cx="748.486" cy="145.920" r="4.500"/>
    <circle cx="752.869" cy="149.809" r="4.500"/>
    <circle cx="757.144" cy="153.700" r="4.500"/>
    <circle cx="761.316" cy="157.593" r="4.500"/>
    <circle cx="765.389" cy="161.488" r="4.500"/>
    <circle cx="769.369" cy="165.385" r="4.500"/>
    <circle cx="773.260" cy="169.283" r="4.500"/>
    <circle cx="777.065" cy="173.183" r="4.500"/>
    <circle cx="780.788" cy="177.083" r="4.500"/>
    <circle cx="784.433" cy="180.986" r="4.500"/>
    <circle cx="788.003" cy="184.889" r="4.500"/>
    <circle cx="791.500" cy="188.789" r="4.500"/>
    <circle cx="794.928" cy="192.692" r="4.500"/>
    <circle cx="798.290" cy="196.596" r="4.500"/>
    <circle cx="801.588" cy="200.500" r="4.500"/>
    <circle cx="804.824" cy="204.407" r="4.500"/>
    <circle cx="808.001" cy="208.309" r="4.500"/>
    <circle cx="811.120" cy="212.215" r="4.500"/>
    <circle cx="814.184" cy="216.121" r="4.500"/>
    <circle cx="817.195" cy="220.028" r="4.500"/>
    <circle cx="820.154" cy="223.934" r="4.500"/>
    <circle cx="823.064" cy="227.841" r="4.500"/>
    <circle cx="825.926" cy="231.748" r="4.500"/>
    <circle cx="828.741" cy="235.654" r="4.500"/>
    <circle cx="831.511" cy="239.566" r="4.500"/>
    <circle cx="834.237" cy="243.470" r="4.500"/>
    <circle cx="836.921" cy="247.383" r="4.500"/>
    <circle cx="839.565" cy="251.294" r="4.500"/>
    <circle cx="842.168" cy="255.205" r="4.500"/>
    <circle cx="844.733" cy="259.119" r="4.500"/>
    <circle cx="847.260" cy="263.033" r="4.500"/>
    <circle cx="849.751" cy="266.946" r="4.500"/>
    <circle cx="852.207" cy="270.862" r="4.500"/>
    <circle cx="854.628" cy="274.773" r="4.500"/>
    <circle cx="857.016" cy="278.685" r="4.500"/>
    <circle cx="859.372" cy="282.628" r="4.500"/>
    <circle cx="861.695" cy="286.457" r="4.500"/>
    <circle cx="863.988" cy="290.370" r="4.500"/>
    <circle cx="866.251" cy="294.283" r="4.500"/>
    <circle cx="868.485" cy="298.182" r="4.500"/>
    <circle cx="870.691" cy="302.147" r="4.500"/>
    <circle cx="872.868" cy="306.013" r="4.500"/>
    <circle cx="875.019" cy="309.930" r="4.500"/>
    <circle cx="877.143" cy="313.853" r="4.500"/>
    <circle cx="879.242" cy="317.762" r="4.500"/>
    <circle cx="881.315" cy="321.694" r="4.500"/>
    <circle cx="883.364" cy="325.641" r="4.500"/>
    <circle cx="885.389" cy="329.574" r="4.500"/>
    <circle cx="887.390" cy="333.503" r="4.500"/>
    <circle cx="889.369" cy="337.494" r="4.500"/>
    <circle cx="891.325" cy="341.445" r="4.500"/>
    <circle cx="893.259" cy="345.405" r="4.500"/>
    <circle cx="895.172" cy="349.383" r="4.500"/>
    <circle cx="897.064" cy="353.375" r="4.500"/>
    <circle cx="898.936" cy="357.322" r="4.500"/>
    <circle cx="900.788" cy="361.313" r="4.500"/>
    <circle cx="902.620" cy="365.502" r="4.500"/>
    <circle cx="904.432" cy="369.707" r="4.500"/>
    <circle cx="906.226" cy="373.956" r="4.500"/>
    <circle cx="908.002" cy="378.356" r="4.500"/>
    <circle cx="909.760" cy="382.768" r="4.500"/>
    <circle cx="911.500" cy="386.890" r="4.500"/>
    </g>
    <polyline points="114.240,24.533 234.240,25.389 304.435,26.536 354.239,27.954 392.870,29.623 424.434,31.525 451.121,33.643 474.239,35.958 494.630,38.453 512.870,41.112 529.370,43.918 544.434,46.857 558.291,49.914 571.121,53.076 583.065,56.332 594.238,59.670 604.734,63.082 614.629,66.557 623.989,70.088 632.869,73.669 641.316,77.292 649.370,80.953 657.065,84.647 664.433,88.369 671.501,92.116 678.291,95.884 684.824,99.671 691.120,103.474 697.196,107.291 703.065,111.120 708.741,114.960 714.238,118.809 719.565,122.665 724.733,126.529 729.752,130.398 734.629,134.272 739.372,138.151 743.989,142.034 748.486,145.920 752.869,149.809 757.144,153.700 761.316,157.593 765.389,161.488 769.369,165.385 773.260,169.283 777.065,173.183 780.788,177.083 784.433,180.984 788.003,184.886 791.500,188.789 794.928,192.692 798.290,196.596 801.588,200.500 804.824,204.404 808.001,208.309 811.120,212.214 814.184,216.119 817.195,220.025 820.154,223.931 823.064,227.837 825.926,231.743 828.741,235.649 831.511,239.555 834.237,243.461 836.921,247.367 839.565,251.274 842.168,255.180 844.733,259.087 847.260,262.993 849.751,266.900 852.207,270.807 854.628,274.713 857.016,278.620 859.372,282.527 861.695,286.433 863.988,290.340 866.251,294.247 868.485,298.154 870.691,302.060 872.868,305.967 875.019,309.874 877.143,313.781 879.242,317.687 881.315,321.594 883.364,325.501 885.389,329.408 887.390,333.315 889.369,337.221 891.325,341.128 893.259,345.035 895.172,348.942 897.064,352.849 898.936,356.755 900.788,360.662 902.620,364.569 904.432,368.476 906.226,372.383 908.002,376.290 909.760,380.196 911.500,384.103" fill="none" stroke="#000000" stroke-width="2.800" stroke-opacity="1.000"/>
  </g>
  <rect x="96.000" y="24.000" width="832.000" height="368.000" fill="none" stroke="#3f3f46" stroke-width="1.8"/>
  <rect x="112.000" y="294.000" width="193.500" height="82.000" rx="6" ry="6" fill="#ffffff" fill-opacity="0.94" stroke="#000000" stroke-width="1.2"/>
  <line x1="126.000" y1="320.000" x2="166.000" y2="320.000" stroke="#000000" stroke-width="2.800" stroke-opacity="1.000"/>
  <text x="176.000" y="327.000" text-anchor="start" fill="#111827" font-family="'Lato', 'Avenir Next', 'Segoe UI', 'Helvetica Neue', sans-serif" font-size="20.0">Theoretical</text>
  <circle cx="146.000" cy="350.000" r="4.500" fill="#5fa8e8" fill-opacity="1.000"/>
  <text x="176.000" y="357.000" text-anchor="start" fill="#111827" font-family="'Lato', 'Avenir Next', 'Segoe UI', 'Helvetica Neue', sans-serif" font-size="20.0">AutoLyap</text>
  <line x1="96.000" y1="392.000" x2="96.000" y2="384.000" stroke="#3f3f46" stroke-width="1.4"/>
  <text x="96.000" y="438.000" text-anchor="middle" fill="#52525b" font-family="'Lato', 'Avenir Next', 'Segoe UI', 'Helvetica Neue', sans-serif" font-size="21"></text>
  <line x1="114.240" y1="392.000" x2="114.240" y2="384.000" stroke="#3f3f46" stroke-width="1.4"/>
  <text x="114.240" y="438.000" text-anchor="middle" fill="#52525b" font-family="'Lato', 'Avenir Next', 'Segoe UI', 'Helvetica Neue', sans-serif" font-size="21">10<tspan baseline-shift="super" font-size="65%">0</tspan></text>
  <line x1="234.240" y1="392.000" x2="234.240" y2="384.000" stroke="#3f3f46" stroke-width="1.4"/>
  <text x="234.240" y="438.000" text-anchor="middle" fill="#52525b" font-family="'Lato', 'Avenir Next', 'Segoe UI', 'Helvetica Neue', sans-serif" font-size="21"></text>
  <line x1="304.435" y1="392.000" x2="304.435" y2="384.000" stroke="#3f3f46" stroke-width="1.4"/>
  <text x="304.435" y="438.000" text-anchor="middle" fill="#52525b" font-family="'Lato', 'Avenir Next', 'Segoe UI', 'Helvetica Neue', sans-serif" font-size="21"></text>
  <line x1="354.239" y1="392.000" x2="354.239" y2="384.000" stroke="#3f3f46" stroke-width="1.4"/>
  <text x="354.239" y="438.000" text-anchor="middle" fill="#52525b" font-family="'Lato', 'Avenir Next', 'Segoe UI', 'Helvetica Neue', sans-serif" font-size="21"></text>
  <line x1="392.870" y1="392.000" x2="392.870" y2="384.000" stroke="#3f3f46" stroke-width="1.4"/>
  <text x="392.870" y="438.000" text-anchor="middle" fill="#52525b" font-family="'Lato', 'Avenir Next', 'Segoe UI', 'Helvetica Neue', sans-serif" font-size="21"></text>
  <line x1="424.434" y1="392.000" x2="424.434" y2="384.000" stroke="#3f3f46" stroke-width="1.4"/>
  <text x="424.434" y="438.000" text-anchor="middle" fill="#52525b" font-family="'Lato', 'Avenir Next', 'Segoe UI', 'Helvetica Neue', sans-serif" font-size="21"></text>
  <line x1="451.121" y1="392.000" x2="451.121" y2="384.000" stroke="#3f3f46" stroke-width="1.4"/>
  <text x="451.121" y="438.000" text-anchor="middle" fill="#52525b" font-family="'Lato', 'Avenir Next', 'Segoe UI', 'Helvetica Neue', sans-serif" font-size="21"></text>
  <line x1="474.239" y1="392.000" x2="474.239" y2="384.000" stroke="#3f3f46" stroke-width="1.4"/>
  <text x="474.239" y="438.000" text-anchor="middle" fill="#52525b" font-family="'Lato', 'Avenir Next', 'Segoe UI', 'Helvetica Neue', sans-serif" font-size="21"></text>
  <line x1="494.630" y1="392.000" x2="494.630" y2="384.000" stroke="#3f3f46" stroke-width="1.4"/>
  <text x="494.630" y="438.000" text-anchor="middle" fill="#52525b" font-family="'Lato', 'Avenir Next', 'Segoe UI', 'Helvetica Neue', sans-serif" font-size="21"></text>
  <line x1="512.870" y1="392.000" x2="512.870" y2="384.000" stroke="#3f3f46" stroke-width="1.4"/>
  <text x="512.870" y="438.000" text-anchor="middle" fill="#52525b" font-family="'Lato', 'Avenir Next', 'Segoe UI', 'Helvetica Neue', sans-serif" font-size="21">10<tspan baseline-shift="super" font-size="65%">1</tspan></text>
  <line x1="632.869" y1="392.000" x2="632.869" y2="384.000" stroke="#3f3f46" stroke-width="1.4"/>
  <text x="632.869" y="438.000" text-anchor="middle" fill="#52525b" font-family="'Lato', 'Avenir Next', 'Segoe UI', 'Helvetica Neue', sans-serif" font-size="21"></text>
  <line x1="703.065" y1="392.000" x2="703.065" y2="384.000" stroke="#3f3f46" stroke-width="1.4"/>
  <text x="703.065" y="438.000" text-anchor="middle" fill="#52525b" font-family="'Lato', 'Avenir Next', 'Segoe UI', 'Helvetica Neue', sans-serif" font-size="21"></text>
  <line x1="752.869" y1="392.000" x2="752.869" y2="384.000" stroke="#3f3f46" stroke-width="1.4"/>
  <text x="752.869" y="438.000" text-anchor="middle" fill="#52525b" font-family="'Lato', 'Avenir Next', 'Segoe UI', 'Helvetica Neue', sans-serif" font-size="21"></text>
  <line x1="791.500" y1="392.000" x2="791.500" y2="384.000" stroke="#3f3f46" stroke-width="1.4"/>
  <text x="791.500" y="438.000" text-anchor="middle" fill="#52525b" font-family="'Lato', 'Avenir Next', 'Segoe UI', 'Helvetica Neue', sans-serif" font-size="21"></text>
  <line x1="823.064" y1="392.000" x2="823.064" y2="384.000" stroke="#3f3f46" stroke-width="1.4"/>
  <text x="823.064" y="438.000" text-anchor="middle" fill="#52525b" font-family="'Lato', 'Avenir Next', 'Segoe UI', 'Helvetica Neue', sans-serif" font-size="21"></text>
  <line x1="849.751" y1="392.000" x2="849.751" y2="384.000" stroke="#3f3f46" stroke-width="1.4"/>
  <text x="849.751" y="438.000" text-anchor="middle" fill="#52525b" font-family="'Lato', 'Avenir Next', 'Segoe UI', 'Helvetica Neue', sans-serif" font-size="21"></text>
  <line x1="872.868" y1="392.000" x2="872.868" y2="384.000" stroke="#3f3f46" stroke-width="1.4"/>
  <text x="872.868" y="438.000" text-anchor="middle" fill="#52525b" font-family="'Lato', 'Avenir Next', 'Segoe UI', 'Helvetica Neue', sans-serif" font-size="21"></text>
  <line x1="893.259" y1="392.000" x2="893.259" y2="384.000" stroke="#3f3f46" stroke-width="1.4"/>
  <text x="893.259" y="438.000" text-anchor="middle" fill="#52525b" font-family="'Lato', 'Avenir Next', 'Segoe UI', 'Helvetica Neue', sans-serif" font-size="21"></text>
  <line x1="911.500" y1="392.000" x2="911.500" y2="384.000" stroke="#3f3f46" stroke-width="1.4"/>
  <text x="911.500" y="438.000" text-anchor="middle" fill="#52525b" font-family="'Lato', 'Avenir Next', 'Segoe UI', 'Helvetica Neue', sans-serif" font-size="21">10<tspan baseline-shift="super" font-size="65%">2</tspan></text>
  <line x1="104.000" y1="392.000" x2="96.000" y2="392.000" stroke="#3f3f46" stroke-width="1.4"/>
  <text x="82.000" y="399.000" text-anchor="end" fill="#52525b" font-family="'Lato', 'Avenir Next', 'Segoe UI', 'Helvetica Neue', sans-serif" font-size="21">10<tspan baseline-shift="super" font-size="65%">-6</tspan></text>
  <line x1="104.000" y1="373.537" x2="96.000" y2="373.537" stroke="#3f3f46" stroke-width="1.4"/>
  <text x="82.000" y="380.537" text-anchor="end" fill="#52525b" font-family="'Lato', 'Avenir Next', 'Segoe UI', 'Helvetica Neue', sans-serif" font-size="21"></text>
  <line x1="104.000" y1="362.737" x2="96.000" y2="362.737" stroke="#3f3f46" stroke-width="1.4"/>
  <text x="82.000" y="369.737" text-anchor="end" fill="#52525b" font-family="'Lato', 'Avenir Next', 'Segoe UI', 'Helvetica Neue', sans-serif" font-size="21"></text>
  <line x1="104.000" y1="355.074" x2="96.000" y2="355.074" stroke="#3f3f46" stroke-width="1.4"/>
  <text x="82.000" y="362.074" text-anchor="end" fill="#52525b" font-family="'Lato', 'Avenir Next', 'Segoe UI', 'Helvetica Neue', sans-serif" font-size="21"></text>
  <line x1="104.000" y1="349.130" x2="96.000" y2="349.130" stroke="#3f3f46" stroke-width="1.4"/>
  <text x="82.000" y="356.130" text-anchor="end" fill="#52525b" font-family="'Lato', 'Avenir Next', 'Segoe UI', 'Helvetica Neue', sans-serif" font-size="21"></text>
  <line x1="104.000" y1="344.273" x2="96.000" y2="344.273" stroke="#3f3f46" stroke-width="1.4"/>
  <text x="82.000" y="351.273" text-anchor="end" fill="#52525b" font-family="'Lato', 'Avenir Next', 'Segoe UI', 'Helvetica Neue', sans-serif" font-size="21"></text>
  <line x1="104.000" y1="340.167" x2="96.000" y2="340.167" stroke="#3f3f46" stroke-width="1.4"/>
  <text x="82.000" y="347.167" text-anchor="end" fill="#52525b" font-family="'Lato', 'Avenir Next', 'Segoe UI', 'Helvetica Neue', sans-serif" font-size="21"></text>
  <line x1="104.000" y1="336.610" x2="96.000" y2="336.610" stroke="#3f3f46" stroke-width="1.4"/>
  <text x="82.000" y="343.610" text-anchor="end" fill="#52525b" font-family="'Lato', 'Avenir Next', 'Segoe UI', 'Helvetica Neue', sans-serif" font-size="21"></text>
  <line x1="104.000" y1="333.473" x2="96.000" y2="333.473" stroke="#3f3f46" stroke-width="1.4"/>
  <text x="82.000" y="340.473" text-anchor="end" fill="#52525b" font-family="'Lato', 'Avenir Next', 'Segoe UI', 'Helvetica Neue', sans-serif" font-size="21"></text>
  <line x1="104.000" y1="330.667" x2="96.000" y2="330.667" stroke="#3f3f46" stroke-width="1.4"/>
  <text x="82.000" y="337.667" text-anchor="end" fill="#52525b" font-family="'Lato', 'Avenir Next', 'Segoe UI', 'Helvetica Neue', sans-serif" font-size="21">10<tspan baseline-shift="super" font-size="65%">-5</tspan></text>
  <line x1="104.000" y1="312.203" x2="96.000" y2="312.203" stroke="#3f3f46" stroke-width="1.4"/>
  <text x="82.000" y="319.203" text-anchor="end" fill="#52525b" font-family="'Lato', 'Avenir Next', 'Segoe UI', 'Helvetica Neue', sans-serif" font-size="21"></text>
  <line x1="104.000" y1="301.403" x2="96.000" y2="301.403" stroke="#3f3f46" stroke-width="1.4"/>
  <text x="82.000" y="308.403" text-anchor="end" fill="#52525b" font-family="'Lato', 'Avenir Next', 'Segoe UI', 'Helvetica Neue', sans-serif" font-size="21"></text>
  <line x1="104.000" y1="293.740" x2="96.000" y2="293.740" stroke="#3f3f46" stroke-width="1.4"/>
  <text x="82.000" y="300.740" text-anchor="end" fill="#52525b" font-family="'Lato', 'Avenir Next', 'Segoe UI', 'Helvetica Neue', sans-serif" font-size="21"></text>
  <line x1="104.000" y1="287.797" x2="96.000" y2="287.797" stroke="#3f3f46" stroke-width="1.4"/>
  <text x="82.000" y="294.797" text-anchor="end" fill="#52525b" font-family="'Lato', 'Avenir Next', 'Segoe UI', 'Helvetica Neue', sans-serif" font-size="21"></text>
  <line x1="104.000" y1="282.940" x2="96.000" y2="282.940" stroke="#3f3f46" stroke-width="1.4"/>
  <text x="82.000" y="289.940" text-anchor="end" fill="#52525b" font-family="'Lato', 'Avenir Next', 'Segoe UI', 'Helvetica Neue', sans-serif" font-size="21"></text>
  <line x1="104.000" y1="278.834" x2="96.000" y2="278.834" stroke="#3f3f46" stroke-width="1.4"/>
  <text x="82.000" y="285.834" text-anchor="end" fill="#52525b" font-family="'Lato', 'Avenir Next', 'Segoe UI', 'Helvetica Neue', sans-serif" font-size="21"></text>
  <line x1="104.000" y1="275.277" x2="96.000" y2="275.277" stroke="#3f3f46" stroke-width="1.4"/>
  <text x="82.000" y="282.277" text-anchor="end" fill="#52525b" font-family="'Lato', 'Avenir Next', 'Segoe UI', 'Helvetica Neue', sans-serif" font-size="21"></text>
  <line x1="104.000" y1="272.140" x2="96.000" y2="272.140" stroke="#3f3f46" stroke-width="1.4"/>
  <text x="82.000" y="279.140" text-anchor="end" fill="#52525b" font-family="'Lato', 'Avenir Next', 'Segoe UI', 'Helvetica Neue', sans-serif" font-size="21"></text>
  <line x1="104.000" y1="269.333" x2="96.000" y2="269.333" stroke="#3f3f46" stroke-width="1.4"/>
  <text x="82.000" y="276.333" text-anchor="end" fill="#52525b" font-family="'Lato', 'Avenir Next', 'Segoe UI', 'Helvetica Neue', sans-serif" font-size="21">10<tspan baseline-shift="super" font-size="65%">-4</tspan></text>
  <line x1="104.000" y1="250.870" x2="96.000" y2="250.870" stroke="#3f3f46" stroke-width="1.4"/>
  <text x="82.000" y="257.870" text-anchor="end" fill="#52525b" font-family="'Lato', 'Avenir Next', 'Segoe UI', 'Helvetica Neue', sans-serif" font-size="21"></text>
  <line x1="104.000" y1="240.070" x2="96.000" y2="240.070" stroke="#3f3f46" stroke-width="1.4"/>
  <text x="82.000" y="247.070" text-anchor="end" fill="#52525b" font-family="'Lato', 'Avenir Next', 'Segoe UI', 'Helvetica Neue', sans-serif" font-size="21"></text>
  <line x1="104.000" y1="232.407" x2="96.000" y2="232.407" stroke="#3f3f46" stroke-width="1.4"/>
  <text x="82.000" y="239.407" text-anchor="end" fill="#52525b" font-family="'Lato', 'Avenir Next', 'Segoe UI', 'Helvetica Neue', sans-serif" font-size="21"></text>
  <line x1="104.000" y1="226.463" x2="96.000" y2="226.463" stroke="#3f3f46" stroke-width="1.4"/>
  <text x="82.000" y="233.463" text-anchor="end" fill="#52525b" font-family="'Lato', 'Avenir Next', 'Segoe UI', 'Helvetica Neue', sans-serif" font-size="21"></text>
  <line x1="104.000" y1="221.607" x2="96.000" y2="221.607" stroke="#3f3f46" stroke-width="1.4"/>
  <text x="82.000" y="228.607" text-anchor="end" fill="#52525b" font-family="'Lato', 'Avenir Next', 'Segoe UI', 'Helvetica Neue', sans-serif" font-size="21"></text>
  <line x1="104.000" y1="217.501" x2="96.000" y2="217.501" stroke="#3f3f46" stroke-width="1.4"/>
  <text x="82.000" y="224.501" text-anchor="end" fill="#52525b" font-family="'Lato', 'Avenir Next', 'Segoe UI', 'Helvetica Neue', sans-serif" font-size="21"></text>
  <line x1="104.000" y1="213.944" x2="96.000" y2="213.944" stroke="#3f3f46" stroke-width="1.4"/>
  <text x="82.000" y="220.944" text-anchor="end" fill="#52525b" font-family="'Lato', 'Avenir Next', 'Segoe UI', 'Helvetica Neue', sans-serif" font-size="21"></text>
  <line x1="104.000" y1="210.806" x2="96.000" y2="210.806" stroke="#3f3f46" stroke-width="1.4"/>
  <text x="82.000" y="217.806" text-anchor="end" fill="#52525b" font-family="'Lato', 'Avenir Next', 'Segoe UI', 'Helvetica Neue', sans-serif" font-size="21"></text>
  <line x1="104.000" y1="208.000" x2="96.000" y2="208.000" stroke="#3f3f46" stroke-width="1.4"/>
  <text x="82.000" y="215.000" text-anchor="end" fill="#52525b" font-family="'Lato', 'Avenir Next', 'Segoe UI', 'Helvetica Neue', sans-serif" font-size="21">10<tspan baseline-shift="super" font-size="65%">-3</tspan></text>
  <line x1="104.000" y1="189.537" x2="96.000" y2="189.537" stroke="#3f3f46" stroke-width="1.4"/>
  <text x="82.000" y="196.537" text-anchor="end" fill="#52525b" font-family="'Lato', 'Avenir Next', 'Segoe UI', 'Helvetica Neue', sans-serif" font-size="21"></text>
  <line x1="104.000" y1="178.737" x2="96.000" y2="178.737" stroke="#3f3f46" stroke-width="1.4"/>
  <text x="82.000" y="185.737" text-anchor="end" fill="#52525b" font-family="'Lato', 'Avenir Next', 'Segoe UI', 'Helvetica Neue', sans-serif" font-size="21"></text>
  <line x1="104.000" y1="171.074" x2="96.000" y2="171.074" stroke="#3f3f46" stroke-width="1.4"/>
  <text x="82.000" y="178.074" text-anchor="end" fill="#52525b" font-family="'Lato', 'Avenir Next', 'Segoe UI', 'Helvetica Neue', sans-serif" font-size="21"></text>
  <line x1="104.000" y1="165.130" x2="96.000" y2="165.130" stroke="#3f3f46" stroke-width="1.4"/>
  <text x="82.000" y="172.130" text-anchor="end" fill="#52525b" font-family="'Lato', 'Avenir Next', 'Segoe UI', 'Helvetica Neue', sans-serif" font-size="21"></text>
  <line x1="104.000" y1="160.273" x2="96.000" y2="160.273" stroke="#3f3f46" stroke-width="1.4"/>
  <text x="82.000" y="167.273" text-anchor="end" fill="#52525b" font-family="'Lato', 'Avenir Next', 'Segoe UI', 'Helvetica Neue', sans-serif" font-size="21"></text>
  <line x1="104.000" y1="156.167" x2="96.000" y2="156.167" stroke="#3f3f46" stroke-width="1.4"/>
  <text x="82.000" y="163.167" text-anchor="end" fill="#52525b" font-family="'Lato', 'Avenir Next', 'Segoe UI', 'Helvetica Neue', sans-serif" font-size="21"></text>
  <line x1="104.000" y1="152.610" x2="96.000" y2="152.610" stroke="#3f3f46" stroke-width="1.4"/>
  <text x="82.000" y="159.610" text-anchor="end" fill="#52525b" font-family="'Lato', 'Avenir Next', 'Segoe UI', 'Helvetica Neue', sans-serif" font-size="21"></text>
  <line x1="104.000" y1="149.473" x2="96.000" y2="149.473" stroke="#3f3f46" stroke-width="1.4"/>
  <text x="82.000" y="156.473" text-anchor="end" fill="#52525b" font-family="'Lato', 'Avenir Next', 'Segoe UI', 'Helvetica Neue', sans-serif" font-size="21"></text>
  <line x1="104.000" y1="146.667" x2="96.000" y2="146.667" stroke="#3f3f46" stroke-width="1.4"/>
  <text x="82.000" y="153.667" text-anchor="end" fill="#52525b" font-family="'Lato', 'Avenir Next', 'Segoe UI', 'Helvetica Neue', sans-serif" font-size="21">10<tspan baseline-shift="super" font-size="65%">-2</tspan></text>
  <line x1="104.000" y1="128.203" x2="96.000" y2="128.203" stroke="#3f3f46" stroke-width="1.4"/>
  <text x="82.000" y="135.203" text-anchor="end" fill="#52525b" font-family="'Lato', 'Avenir Next', 'Segoe UI', 'Helvetica Neue', sans-serif" font-size="21"></text>
  <line x1="104.000" y1="117.403" x2="96.000" y2="117.403" stroke="#3f3f46" stroke-width="1.4"/>
  <text x="82.000" y="124.403" text-anchor="end" fill="#52525b" font-family="'Lato', 'Avenir Next', 'Segoe UI', 'Helvetica Neue', sans-serif" font-size="21"></text>
  <line x1="104.000" y1="109.740" x2="96.000" y2="109.740" stroke="#3f3f46" stroke-width="1.4"/>
  <text x="82.000" y="116.740" text-anchor="end" fill="#52525b" font-family="'Lato', 'Avenir Next', 'Segoe UI', 'Helvetica Neue', sans-serif" font-size="21"></text>
  <line x1="104.000" y1="103.797" x2="96.000" y2="103.797" stroke="#3f3f46" stroke-width="1.4"/>
  <text x="82.000" y="110.797" text-anchor="end" fill="#52525b" font-family="'Lato', 'Avenir Next', 'Segoe UI', 'Helvetica Neue', sans-serif" font-size="21"></text>
  <line x1="104.000" y1="98.940" x2="96.000" y2="98.940" stroke="#3f3f46" stroke-width="1.4"/>
  <text x="82.000" y="105.940" text-anchor="end" fill="#52525b" font-family="'Lato', 'Avenir Next', 'Segoe UI', 'Helvetica Neue', sans-serif" font-size="21"></text>
  <line x1="104.000" y1="94.834" x2="96.000" y2="94.834" stroke="#3f3f46" stroke-width="1.4"/>
  <text x="82.000" y="101.834" text-anchor="end" fill="#52525b" font-family="'Lato', 'Avenir Next', 'Segoe UI', 'Helvetica Neue', sans-serif" font-size="21"></text>
  <line x1="104.000" y1="91.277" x2="96.000" y2="91.277" stroke="#3f3f46" stroke-width="1.4"/>
  <text x="82.000" y="98.277" text-anchor="end" fill="#52525b" font-family="'Lato', 'Avenir Next', 'Segoe UI', 'Helvetica Neue', sans-serif" font-size="21"></text>
  <line x1="104.000" y1="88.140" x2="96.000" y2="88.140" stroke="#3f3f46" stroke-width="1.4"/>
  <text x="82.000" y="95.140" text-anchor="end" fill="#52525b" font-family="'Lato', 'Avenir Next', 'Segoe UI', 'Helvetica Neue', sans-serif" font-size="21"></text>
  <line x1="104.000" y1="85.333" x2="96.000" y2="85.333" stroke="#3f3f46" stroke-width="1.4"/>
  <text x="82.000" y="92.333" text-anchor="end" fill="#52525b" font-family="'Lato', 'Avenir Next', 'Segoe UI', 'Helvetica Neue', sans-serif" font-size="21">10<tspan baseline-shift="super" font-size="65%">-1</tspan></text>
  <line x1="104.000" y1="66.870" x2="96.000" y2="66.870" stroke="#3f3f46" stroke-width="1.4"/>
  <text x="82.000" y="73.870" text-anchor="end" fill="#52525b" font-family="'Lato', 'Avenir Next', 'Segoe UI', 'Helvetica Neue', sans-serif" font-size="21"></text>
  <line x1="104.000" y1="56.070" x2="96.000" y2="56.070" stroke="#3f3f46" stroke-width="1.4"/>
  <text x="82.000" y="63.070" text-anchor="end" fill="#52525b" font-family="'Lato', 'Avenir Next', 'Segoe UI', 'Helvetica Neue', sans-serif" font-size="21"></text>
  <line x1="104.000" y1="48.407" x2="96.000" y2="48.407" stroke="#3f3f46" stroke-width="1.4"/>
  <text x="82.000" y="55.407" text-anchor="end" fill="#52525b" font-family="'Lato', 'Avenir Next', 'Segoe UI', 'Helvetica Neue', sans-serif" font-size="21"></text>
  <line x1="104.000" y1="42.463" x2="96.000" y2="42.463" stroke="#3f3f46" stroke-width="1.4"/>
  <text x="82.000" y="49.463" text-anchor="end" fill="#52525b" font-family="'Lato', 'Avenir Next', 'Segoe UI', 'Helvetica Neue', sans-serif" font-size="21"></text>
  <line x1="104.000" y1="37.607" x2="96.000" y2="37.607" stroke="#3f3f46" stroke-width="1.4"/>
  <text x="82.000" y="44.607" text-anchor="end" fill="#52525b" font-family="'Lato', 'Avenir Next', 'Segoe UI', 'Helvetica Neue', sans-serif" font-size="21"></text>
  <line x1="104.000" y1="33.501" x2="96.000" y2="33.501" stroke="#3f3f46" stroke-width="1.4"/>
  <text x="82.000" y="40.501" text-anchor="end" fill="#52525b" font-family="'Lato', 'Avenir Next', 'Segoe UI', 'Helvetica Neue', sans-serif" font-size="21"></text>
  <line x1="104.000" y1="29.944" x2="96.000" y2="29.944" stroke="#3f3f46" stroke-width="1.4"/>
  <text x="82.000" y="36.944" text-anchor="end" fill="#52525b" font-family="'Lato', 'Avenir Next', 'Segoe UI', 'Helvetica Neue', sans-serif" font-size="21"></text>
  <line x1="104.000" y1="26.806" x2="96.000" y2="26.806" stroke="#3f3f46" stroke-width="1.4"/>
  <text x="82.000" y="33.806" text-anchor="end" fill="#52525b" font-family="'Lato', 'Avenir Next', 'Segoe UI', 'Helvetica Neue', sans-serif" font-size="21"></text>
  <line x1="104.000" y1="24.000" x2="96.000" y2="24.000" stroke="#3f3f46" stroke-width="1.4"/>
  <text x="82.000" y="31.000" text-anchor="end" fill="#52525b" font-family="'Lato', 'Avenir Next', 'Segoe UI', 'Helvetica Neue', sans-serif" font-size="21">10<tspan baseline-shift="super" font-size="65%">0</tspan></text>
  <text x="512.000" y="470.000" text-anchor="middle" fill="#111827" font-family="'Lato', 'Avenir Next', 'Segoe UI', 'Helvetica Neue', sans-serif" font-size="28" font-style="italic">K</text>
  <text x="30.0" y="208.000" text-anchor="middle" transform="rotate(0 30.0 208.000)" fill="#111827" font-family="'Lato', 'Avenir Next', 'Segoe UI', 'Helvetica Neue', sans-serif" font-size="28" font-style="italic">c<tspan baseline-shift="sub" font-size="65%">K</tspan></text>
</svg>
