<?xml version="1.0" encoding="UTF-8"?>
<svg xmlns="http://www.w3.org/2000/svg" width="960" height="480" viewBox="0 0 960 480" role="img" aria-label="Optimized-gradient c_K versus K in log-log scale">
  <title>Optimized-gradient bound vs iteration budget (log-log)</title>
  <desc>Log-log c_K vs K for optimized gradient method: theoretical curve and AutoLyap points.</desc>
  <rect x="0" y="0" width="960" height="480" fill="#ffffff"/>
  <rect x="96.000" y="24.000" width="832.000" height="368.000" fill="#f8fafc"/>
  <defs>
    <clipPath id="plot-area-clip">
      <rect x="96.000" y="24.000" width="832.000" height="368.000"/>
    </clipPath>
  </defs>
  <style type="text/css"><![CDATA[
@font-face {
  font-family: 'Lato';
  src:
    url('css/fonts/lato-normal.woff2') format('woff2'),
    url('../_static/css/fonts/lato-normal.woff2') format('woff2'),
    url('css/fonts/lato-normal.woff') format('woff'),
    url('../_static/css/fonts/lato-normal.woff') format('woff');
  font-style: normal;
  font-weight: 400;
}
@font-face {
  font-family: 'Lato';
  src:
    url('css/fonts/lato-normal-italic.woff2') format('woff2'),
    url('../_static/css/fonts/lato-normal-italic.woff2') format('woff2'),
    url('css/fonts/lato-normal-italic.woff') format('woff'),
    url('../_static/css/fonts/lato-normal-italic.woff') format('woff');
  font-style: italic;
  font-weight: 400;
}
@font-face {
  font-family: 'Lato';
  src:
    url('css/fonts/lato-bold.woff2') format('woff2'),
    url('../_static/css/fonts/lato-bold.woff2') format('woff2'),
    url('css/fonts/lato-bold.woff') format('woff'),
    url('../_static/css/fonts/lato-bold.woff') format('woff');
  font-style: normal;
  font-weight: 700;
}
@font-face {
  font-family: 'Lato';
  src:
    url('css/fonts/lato-bold-italic.woff2') format('woff2'),
    url('../_static/css/fonts/lato-bold-italic.woff2') format('woff2'),
    url('css/fonts/lato-bold-italic.woff') format('woff'),
    url('../_static/css/fonts/lato-bold-italic.woff') format('woff');
  font-style: italic;
  font-weight: 700;
}
  ]]></style>
  <line x1="96.000" y1="24.000" x2="96.000" y2="392.000" stroke="#9ca3af" stroke-width="1.350"/>
  <line x1="114.240" y1="24.000" x2="114.240" y2="392.000" stroke="#9ca3af" stroke-width="1.350"/>
  <line x1="234.240" y1="24.000" x2="234.240" y2="392.000" stroke="#9ca3af" stroke-width="1.350"/>
  <line x1="304.435" y1="24.000" x2="304.435" y2="392.000" stroke="#9ca3af" stroke-width="1.350"/>
  <line x1="354.239" y1="24.000" x2="354.239" y2="392.000" stroke="#9ca3af" stroke-width="1.350"/>
  <line x1="392.870" y1="24.000" x2="392.870" y2="392.000" stroke="#9ca3af" stroke-width="1.350"/>
  <line x1="424.434" y1="24.000" x2="424.434" y2="392.000" stroke="#9ca3af" stroke-width="1.350"/>
  <line x1="451.121" y1="24.000" x2="451.121" y2="392.000" stroke="#9ca3af" stroke-width="1.350"/>
  <line x1="474.239" y1="24.000" x2="474.239" y2="392.000" stroke="#9ca3af" stroke-width="1.350"/>
  <line x1="494.630" y1="24.000" x2="494.630" y2="392.000" stroke="#9ca3af" stroke-width="1.350"/>
  <line x1="512.870" y1="24.000" x2="512.870" y2="392.000" stroke="#9ca3af" stroke-width="1.350"/>
  <line x1="632.869" y1="24.000" x2="632.869" y2="392.000" stroke="#9ca3af" stroke-width="1.350"/>
  <line x1="703.065" y1="24.000" x2="703.065" y2="392.000" stroke="#9ca3af" stroke-width="1.350"/>
  <line x1="752.869" y1="24.000" x2="752.869" y2="392.000" stroke="#9ca3af" stroke-width="1.350"/>
  <line x1="791.500" y1="24.000" x2="791.500" y2="392.000" stroke="#9ca3af" stroke-width="1.350"/>
  <line x1="823.064" y1="24.000" x2="823.064" y2="392.000" stroke="#9ca3af" stroke-width="1.350"/>
  <line x1="849.751" y1="24.000" x2="849.751" y2="392.000" stroke="#9ca3af" stroke-width="1.350"/>
  <line x1="872.868" y1="24.000" x2="872.868" y2="392.000" stroke="#9ca3af" stroke-width="1.350"/>
  <line x1="893.259" y1="24.000" x2="893.259" y2="392.000" stroke="#9ca3af" stroke-width="1.350"/>
  <line x1="911.500" y1="24.000" x2="911.500" y2="392.000" stroke="#9ca3af" stroke-width="1.350"/>
  <line x1="96.000" y1="392.000" x2="928.000" y2="392.000" stroke="#9ca3af" stroke-width="1.350"/>
  <line x1="96.000" y1="369.844" x2="928.000" y2="369.844" stroke="#9ca3af" stroke-width="1.350"/>
  <line x1="96.000" y1="356.884" x2="928.000" y2="356.884" stroke="#9ca3af" stroke-width="1.350"/>
  <line x1="96.000" y1="347.688" x2="928.000" y2="347.688" stroke="#9ca3af" stroke-width="1.350"/>
  <line x1="96.000" y1="340.556" x2="928.000" y2="340.556" stroke="#9ca3af" stroke-width="1.350"/>
  <line x1="96.000" y1="334.728" x2="928.000" y2="334.728" stroke="#9ca3af" stroke-width="1.350"/>
  <line x1="96.000" y1="329.801" x2="928.000" y2="329.801" stroke="#9ca3af" stroke-width="1.350"/>
  <line x1="96.000" y1="325.533" x2="928.000" y2="325.533" stroke="#9ca3af" stroke-width="1.350"/>
  <line x1="96.000" y1="321.768" x2="928.000" y2="321.768" stroke="#9ca3af" stroke-width="1.350"/>
  <line x1="96.000" y1="318.400" x2="928.000" y2="318.400" stroke="#9ca3af" stroke-width="1.350"/>
  <line x1="96.000" y1="296.244" x2="928.000" y2="296.244" stroke="#9ca3af" stroke-width="1.350"/>
  <line x1="96.000" y1="283.284" x2="928.000" y2="283.284" stroke="#9ca3af" stroke-width="1.350"/>
  <line x1="96.000" y1="274.088" x2="928.000" y2="274.088" stroke="#9ca3af" stroke-width="1.350"/>
  <line x1="96.000" y1="266.956" x2="928.000" y2="266.956" stroke="#9ca3af" stroke-width="1.350"/>
  <line x1="96.000" y1="261.128" x2="928.000" y2="261.128" stroke="#9ca3af" stroke-width="1.350"/>
  <line x1="96.000" y1="256.201" x2="928.000" y2="256.201" stroke="#9ca3af" stroke-width="1.350"/>
  <line x1="96.000" y1="251.933" x2="928.000" y2="251.933" stroke="#9ca3af" stroke-width="1.350"/>
  <line x1="96.000" y1="248.168" x2="928.000" y2="248.168" stroke="#9ca3af" stroke-width="1.350"/>
  <line x1="96.000" y1="244.800" x2="928.000" y2="244.800" stroke="#9ca3af" stroke-width="1.350"/>
  <line x1="96.000" y1="222.644" x2="928.000" y2="222.644" stroke="#9ca3af" stroke-width="1.350"/>
  <line x1="96.000" y1="209.684" x2="928.000" y2="209.684" stroke="#9ca3af" stroke-width="1.350"/>
  <line x1="96.000" y1="200.488" x2="928.000" y2="200.488" stroke="#9ca3af" stroke-width="1.350"/>
  <line x1="96.000" y1="193.356" x2="928.000" y2="193.356" stroke="#9ca3af" stroke-width="1.350"/>
  <line x1="96.000" y1="187.528" x2="928.000" y2="187.528" stroke="#9ca3af" stroke-width="1.350"/>
  <line x1="96.000" y1="182.601" x2="928.000" y2="182.601" stroke="#9ca3af" stroke-width="1.350"/>
  <line x1="96.000" y1="178.333" x2="928.000" y2="178.333" stroke="#9ca3af" stroke-width="1.350"/>
  <line x1="96.000" y1="174.568" x2="928.000" y2="174.568" stroke="#9ca3af" stroke-width="1.350"/>
  <line x1="96.000" y1="171.200" x2="928.000" y2="171.200" stroke="#9ca3af" stroke-width="1.350"/>
  <line x1="96.000" y1="149.044" x2="928.000" y2="149.044" stroke="#9ca3af" stroke-width="1.350"/>
  <line x1="96.000" y1="136.084" x2="928.000" y2="136.084" stroke="#9ca3af" stroke-width="1.350"/>
  <line x1="96.000" y1="126.888" x2="928.000" y2="126.888" stroke="#9ca3af" stroke-width="1.350"/>
  <line x1="96.000" y1="119.756" x2="928.000" y2="119.756" stroke="#9ca3af" stroke-width="1.350"/>
  <line x1="96.000" y1="113.928" x2="928.000" y2="113.928" stroke="#9ca3af" stroke-width="1.350"/>
  <line x1="96.000" y1="109.001" x2="928.000" y2="109.001" stroke="#9ca3af" stroke-width="1.350"/>
  <line x1="96.000" y1="104.733" x2="928.000" y2="104.733" stroke="#9ca3af" stroke-width="1.350"/>
  <line x1="96.000" y1="100.968" x2="928.000" y2="100.968" stroke="#9ca3af" stroke-width="1.350"/>
  <line x1="96.000" y1="97.600" x2="928.000" y2="97.600" stroke="#9ca3af" stroke-width="1.350"/>
  <line x1="96.000" y1="75.444" x2="928.000" y2="75.444" stroke="#9ca3af" stroke-width="1.350"/>
  <line x1="96.000" y1="62.484" x2="928.000" y2="62.484" stroke="#9ca3af" stroke-width="1.350"/>
  <line x1="96.000" y1="53.288" x2="928.000" y2="53.288" stroke="#9ca3af" stroke-width="1.350"/>
  <line x1="96.000" y1="46.156" x2="928.000" y2="46.156" stroke="#9ca3af" stroke-width="1.350"/>
  <line x1="96.000" y1="40.328" x2="928.000" y2="40.328" stroke="#9ca3af" stroke-width="1.350"/>
  <line x1="96.000" y1="35.401" x2="928.000" y2="35.401" stroke="#9ca3af" stroke-width="1.350"/>
  <line x1="96.000" y1="31.133" x2="928.000" y2="31.133" stroke="#9ca3af" stroke-width="1.350"/>
  <line x1="96.000" y1="27.368" x2="928.000" y2="27.368" stroke="#9ca3af" stroke-width="1.350"/>
  <line x1="96.000" y1="24.000" x2="928.000" y2="24.000" stroke="#9ca3af" stroke-width="1.350"/>
  <g clip-path="url(#plot-area-clip)">
    <g fill="#5fa8e8" fill-opacity="0.900">
    <circle cx="114.240" cy="90.467" r="4.500"/>
    <circle cx="234.240" cy="112.935" r="4.500"/>
    <circle cx="304.435" cy="128.788" r="4.500"/>
    <circle cx="354.239" cy="141.174" r="4.500"/>
    <circle cx="392.870" cy="151.384" r="4.500"/>
    <circle cx="424.434" cy="160.091" r="4.500"/>
    <circle cx="451.121" cy="167.691" r="4.500"/>
    <circle cx="474.239" cy="174.440" r="4.500"/>
    <circle cx="494.630" cy="180.513" r="4.500"/>
    <circle cx="512.870" cy="186.037" r="4.500"/>
    <circle cx="529.370" cy="191.104" r="4.500"/>
    <circle cx="544.434" cy="195.785" r="4.500"/>
    <circle cx="558.291" cy="200.136" r="4.500"/>
    <circle cx="571.121" cy="204.200" r="4.500"/>
    <circle cx="583.065" cy="208.014" r="4.500"/>
    <circle cx="594.238" cy="211.607" r="4.500"/>
    <circle cx="604.734" cy="215.004" r="4.500"/>
    <circle cx="614.629" cy="218.226" r="4.500"/>
    <circle cx="623.989" cy="221.289" r="4.500"/>
    <circle cx="632.869" cy="224.208" r="4.500"/>
    <circle cx="641.316" cy="226.998" r="4.500"/>
    <circle cx="649.370" cy="229.668" r="4.500"/>
    <circle cx="657.065" cy="232.229" r="4.500"/>
    <circle cx="664.433" cy="234.689" r="4.500"/>
    <circle cx="671.501" cy="237.057" r="4.500"/>
    <circle cx="678.291" cy="239.338" r="4.500"/>
    <circle cx="684.824" cy="241.539" r="4.500"/>
    <circle cx="691.120" cy="243.668" r="4.500"/>
    <circle cx="697.196" cy="245.726" r="4.500"/>
    <circle cx="703.065" cy="247.718" r="4.500"/>
    <circle cx="708.741" cy="249.649" r="4.500"/>
    <circle cx="714.238" cy="251.523" r="4.500"/>
    <circle cx="719.565" cy="253.341" r="4.500"/>
    <circle cx="724.733" cy="255.110" r="4.500"/>
    <circle cx="729.752" cy="256.831" r="4.500"/>
    <circle cx="734.629" cy="258.503" r="4.500"/>
    <circle cx="739.372" cy="260.136" r="4.500"/>
    <circle cx="743.989" cy="261.727" r="4.500"/>
    <circle cx="748.486" cy="263.278" r="4.500"/>
    <circle cx="752.869" cy="264.792" r="4.500"/>
    <circle cx="757.144" cy="266.270" r="4.500"/>
    <circle cx="761.316" cy="267.715" r="4.500"/>
    <circle cx="765.389" cy="269.127" r="4.500"/>
    <circle cx="769.369" cy="270.508" r="4.500"/>
    <circle cx="773.260" cy="271.860" r="4.500"/>
    <circle cx="777.065" cy="273.183" r="4.500"/>
    <circle cx="780.788" cy="274.479" r="4.500"/>
    <circle cx="784.433" cy="275.749" r="4.500"/>
    <circle cx="788.003" cy="276.994" r="4.500"/>
    <circle cx="791.500" cy="278.215" r="4.500"/>
    <circle cx="794.928" cy="279.412" r="4.500"/>
    <circle cx="798.290" cy="280.588" r="4.500"/>
    <circle cx="801.588" cy="281.742" r="4.500"/>
    <circle cx="804.824" cy="282.876" r="4.500"/>
    <circle cx="808.001" cy="283.990" r="4.500"/>
    <circle cx="811.120" cy="285.084" r="4.500"/>
    <circle cx="814.184" cy="286.168" r="4.500"/>
    <circle cx="817.195" cy="287.217" r="4.500"/>
    <circle cx="820.154" cy="288.257" r="4.500"/>
    <circle cx="823.064" cy="289.280" r="4.500"/>
    <circle cx="825.926" cy="290.286" r="4.500"/>
    <circle cx="828.741" cy="291.276" r="4.500"/>
    <circle cx="831.511" cy="292.251" r="4.500"/>
    <circle cx="834.237" cy="293.211" r="4.500"/>
    <circle cx="836.921" cy="294.156" r="4.500"/>
    <circle cx="839.565" cy="295.087" r="4.500"/>
    <circle cx="842.168" cy="296.006" r="4.500"/>
    <circle cx="844.733" cy="296.912" r="4.500"/>
    <circle cx="847.260" cy="297.830" r="4.500"/>
    <circle cx="849.751" cy="298.711" r="4.500"/>
    <circle cx="852.207" cy="299.580" r="4.500"/>
    <circle cx="854.628" cy="300.437" r="4.500"/>
    <circle cx="857.016" cy="301.283" r="4.500"/>
    <circle cx="859.372" cy="302.118" r="4.500"/>
    <circle cx="861.695" cy="302.942" r="4.500"/>
    <circle cx="863.988" cy="303.756" r="4.500"/>
    <circle cx="866.251" cy="304.559" r="4.500"/>
    <circle cx="868.485" cy="305.353" r="4.500"/>
    <circle cx="870.691" cy="306.136" r="4.500"/>
    <circle cx="872.868" cy="306.910" r="4.500"/>
    <circle cx="875.019" cy="307.675" r="4.500"/>
    <circle cx="877.143" cy="308.431" r="4.500"/>
    <circle cx="879.242" cy="309.177" r="4.500"/>
    <circle cx="881.315" cy="309.915" r="4.500"/>
    <circle cx="883.364" cy="310.645" r="4.500"/>
    <circle cx="885.389" cy="311.366" r="4.500"/>
    <circle cx="887.390" cy="312.079" r="4.500"/>
    <circle cx="889.369" cy="312.784" r="4.500"/>
    <circle cx="891.325" cy="313.481" r="4.500"/>
    <circle cx="893.259" cy="314.171" r="4.500"/>
    <circle cx="895.172" cy="314.853" r="4.500"/>
    <circle cx="897.064" cy="315.528" r="4.500"/>
    <circle cx="898.936" cy="316.193" r="4.500"/>
    <circle cx="900.788" cy="316.856" r="4.500"/>
    <circle cx="902.620" cy="317.475" r="4.500"/>
    <circle cx="904.432" cy="318.156" r="4.500"/>
    <circle cx="906.226" cy="318.795" r="4.500"/>
    <circle cx="908.002" cy="319.429" r="4.500"/>
    <circle cx="909.760" cy="320.055" r="4.500"/>
    <circle cx="911.500" cy="320.674" r="4.500"/>
    </g>
    <polyline points="114.240,90.467 234.240,112.935 304.435,128.788 354.239,141.174 392.870,151.384 424.434,160.091 451.121,167.691 474.239,174.440 494.630,180.514 512.870,186.037 529.370,191.104 544.434,195.785 558.291,200.136 571.121,204.200 583.065,208.014 594.238,211.608 604.734,215.005 614.629,218.226 623.989,221.289 632.869,224.209 641.316,226.999 649.370,229.669 657.065,232.230 664.433,234.691 671.501,237.059 678.291,239.340 684.824,241.542 691.120,243.669 697.196,245.727 703.065,247.719 708.741,249.650 714.238,251.524 719.565,253.344 724.733,255.112 729.752,256.833 734.629,258.507 739.372,260.139 743.989,261.729 748.486,263.280 752.869,264.794 757.144,266.273 761.316,267.718 765.389,269.130 769.369,270.512 773.260,271.864 777.065,273.188 780.788,274.484 784.433,275.755 788.003,277.001 791.500,278.222 794.928,279.421 798.290,280.597 801.588,281.752 804.824,282.886 808.001,284.000 811.120,285.095 814.184,286.171 817.195,287.229 820.154,288.270 823.064,289.295 825.926,290.303 828.741,291.295 831.511,292.271 834.237,293.234 836.921,294.181 839.565,295.115 842.168,296.035 844.733,296.942 847.260,297.836 849.751,298.718 852.207,299.588 854.628,300.446 857.016,301.293 859.372,302.128 861.695,302.953 863.988,303.767 866.251,304.570 868.485,305.364 870.691,306.148 872.868,306.922 875.019,307.687 877.143,308.443 879.242,309.190 881.315,309.928 883.364,310.658 885.389,311.380 887.390,312.093 889.369,312.799 891.325,313.497 893.259,314.187 895.172,314.870 897.064,315.545 898.936,316.214 900.788,316.875 902.620,317.530 904.432,318.178 906.226,318.820 908.002,319.455 909.760,320.083 911.500,320.706" fill="none" stroke="#000000" stroke-width="2.800" stroke-opacity="1.000"/>
  </g>
  <rect x="96.000" y="24.000" width="832.000" height="368.000" fill="none" stroke="#3f3f46" stroke-width="1.8"/>
  <rect x="112.000" y="294.000" width="193.500" height="82.000" rx="6" ry="6" fill="#ffffff" fill-opacity="0.94" stroke="#000000" stroke-width="1.2"/>
  <line x1="126.000" y1="320.000" x2="166.000" y2="320.000" stroke="#000000" stroke-width="2.800" stroke-opacity="1.000"/>
  <text x="176.000" y="327.000" text-anchor="start" fill="#111827" font-family="'Lato', 'Avenir Next', 'Segoe UI', 'Helvetica Neue', sans-serif" font-size="20.0">Theoretical</text>
  <circle cx="146.000" cy="350.000" r="4.500" fill="#5fa8e8" fill-opacity="1.000"/>
  <text x="176.000" y="357.000" text-anchor="start" fill="#111827" font-family="'Lato', 'Avenir Next', 'Segoe UI', 'Helvetica Neue', sans-serif" font-size="20.0">AutoLyap</text>
  <line x1="96.000" y1="392.000" x2="96.000" y2="384.000" stroke="#3f3f46" stroke-width="1.4"/>
  <text x="96.000" y="438.000" text-anchor="middle" fill="#52525b" font-family="'Lato', 'Avenir Next', 'Segoe UI', 'Helvetica Neue', sans-serif" font-size="21"></text>
  <line x1="114.240" y1="392.000" x2="114.240" y2="384.000" stroke="#3f3f46" stroke-width="1.4"/>
  <text x="114.240" y="438.000" text-anchor="middle" fill="#52525b" font-family="'Lato', 'Avenir Next', 'Segoe UI', 'Helvetica Neue', sans-serif" font-size="21">10<tspan baseline-shift="super" font-size="65%">0</tspan></text>
  <line x1="234.240" y1="392.000" x2="234.240" y2="384.000" stroke="#3f3f46" stroke-width="1.4"/>
  <text x="234.240" y="438.000" text-anchor="middle" fill="#52525b" font-family="'Lato', 'Avenir Next', 'Segoe UI', 'Helvetica Neue', sans-serif" font-size="21"></text>
  <line x1="304.435" y1="392.000" x2="304.435" y2="384.000" stroke="#3f3f46" stroke-width="1.4"/>
  <text x="304.435" y="438.000" text-anchor="middle" fill="#52525b" font-family="'Lato', 'Avenir Next', 'Segoe UI', 'Helvetica Neue', sans-serif" font-size="21"></text>
  <line x1="354.239" y1="392.000" x2="354.239" y2="384.000" stroke="#3f3f46" stroke-width="1.4"/>
  <text x="354.239" y="438.000" text-anchor="middle" fill="#52525b" font-family="'Lato', 'Avenir Next', 'Segoe UI', 'Helvetica Neue', sans-serif" font-size="21"></text>
  <line x1="392.870" y1="392.000" x2="392.870" y2="384.000" stroke="#3f3f46" stroke-width="1.4"/>
  <text x="392.870" y="438.000" text-anchor="middle" fill="#52525b" font-family="'Lato', 'Avenir Next', 'Segoe UI', 'Helvetica Neue', sans-serif" font-size="21"></text>
  <line x1="424.434" y1="392.000" x2="424.434" y2="384.000" stroke="#3f3f46" stroke-width="1.4"/>
  <text x="424.434" y="438.000" text-anchor="middle" fill="#52525b" font-family="'Lato', 'Avenir Next', 'Segoe UI', 'Helvetica Neue', sans-serif" font-size="21"></text>
  <line x1="451.121" y1="392.000" x2="451.121" y2="384.000" stroke="#3f3f46" stroke-width="1.4"/>
  <text x="451.121" y="438.000" text-anchor="middle" fill="#52525b" font-family="'Lato', 'Avenir Next', 'Segoe UI', 'Helvetica Neue', sans-serif" font-size="21"></text>
  <line x1="474.239" y1="392.000" x2="474.239" y2="384.000" stroke="#3f3f46" stroke-width="1.4"/>
  <text x="474.239" y="438.000" text-anchor="middle" fill="#52525b" font-family="'Lato', 'Avenir Next', 'Segoe UI', 'Helvetica Neue', sans-serif" font-size="21"></text>
  <line x1="494.630" y1="392.000" x2="494.630" y2="384.000" stroke="#3f3f46" stroke-width="1.4"/>
  <text x="494.630" y="438.000" text-anchor="middle" fill="#52525b" font-family="'Lato', 'Avenir Next', 'Segoe UI', 'Helvetica Neue', sans-serif" font-size="21"></text>
  <line x1="512.870" y1="392.000" x2="512.870" y2="384.000" stroke="#3f3f46" stroke-width="1.4"/>
  <text x="512.870" y="438.000" text-anchor="middle" fill="#52525b" font-family="'Lato', 'Avenir Next', 'Segoe UI', 'Helvetica Neue', sans-serif" font-size="21">10<tspan baseline-shift="super" font-size="65%">1</tspan></text>
  <line x1="632.869" y1="392.000" x2="632.869" y2="384.000" stroke="#3f3f46" stroke-width="1.4"/>
  <text x="632.869" y="438.000" text-anchor="middle" fill="#52525b" font-family="'Lato', 'Avenir Next', 'Segoe UI', 'Helvetica Neue', sans-serif" font-size="21"></text>
  <line x1="703.065" y1="392.000" x2="703.065" y2="384.000" stroke="#3f3f46" stroke-width="1.4"/>
  <text x="703.065" y="438.000" text-anchor="middle" fill="#52525b" font-family="'Lato', 'Avenir Next', 'Segoe UI', 'Helvetica Neue', sans-serif" font-size="21"></text>
  <line x1="752.869" y1="392.000" x2="752.869" y2="384.000" stroke="#3f3f46" stroke-width="1.4"/>
  <text x="752.869" y="438.000" text-anchor="middle" fill="#52525b" font-family="'Lato', 'Avenir Next', 'Segoe UI', 'Helvetica Neue', sans-serif" font-size="21"></text>
  <line x1="791.500" y1="392.000" x2="791.500" y2="384.000" stroke="#3f3f46" stroke-width="1.4"/>
  <text x="791.500" y="438.000" text-anchor="middle" fill="#52525b" font-family="'Lato', 'Avenir Next', 'Segoe UI', 'Helvetica Neue', sans-serif" font-size="21"></text>
  <line x1="823.064" y1="392.000" x2="823.064" y2="384.000" stroke="#3f3f46" stroke-width="1.4"/>
  <text x="823.064" y="438.000" text-anchor="middle" fill="#52525b" font-family="'Lato', 'Avenir Next', 'Segoe UI', 'Helvetica Neue', sans-serif" font-size="21"></text>
  <line x1="849.751" y1="392.000" x2="849.751" y2="384.000" stroke="#3f3f46" stroke-width="1.4"/>
  <text x="849.751" y="438.000" text-anchor="middle" fill="#52525b" font-family="'Lato', 'Avenir Next', 'Segoe UI', 'Helvetica Neue', sans-serif" font-size="21"></text>
  <line x1="872.868" y1="392.000" x2="872.868" y2="384.000" stroke="#3f3f46" stroke-width="1.4"/>
  <text x="872.868" y="438.000" text-anchor="middle" fill="#52525b" font-family="'Lato', 'Avenir Next', 'Segoe UI', 'Helvetica Neue', sans-serif" font-size="21"></text>
  <line x1="893.259" y1="392.000" x2="893.259" y2="384.000" stroke="#3f3f46" stroke-width="1.4"/>
  <text x="893.259" y="438.000" text-anchor="middle" fill="#52525b" font-family="'Lato', 'Avenir Next', 'Segoe UI', 'Helvetica Neue', sans-serif" font-size="21"></text>
  <line x1="911.500" y1="392.000" x2="911.500" y2="384.000" stroke="#3f3f46" stroke-width="1.4"/>
  <text x="911.500" y="438.000" text-anchor="middle" fill="#52525b" font-family="'Lato', 'Avenir Next', 'Segoe UI', 'Helvetica Neue', sans-serif" font-size="21">10<tspan baseline-shift="super" font-size="65%">2</tspan></text>
  <line x1="104.000" y1="392.000" x2="96.000" y2="392.000" stroke="#3f3f46" stroke-width="1.4"/>
  <text x="82.000" y="399.000" text-anchor="end" fill="#52525b" font-family="'Lato', 'Avenir Next', 'Segoe UI', 'Helvetica Neue', sans-serif" font-size="21">10<tspan baseline-shift="super" font-size="65%">-5</tspan></text>
  <line x1="104.000" y1="369.844" x2="96.000" y2="369.844" stroke="#3f3f46" stroke-width="1.4"/>
  <text x="82.000" y="376.844" text-anchor="end" fill="#52525b" font-family="'Lato', 'Avenir Next', 'Segoe UI', 'Helvetica Neue', sans-serif" font-size="21"></text>
  <line x1="104.000" y1="356.884" x2="96.000" y2="356.884" stroke="#3f3f46" stroke-width="1.4"/>
  <text x="82.000" y="363.884" text-anchor="end" fill="#52525b" font-family="'Lato', 'Avenir Next', 'Segoe UI', 'Helvetica Neue', sans-serif" font-size="21"></text>
  <line x1="104.000" y1="347.688" x2="96.000" y2="347.688" stroke="#3f3f46" stroke-width="1.4"/>
  <text x="82.000" y="354.688" text-anchor="end" fill="#52525b" font-family="'Lato', 'Avenir Next', 'Segoe UI', 'Helvetica Neue', sans-serif" font-size="21"></text>
  <line x1="104.000" y1="340.556" x2="96.000" y2="340.556" stroke="#3f3f46" stroke-width="1.4"/>
  <text x="82.000" y="347.556" text-anchor="end" fill="#52525b" font-family="'Lato', 'Avenir Next', 'Segoe UI', 'Helvetica Neue', sans-serif" font-size="21"></text>
  <line x1="104.000" y1="334.728" x2="96.000" y2="334.728" stroke="#3f3f46" stroke-width="1.4"/>
  <text x="82.000" y="341.728" text-anchor="end" fill="#52525b" font-family="'Lato', 'Avenir Next', 'Segoe UI', 'Helvetica Neue', sans-serif" font-size="21"></text>
  <line x1="104.000" y1="329.801" x2="96.000" y2="329.801" stroke="#3f3f46" stroke-width="1.4"/>
  <text x="82.000" y="336.801" text-anchor="end" fill="#52525b" font-family="'Lato', 'Avenir Next', 'Segoe UI', 'Helvetica Neue', sans-serif" font-size="21"></text>
  <line x1="104.000" y1="325.533" x2="96.000" y2="325.533" stroke="#3f3f46" stroke-width="1.4"/>
  <text x="82.000" y="332.533" text-anchor="end" fill="#52525b" font-family="'Lato', 'Avenir Next', 'Segoe UI', 'Helvetica Neue', sans-serif" font-size="21"></text>
  <line x1="104.000" y1="321.768" x2="96.000" y2="321.768" stroke="#3f3f46" stroke-width="1.4"/>
  <text x="82.000" y="328.768" text-anchor="end" fill="#52525b" font-family="'Lato', 'Avenir Next', 'Segoe UI', 'Helvetica Neue', sans-serif" font-size="21"></text>
  <line x1="104.000" y1="318.400" x2="96.000" y2="318.400" stroke="#3f3f46" stroke-width="1.4"/>
  <text x="82.000" y="325.400" text-anchor="end" fill="#52525b" font-family="'Lato', 'Avenir Next', 'Segoe UI', 'Helvetica Neue', sans-serif" font-size="21">10<tspan baseline-shift="super" font-size="65%">-4</tspan></text>
  <line x1="104.000" y1="296.244" x2="96.000" y2="296.244" stroke="#3f3f46" stroke-width="1.4"/>
  <text x="82.000" y="303.244" text-anchor="end" fill="#52525b" font-family="'Lato', 'Avenir Next', 'Segoe UI', 'Helvetica Neue', sans-serif" font-size="21"></text>
  <line x1="104.000" y1="283.284" x2="96.000" y2="283.284" stroke="#3f3f46" stroke-width="1.4"/>
  <text x="82.000" y="290.284" text-anchor="end" fill="#52525b" font-family="'Lato', 'Avenir Next', 'Segoe UI', 'Helvetica Neue', sans-serif" font-size="21"></text>
  <line x1="104.000" y1="274.088" x2="96.000" y2="274.088" stroke="#3f3f46" stroke-width="1.4"/>
  <text x="82.000" y="281.088" text-anchor="end" fill="#52525b" font-family="'Lato', 'Avenir Next', 'Segoe UI', 'Helvetica Neue', sans-serif" font-size="21"></text>
  <line x1="104.000" y1="266.956" x2="96.000" y2="266.956" stroke="#3f3f46" stroke-width="1.4"/>
  <text x="82.000" y="273.956" text-anchor="end" fill="#52525b" font-family="'Lato', 'Avenir Next', 'Segoe UI', 'Helvetica Neue', sans-serif" font-size="21"></text>
  <line x1="104.000" y1="261.128" x2="96.000" y2="261.128" stroke="#3f3f46" stroke-width="1.4"/>
  <text x="82.000" y="268.128" text-anchor="end" fill="#52525b" font-family="'Lato', 'Avenir Next', 'Segoe UI', 'Helvetica Neue', sans-serif" font-size="21"></text>
  <line x1="104.000" y1="256.201" x2="96.000" y2="256.201" stroke="#3f3f46" stroke-width="1.4"/>
  <text x="82.000" y="263.201" text-anchor="end" fill="#52525b" font-family="'Lato', 'Avenir Next', 'Segoe UI', 'Helvetica Neue', sans-serif" font-size="21"></text>
  <line x1="104.000" y1="251.933" x2="96.000" y2="251.933" stroke="#3f3f46" stroke-width="1.4"/>
  <text x="82.000" y="258.933" text-anchor="end" fill="#52525b" font-family="'Lato', 'Avenir Next', 'Segoe UI', 'Helvetica Neue', sans-serif" font-size="21"></text>
  <line x1="104.000" y1="248.168" x2="96.000" y2="248.168" stroke="#3f3f46" stroke-width="1.4"/>
  <text x="82.000" y="255.168" text-anchor="end" fill="#52525b" font-family="'Lato', 'Avenir Next', 'Segoe UI', 'Helvetica Neue', sans-serif" font-size="21"></text>
  <line x1="104.000" y1="244.800" x2="96.000" y2="244.800" stroke="#3f3f46" stroke-width="1.4"/>
  <text x="82.000" y="251.800" text-anchor="end" fill="#52525b" font-family="'Lato', 'Avenir Next', 'Segoe UI', 'Helvetica Neue', sans-serif" font-size="21">10<tspan baseline-shift="super" font-size="65%">-3</tspan></text>
  <line x1="104.000" y1="222.644" x2="96.000" y2="222.644" stroke="#3f3f46" stroke-width="1.4"/>
  <text x="82.000" y="229.644" text-anchor="end" fill="#52525b" font-family="'Lato', 'Avenir Next', 'Segoe UI', 'Helvetica Neue', sans-serif" font-size="21"></text>
  <line x1="104.000" y1="209.684" x2="96.000" y2="209.684" stroke="#3f3f46" stroke-width="1.4"/>
  <text x="82.000" y="216.684" text-anchor="end" fill="#52525b" font-family="'Lato', 'Avenir Next', 'Segoe UI', 'Helvetica Neue', sans-serif" font-size="21"></text>
  <line x1="104.000" y1="200.488" x2="96.000" y2="200.488" stroke="#3f3f46" stroke-width="1.4"/>
  <text x="82.000" y="207.488" text-anchor="end" fill="#52525b" font-family="'Lato', 'Avenir Next', 'Segoe UI', 'Helvetica Neue', sans-serif" font-size="21"></text>
  <line x1="104.000" y1="193.356" x2="96.000" y2="193.356" stroke="#3f3f46" stroke-width="1.4"/>
  <text x="82.000" y="200.356" text-anchor="end" fill="#52525b" font-family="'Lato', 'Avenir Next', 'Segoe UI', 'Helvetica Neue', sans-serif" font-size="21"></text>
  <line x1="104.000" y1="187.528" x2="96.000" y2="187.528" stroke="#3f3f46" stroke-width="1.4"/>
  <text x="82.000" y="194.528" text-anchor="end" fill="#52525b" font-family="'Lato', 'Avenir Next', 'Segoe UI', 'Helvetica Neue', sans-serif" font-size="21"></text>
  <line x1="104.000" y1="182.601" x2="96.000" y2="182.601" stroke="#3f3f46" stroke-width="1.4"/>
  <text x="82.000" y="189.601" text-anchor="end" fill="#52525b" font-family="'Lato', 'Avenir Next', 'Segoe UI', 'Helvetica Neue', sans-serif" font-size="21"></text>
  <line x1="104.000" y1="178.333" x2="96.000" y2="178.333" stroke="#3f3f46" stroke-width="1.4"/>
  <text x="82.000" y="185.333" text-anchor="end" fill="#52525b" font-family="'Lato', 'Avenir Next', 'Segoe UI', 'Helvetica Neue', sans-serif" font-size="21"></text>
  <line x1="104.000" y1="174.568" x2="96.000" y2="174.568" stroke="#3f3f46" stroke-width="1.4"/>
  <text x="82.000" y="181.568" text-anchor="end" fill="#52525b" font-family="'Lato', 'Avenir Next', 'Segoe UI', 'Helvetica Neue', sans-serif" font-size="21"></text>
  <line x1="104.000" y1="171.200" x2="96.000" y2="171.200" stroke="#3f3f46" stroke-width="1.4"/>
  <text x="82.000" y="178.200" text-anchor="end" fill="#52525b" font-family="'Lato', 'Avenir Next', 'Segoe UI', 'Helvetica Neue', sans-serif" font-size="21">10<tspan baseline-shift="super" font-size="65%">-2</tspan></text>
  <line x1="104.000" y1="149.044" x2="96.000" y2="149.044" stroke="#3f3f46" stroke-width="1.4"/>
  <text x="82.000" y="156.044" text-anchor="end" fill="#52525b" font-family="'Lato', 'Avenir Next', 'Segoe UI', 'Helvetica Neue', sans-serif" font-size="21"></text>
  <line x1="104.000" y1="136.084" x2="96.000" y2="136.084" stroke="#3f3f46" stroke-width="1.4"/>
  <text x="82.000" y="143.084" text-anchor="end" fill="#52525b" font-family="'Lato', 'Avenir Next', 'Segoe UI', 'Helvetica Neue', sans-serif" font-size="21"></text>
  <line x1="104.000" y1="126.888" x2="96.000" y2="126.888" stroke="#3f3f46" stroke-width="1.4"/>
  <text x="82.000" y="133.888" text-anchor="end" fill="#52525b" font-family="'Lato', 'Avenir Next', 'Segoe UI', 'Helvetica Neue', sans-serif" font-size="21"></text>
  <line x1="104.000" y1="119.756" x2="96.000" y2="119.756" stroke="#3f3f46" stroke-width="1.4"/>
  <text x="82.000" y="126.756" text-anchor="end" fill="#52525b" font-family="'Lato', 'Avenir Next', 'Segoe UI', 'Helvetica Neue', sans-serif" font-size="21"></text>
  <line x1="104.000" y1="113.928" x2="96.000" y2="113.928" stroke="#3f3f46" stroke-width="1.4"/>
  <text x="82.000" y="120.928" text-anchor="end" fill="#52525b" font-family="'Lato', 'Avenir Next', 'Segoe UI', 'Helvetica Neue', sans-serif" font-size="21"></text>
  <line x1="104.000" y1="109.001" x2="96.000" y2="109.001" stroke="#3f3f46" stroke-width="1.4"/>
  <text x="82.000" y="116.001" text-anchor="end" fill="#52525b" font-family="'Lato', 'Avenir Next', 'Segoe UI', 'Helvetica Neue', sans-serif" font-size="21"></text>
  <line x1="104.000" y1="104.733" x2="96.000" y2="104.733" stroke="#3f3f46" stroke-width="1.4"/>
  <text x="82.000" y="111.733" text-anchor="end" fill="#52525b" font-family="'Lato', 'Avenir Next', 'Segoe UI', 'Helvetica Neue', sans-serif" font-size="21"></text>
  <line x1="104.000" y1="100.968" x2="96.000" y2="100.968" stroke="#3f3f46" stroke-width="1.4"/>
  <text x="82.000" y="107.968" text-anchor="end" fill="#52525b" font-family="'Lato', 'Avenir Next', 'Segoe UI', 'Helvetica Neue', sans-serif" font-size="21"></text>
  <line x1="104.000" y1="97.600" x2="96.000" y2="97.600" stroke="#3f3f46" stroke-width="1.4"/>
  <text x="82.000" y="104.600" text-anchor="end" fill="#52525b" font-family="'Lato', 'Avenir Next', 'Segoe UI', 'Helvetica Neue', sans-serif" font-size="21">10<tspan baseline-shift="super" font-size="65%">-1</tspan></text>
  <line x1="104.000" y1="75.444" x2="96.000" y2="75.444" stroke="#3f3f46" stroke-width="1.4"/>
  <text x="82.000" y="82.444" text-anchor="end" fill="#52525b" font-family="'Lato', 'Avenir Next', 'Segoe UI', 'Helvetica Neue', sans-serif" font-size="21"></text>
  <line x1="104.000" y1="62.484" x2="96.000" y2="62.484" stroke="#3f3f46" stroke-width="1.4"/>
  <text x="82.000" y="69.484" text-anchor="end" fill="#52525b" font-family="'Lato', 'Avenir Next', 'Segoe UI', 'Helvetica Neue', sans-serif" font-size="21"></text>
  <line x1="104.000" y1="53.288" x2="96.000" y2="53.288" stroke="#3f3f46" stroke-width="1.4"/>
  <text x="82.000" y="60.288" text-anchor="end" fill="#52525b" font-family="'Lato', 'Avenir Next', 'Segoe UI', 'Helvetica Neue', sans-serif" font-size="21"></text>
  <line x1="104.000" y1="46.156" x2="96.000" y2="46.156" stroke="#3f3f46" stroke-width="1.4"/>
  <text x="82.000" y="53.156" text-anchor="end" fill="#52525b" font-family="'Lato', 'Avenir Next', 'Segoe UI', 'Helvetica Neue', sans-serif" font-size="21"></text>
  <line x1="104.000" y1="40.328" x2="96.000" y2="40.328" stroke="#3f3f46" stroke-width="1.4"/>
  <text x="82.000" y="47.328" text-anchor="end" fill="#52525b" font-family="'Lato', 'Avenir Next', 'Segoe UI', 'Helvetica Neue', sans-serif" font-size="21"></text>
  <line x1="104.000" y1="35.401" x2="96.000" y2="35.401" stroke="#3f3f46" stroke-width="1.4"/>
  <text x="82.000" y="42.401" text-anchor="end" fill="#52525b" font-family="'Lato', 'Avenir Next', 'Segoe UI', 'Helvetica Neue', sans-serif" font-size="21"></text>
  <line x1="104.000" y1="31.133" x2="96.000" y2="31.133" stroke="#3f3f46" stroke-width="1.4"/>
  <text x="82.000" y="38.133" text-anchor="end" fill="#52525b" font-family="'Lato', 'Avenir Next', 'Segoe UI', 'Helvetica Neue', sans-serif" font-size="21"></text>
  <line x1="104.000" y1="27.368" x2="96.000" y2="27.368" stroke="#3f3f46" stroke-width="1.4"/>
  <text x="82.000" y="34.368" text-anchor="end" fill="#52525b" font-family="'Lato', 'Avenir Next', 'Segoe UI', 'Helvetica Neue', sans-serif" font-size="21"></text>
  <line x1="104.000" y1="24.000" x2="96.000" y2="24.000" stroke="#3f3f46" stroke-width="1.4"/>
  <text x="82.000" y="31.000" text-anchor="end" fill="#52525b" font-family="'Lato', 'Avenir Next', 'Segoe UI', 'Helvetica Neue', sans-serif" font-size="21">10<tspan baseline-shift="super" font-size="65%">0</tspan></text>
  <text x="512.000" y="470.000" text-anchor="middle" fill="#111827" font-family="'Lato', 'Avenir Next', 'Segoe UI', 'Helvetica Neue', sans-serif" font-size="28" font-style="italic">K</text>
  <text x="30.0" y="208.000" text-anchor="middle" transform="rotate(0 30.0 208.000)" fill="#111827" font-family="'Lato', 'Avenir Next', 'Segoe UI', 'Helvetica Neue', sans-serif" font-size="28" font-style="italic">c<tspan baseline-shift="sub" font-size="65%">K</tspan></text>
</svg>
