<?xml version="1.0" encoding="UTF-8"?>
<svg xmlns="http://www.w3.org/2000/svg" width="960" height="480" viewBox="0 0 960 480" role="img" aria-label="Proximal-point rho versus gamma">
  <title>Proximal-point contraction factor vs step size</title>
  <desc>Rho vs gamma for proximal point: theoretical curve and AutoLyap points.</desc>
  <rect x="0" y="0" width="960" height="480" fill="#ffffff"/>
  <rect x="96.000" y="24.000" width="832.000" height="368.000" fill="#f8fafc"/>
  <defs>
    <clipPath id="plot-area-clip">
      <rect x="96.000" y="24.000" width="832.000" height="368.000"/>
    </clipPath>
  </defs>
  <style type="text/css"><![CDATA[
@font-face {
  font-family: 'Lato';
  src:
    url('css/fonts/lato-normal.woff2') format('woff2'),
    url('../_static/css/fonts/lato-normal.woff2') format('woff2'),
    url('css/fonts/lato-normal.woff') format('woff'),
    url('../_static/css/fonts/lato-normal.woff') format('woff');
  font-style: normal;
  font-weight: 400;
}
@font-face {
  font-family: 'Lato';
  src:
    url('css/fonts/lato-normal-italic.woff2') format('woff2'),
    url('../_static/css/fonts/lato-normal-italic.woff2') format('woff2'),
    url('css/fonts/lato-normal-italic.woff') format('woff'),
    url('../_static/css/fonts/lato-normal-italic.woff') format('woff');
  font-style: italic;
  font-weight: 400;
}
@font-face {
  font-family: 'Lato';
  src:
    url('css/fonts/lato-bold.woff2') format('woff2'),
    url('../_static/css/fonts/lato-bold.woff2') format('woff2'),
    url('css/fonts/lato-bold.woff') format('woff'),
    url('../_static/css/fonts/lato-bold.woff') format('woff');
  font-style: normal;
  font-weight: 700;
}
@font-face {
  font-family: 'Lato';
  src:
    url('css/fonts/lato-bold-italic.woff2') format('woff2'),
    url('../_static/css/fonts/lato-bold-italic.woff2') format('woff2'),
    url('css/fonts/lato-bold-italic.woff') format('woff'),
    url('../_static/css/fonts/lato-bold-italic.woff') format('woff');
  font-style: italic;
  font-weight: 700;
}
  ]]></style>
  <line x1="96.000" y1="24.000" x2="96.000" y2="392.000" stroke="#9ca3af" stroke-width="1.350"/>
  <line x1="262.400" y1="24.000" x2="262.400" y2="392.000" stroke="#9ca3af" stroke-width="1.350"/>
  <line x1="428.800" y1="24.000" x2="428.800" y2="392.000" stroke="#9ca3af" stroke-width="1.350"/>
  <line x1="595.200" y1="24.000" x2="595.200" y2="392.000" stroke="#9ca3af" stroke-width="1.350"/>
  <line x1="761.600" y1="24.000" x2="761.600" y2="392.000" stroke="#9ca3af" stroke-width="1.350"/>
  <line x1="928.000" y1="24.000" x2="928.000" y2="392.000" stroke="#9ca3af" stroke-width="1.350"/>
  <line x1="96.000" y1="392.000" x2="928.000" y2="392.000" stroke="#9ca3af" stroke-width="1.350"/>
  <line x1="96.000" y1="318.400" x2="928.000" y2="318.400" stroke="#9ca3af" stroke-width="1.350"/>
  <line x1="96.000" y1="244.800" x2="928.000" y2="244.800" stroke="#9ca3af" stroke-width="1.350"/>
  <line x1="96.000" y1="171.200" x2="928.000" y2="171.200" stroke="#9ca3af" stroke-width="1.350"/>
  <line x1="96.000" y1="97.600" x2="928.000" y2="97.600" stroke="#9ca3af" stroke-width="1.350"/>
  <line x1="96.000" y1="24.000" x2="928.000" y2="24.000" stroke="#9ca3af" stroke-width="1.350"/>
  <g clip-path="url(#plot-area-clip)">
    <g fill="#5fa8e8" fill-opacity="0.900">
    <circle cx="104.320" cy="58.213" r="4.500"/>
    <circle cx="112.640" cy="87.868" r="4.500"/>
    <circle cx="120.960" cy="113.739" r="4.500"/>
    <circle cx="129.280" cy="136.444" r="4.500"/>
    <circle cx="137.600" cy="156.480" r="4.500"/>
    <circle cx="145.920" cy="174.249" r="4.500"/>
    <circle cx="154.240" cy="190.080" r="4.500"/>
    <circle cx="162.560" cy="204.245" r="4.500"/>
    <circle cx="170.880" cy="216.970" r="4.500"/>
    <circle cx="179.200" cy="228.444" r="4.500"/>
    <circle cx="187.520" cy="238.826" r="4.500"/>
    <circle cx="195.840" cy="248.250" r="4.500"/>
    <circle cx="204.160" cy="256.830" r="4.500"/>
    <circle cx="212.480" cy="264.664" r="4.500"/>
    <circle cx="220.800" cy="271.837" r="4.500"/>
    <circle cx="229.120" cy="278.420" r="4.500"/>
    <circle cx="237.440" cy="284.476" r="4.500"/>
    <circle cx="245.760" cy="290.061" r="4.500"/>
    <circle cx="254.080" cy="295.222" r="4.500"/>
    <circle cx="262.400" cy="300.000" r="4.500"/>
    <circle cx="270.720" cy="304.433" r="4.500"/>
    <circle cx="279.040" cy="308.553" r="4.500"/>
    <circle cx="287.360" cy="312.389" r="4.500"/>
    <circle cx="295.680" cy="315.967" r="4.500"/>
    <circle cx="304.000" cy="319.309" r="4.500"/>
    <circle cx="312.320" cy="322.435" r="4.500"/>
    <circle cx="320.640" cy="325.364" r="4.500"/>
    <circle cx="328.960" cy="328.111" r="4.500"/>
    <circle cx="337.280" cy="330.692" r="4.500"/>
    <circle cx="345.600" cy="333.120" r="4.500"/>
    <circle cx="353.920" cy="335.406" r="4.500"/>
    <circle cx="362.240" cy="337.562" r="4.500"/>
    <circle cx="370.560" cy="339.597" r="4.500"/>
    <circle cx="378.880" cy="341.520" r="4.500"/>
    <circle cx="387.200" cy="343.339" r="4.500"/>
    <circle cx="395.520" cy="345.061" r="4.500"/>
    <circle cx="403.840" cy="346.694" r="4.500"/>
    <circle cx="412.160" cy="348.243" r="4.500"/>
    <circle cx="420.480" cy="349.713" r="4.500"/>
    <circle cx="428.800" cy="351.111" r="4.500"/>
    <circle cx="437.120" cy="352.441" r="4.500"/>
    <circle cx="445.440" cy="353.707" r="4.500"/>
    <circle cx="453.760" cy="354.913" r="4.500"/>
    <circle cx="462.080" cy="356.063" r="4.500"/>
    <circle cx="470.400" cy="357.160" r="4.500"/>
    <circle cx="478.720" cy="358.208" r="4.500"/>
    <circle cx="487.040" cy="359.209" r="4.500"/>
    <circle cx="495.360" cy="360.166" r="4.500"/>
    <circle cx="503.680" cy="361.082" r="4.500"/>
    <circle cx="512.000" cy="361.959" r="4.500"/>
    <circle cx="520.320" cy="362.799" r="4.500"/>
    <circle cx="528.640" cy="363.605" r="4.500"/>
    <circle cx="536.960" cy="364.378" r="4.500"/>
    <circle cx="545.280" cy="365.119" r="4.500"/>
    <circle cx="553.600" cy="365.831" r="4.500"/>
    <circle cx="561.920" cy="366.515" r="4.500"/>
    <circle cx="570.240" cy="367.173" r="4.500"/>
    <circle cx="578.560" cy="367.805" r="4.500"/>
    <circle cx="586.880" cy="368.414" r="4.500"/>
    <circle cx="595.200" cy="369.000" r="4.500"/>
    <circle cx="603.520" cy="369.564" r="4.500"/>
    <circle cx="611.840" cy="370.108" r="4.500"/>
    <circle cx="620.160" cy="370.633" r="4.500"/>
    <circle cx="628.480" cy="371.138" r="4.500"/>
    <circle cx="636.800" cy="371.626" r="4.500"/>
    <circle cx="645.120" cy="372.097" r="4.500"/>
    <circle cx="653.440" cy="372.552" r="4.500"/>
    <circle cx="661.760" cy="372.992" r="4.500"/>
    <circle cx="670.080" cy="373.416" r="4.500"/>
    <circle cx="678.400" cy="373.827" r="4.500"/>
    <circle cx="686.720" cy="374.224" r="4.500"/>
    <circle cx="695.040" cy="374.609" r="4.500"/>
    <circle cx="703.360" cy="374.981" r="4.500"/>
    <circle cx="711.680" cy="375.341" r="4.500"/>
    <circle cx="720.000" cy="375.690" r="4.500"/>
    <circle cx="728.320" cy="376.028" r="4.500"/>
    <circle cx="736.640" cy="376.355" r="4.500"/>
    <circle cx="744.960" cy="376.673" r="4.500"/>
    <circle cx="753.280" cy="376.981" r="4.500"/>
    <circle cx="761.600" cy="377.280" r="4.500"/>
    <circle cx="769.920" cy="377.570" r="4.500"/>
    <circle cx="778.240" cy="377.852" r="4.500"/>
    <circle cx="786.560" cy="378.125" r="4.500"/>
    <circle cx="794.880" cy="378.391" r="4.500"/>
    <circle cx="803.200" cy="378.649" r="4.500"/>
    <circle cx="811.520" cy="378.899" r="4.500"/>
    <circle cx="819.840" cy="379.143" r="4.500"/>
    <circle cx="828.160" cy="379.380" r="4.500"/>
    <circle cx="836.480" cy="379.610" r="4.500"/>
    <circle cx="844.800" cy="379.835" r="4.500"/>
    <circle cx="853.120" cy="380.053" r="4.500"/>
    <circle cx="861.440" cy="380.265" r="4.500"/>
    <circle cx="869.760" cy="380.472" r="4.500"/>
    <circle cx="878.080" cy="380.673" r="4.500"/>
    <circle cx="886.400" cy="380.870" r="4.500"/>
    <circle cx="894.720" cy="381.061" r="4.500"/>
    <circle cx="903.040" cy="381.247" r="4.500"/>
    <circle cx="911.360" cy="381.428" r="4.500"/>
    <circle cx="919.680" cy="381.605" r="4.500"/>
    <circle cx="928.000" cy="381.778" r="4.500"/>
    </g>
    <polyline points="96.000,24.000 96.083,24.368 96.084,24.371 96.084,24.373 96.085,24.376 96.086,24.379 96.086,24.382 96.087,24.385 96.088,24.388 96.088,24.391 96.089,24.394 96.090,24.397 96.091,24.400 96.091,24.403 96.092,24.406 96.093,24.409 96.093,24.413 96.094,24.416 96.095,24.419 96.096,24.422 96.096,24.425 96.097,24.429 96.098,24.432 96.099,24.435 96.099,24.439 96.100,24.442 96.101,24.446 96.102,24.449 96.102,24.452 96.103,24.456 96.104,24.459 96.105,24.463 96.106,24.467 96.106,24.470 96.107,24.474 96.108,24.477 96.109,24.481 96.110,24.485 96.111,24.488 96.111,24.492 96.112,24.496 96.113,24.500 96.114,24.504 96.115,24.508 96.116,24.512 96.117,24.515 96.118,24.519 96.118,24.523 96.119,24.527 96.120,24.532 96.121,24.536 96.122,24.540 96.123,24.544 96.124,24.548 96.125,24.552 96.126,24.557 96.127,24.561 96.128,24.565 96.129,24.570 96.130,24.574 96.131,24.578 96.132,24.583 96.133,24.587 96.134,24.592 96.135,24.596 96.136,24.601 96.137,24.606 96.138,24.610 96.139,24.615 96.140,24.620 96.141,24.624 96.142,24.629 96.144,24.634 96.145,24.639 96.146,24.644 96.147,24.649 96.148,24.654 96.149,24.659 96.150,24.664 96.151,24.669 96.153,24.674 96.154,24.679 96.155,24.685 96.156,24.690 96.157,24.695 96.159,24.701 96.160,24.706 96.161,24.711 96.162,24.717 96.164,24.722 96.165,24.728 96.166,24.734 96.167,24.739 96.169,24.745 96.170,24.751 96.171,24.756 96.173,24.762 96.174,24.768 96.175,24.774 96.177,24.780 96.178,24.786 96.179,24.792 96.181,24.798 96.182,24.804 96.184,24.810 96.185,24.817 96.186,24.823 96.188,24.829 96.189,24.836 96.191,24.842 96.192,24.849 96.194,24.855 96.195,24.862 96.197,24.868 96.198,24.875 96.200,24.882 96.201,24.889 96.203,24.895 96.204,24.902 96.206,24.909 96.208,24.916 96.209,24.923 96.211,24.930 96.212,24.938 96.214,24.945 96.216,24.952 96.217,24.959 96.219,24.967 96.221,24.974 96.222,24.982 96.224,24.989 96.226,24.997 96.228,25.005 96.229,25.012 96.231,25.020 96.233,25.028 96.235,25.036 96.237,25.044 96.238,25.052 96.240,25.060 96.242,25.068 96.244,25.076 96.246,25.085 96.248,25.093 96.250,25.101 96.251,25.110 96.253,25.118 96.255,25.127 96.257,25.136 96.259,25.144 96.261,25.153 96.263,25.162 96.265,25.171 96.267,25.180 96.269,25.189 96.272,25.198 96.274,25.207 96.276,25.217 96.278,25.226 96.280,25.236 96.282,25.245 96.284,25.255 96.287,25.264 96.289,25.274 96.291,25.284 96.293,25.294 96.296,25.304 96.298,25.314 96.300,25.324 96.302,25.334 96.305,25.344 96.307,25.355 96.309,25.365 96.312,25.375 96.314,25.386 96.317,25.397 96.319,25.407 96.322,25.418 96.324,25.429 96.327,25.440 96.329,25.451 96.332,25.462 96.334,25.474 96.337,25.485 96.339,25.496 96.342,25.508 96.345,25.519 96.347,25.531 96.350,25.543 96.353,25.555 96.355,25.567 96.358,25.579 96.361,25.591 96.364,25.603 96.366,25.615 96.369,25.628 96.372,25.640 96.375,25.653 96.378,25.666 96.381,25.678 96.384,25.691 96.387,25.704 96.390,25.717 96.393,25.731 96.396,25.744 96.399,25.757 96.402,25.771 96.405,25.784 96.408,25.798 96.411,25.812 96.414,25.826 96.418,25.840 96.421,25.854 96.424,25.868 96.427,25.883 96.431,25.897 96.434,25.912 96.437,25.926 96.441,25.941 96.444,25.956 96.447,25.971 96.451,25.986 96.454,26.001 96.458,26.017 96.461,26.032 96.465,26.048 96.469,26.064 96.472,26.080 96.476,26.095 96.479,26.112 96.483,26.128 96.487,26.144 96.491,26.161 96.494,26.177 96.498,26.194 96.502,26.211 96.506,26.228 96.510,26.245 96.514,26.262 96.518,26.279 96.522,26.297 96.526,26.315 96.530,26.332 96.534,26.350 96.538,26.368 96.542,26.386 96.546,26.405 96.551,26.423 96.555,26.442 96.559,26.460 96.563,26.479 96.568,26.498 96.572,26.518 96.577,26.537 96.581,26.556 96.585,26.576 96.590,26.596 96.595,26.616 96.599,26.636 96.604,26.656 96.608,26.676 96.613,26.697 96.618,26.717 96.623,26.738 96.627,26.759 96.632,26.780 96.637,26.802 96.642,26.823 96.647,26.845 96.652,26.867 96.657,26.889 96.662,26.911 96.667,26.933 96.672,26.956 96.677,26.978 96.683,27.001 96.688,27.024 96.693,27.047 96.699,27.071 96.704,27.094 96.709,27.118 96.715,27.142 96.720,27.166 96.726,27.190 96.732,27.214 96.737,27.239 96.743,27.264 96.749,27.289 96.754,27.314 96.760,27.339 96.766,27.365 96.772,27.391 96.778,27.417 96.784,27.443 96.790,27.469 96.796,27.496 96.802,27.523 96.808,27.550 96.815,27.577 96.821,27.604 96.827,27.632 96.834,27.660 96.840,27.688 96.847,27.716 96.853,27.744 96.860,27.773 96.866,27.802 96.873,27.831 96.880,27.860 96.886,27.890 96.893,27.919 96.900,27.949 96.907,27.980 96.914,28.010 96.921,28.041 96.928,28.072 96.935,28.103 96.943,28.134 96.950,28.166 96.957,28.198 96.965,28.230 96.972,28.262 96.980,28.295 96.987,28.327 96.995,28.360 97.002,28.394 97.010,28.427 97.018,28.461 97.026,28.495 97.034,28.530 97.042,28.564 97.050,28.599 97.058,28.634 97.066,28.670 97.074,28.705 97.082,28.741 97.091,28.777 97.099,28.814 97.108,28.851 97.116,28.888 97.125,28.925 97.133,28.963 97.142,29.000 97.151,29.039 97.160,29.077 97.169,29.116 97.178,29.155 97.187,29.194 97.196,29.234 97.205,29.274 97.215,29.314 97.224,29.354 97.233,29.395 97.243,29.436 97.252,29.478 97.262,29.520 97.272,29.562 97.282,29.604 97.292,29.647 97.302,29.690 97.312,29.733 97.322,29.777 97.332,29.821 97.342,29.865 97.352,29.910 97.363,29.955 97.373,30.000 97.384,30.046 97.395,30.092 97.405,30.139 97.416,30.185 97.427,30.232 97.438,30.280 97.449,30.328 97.460,30.376 97.472,30.424 97.483,30.473 97.495,30.522 97.506,30.572 97.518,30.622 97.529,30.672 97.541,30.723 97.553,30.774 97.565,30.826 97.577,30.878 97.589,30.930 97.602,30.983 97.614,31.036 97.626,31.089 97.639,31.143 97.651,31.197 97.664,31.252 97.677,31.307 97.690,31.363 97.703,31.418 97.716,31.475 97.729,31.532 97.743,31.589 97.756,31.646 97.770,31.704 97.783,31.763 97.797,31.822 97.811,31.881 97.825,31.941 97.839,32.001 97.853,32.062 97.867,32.123 97.882,32.184 97.896,32.247 97.911,32.309 97.926,32.372 97.941,32.435 97.956,32.499 97.971,32.564 97.986,32.629 98.001,32.694 98.017,32.760 98.032,32.826 98.048,32.893 98.064,32.960 98.079,33.028 98.096,33.096 98.112,33.165 98.128,33.235 98.144,33.304 98.161,33.375 98.178,33.446 98.194,33.517 98.211,33.589 98.228,33.662 98.246,33.735 98.263,33.808 98.280,33.882 98.298,33.957 98.316,34.032 98.333,34.108 98.351,34.184 98.370,34.261 98.388,34.339 98.406,34.417 98.425,34.495 98.444,34.574 98.462,34.654 98.481,34.734 98.500,34.815 98.520,34.897 98.539,34.979 98.559,35.062 98.578,35.145 98.598,35.229 98.618,35.314 98.639,35.399 98.659,35.485 98.679,35.571 98.700,35.658 98.721,35.746 98.742,35.834 98.763,35.923 98.784,36.013 98.806,36.103 98.827,36.194 98.849,36.286 98.871,36.378 98.893,36.471 98.916,36.565 98.938,36.660 98.961,36.755 98.984,36.850 99.007,36.947 99.030,37.044 99.053,37.142 99.077,37.240 99.101,37.340 99.124,37.440 99.149,37.541 99.173,37.642 99.197,37.744 99.222,37.847 99.247,37.951 99.272,38.055 99.297,38.161 99.322,38.267 99.348,38.374 99.374,38.481 99.400,38.589 99.426,38.698 99.453,38.808 99.479,38.919 99.506,39.031 99.533,39.143 99.560,39.256 99.588,39.370 99.615,39.485 99.643,39.600 99.671,39.717 99.700,39.834 99.728,39.952 99.757,40.071 99.786,40.191 99.815,40.311 99.845,40.433 99.874,40.555 99.904,40.679 99.934,40.803 99.964,40.928 99.995,41.054 100.026,41.181 100.057,41.309 100.088,41.437 100.120,41.567 100.152,41.697 100.184,41.829 100.216,41.961 100.248,42.095 100.281,42.229 100.314,42.364 100.347,42.500 100.381,42.638 100.415,42.776 100.449,42.915 100.483,43.055 100.518,43.196 100.552,43.338 100.587,43.482 100.623,43.626 100.659,43.771 100.694,43.917 100.731,44.064 100.767,44.213 100.804,44.362 100.841,44.512 100.878,44.664 100.916,44.816 100.954,44.970 100.992,45.125 101.030,45.280 101.069,45.437 101.108,45.595 101.148,45.754 101.187,45.914 101.227,46.076 101.268,46.238 101.308,46.402 101.349,46.566 101.391,46.732 101.432,46.899 101.474,47.068 101.516,47.237 101.559,47.407 101.602,47.579 101.645,47.752 101.688,47.926 101.732,48.102 101.776,48.278 101.821,48.456 101.866,48.635 101.911,48.815 101.957,48.997 102.003,49.179 102.049,49.363 102.096,49.549 102.143,49.735 102.190,49.923 102.238,50.112 102.286,50.303 102.334,50.494 102.383,50.687 102.432,50.882 102.482,51.078 102.532,51.275 102.582,51.473 102.633,51.673 102.684,51.874 102.736,52.076 102.788,52.280 102.840,52.485 102.893,52.692 102.946,52.900 102.999,53.110 103.053,53.320 103.108,53.533 103.163,53.747 103.218,53.962 103.273,54.178 103.330,54.396 103.386,54.616 103.443,54.837 103.500,55.060 103.558,55.284 103.617,55.509 103.675,55.736 103.734,55.965 103.794,56.195 103.854,56.426 103.915,56.659 103.976,56.894 104.037,57.130 104.099,57.368 104.162,57.608 104.225,57.849 104.288,58.091 104.352,58.335 104.416,58.581 104.481,58.829 104.547,59.078 104.613,59.328 104.679,59.581 104.746,59.835 104.813,60.090 104.881,60.348 104.950,60.607 105.019,60.868 105.088,61.130 105.159,61.394 105.229,61.660 105.300,61.927 105.372,62.197 105.444,62.468 105.517,62.741 105.591,63.015 105.664,63.291 105.739,63.569 105.814,63.849 105.890,64.131 105.966,64.415 106.043,64.700 106.120,64.987 106.198,65.276 106.277,65.567 106.356,65.859 106.436,66.154 106.517,66.450 106.598,66.749 106.679,67.049 106.762,67.351 106.845,67.655 106.928,67.960 107.013,68.268 107.098,68.578 107.183,68.890 107.269,69.203 107.356,69.519 107.444,69.836 107.532,70.156 107.621,70.477 107.711,70.801 107.801,71.126 107.892,71.453 107.984,71.783 108.076,72.114 108.169,72.448 108.263,72.784 108.358,73.121 108.453,73.461 108.549,73.803 108.646,74.147 108.743,74.493 108.841,74.841 108.940,75.191 109.040,75.543 109.141,75.897 109.242,76.254 109.344,76.613 109.447,76.973 109.551,77.336 109.655,77.701 109.761,78.069 109.867,78.438 109.974,78.810 110.081,79.184 110.190,79.560 110.299,79.938 110.410,80.319 110.521,80.701 110.633,81.086 110.746,81.474 110.859,81.863 110.974,82.255 111.089,82.649 111.206,83.045 111.323,83.444 111.441,83.844 111.560,84.248 111.680,84.653 111.801,85.061 111.923,85.471 112.046,85.883 112.170,86.298 112.294,86.715 112.420,87.135 112.546,87.557 112.674,87.981 112.803,88.408 112.932,88.837 113.063,89.268 113.194,89.702 113.327,90.138 113.461,90.576 113.595,91.017 113.731,91.461 113.868,91.907 114.005,92.355 114.144,92.806 114.284,93.259 114.425,93.714 114.567,94.172 114.710,94.633 114.855,95.096 115.000,95.561 115.147,96.029 115.294,96.500 115.443,96.973 115.593,97.448 115.744,97.926 115.896,98.407 116.050,98.890 116.204,99.375 116.360,99.863 116.517,100.354 116.675,100.847 116.835,101.343 116.995,101.841 117.157,102.341 117.320,102.845 117.485,103.351 117.651,103.859 117.818,104.370 117.986,104.883 118.155,105.400 118.326,105.918 118.498,106.439 118.672,106.963 118.847,107.490 119.023,108.019 119.200,108.550 119.379,109.084 119.560,109.621 119.741,110.160 119.924,110.702 120.109,111.247 120.295,111.794 120.482,112.344 120.671,112.896 120.861,113.451 121.053,114.009 121.246,114.569 121.441,115.132 121.637,115.697 121.834,116.265 122.034,116.836 122.234,117.409 122.437,117.985 122.641,118.563 122.846,119.144 123.053,119.728 123.262,120.314 123.472,120.903 123.684,121.495 123.897,122.089 124.112,122.685 124.329,123.285 124.548,123.886 124.768,124.491 124.990,125.098 125.213,125.708 125.438,126.320 125.665,126.935 125.894,127.552 126.125,128.172 126.357,128.795 126.591,129.420 126.827,130.048 127.065,130.678 127.304,131.311 127.546,131.947 127.789,132.584 128.034,133.225 128.281,133.868 128.530,134.514 128.781,135.162 129.034,135.813 129.288,136.466 129.545,137.121 129.804,137.780 130.064,138.440 130.327,139.104 130.592,139.769 130.858,140.437 131.127,141.108 131.398,141.781 131.671,142.457 131.946,143.135 132.223,143.815 132.503,144.498 132.784,145.183 133.068,145.871 133.354,146.561 133.642,147.254 133.932,147.948 134.225,148.646 134.519,149.345 134.816,150.047 135.116,150.751 135.417,151.458 135.721,152.167 136.028,152.878 136.336,153.592 136.647,154.307 136.961,155.025 137.277,155.746 137.595,156.468 137.916,157.193 138.239,157.920 138.564,158.649 138.893,159.380 139.223,160.114 139.557,160.850 139.893,161.587 140.231,162.327 140.572,163.069 140.916,163.813 141.262,164.560 141.611,165.308 141.963,166.058 142.317,166.810 142.675,167.565 143.035,168.321 143.397,169.079 143.763,169.840 144.131,170.602 144.502,171.366 144.876,172.132 145.253,172.900 145.633,173.669 146.016,174.441 146.401,175.214 146.790,175.989 147.182,176.766 147.576,177.545 147.974,178.326 148.375,179.108 148.779,179.892 149.186,180.677 149.596,181.464 150.009,182.253 150.426,183.044 150.845,183.836 151.268,184.629 151.694,185.424 152.124,186.221 152.557,187.019 152.993,187.819 153.432,188.620 153.875,189.422 154.321,190.226 154.771,191.031 155.224,191.838 155.681,192.645 156.141,193.455 156.605,194.265 157.072,195.077 157.543,195.890 158.018,196.704 158.496,197.519 158.978,198.335 159.464,199.153 159.953,199.971 160.446,200.791 160.943,201.611 161.444,202.433 161.949,203.256 162.457,204.079 162.970,204.904 163.486,205.729 164.006,206.555 164.531,207.382 165.059,208.210 165.592,209.038 166.129,209.868 166.669,210.698 167.214,211.528 167.763,212.359 168.317,213.191 168.874,214.024 169.436,214.857 170.003,215.690 170.573,216.525 171.148,217.359 171.728,218.194 172.312,219.029 172.900,219.865 173.493,220.701 174.091,221.537 174.693,222.374 175.300,223.211 175.911,224.048 176.528,224.885 177.149,225.722 177.774,226.560 178.405,227.397 179.040,228.235 179.681,229.073 180.326,229.910 180.976,230.748 181.632,231.585 182.292,232.422 182.957,233.260 183.628,234.096 184.304,234.933 184.984,235.770 185.671,236.606 186.362,237.442 187.059,238.277 187.761,239.112 188.469,239.947 189.182,240.781 189.900,241.615 190.624,242.448 191.354,243.281 192.089,244.113 192.830,244.944 193.577,245.775 194.329,246.605 195.088,247.434 195.852,248.263 196.622,249.091 197.398,249.917 198.180,250.744 198.968,251.569 199.762,252.393 200.562,253.216 201.368,254.039 202.181,254.860 202.999,255.680 203.824,256.499 204.656,257.317 205.494,258.134 206.338,258.949 207.189,259.764 208.046,260.577 208.910,261.389 209.781,262.199 210.658,263.008 211.543,263.816 212.434,264.623 213.331,265.427 214.236,266.231 215.148,267.033 216.067,267.833 216.993,268.632 217.926,269.429 218.866,270.224 219.813,271.018 220.768,271.810 221.730,272.601 222.700,273.389 223.677,274.176 224.661,274.961 225.653,275.744 226.653,276.526 227.661,277.305 228.676,278.082 229.699,278.858 230.730,279.631 231.769,280.402 232.816,281.172 233.871,281.939 234.934,282.704 236.005,283.467 237.085,284.228 238.173,284.987 239.269,285.743 240.374,286.497 241.487,287.249 242.609,287.998 243.740,288.746 244.879,289.491 246.027,290.233 247.184,290.973 248.350,291.711 249.525,292.446 250.709,293.179 251.902,293.909 253.104,294.637 254.315,295.362 255.536,296.084 256.766,296.804 258.006,297.522 259.255,298.236 260.514,298.948 261.783,299.658 263.061,300.364 264.349,301.068 265.648,301.770 266.956,302.468 268.274,303.164 269.603,303.857 270.941,304.547 272.290,305.234 273.650,305.918 275.020,306.599 276.400,307.278 277.791,307.954 279.193,308.626 280.606,309.296 282.029,309.963 283.464,310.627 284.909,311.287 286.366,311.945 287.834,312.600 289.313,313.252 290.804,313.900 292.306,314.546 293.820,315.188 295.345,315.828 296.883,316.464 298.432,317.097 299.993,317.727 301.566,318.354 303.151,318.978 304.748,319.598 306.358,320.216 307.980,320.830 309.615,321.441 311.262,322.049 312.922,322.653 314.595,323.254 316.280,323.852 317.979,324.447 319.691,325.039 321.416,325.627 323.154,326.212 324.906,326.794 326.671,327.372 328.449,327.947 330.242,328.519 332.048,329.088 333.868,329.653 335.703,330.215 337.551,330.774 339.414,331.329 341.291,331.881 343.182,332.430 345.088,332.975 347.009,333.517 348.945,334.056 350.895,334.591 352.861,335.123 354.842,335.651 356.838,336.177 358.849,336.699 360.876,337.217 362.918,337.732 364.977,338.244 367.051,338.753 369.141,339.258 371.247,339.760 373.370,340.258 375.509,340.754 377.664,341.246 379.836,341.734 382.025,342.219 384.230,342.701 386.453,343.180 388.693,343.655 390.950,344.127 393.224,344.595 395.516,345.060 397.826,345.522 400.153,345.981 402.499,346.436 404.862,346.888 407.244,347.337 409.644,347.783 412.063,348.225 414.500,348.664 416.956,349.100 419.431,349.532 421.925,349.961 424.438,350.387 426.971,350.810 429.523,351.229 432.095,351.646 434.687,352.059 437.298,352.469 439.930,352.875 442.582,353.279 445.255,353.679 447.948,354.076 450.662,354.470 453.397,354.861 456.153,355.249 458.930,355.634 461.729,356.015 464.549,356.393 467.391,356.769 470.255,357.141 473.141,357.510 476.049,357.876 478.980,358.239 481.933,358.600 484.909,358.957 487.908,359.311 490.930,359.662 493.976,360.010 497.044,360.355 500.137,360.697 503.253,361.036 506.394,361.372 509.559,361.706 512.748,362.036 515.961,362.364 519.200,362.688 522.463,363.010 525.752,363.329 529.066,363.645 532.405,363.959 535.770,364.269 539.162,364.577 542.579,364.882 546.023,365.184 549.493,365.483 552.990,365.780 556.514,366.074 560.065,366.365 563.643,366.654 567.250,366.939 570.883,367.223 574.545,367.503 578.236,367.781 581.954,368.057 585.702,368.329 589.478,368.599 593.283,368.867 597.118,369.132 600.982,369.394 604.876,369.654 608.800,369.912 612.755,370.167 616.739,370.419 620.755,370.669 624.801,370.917 628.879,371.162 632.988,371.405 637.129,371.645 641.302,371.883 645.507,372.119 649.744,372.352 654.014,372.583 658.317,372.812 662.654,373.038 667.023,373.262 671.427,373.484 675.864,373.703 680.335,373.921 684.841,374.136 689.382,374.349 693.958,374.559 698.569,374.768 703.215,374.974 707.898,375.179 712.616,375.381 717.371,375.581 722.163,375.779 726.991,375.974 731.857,376.168 736.760,376.360 741.701,376.550 746.680,376.738 751.698,376.923 756.754,377.107 761.849,377.289 766.984,377.469 772.158,377.647 777.372,377.823 782.626,377.997 787.921,378.169 793.257,378.339 798.633,378.508 804.052,378.675 809.512,378.839 815.014,379.002 820.558,379.164 826.145,379.323 831.776,379.481 837.450,379.637 843.167,379.791 848.929,379.944 854.735,380.095 860.586,380.244 866.481,380.391 872.423,380.537 878.410,380.681 884.443,380.824 890.523,380.965 896.650,381.104 902.824,381.242 909.046,381.378 915.315,381.513 921.633,381.646 928.000,381.778" fill="none" stroke="#000000" stroke-width="2.800" stroke-opacity="1.000"/>
  </g>
  <rect x="96.000" y="24.000" width="832.000" height="368.000" fill="none" stroke="#3f3f46" stroke-width="1.8"/>
  <rect x="718.500" y="40.000" width="193.500" height="82.000" rx="6" ry="6" fill="#ffffff" fill-opacity="0.94" stroke="#000000" stroke-width="1.2"/>
  <line x1="732.500" y1="66.000" x2="772.500" y2="66.000" stroke="#000000" stroke-width="2.800" stroke-opacity="1.000"/>
  <text x="782.500" y="73.000" text-anchor="start" fill="#111827" font-family="'Lato', 'Avenir Next', 'Segoe UI', 'Helvetica Neue', sans-serif" font-size="20.0">Theoretical</text>
  <circle cx="752.500" cy="96.000" r="4.500" fill="#5fa8e8" fill-opacity="1.000"/>
  <text x="782.500" y="103.000" text-anchor="start" fill="#111827" font-family="'Lato', 'Avenir Next', 'Segoe UI', 'Helvetica Neue', sans-serif" font-size="20.0">AutoLyap</text>
  <line x1="96.000" y1="392.000" x2="96.000" y2="384.000" stroke="#3f3f46" stroke-width="1.4"/>
  <text x="96.000" y="438.000" text-anchor="middle" fill="#52525b" font-family="'Lato', 'Avenir Next', 'Segoe UI', 'Helvetica Neue', sans-serif" font-size="21">0</text>
  <line x1="262.400" y1="392.000" x2="262.400" y2="384.000" stroke="#3f3f46" stroke-width="1.4"/>
  <text x="262.400" y="438.000" text-anchor="middle" fill="#52525b" font-family="'Lato', 'Avenir Next', 'Segoe UI', 'Helvetica Neue', sans-serif" font-size="21">1</text>
  <line x1="428.800" y1="392.000" x2="428.800" y2="384.000" stroke="#3f3f46" stroke-width="1.4"/>
  <text x="428.800" y="438.000" text-anchor="middle" fill="#52525b" font-family="'Lato', 'Avenir Next', 'Segoe UI', 'Helvetica Neue', sans-serif" font-size="21">2</text>
  <line x1="595.200" y1="392.000" x2="595.200" y2="384.000" stroke="#3f3f46" stroke-width="1.4"/>
  <text x="595.200" y="438.000" text-anchor="middle" fill="#52525b" font-family="'Lato', 'Avenir Next', 'Segoe UI', 'Helvetica Neue', sans-serif" font-size="21">3</text>
  <line x1="761.600" y1="392.000" x2="761.600" y2="384.000" stroke="#3f3f46" stroke-width="1.4"/>
  <text x="761.600" y="438.000" text-anchor="middle" fill="#52525b" font-family="'Lato', 'Avenir Next', 'Segoe UI', 'Helvetica Neue', sans-serif" font-size="21">4</text>
  <line x1="928.000" y1="392.000" x2="928.000" y2="384.000" stroke="#3f3f46" stroke-width="1.4"/>
  <text x="928.000" y="438.000" text-anchor="middle" fill="#52525b" font-family="'Lato', 'Avenir Next', 'Segoe UI', 'Helvetica Neue', sans-serif" font-size="21">5</text>
  <line x1="104.000" y1="392.000" x2="96.000" y2="392.000" stroke="#3f3f46" stroke-width="1.4"/>
  <text x="82.000" y="399.000" text-anchor="end" fill="#52525b" font-family="'Lato', 'Avenir Next', 'Segoe UI', 'Helvetica Neue', sans-serif" font-size="21">0</text>
  <line x1="104.000" y1="318.400" x2="96.000" y2="318.400" stroke="#3f3f46" stroke-width="1.4"/>
  <text x="82.000" y="325.400" text-anchor="end" fill="#52525b" font-family="'Lato', 'Avenir Next', 'Segoe UI', 'Helvetica Neue', sans-serif" font-size="21">0.2</text>
  <line x1="104.000" y1="244.800" x2="96.000" y2="244.800" stroke="#3f3f46" stroke-width="1.4"/>
  <text x="82.000" y="251.800" text-anchor="end" fill="#52525b" font-family="'Lato', 'Avenir Next', 'Segoe UI', 'Helvetica Neue', sans-serif" font-size="21">0.4</text>
  <line x1="104.000" y1="171.200" x2="96.000" y2="171.200" stroke="#3f3f46" stroke-width="1.4"/>
  <text x="82.000" y="178.200" text-anchor="end" fill="#52525b" font-family="'Lato', 'Avenir Next', 'Segoe UI', 'Helvetica Neue', sans-serif" font-size="21">0.6</text>
  <line x1="104.000" y1="97.600" x2="96.000" y2="97.600" stroke="#3f3f46" stroke-width="1.4"/>
  <text x="82.000" y="104.600" text-anchor="end" fill="#52525b" font-family="'Lato', 'Avenir Next', 'Segoe UI', 'Helvetica Neue', sans-serif" font-size="21">0.8</text>
  <line x1="104.000" y1="24.000" x2="96.000" y2="24.000" stroke="#3f3f46" stroke-width="1.4"/>
  <text x="82.000" y="31.000" text-anchor="end" fill="#52525b" font-family="'Lato', 'Avenir Next', 'Segoe UI', 'Helvetica Neue', sans-serif" font-size="21">1</text>
  <text x="512.000" y="470.000" text-anchor="middle" fill="#111827" font-family="'Lato', 'Avenir Next', 'Segoe UI', 'Helvetica Neue', sans-serif" font-size="28">γ</text>
  <text x="30.0" y="208.000" text-anchor="middle" transform="rotate(0 30.0 208.000)" fill="#111827" font-family="'Lato', 'Avenir Next', 'Segoe UI', 'Helvetica Neue', sans-serif" font-size="28">ρ</text>
</svg>
