<?xml version="1.0" encoding="UTF-8"?>
<svg xmlns="http://www.w3.org/2000/svg" width="960" height="480" viewBox="0 0 960 480" role="img" aria-label="Douglas-Rachford rho versus gamma">
  <title>Douglas-Rachford contraction factor vs step size</title>
  <desc>Rho vs gamma for Douglas-Rachford: theoretical curve and AutoLyap points.</desc>
  <rect x="0" y="0" width="960" height="480" fill="#ffffff"/>
  <rect x="96.000" y="24.000" width="832.000" height="368.000" fill="#f8fafc"/>
  <defs>
    <clipPath id="plot-area-clip">
      <rect x="96.000" y="24.000" width="832.000" height="368.000"/>
    </clipPath>
  </defs>
  <style type="text/css"><![CDATA[
@font-face {
  font-family: 'Lato';
  src:
    url('css/fonts/lato-normal.woff2') format('woff2'),
    url('../_static/css/fonts/lato-normal.woff2') format('woff2'),
    url('css/fonts/lato-normal.woff') format('woff'),
    url('../_static/css/fonts/lato-normal.woff') format('woff');
  font-style: normal;
  font-weight: 400;
}
@font-face {
  font-family: 'Lato';
  src:
    url('css/fonts/lato-normal-italic.woff2') format('woff2'),
    url('../_static/css/fonts/lato-normal-italic.woff2') format('woff2'),
    url('css/fonts/lato-normal-italic.woff') format('woff'),
    url('../_static/css/fonts/lato-normal-italic.woff') format('woff');
  font-style: italic;
  font-weight: 400;
}
@font-face {
  font-family: 'Lato';
  src:
    url('css/fonts/lato-bold.woff2') format('woff2'),
    url('../_static/css/fonts/lato-bold.woff2') format('woff2'),
    url('css/fonts/lato-bold.woff') format('woff'),
    url('../_static/css/fonts/lato-bold.woff') format('woff');
  font-style: normal;
  font-weight: 700;
}
@font-face {
  font-family: 'Lato';
  src:
    url('css/fonts/lato-bold-italic.woff2') format('woff2'),
    url('../_static/css/fonts/lato-bold-italic.woff2') format('woff2'),
    url('css/fonts/lato-bold-italic.woff') format('woff'),
    url('../_static/css/fonts/lato-bold-italic.woff') format('woff');
  font-style: italic;
  font-weight: 700;
}
  ]]></style>
  <line x1="96.000" y1="24.000" x2="96.000" y2="392.000" stroke="#9ca3af" stroke-width="1.350"/>
  <line x1="262.400" y1="24.000" x2="262.400" y2="392.000" stroke="#9ca3af" stroke-width="1.350"/>
  <line x1="428.800" y1="24.000" x2="428.800" y2="392.000" stroke="#9ca3af" stroke-width="1.350"/>
  <line x1="595.200" y1="24.000" x2="595.200" y2="392.000" stroke="#9ca3af" stroke-width="1.350"/>
  <line x1="761.600" y1="24.000" x2="761.600" y2="392.000" stroke="#9ca3af" stroke-width="1.350"/>
  <line x1="928.000" y1="24.000" x2="928.000" y2="392.000" stroke="#9ca3af" stroke-width="1.350"/>
  <line x1="96.000" y1="370.353" x2="928.000" y2="370.353" stroke="#9ca3af" stroke-width="1.350"/>
  <line x1="96.000" y1="327.059" x2="928.000" y2="327.059" stroke="#9ca3af" stroke-width="1.350"/>
  <line x1="96.000" y1="283.765" x2="928.000" y2="283.765" stroke="#9ca3af" stroke-width="1.350"/>
  <line x1="96.000" y1="240.471" x2="928.000" y2="240.471" stroke="#9ca3af" stroke-width="1.350"/>
  <line x1="96.000" y1="197.176" x2="928.000" y2="197.176" stroke="#9ca3af" stroke-width="1.350"/>
  <line x1="96.000" y1="153.882" x2="928.000" y2="153.882" stroke="#9ca3af" stroke-width="1.350"/>
  <line x1="96.000" y1="110.588" x2="928.000" y2="110.588" stroke="#9ca3af" stroke-width="1.350"/>
  <line x1="96.000" y1="67.294" x2="928.000" y2="67.294" stroke="#9ca3af" stroke-width="1.350"/>
  <line x1="96.000" y1="24.000" x2="928.000" y2="24.000" stroke="#9ca3af" stroke-width="1.350"/>
  <g clip-path="url(#plot-area-clip)">
    <g fill="#5fa8e8" fill-opacity="0.900">
    <circle cx="104.320" cy="102.360" r="4.500"/>
    <circle cx="112.640" cy="165.948" r="4.500"/>
    <circle cx="120.960" cy="217.134" r="4.500"/>
    <circle cx="129.280" cy="258.022" r="4.500"/>
    <circle cx="137.600" cy="290.425" r="4.500"/>
    <circle cx="145.920" cy="315.870" r="4.500"/>
    <circle cx="154.240" cy="335.629" r="4.500"/>
    <circle cx="162.560" cy="350.748" r="4.500"/>
    <circle cx="170.880" cy="362.089" r="4.500"/>
    <circle cx="179.200" cy="370.353" r="4.500"/>
    <circle cx="187.520" cy="376.115" r="4.500"/>
    <circle cx="195.840" cy="379.842" r="4.500"/>
    <circle cx="204.160" cy="381.916" r="4.500"/>
    <circle cx="212.480" cy="382.649" r="4.500"/>
    <circle cx="220.800" cy="382.296" r="4.500"/>
    <circle cx="229.120" cy="381.065" r="4.500"/>
    <circle cx="237.440" cy="379.127" r="4.500"/>
    <circle cx="245.760" cy="376.622" r="4.500"/>
    <circle cx="254.080" cy="373.666" r="4.500"/>
    <circle cx="262.400" cy="370.353" r="4.500"/>
    <circle cx="270.720" cy="366.762" r="4.500"/>
    <circle cx="279.040" cy="362.958" r="4.500"/>
    <circle cx="287.360" cy="358.992" r="4.500"/>
    <circle cx="295.680" cy="354.910" r="4.500"/>
    <circle cx="304.000" cy="350.748" r="4.500"/>
    <circle cx="312.320" cy="346.535" r="4.500"/>
    <circle cx="320.640" cy="342.296" r="4.500"/>
    <circle cx="328.960" cy="338.051" r="4.500"/>
    <circle cx="337.280" cy="333.816" r="4.500"/>
    <circle cx="345.600" cy="329.606" r="4.500"/>
    <circle cx="353.920" cy="325.430" r="4.500"/>
    <circle cx="362.240" cy="321.299" r="4.500"/>
    <circle cx="370.560" cy="317.218" r="4.500"/>
    <circle cx="378.880" cy="313.194" r="4.500"/>
    <circle cx="387.200" cy="309.232" r="4.500"/>
    <circle cx="395.520" cy="305.334" r="4.500"/>
    <circle cx="403.840" cy="301.502" r="4.500"/>
    <circle cx="412.160" cy="297.740" r="4.500"/>
    <circle cx="420.480" cy="294.047" r="4.500"/>
    <circle cx="428.800" cy="290.425" r="4.500"/>
    <circle cx="437.120" cy="286.874" r="4.500"/>
    <circle cx="445.440" cy="283.394" r="4.500"/>
    <circle cx="453.760" cy="279.984" r="4.500"/>
    <circle cx="462.080" cy="276.645" r="4.500"/>
    <circle cx="470.400" cy="273.374" r="4.500"/>
    <circle cx="478.720" cy="270.172" r="4.500"/>
    <circle cx="487.040" cy="267.037" r="4.500"/>
    <circle cx="495.360" cy="263.967" r="4.500"/>
    <circle cx="503.680" cy="260.963" r="4.500"/>
    <circle cx="512.000" cy="258.022" r="4.500"/>
    <circle cx="520.320" cy="255.144" r="4.500"/>
    <circle cx="528.640" cy="252.326" r="4.500"/>
    <circle cx="536.960" cy="249.568" r="4.500"/>
    <circle cx="545.280" cy="246.868" r="4.500"/>
    <circle cx="553.600" cy="244.224" r="4.500"/>
    <circle cx="561.920" cy="241.637" r="4.500"/>
    <circle cx="570.240" cy="239.103" r="4.500"/>
    <circle cx="578.560" cy="236.621" r="4.500"/>
    <circle cx="586.880" cy="234.192" r="4.500"/>
    <circle cx="595.200" cy="231.812" r="4.500"/>
    <circle cx="603.520" cy="229.481" r="4.500"/>
    <circle cx="611.840" cy="227.197" r="4.500"/>
    <circle cx="620.160" cy="224.960" r="4.500"/>
    <circle cx="628.480" cy="222.768" r="4.500"/>
    <circle cx="636.800" cy="220.620" r="4.500"/>
    <circle cx="645.120" cy="218.514" r="4.500"/>
    <circle cx="653.440" cy="216.450" r="4.500"/>
    <circle cx="661.760" cy="214.427" r="4.500"/>
    <circle cx="670.080" cy="212.443" r="4.500"/>
    <circle cx="678.400" cy="210.498" r="4.500"/>
    <circle cx="686.720" cy="208.590" r="4.500"/>
    <circle cx="695.040" cy="206.718" r="4.500"/>
    <circle cx="703.360" cy="204.883" r="4.500"/>
    <circle cx="711.680" cy="203.081" r="4.500"/>
    <circle cx="720.000" cy="201.314" r="4.500"/>
    <circle cx="728.320" cy="199.579" r="4.500"/>
    <circle cx="736.640" cy="197.877" r="4.500"/>
    <circle cx="744.960" cy="196.205" r="4.500"/>
    <circle cx="753.280" cy="194.564" r="4.500"/>
    <circle cx="761.600" cy="192.953" r="4.500"/>
    <circle cx="769.920" cy="191.370" r="4.500"/>
    <circle cx="778.240" cy="189.816" r="4.500"/>
    <circle cx="786.560" cy="188.289" r="4.500"/>
    <circle cx="794.880" cy="186.789" r="4.500"/>
    <circle cx="803.200" cy="185.315" r="4.500"/>
    <circle cx="811.520" cy="183.867" r="4.500"/>
    <circle cx="819.840" cy="182.443" r="4.500"/>
    <circle cx="828.160" cy="181.044" r="4.500"/>
    <circle cx="836.480" cy="179.668" r="4.500"/>
    <circle cx="844.800" cy="178.316" r="4.500"/>
    <circle cx="853.120" cy="176.986" r="4.500"/>
    <circle cx="861.440" cy="175.678" r="4.500"/>
    <circle cx="869.760" cy="174.391" r="4.500"/>
    <circle cx="878.080" cy="173.126" r="4.500"/>
    <circle cx="886.400" cy="171.881" r="4.500"/>
    <circle cx="894.720" cy="170.656" r="4.500"/>
    <circle cx="903.040" cy="169.451" r="4.500"/>
    <circle cx="911.360" cy="168.265" r="4.500"/>
    <circle cx="919.680" cy="167.097" r="4.500"/>
    <circle cx="928.000" cy="165.948" r="4.500"/>
    </g>
    <polyline points="96.000,24.000 96.083,24.865 96.084,24.872 96.084,24.878 96.085,24.885 96.086,24.892 96.086,24.899 96.087,24.906 96.088,24.913 96.088,24.920 96.089,24.927 96.090,24.934 96.091,24.941 96.091,24.948 96.092,24.956 96.093,24.963 96.093,24.971 96.094,24.978 96.095,24.986 96.096,24.993 96.096,25.001 96.097,25.008 96.098,25.016 96.099,25.024 96.099,25.032 96.100,25.040 96.101,25.048 96.102,25.056 96.102,25.064 96.103,25.072 96.104,25.081 96.105,25.089 96.106,25.097 96.106,25.106 96.107,25.114 96.108,25.123 96.109,25.132 96.110,25.140 96.111,25.149 96.111,25.158 96.112,25.167 96.113,25.176 96.114,25.185 96.115,25.194 96.116,25.203 96.117,25.212 96.118,25.222 96.118,25.231 96.119,25.241 96.120,25.250 96.121,25.260 96.122,25.269 96.123,25.279 96.124,25.289 96.125,25.299 96.126,25.309 96.127,25.319 96.128,25.329 96.129,25.340 96.130,25.350 96.131,25.360 96.132,25.371 96.133,25.381 96.134,25.392 96.135,25.403 96.136,25.413 96.137,25.424 96.138,25.435 96.139,25.446 96.140,25.457 96.141,25.469 96.142,25.480 96.144,25.491 96.145,25.503 96.146,25.514 96.147,25.526 96.148,25.538 96.149,25.550 96.150,25.562 96.151,25.574 96.153,25.586 96.154,25.598 96.155,25.610 96.156,25.623 96.157,25.635 96.159,25.648 96.160,25.660 96.161,25.673 96.162,25.686 96.164,25.699 96.165,25.712 96.166,25.725 96.167,25.738 96.169,25.752 96.170,25.765 96.171,25.779 96.173,25.793 96.174,25.806 96.175,25.820 96.177,25.834 96.178,25.848 96.179,25.863 96.181,25.877 96.182,25.891 96.184,25.906 96.185,25.921 96.186,25.935 96.188,25.950 96.189,25.965 96.191,25.980 96.192,25.996 96.194,26.011 96.195,26.027 96.197,26.042 96.198,26.058 96.200,26.074 96.201,26.090 96.203,26.106 96.204,26.122 96.206,26.138 96.208,26.155 96.209,26.171 96.211,26.188 96.212,26.205 96.214,26.222 96.216,26.239 96.217,26.256 96.219,26.273 96.221,26.291 96.222,26.308 96.224,26.326 96.226,26.344 96.228,26.362 96.229,26.380 96.231,26.399 96.233,26.417 96.235,26.436 96.237,26.454 96.238,26.473 96.240,26.492 96.242,26.511 96.244,26.531 96.246,26.550 96.248,26.570 96.250,26.590 96.251,26.609 96.253,26.629 96.255,26.650 96.257,26.670 96.259,26.691 96.261,26.711 96.263,26.732 96.265,26.753 96.267,26.774 96.269,26.796 96.272,26.817 96.274,26.839 96.276,26.861 96.278,26.883 96.280,26.905 96.282,26.927 96.284,26.950 96.287,26.972 96.289,26.995 96.291,27.018 96.293,27.041 96.296,27.065 96.298,27.088 96.300,27.112 96.302,27.136 96.305,27.160 96.307,27.184 96.309,27.209 96.312,27.233 96.314,27.258 96.317,27.283 96.319,27.308 96.322,27.334 96.324,27.359 96.327,27.385 96.329,27.411 96.332,27.437 96.334,27.464 96.337,27.490 96.339,27.517 96.342,27.544 96.345,27.571 96.347,27.599 96.350,27.626 96.353,27.654 96.355,27.682 96.358,27.711 96.361,27.739 96.364,27.768 96.366,27.797 96.369,27.826 96.372,27.855 96.375,27.885 96.378,27.915 96.381,27.945 96.384,27.975 96.387,28.006 96.390,28.036 96.393,28.067 96.396,28.098 96.399,28.130 96.402,28.162 96.405,28.194 96.408,28.226 96.411,28.258 96.414,28.291 96.418,28.324 96.421,28.357 96.424,28.390 96.427,28.424 96.431,28.458 96.434,28.492 96.437,28.527 96.441,28.561 96.444,28.596 96.447,28.632 96.451,28.667 96.454,28.703 96.458,28.739 96.461,28.775 96.465,28.812 96.469,28.849 96.472,28.886 96.476,28.923 96.479,28.961 96.483,28.999 96.487,29.038 96.491,29.076 96.494,29.115 96.498,29.154 96.502,29.194 96.506,29.234 96.510,29.274 96.514,29.314 96.518,29.355 96.522,29.396 96.526,29.437 96.530,29.479 96.534,29.521 96.538,29.563 96.542,29.606 96.546,29.649 96.551,29.692 96.555,29.736 96.559,29.780 96.563,29.824 96.568,29.868 96.572,29.913 96.577,29.959 96.581,30.004 96.585,30.050 96.590,30.097 96.595,30.143 96.599,30.190 96.604,30.238 96.608,30.285 96.613,30.334 96.618,30.382 96.623,30.431 96.627,30.480 96.632,30.530 96.637,30.580 96.642,30.630 96.647,30.681 96.652,30.732 96.657,30.783 96.662,30.835 96.667,30.888 96.672,30.940 96.677,30.993 96.683,31.047 96.688,31.101 96.693,31.155 96.699,31.210 96.704,31.265 96.709,31.320 96.715,31.376 96.720,31.433 96.726,31.490 96.732,31.547 96.737,31.604 96.743,31.663 96.749,31.721 96.754,31.780 96.760,31.840 96.766,31.899 96.772,31.960 96.778,32.021 96.784,32.082 96.790,32.144 96.796,32.206 96.802,32.268 96.808,32.332 96.815,32.395 96.821,32.459 96.827,32.524 96.834,32.589 96.840,32.655 96.847,32.721 96.853,32.787 96.860,32.854 96.866,32.922 96.873,32.990 96.880,33.058 96.886,33.128 96.893,33.197 96.900,33.267 96.907,33.338 96.914,33.409 96.921,33.481 96.928,33.553 96.935,33.626 96.943,33.700 96.950,33.773 96.957,33.848 96.965,33.923 96.972,33.999 96.980,34.075 96.987,34.152 96.995,34.229 97.002,34.307 97.010,34.385 97.018,34.465 97.026,34.544 97.034,34.625 97.042,34.705 97.050,34.787 97.058,34.869 97.066,34.952 97.074,35.035 97.082,35.119 97.091,35.204 97.099,35.289 97.108,35.375 97.116,35.461 97.125,35.549 97.133,35.636 97.142,35.725 97.151,35.814 97.160,35.904 97.169,35.994 97.178,36.086 97.187,36.178 97.196,36.270 97.205,36.363 97.215,36.457 97.224,36.552 97.233,36.647 97.243,36.743 97.252,36.840 97.262,36.938 97.272,37.036 97.282,37.135 97.292,37.235 97.302,37.335 97.312,37.436 97.322,37.538 97.332,37.641 97.342,37.744 97.352,37.849 97.363,37.954 97.373,38.060 97.384,38.166 97.395,38.274 97.405,38.382 97.416,38.491 97.427,38.601 97.438,38.711 97.449,38.823 97.460,38.935 97.472,39.048 97.483,39.162 97.495,39.277 97.506,39.393 97.518,39.509 97.529,39.627 97.541,39.745 97.553,39.864 97.565,39.984 97.577,40.105 97.589,40.227 97.602,40.349 97.614,40.473 97.626,40.598 97.639,40.723 97.651,40.850 97.664,40.977 97.677,41.105 97.690,41.234 97.703,41.365 97.716,41.496 97.729,41.628 97.743,41.761 97.756,41.895 97.770,42.030 97.783,42.166 97.797,42.303 97.811,42.441 97.825,42.580 97.839,42.720 97.853,42.861 97.867,43.004 97.882,43.147 97.896,43.291 97.911,43.437 97.926,43.583 97.941,43.730 97.956,43.879 97.971,44.029 97.986,44.179 98.001,44.331 98.017,44.484 98.032,44.638 98.048,44.794 98.064,44.950 98.079,45.108 98.096,45.266 98.112,45.426 98.128,45.587 98.144,45.749 98.161,45.913 98.178,46.077 98.194,46.243 98.211,46.410 98.228,46.578 98.246,46.747 98.263,46.918 98.280,47.090 98.298,47.263 98.316,47.437 98.333,47.613 98.351,47.790 98.370,47.968 98.388,48.148 98.406,48.329 98.425,48.511 98.444,48.694 98.462,48.879 98.481,49.065 98.500,49.253 98.520,49.441 98.539,49.632 98.559,49.823 98.578,50.016 98.598,50.211 98.618,50.406 98.639,50.604 98.659,50.802 98.679,51.002 98.700,51.204 98.721,51.407 98.742,51.611 98.763,51.817 98.784,52.024 98.806,52.233 98.827,52.443 98.849,52.655 98.871,52.868 98.893,53.083 98.916,53.300 98.938,53.518 98.961,53.737 98.984,53.958 99.007,54.181 99.030,54.405 99.053,54.631 99.077,54.859 99.101,55.088 99.124,55.318 99.149,55.551 99.173,55.785 99.197,56.020 99.222,56.258 99.247,56.497 99.272,56.738 99.297,56.980 99.322,57.224 99.348,57.470 99.374,57.718 99.400,57.967 99.426,58.218 99.453,58.471 99.479,58.726 99.506,58.982 99.533,59.241 99.560,59.501 99.588,59.763 99.615,60.027 99.643,60.292 99.671,60.560 99.700,60.829 99.728,61.101 99.757,61.374 99.786,61.649 99.815,61.926 99.845,62.205 99.874,62.486 99.904,62.769 99.934,63.053 99.964,63.340 99.995,63.629 100.026,63.920 100.057,64.213 100.088,64.508 100.120,64.805 100.152,65.104 100.184,65.405 100.216,65.708 100.248,66.013 100.281,66.320 100.314,66.630 100.347,66.941 100.381,67.255 100.415,67.571 100.449,67.889 100.483,68.209 100.518,68.532 100.552,68.856 100.587,69.183 100.623,69.512 100.659,69.843 100.694,70.177 100.731,70.513 100.767,70.851 100.804,71.192 100.841,71.534 100.878,71.879 100.916,72.227 100.954,72.577 100.992,72.929 101.030,73.283 101.069,73.640 101.108,74.000 101.148,74.361 101.187,74.726 101.227,75.092 101.268,75.461 101.308,75.833 101.349,76.207 101.391,76.583 101.432,76.963 101.474,77.344 101.516,77.728 101.559,78.115 101.602,78.504 101.645,78.896 101.688,79.291 101.732,79.688 101.776,80.087 101.821,80.490 101.866,80.895 101.911,81.302 101.957,81.713 102.003,82.126 102.049,82.541 102.096,82.960 102.143,83.381 102.190,83.805 102.238,84.232 102.286,84.661 102.334,85.093 102.383,85.528 102.432,85.966 102.482,86.407 102.532,86.851 102.582,87.297 102.633,87.746 102.684,88.198 102.736,88.654 102.788,89.112 102.840,89.573 102.893,90.036 102.946,90.503 102.999,90.973 103.053,91.446 103.108,91.922 103.163,92.401 103.218,92.883 103.273,93.367 103.330,93.855 103.386,94.346 103.443,94.841 103.500,95.338 103.558,95.838 103.617,96.342 103.675,96.848 103.734,97.358 103.794,97.871 103.854,98.387 103.915,98.906 103.976,99.429 104.037,99.954 104.099,100.483 104.162,101.016 104.225,101.551 104.288,102.090 104.352,102.632 104.416,103.177 104.481,103.726 104.547,104.278 104.613,104.833 104.679,105.392 104.746,105.954 104.813,106.519 104.881,107.088 104.950,107.660 105.019,108.236 105.088,108.815 105.159,109.397 105.229,109.983 105.300,110.572 105.372,111.165 105.444,111.761 105.517,112.361 105.591,112.965 105.664,113.571 105.739,114.182 105.814,114.796 105.890,115.413 105.966,116.034 106.043,116.659 106.120,117.287 106.198,117.919 106.277,118.554 106.356,119.193 106.436,119.836 106.517,120.482 106.598,121.132 106.679,121.786 106.762,122.443 106.845,123.104 106.928,123.769 107.013,124.437 107.098,125.109 107.183,125.785 107.269,126.464 107.356,127.148 107.444,127.835 107.532,128.525 107.621,129.220 107.711,129.918 107.801,130.620 107.892,131.326 107.984,132.035 108.076,132.749 108.169,133.466 108.263,134.187 108.358,134.911 108.453,135.640 108.549,136.372 108.646,137.108 108.743,137.848 108.841,138.592 108.940,139.340 109.040,140.092 109.141,140.847 109.242,141.606 109.344,142.369 109.447,143.136 109.551,143.907 109.655,144.682 109.761,145.460 109.867,146.243 109.974,147.029 110.081,147.819 110.190,148.613 110.299,149.411 110.410,150.213 110.521,151.019 110.633,151.828 110.746,152.642 110.859,153.459 110.974,154.280 111.089,155.105 111.206,155.934 111.323,156.767 111.441,157.604 111.560,158.444 111.680,159.288 111.801,160.137 111.923,160.989 112.046,161.844 112.170,162.704 112.294,163.568 112.420,164.435 112.546,165.306 112.674,166.181 112.803,167.060 112.932,167.943 113.063,168.829 113.194,169.719 113.327,170.613 113.461,171.511 113.595,172.412 113.731,173.318 113.868,174.226 114.005,175.139 114.144,176.055 114.284,176.975 114.425,177.899 114.567,178.827 114.710,179.758 114.855,180.692 115.000,181.631 115.147,182.572 115.294,183.518 115.443,184.467 115.593,185.420 115.744,186.376 115.896,187.335 116.050,188.299 116.204,189.265 116.360,190.235 116.517,191.209 116.675,192.186 116.835,193.166 116.995,194.150 117.157,195.137 117.320,196.127 117.485,197.121 117.651,198.118 117.818,199.118 117.986,200.122 118.155,201.128 118.326,202.138 118.498,203.151 118.672,204.167 118.847,205.186 119.023,206.208 119.200,207.233 119.379,208.261 119.560,209.292 119.741,210.326 119.924,211.363 120.109,212.403 120.295,213.445 120.482,214.491 120.671,215.539 120.861,216.589 121.053,217.643 121.246,218.699 121.441,219.757 121.637,220.818 121.834,221.882 122.034,222.948 122.234,224.016 122.437,225.087 122.641,226.160 122.846,227.236 123.053,228.313 123.262,229.393 123.472,230.475 123.684,231.559 123.897,232.645 124.112,233.733 124.329,234.823 124.548,235.915 124.768,237.009 124.990,238.104 125.213,239.201 125.438,240.300 125.665,241.400 125.894,242.502 126.125,243.606 126.357,244.711 126.591,245.817 126.827,246.925 127.065,248.033 127.304,249.143 127.546,250.255 127.789,251.367 128.034,252.480 128.281,253.594 128.530,254.709 128.781,255.825 129.034,256.941 129.288,258.059 129.545,259.176 129.804,260.295 130.064,261.413 130.327,262.533 130.592,263.652 130.858,264.772 131.127,265.892 131.398,267.011 131.671,268.131 131.946,269.251 132.223,270.371 132.503,271.490 132.784,272.610 133.068,273.728 133.354,274.847 133.642,275.965 133.932,277.082 134.225,278.198 134.519,279.314 134.816,280.429 135.116,281.542 135.417,282.655 135.721,283.767 136.028,284.877 136.336,285.986 136.647,287.094 136.961,288.200 137.277,289.305 137.595,290.407 137.916,291.509 138.239,292.608 138.564,293.705 138.893,294.800 139.223,295.894 139.557,296.985 139.893,298.073 140.231,299.159 140.572,300.243 140.916,301.324 141.262,302.402 141.611,303.478 141.963,304.550 142.317,305.620 142.675,306.686 143.035,307.750 143.397,308.810 143.763,309.866 144.131,310.919 144.502,311.968 144.876,313.014 145.253,314.056 145.633,315.094 146.016,316.128 146.401,317.157 146.790,318.183 147.182,319.204 147.576,320.221 147.974,321.233 148.375,322.241 148.779,323.243 149.186,324.241 149.596,325.234 150.009,326.222 150.426,327.205 150.845,328.182 151.268,329.154 151.694,330.120 152.124,331.081 152.557,332.036 152.993,332.986 153.432,333.929 153.875,334.866 154.321,335.797 154.771,336.722 155.224,337.641 155.681,338.553 156.141,339.459 156.605,340.358 157.072,341.250 157.543,342.135 158.018,343.013 158.496,343.884 158.978,344.748 159.464,345.605 159.953,346.454 160.446,347.296 160.943,348.130 161.444,348.957 161.949,349.775 162.457,350.586 162.970,351.389 163.486,352.183 164.006,352.969 164.531,353.747 165.059,354.517 165.592,355.278 166.129,356.031 166.669,356.774 167.214,357.509 167.763,358.235 168.317,358.953 168.874,359.661 169.436,360.359 170.003,361.049 170.573,361.729 171.148,362.400 171.728,363.061 172.312,363.713 172.900,364.354 173.493,364.986 174.091,365.608 174.693,366.221 175.300,366.823 175.911,367.415 176.528,367.996 177.149,368.568 177.774,369.129 178.405,369.680 179.040,370.220 179.681,370.749 180.326,371.268 180.976,371.776 181.632,372.273 182.292,372.759 182.957,373.235 183.628,373.699 184.304,374.152 184.984,374.594 185.671,375.025 186.362,375.444 187.059,375.853 187.761,376.249 188.469,376.635 189.182,377.009 189.900,377.371 190.624,377.721 191.354,378.060 192.089,378.388 192.830,378.703 193.577,379.007 194.329,379.298 195.088,379.578 195.852,379.846 196.622,380.102 197.398,380.346 198.180,380.578 198.968,380.798 199.762,381.005 200.562,381.201 201.368,381.384 202.181,381.555 202.999,381.714 203.824,381.861 204.656,381.995 205.494,382.117 206.338,382.227 207.189,382.324 208.046,382.409 208.910,382.482 209.781,382.542 210.658,382.590 211.543,382.625 212.434,382.649 213.331,382.659 214.236,382.658 215.148,382.644 216.067,382.617 216.993,382.578 217.926,382.527 218.866,382.464 219.813,382.388 220.768,382.299 221.730,382.199 222.700,382.086 223.677,381.960 224.661,381.823 225.653,381.673 226.653,381.511 227.661,381.336 228.676,381.150 229.699,380.951 230.730,380.740 231.769,380.517 232.816,380.282 233.871,380.035 234.934,379.776 236.005,379.505 237.085,379.222 238.173,378.927 239.269,378.620 240.374,378.302 241.487,377.971 242.609,377.629 243.740,377.275 244.879,376.910 246.027,376.533 247.184,376.145 248.350,375.745 249.525,375.334 250.709,374.911 251.902,374.478 253.104,374.033 254.315,373.576 255.536,373.109 256.766,372.631 258.006,372.142 259.255,371.642 260.514,371.131 261.783,370.609 263.061,370.077 264.349,369.534 265.648,368.981 266.956,368.417 268.274,367.843 269.603,367.258 270.941,366.663 272.290,366.059 273.650,365.444 275.020,364.819 276.400,364.184 277.791,363.540 279.193,362.886 280.606,362.222 282.029,361.549 283.464,360.866 284.909,360.174 286.366,359.473 287.834,358.763 289.313,358.043 290.804,357.315 292.306,356.577 293.820,355.831 295.345,355.076 296.883,354.313 298.432,353.541 299.993,352.761 301.566,351.972 303.151,351.176 304.748,350.371 306.358,349.558 307.980,348.737 309.615,347.909 311.262,347.073 312.922,346.229 314.595,345.378 316.280,344.519 317.979,343.653 319.691,342.780 321.416,341.900 323.154,341.013 324.906,340.119 326.671,339.218 328.449,338.311 330.242,337.397 332.048,336.477 333.868,335.550 335.703,334.617 337.551,333.678 339.414,332.733 341.291,331.783 343.182,330.826 345.088,329.864 347.009,328.896 348.945,327.922 350.895,326.943 352.861,325.959 354.842,324.970 356.838,323.976 358.849,322.977 360.876,321.973 362.918,320.964 364.977,319.951 367.051,318.933 369.141,317.910 371.247,316.884 373.370,315.853 375.509,314.818 377.664,313.779 379.836,312.736 382.025,311.689 384.230,310.639 386.453,309.585 388.693,308.528 390.950,307.467 393.224,306.403 395.516,305.335 397.826,304.265 400.153,303.192 402.499,302.115 404.862,301.036 407.244,299.955 409.644,298.870 412.063,297.784 414.500,296.694 416.956,295.603 419.431,294.509 421.925,293.413 424.438,292.315 426.971,291.216 429.523,290.114 432.095,289.011 434.687,287.906 437.298,286.799 439.930,285.691 442.582,284.582 445.255,283.471 447.948,282.359 450.662,281.246 453.397,280.132 456.153,279.017 458.930,277.901 461.729,276.784 464.549,275.667 467.391,274.549 470.255,273.431 473.141,272.312 476.049,271.192 478.980,270.073 481.933,268.953 484.909,267.833 487.908,266.713 490.930,265.593 493.976,264.474 497.044,263.354 500.137,262.235 503.253,261.116 506.394,259.997 509.559,258.879 512.748,257.761 515.961,256.644 519.200,255.528 522.463,254.412 525.752,253.297 529.066,252.183 532.405,251.071 535.770,249.959 539.162,248.848 542.579,247.738 546.023,246.630 549.493,245.522 552.990,244.416 556.514,243.312 560.065,242.209 563.643,241.107 567.250,240.007 570.883,238.909 574.545,237.812 578.236,236.717 581.954,235.624 585.702,234.533 589.478,233.443 593.283,232.356 597.118,231.270 600.982,230.187 604.876,229.105 608.800,228.026 612.755,226.949 616.739,225.874 620.755,224.802 624.801,223.732 628.879,222.664 632.988,221.598 637.129,220.535 641.302,219.475 645.507,218.417 649.744,217.362 654.014,216.309 658.317,215.259 662.654,214.212 667.023,213.167 671.427,212.126 675.864,211.087 680.335,210.051 684.841,209.017 689.382,207.987 693.958,206.960 698.569,205.936 703.215,204.914 707.898,203.896 712.616,202.881 717.371,201.869 722.163,200.860 726.991,199.854 731.857,198.851 736.760,197.852 741.701,196.856 746.680,195.863 751.698,194.874 756.754,193.888 761.849,192.905 766.984,191.925 772.158,190.949 777.372,189.977 782.626,189.008 787.921,188.042 793.257,187.080 798.633,186.121 804.052,185.166 809.512,184.214 815.014,183.266 820.558,182.321 826.145,181.380 831.776,180.443 837.450,179.509 843.167,178.579 848.929,177.653 854.735,176.730 860.586,175.811 866.481,174.896 872.423,173.984 878.410,173.076 884.443,172.172 890.523,171.272 896.650,170.375 902.824,169.482 909.046,168.593 915.315,167.707 921.633,166.826 928.000,165.948" fill="none" stroke="#000000" stroke-width="2.800" stroke-opacity="1.000"/>
  </g>
  <rect x="96.000" y="24.000" width="832.000" height="368.000" fill="none" stroke="#3f3f46" stroke-width="1.8"/>
  <rect x="718.500" y="40.000" width="193.500" height="82.000" rx="6" ry="6" fill="#ffffff" fill-opacity="0.94" stroke="#000000" stroke-width="1.2"/>
  <line x1="732.500" y1="66.000" x2="772.500" y2="66.000" stroke="#000000" stroke-width="2.800" stroke-opacity="1.000"/>
  <text x="782.500" y="73.000" text-anchor="start" fill="#111827" font-family="'Lato', 'Avenir Next', 'Segoe UI', 'Helvetica Neue', sans-serif" font-size="20.0">Theoretical</text>
  <circle cx="752.500" cy="96.000" r="4.500" fill="#5fa8e8" fill-opacity="1.000"/>
  <text x="782.500" y="103.000" text-anchor="start" fill="#111827" font-family="'Lato', 'Avenir Next', 'Segoe UI', 'Helvetica Neue', sans-serif" font-size="20.0">AutoLyap</text>
  <line x1="96.000" y1="392.000" x2="96.000" y2="384.000" stroke="#3f3f46" stroke-width="1.4"/>
  <text x="96.000" y="438.000" text-anchor="middle" fill="#52525b" font-family="'Lato', 'Avenir Next', 'Segoe UI', 'Helvetica Neue', sans-serif" font-size="21">0</text>
  <line x1="262.400" y1="392.000" x2="262.400" y2="384.000" stroke="#3f3f46" stroke-width="1.4"/>
  <text x="262.400" y="438.000" text-anchor="middle" fill="#52525b" font-family="'Lato', 'Avenir Next', 'Segoe UI', 'Helvetica Neue', sans-serif" font-size="21">1</text>
  <line x1="428.800" y1="392.000" x2="428.800" y2="384.000" stroke="#3f3f46" stroke-width="1.4"/>
  <text x="428.800" y="438.000" text-anchor="middle" fill="#52525b" font-family="'Lato', 'Avenir Next', 'Segoe UI', 'Helvetica Neue', sans-serif" font-size="21">2</text>
  <line x1="595.200" y1="392.000" x2="595.200" y2="384.000" stroke="#3f3f46" stroke-width="1.4"/>
  <text x="595.200" y="438.000" text-anchor="middle" fill="#52525b" font-family="'Lato', 'Avenir Next', 'Segoe UI', 'Helvetica Neue', sans-serif" font-size="21">3</text>
  <line x1="761.600" y1="392.000" x2="761.600" y2="384.000" stroke="#3f3f46" stroke-width="1.4"/>
  <text x="761.600" y="438.000" text-anchor="middle" fill="#52525b" font-family="'Lato', 'Avenir Next', 'Segoe UI', 'Helvetica Neue', sans-serif" font-size="21">4</text>
  <line x1="928.000" y1="392.000" x2="928.000" y2="384.000" stroke="#3f3f46" stroke-width="1.4"/>
  <text x="928.000" y="438.000" text-anchor="middle" fill="#52525b" font-family="'Lato', 'Avenir Next', 'Segoe UI', 'Helvetica Neue', sans-serif" font-size="21">5</text>
  <line x1="104.000" y1="370.353" x2="96.000" y2="370.353" stroke="#3f3f46" stroke-width="1.4"/>
  <text x="82.000" y="377.353" text-anchor="end" fill="#52525b" font-family="'Lato', 'Avenir Next', 'Segoe UI', 'Helvetica Neue', sans-serif" font-size="21">0.2</text>
  <line x1="104.000" y1="327.059" x2="96.000" y2="327.059" stroke="#3f3f46" stroke-width="1.4"/>
  <text x="82.000" y="334.059" text-anchor="end" fill="#52525b" font-family="'Lato', 'Avenir Next', 'Segoe UI', 'Helvetica Neue', sans-serif" font-size="21">0.3</text>
  <line x1="104.000" y1="283.765" x2="96.000" y2="283.765" stroke="#3f3f46" stroke-width="1.4"/>
  <text x="82.000" y="290.765" text-anchor="end" fill="#52525b" font-family="'Lato', 'Avenir Next', 'Segoe UI', 'Helvetica Neue', sans-serif" font-size="21">0.4</text>
  <line x1="104.000" y1="240.471" x2="96.000" y2="240.471" stroke="#3f3f46" stroke-width="1.4"/>
  <text x="82.000" y="247.471" text-anchor="end" fill="#52525b" font-family="'Lato', 'Avenir Next', 'Segoe UI', 'Helvetica Neue', sans-serif" font-size="21">0.5</text>
  <line x1="104.000" y1="197.176" x2="96.000" y2="197.176" stroke="#3f3f46" stroke-width="1.4"/>
  <text x="82.000" y="204.176" text-anchor="end" fill="#52525b" font-family="'Lato', 'Avenir Next', 'Segoe UI', 'Helvetica Neue', sans-serif" font-size="21">0.6</text>
  <line x1="104.000" y1="153.882" x2="96.000" y2="153.882" stroke="#3f3f46" stroke-width="1.4"/>
  <text x="82.000" y="160.882" text-anchor="end" fill="#52525b" font-family="'Lato', 'Avenir Next', 'Segoe UI', 'Helvetica Neue', sans-serif" font-size="21">0.7</text>
  <line x1="104.000" y1="110.588" x2="96.000" y2="110.588" stroke="#3f3f46" stroke-width="1.4"/>
  <text x="82.000" y="117.588" text-anchor="end" fill="#52525b" font-family="'Lato', 'Avenir Next', 'Segoe UI', 'Helvetica Neue', sans-serif" font-size="21">0.8</text>
  <line x1="104.000" y1="67.294" x2="96.000" y2="67.294" stroke="#3f3f46" stroke-width="1.4"/>
  <text x="82.000" y="74.294" text-anchor="end" fill="#52525b" font-family="'Lato', 'Avenir Next', 'Segoe UI', 'Helvetica Neue', sans-serif" font-size="21">0.9</text>
  <line x1="104.000" y1="24.000" x2="96.000" y2="24.000" stroke="#3f3f46" stroke-width="1.4"/>
  <text x="82.000" y="31.000" text-anchor="end" fill="#52525b" font-family="'Lato', 'Avenir Next', 'Segoe UI', 'Helvetica Neue', sans-serif" font-size="21">1</text>
  <text x="512.000" y="470.000" text-anchor="middle" fill="#111827" font-family="'Lato', 'Avenir Next', 'Segoe UI', 'Helvetica Neue', sans-serif" font-size="28">γ</text>
  <text x="30.0" y="208.000" text-anchor="middle" transform="rotate(0 30.0 208.000)" fill="#111827" font-family="'Lato', 'Avenir Next', 'Segoe UI', 'Helvetica Neue', sans-serif" font-size="28">ρ</text>
</svg>
