<?xml version="1.0" encoding="UTF-8"?>
<svg xmlns="http://www.w3.org/2000/svg" width="960" height="480" viewBox="0 0 960 480" role="img" aria-label="Douglas-Rachford rho versus gamma (smooth strongly-convex plus convex)">
  <title>Douglas-Rachford contraction factor vs step size</title>
  <desc>Rho vs gamma for Douglas-Rachford with smooth strongly-convex plus convex splitting: theoretical curve and AutoLyap points.</desc>
  <rect x="0" y="0" width="960" height="480" fill="#ffffff"/>
  <rect x="96.000" y="24.000" width="832.000" height="368.000" fill="#f8fafc"/>
  <defs>
    <clipPath id="plot-area-clip">
      <rect x="96.000" y="24.000" width="832.000" height="368.000"/>
    </clipPath>
  </defs>
  <style type="text/css"><![CDATA[
@font-face {
  font-family: 'Lato';
  src:
    url('css/fonts/lato-normal.woff2') format('woff2'),
    url('../_static/css/fonts/lato-normal.woff2') format('woff2'),
    url('css/fonts/lato-normal.woff') format('woff'),
    url('../_static/css/fonts/lato-normal.woff') format('woff');
  font-style: normal;
  font-weight: 400;
}
@font-face {
  font-family: 'Lato';
  src:
    url('css/fonts/lato-normal-italic.woff2') format('woff2'),
    url('../_static/css/fonts/lato-normal-italic.woff2') format('woff2'),
    url('css/fonts/lato-normal-italic.woff') format('woff'),
    url('../_static/css/fonts/lato-normal-italic.woff') format('woff');
  font-style: italic;
  font-weight: 400;
}
@font-face {
  font-family: 'Lato';
  src:
    url('css/fonts/lato-bold.woff2') format('woff2'),
    url('../_static/css/fonts/lato-bold.woff2') format('woff2'),
    url('css/fonts/lato-bold.woff') format('woff'),
    url('../_static/css/fonts/lato-bold.woff') format('woff');
  font-style: normal;
  font-weight: 700;
}
@font-face {
  font-family: 'Lato';
  src:
    url('css/fonts/lato-bold-italic.woff2') format('woff2'),
    url('../_static/css/fonts/lato-bold-italic.woff2') format('woff2'),
    url('css/fonts/lato-bold-italic.woff') format('woff'),
    url('../_static/css/fonts/lato-bold-italic.woff') format('woff');
  font-style: italic;
  font-weight: 700;
}
  ]]></style>
  <line x1="96.000" y1="24.000" x2="96.000" y2="392.000" stroke="#9ca3af" stroke-width="1.350"/>
  <line x1="179.200" y1="24.000" x2="179.200" y2="392.000" stroke="#9ca3af" stroke-width="1.350"/>
  <line x1="262.400" y1="24.000" x2="262.400" y2="392.000" stroke="#9ca3af" stroke-width="1.350"/>
  <line x1="345.600" y1="24.000" x2="345.600" y2="392.000" stroke="#9ca3af" stroke-width="1.350"/>
  <line x1="428.800" y1="24.000" x2="428.800" y2="392.000" stroke="#9ca3af" stroke-width="1.350"/>
  <line x1="512.000" y1="24.000" x2="512.000" y2="392.000" stroke="#9ca3af" stroke-width="1.350"/>
  <line x1="595.200" y1="24.000" x2="595.200" y2="392.000" stroke="#9ca3af" stroke-width="1.350"/>
  <line x1="678.400" y1="24.000" x2="678.400" y2="392.000" stroke="#9ca3af" stroke-width="1.350"/>
  <line x1="761.600" y1="24.000" x2="761.600" y2="392.000" stroke="#9ca3af" stroke-width="1.350"/>
  <line x1="844.800" y1="24.000" x2="844.800" y2="392.000" stroke="#9ca3af" stroke-width="1.350"/>
  <line x1="928.000" y1="24.000" x2="928.000" y2="392.000" stroke="#9ca3af" stroke-width="1.350"/>
  <line x1="96.000" y1="392.000" x2="928.000" y2="392.000" stroke="#9ca3af" stroke-width="1.350"/>
  <line x1="96.000" y1="339.429" x2="928.000" y2="339.429" stroke="#9ca3af" stroke-width="1.350"/>
  <line x1="96.000" y1="286.857" x2="928.000" y2="286.857" stroke="#9ca3af" stroke-width="1.350"/>
  <line x1="96.000" y1="234.286" x2="928.000" y2="234.286" stroke="#9ca3af" stroke-width="1.350"/>
  <line x1="96.000" y1="181.714" x2="928.000" y2="181.714" stroke="#9ca3af" stroke-width="1.350"/>
  <line x1="96.000" y1="129.143" x2="928.000" y2="129.143" stroke="#9ca3af" stroke-width="1.350"/>
  <line x1="96.000" y1="76.571" x2="928.000" y2="76.571" stroke="#9ca3af" stroke-width="1.350"/>
  <line x1="96.000" y1="24.000" x2="928.000" y2="24.000" stroke="#9ca3af" stroke-width="1.350"/>
  <g clip-path="url(#plot-area-clip)">
    <g fill="#5fa8e8" fill-opacity="0.920">
    <circle cx="96.000" cy="72.772" r="4.500"/>
    <circle cx="104.404" cy="114.871" r="4.500"/>
    <circle cx="112.808" cy="151.835" r="4.500"/>
    <circle cx="121.212" cy="184.179" r="4.500"/>
    <circle cx="129.616" cy="212.929" r="4.500"/>
    <circle cx="138.020" cy="238.598" r="4.500"/>
    <circle cx="146.424" cy="261.188" r="4.500"/>
    <circle cx="154.828" cy="281.210" r="4.500"/>
    <circle cx="163.232" cy="299.179" r="4.500"/>
    <circle cx="171.636" cy="315.607" r="4.500"/>
    <circle cx="180.040" cy="330.496" r="4.500"/>
    <circle cx="188.444" cy="344.357" r="4.500"/>
    <circle cx="196.848" cy="356.165" r="4.500"/>
    <circle cx="205.253" cy="367.460" r="4.500"/>
    <circle cx="213.657" cy="360.272" r="4.500"/>
    <circle cx="222.061" cy="350.518" r="4.500"/>
    <circle cx="230.465" cy="341.277" r="4.500"/>
    <circle cx="238.869" cy="332.036" r="4.500"/>
    <circle cx="247.273" cy="323.821" r="4.500"/>
    <circle cx="255.677" cy="315.607" r="4.500"/>
    <circle cx="264.081" cy="308.420" r="4.500"/>
    <circle cx="272.485" cy="301.232" r="4.500"/>
    <circle cx="280.889" cy="294.045" r="4.500"/>
    <circle cx="289.293" cy="287.371" r="4.500"/>
    <circle cx="297.697" cy="281.210" r="4.500"/>
    <circle cx="306.101" cy="275.049" r="4.500"/>
    <circle cx="314.505" cy="269.402" r="4.500"/>
    <circle cx="322.909" cy="264.268" r="4.500"/>
    <circle cx="331.313" cy="258.621" r="4.500"/>
    <circle cx="339.717" cy="254.000" r="4.500"/>
    <circle cx="348.121" cy="248.866" r="4.500"/>
    <circle cx="356.525" cy="244.246" r="4.500"/>
    <circle cx="364.929" cy="239.625" r="4.500"/>
    <circle cx="373.333" cy="235.518" r="4.500"/>
    <circle cx="381.737" cy="231.411" r="4.500"/>
    <circle cx="390.141" cy="227.304" r="4.500"/>
    <circle cx="398.545" cy="223.710" r="4.500"/>
    <circle cx="406.949" cy="220.116" r="4.500"/>
    <circle cx="415.354" cy="216.522" r="4.500"/>
    <circle cx="423.758" cy="212.929" r="4.500"/>
    <circle cx="432.162" cy="209.848" r="4.500"/>
    <circle cx="440.566" cy="206.254" r="4.500"/>
    <circle cx="448.970" cy="203.174" r="4.500"/>
    <circle cx="457.374" cy="200.607" r="4.500"/>
    <circle cx="465.778" cy="197.527" r="4.500"/>
    <circle cx="474.182" cy="194.960" r="4.500"/>
    <circle cx="482.586" cy="191.879" r="4.500"/>
    <circle cx="490.990" cy="189.312" r="4.500"/>
    <circle cx="499.394" cy="186.746" r="4.500"/>
    <circle cx="507.798" cy="184.179" r="4.500"/>
    <circle cx="516.202" cy="182.125" r="4.500"/>
    <circle cx="524.606" cy="179.558" r="4.500"/>
    <circle cx="533.010" cy="177.504" r="4.500"/>
    <circle cx="541.414" cy="175.451" r="4.500"/>
    <circle cx="549.818" cy="172.884" r="4.500"/>
    <circle cx="558.222" cy="170.830" r="4.500"/>
    <circle cx="566.626" cy="168.777" r="4.500"/>
    <circle cx="575.030" cy="167.237" r="4.500"/>
    <circle cx="583.434" cy="165.183" r="4.500"/>
    <circle cx="591.838" cy="163.129" r="4.500"/>
    <circle cx="600.242" cy="161.589" r="4.500"/>
    <circle cx="608.646" cy="159.536" r="4.500"/>
    <circle cx="617.051" cy="157.996" r="4.500"/>
    <circle cx="625.455" cy="156.455" r="4.500"/>
    <circle cx="633.859" cy="154.402" r="4.500"/>
    <circle cx="642.263" cy="152.862" r="4.500"/>
    <circle cx="650.667" cy="151.321" r="4.500"/>
    <circle cx="659.071" cy="149.781" r="4.500"/>
    <circle cx="667.475" cy="148.241" r="4.500"/>
    <circle cx="675.879" cy="147.214" r="4.500"/>
    <circle cx="684.283" cy="145.674" r="4.500"/>
    <circle cx="692.687" cy="144.134" r="4.500"/>
    <circle cx="701.091" cy="142.594" r="4.500"/>
    <circle cx="709.495" cy="141.567" r="4.500"/>
    <circle cx="717.899" cy="140.027" r="4.500"/>
    <circle cx="726.303" cy="139.000" r="4.500"/>
    <circle cx="734.707" cy="137.460" r="4.500"/>
    <circle cx="743.111" cy="136.433" r="4.500"/>
    <circle cx="751.515" cy="135.406" r="4.500"/>
    <circle cx="759.919" cy="133.866" r="4.500"/>
    <circle cx="768.323" cy="132.839" r="4.500"/>
    <circle cx="776.727" cy="131.812" r="4.500"/>
    <circle cx="785.131" cy="130.786" r="4.500"/>
    <circle cx="793.535" cy="129.759" r="4.500"/>
    <circle cx="801.939" cy="128.732" r="4.500"/>
    <circle cx="810.343" cy="127.705" r="4.500"/>
    <circle cx="818.747" cy="126.679" r="4.500"/>
    <circle cx="827.152" cy="125.652" r="4.500"/>
    <circle cx="835.556" cy="124.625" r="4.500"/>
    <circle cx="843.960" cy="123.598" r="4.500"/>
    <circle cx="852.364" cy="122.571" r="4.500"/>
    <circle cx="860.768" cy="121.545" r="4.500"/>
    <circle cx="869.172" cy="121.031" r="4.500"/>
    <circle cx="877.576" cy="120.004" r="4.500"/>
    <circle cx="885.980" cy="118.978" r="4.500"/>
    <circle cx="894.384" cy="118.464" r="4.500"/>
    <circle cx="902.788" cy="117.438" r="4.500"/>
    <circle cx="911.192" cy="116.411" r="4.500"/>
    <circle cx="919.596" cy="115.897" r="4.500"/>
    <circle cx="928.000" cy="114.871" r="4.500"/>
    </g>
    <polyline points="87.596,24.000 87.680,24.525 87.681,24.529 87.681,24.533 87.682,24.538 87.683,24.542 87.683,24.546 87.684,24.550 87.685,24.554 87.685,24.559 87.686,24.563 87.687,24.567 87.687,24.572 87.688,24.576 87.689,24.580 87.690,24.585 87.690,24.589 87.691,24.594 87.692,24.599 87.692,24.603 87.693,24.608 87.694,24.612 87.695,24.617 87.695,24.622 87.696,24.627 87.697,24.632 87.698,24.636 87.699,24.641 87.699,24.646 87.700,24.651 87.701,24.656 87.702,24.661 87.703,24.666 87.703,24.672 87.704,24.677 87.705,24.682 87.706,24.687 87.707,24.693 87.708,24.698 87.708,24.703 87.709,24.709 87.710,24.714 87.711,24.720 87.712,24.725 87.713,24.731 87.714,24.736 87.715,24.742 87.716,24.748 87.717,24.753 87.717,24.759 87.718,24.765 87.719,24.771 87.720,24.777 87.721,24.783 87.722,24.789 87.723,24.795 87.724,24.801 87.725,24.807 87.726,24.814 87.727,24.820 87.728,24.826 87.729,24.833 87.730,24.839 87.731,24.845 87.732,24.852 87.733,24.858 87.734,24.865 87.735,24.872 87.737,24.878 87.738,24.885 87.739,24.892 87.740,24.899 87.741,24.906 87.742,24.913 87.743,24.920 87.744,24.927 87.745,24.934 87.747,24.941 87.748,24.949 87.749,24.956 87.750,24.963 87.751,24.971 87.753,24.978 87.754,24.986 87.755,24.993 87.756,25.001 87.757,25.009 87.759,25.016 87.760,25.024 87.761,25.032 87.762,25.040 87.764,25.048 87.765,25.056 87.766,25.064 87.768,25.072 87.769,25.081 87.770,25.089 87.772,25.097 87.773,25.106 87.774,25.114 87.776,25.123 87.777,25.132 87.779,25.140 87.780,25.149 87.781,25.158 87.783,25.167 87.784,25.176 87.786,25.185 87.787,25.194 87.789,25.203 87.790,25.212 87.792,25.222 87.793,25.231 87.795,25.241 87.796,25.250 87.798,25.260 87.799,25.269 87.801,25.279 87.802,25.289 87.804,25.299 87.806,25.309 87.807,25.319 87.809,25.329 87.810,25.339 87.812,25.350 87.814,25.360 87.815,25.371 87.817,25.381 87.819,25.392 87.821,25.402 87.822,25.413 87.824,25.424 87.826,25.435 87.828,25.446 87.829,25.457 87.831,25.469 87.833,25.480 87.835,25.491 87.837,25.503 87.839,25.514 87.840,25.526 87.842,25.538 87.844,25.549 87.846,25.561 87.848,25.573 87.850,25.586 87.852,25.598 87.854,25.610 87.856,25.622 87.858,25.635 87.860,25.647 87.862,25.660 87.864,25.673 87.866,25.686 87.868,25.699 87.870,25.712 87.872,25.725 87.875,25.738 87.877,25.752 87.879,25.765 87.881,25.779 87.883,25.792 87.885,25.806 87.888,25.820 87.890,25.834 87.892,25.848 87.894,25.862 87.897,25.877 87.899,25.891 87.901,25.906 87.904,25.920 87.906,25.935 87.909,25.950 87.911,25.965 87.913,25.980 87.916,25.995 87.918,26.011 87.921,26.026 87.923,26.042 87.926,26.057 87.928,26.073 87.931,26.089 87.933,26.105 87.936,26.121 87.939,26.138 87.941,26.154 87.944,26.171 87.947,26.187 87.949,26.204 87.952,26.221 87.955,26.238 87.958,26.255 87.960,26.273 87.963,26.290 87.966,26.308 87.969,26.325 87.972,26.343 87.975,26.361 87.978,26.380 87.981,26.398 87.984,26.416 87.987,26.435 87.990,26.453 87.993,26.472 87.996,26.491 87.999,26.510 88.002,26.530 88.005,26.549 88.008,26.569 88.011,26.589 88.014,26.608 88.018,26.628 88.021,26.649 88.024,26.669 88.028,26.690 88.031,26.710 88.034,26.731 88.038,26.752 88.041,26.773 88.044,26.794 88.048,26.816 88.051,26.837 88.055,26.859 88.058,26.881 88.062,26.903 88.066,26.926 88.069,26.948 88.073,26.971 88.077,26.994 88.080,27.017 88.084,27.040 88.088,27.063 88.092,27.087 88.095,27.110 88.099,27.134 88.103,27.158 88.107,27.182 88.111,27.207 88.115,27.231 88.119,27.256 88.123,27.281 88.127,27.306 88.131,27.332 88.135,27.357 88.139,27.383 88.144,27.409 88.148,27.435 88.152,27.462 88.156,27.488 88.161,27.515 88.165,27.542 88.169,27.569 88.174,27.596 88.178,27.624 88.183,27.652 88.187,27.680 88.192,27.708 88.196,27.737 88.201,27.765 88.206,27.794 88.210,27.823 88.215,27.853 88.220,27.882 88.225,27.912 88.230,27.942 88.235,27.972 88.239,28.002 88.244,28.033 88.249,28.064 88.254,28.095 88.260,28.127 88.265,28.158 88.270,28.190 88.275,28.222 88.280,28.255 88.286,28.287 88.291,28.320 88.296,28.353 88.302,28.387 88.307,28.420 88.313,28.454 88.318,28.488 88.324,28.523 88.329,28.557 88.335,28.592 88.341,28.627 88.346,28.663 88.352,28.698 88.358,28.734 88.364,28.771 88.370,28.807 88.376,28.844 88.382,28.881 88.388,28.919 88.394,28.956 88.400,28.994 88.406,29.032 88.413,29.071 88.419,29.110 88.425,29.149 88.432,29.188 88.438,29.228 88.444,29.268 88.451,29.308 88.458,29.349 88.464,29.390 88.471,29.431 88.478,29.473 88.484,29.514 88.491,29.557 88.498,29.599 88.505,29.642 88.512,29.685 88.519,29.729 88.526,29.772 88.534,29.817 88.541,29.861 88.548,29.906 88.555,29.951 88.563,29.997 88.570,30.042 88.578,30.089 88.585,30.135 88.593,30.182 88.601,30.229 88.608,30.277 88.616,30.325 88.624,30.373 88.632,30.422 88.640,30.471 88.648,30.520 88.656,30.570 88.664,30.620 88.673,30.671 88.681,30.722 88.689,30.773 88.698,30.825 88.706,30.877 88.715,30.929 88.723,30.982 88.732,31.036 88.741,31.089 88.750,31.143 88.759,31.198 88.768,31.253 88.777,31.308 88.786,31.364 88.795,31.420 88.804,31.477 88.813,31.534 88.823,31.591 88.832,31.649 88.842,31.708 88.851,31.766 88.861,31.826 88.871,31.885 88.881,31.945 88.891,32.006 88.901,32.067 88.911,32.128 88.921,32.190 88.931,32.253 88.941,32.316 88.952,32.379 88.962,32.443 88.973,32.507 88.983,32.572 88.994,32.637 89.005,32.703 89.016,32.769 89.027,32.836 89.038,32.903 89.049,32.971 89.060,33.039 89.071,33.108 89.083,33.177 89.094,33.247 89.106,33.318 89.117,33.389 89.129,33.460 89.141,33.532 89.153,33.604 89.165,33.677 89.177,33.751 89.189,33.825 89.201,33.900 89.214,33.975 89.226,34.051 89.239,34.127 89.251,34.204 89.264,34.282 89.277,34.360 89.290,34.439 89.303,34.518 89.316,34.598 89.329,34.678 89.343,34.759 89.356,34.841 89.370,34.923 89.384,35.006 89.397,35.090 89.411,35.174 89.425,35.259 89.439,35.344 89.454,35.430 89.468,35.517 89.482,35.604 89.497,35.692 89.511,35.781 89.526,35.870 89.541,35.960 89.556,36.051 89.571,36.142 89.586,36.234 89.602,36.327 89.617,36.420 89.633,36.514 89.649,36.609 89.664,36.704 89.680,36.800 89.696,36.897 89.713,36.995 89.729,37.093 89.745,37.192 89.762,37.292 89.779,37.393 89.796,37.494 89.812,37.596 89.830,37.699 89.847,37.802 89.864,37.907 89.882,38.012 89.899,38.118 89.917,38.224 89.935,38.332 89.953,38.440 89.971,38.549 89.989,38.659 90.008,38.769 90.027,38.881 90.045,38.993 90.064,39.106 90.083,39.220 90.102,39.335 90.122,39.451 90.141,39.567 90.161,39.684 90.181,39.803 90.200,39.922 90.221,40.042 90.241,40.162 90.261,40.284 90.282,40.407 90.302,40.530 90.323,40.655 90.344,40.780 90.366,40.906 90.387,41.033 90.408,41.162 90.430,41.291 90.452,41.421 90.474,41.552 90.496,41.684 90.519,41.816 90.541,41.950 90.564,42.085 90.587,42.221 90.610,42.358 90.633,42.496 90.656,42.634 90.680,42.774 90.704,42.915 90.728,43.057 90.752,43.200 90.776,43.344 90.801,43.489 90.826,43.635 90.850,43.782 90.876,43.930 90.901,44.079 90.926,44.230 90.952,44.381 90.978,44.534 91.004,44.687 91.030,44.842 91.057,44.998 91.083,45.155 91.110,45.313 91.137,45.472 91.165,45.633 91.192,45.794 91.220,45.957 91.248,46.121 91.276,46.286 91.304,46.452 91.333,46.620 91.362,46.789 91.391,46.959 91.420,47.130 91.450,47.302 91.479,47.476 91.509,47.651 91.539,47.827 91.570,48.004 91.601,48.183 91.631,48.363 91.663,48.544 91.694,48.727 91.725,48.910 91.757,49.096 91.789,49.282 91.822,49.470 91.854,49.659 91.887,49.849 91.920,50.041 91.954,50.235 91.987,50.429 92.021,50.625 92.055,50.823 92.090,51.021 92.124,51.222 92.159,51.423 92.194,51.626 92.230,51.831 92.266,52.037 92.302,52.244 92.338,52.453 92.374,52.663 92.411,52.875 92.448,53.088 92.486,53.303 92.523,53.520 92.561,53.738 92.600,53.957 92.638,54.178 92.677,54.400 92.716,54.625 92.756,54.850 92.796,55.077 92.836,55.306 92.876,55.537 92.917,55.769 92.958,56.002 92.999,56.238 93.041,56.475 93.083,56.713 93.125,56.954 93.168,57.196 93.211,57.439 93.254,57.685 93.298,57.932 93.342,58.180 93.386,58.431 93.431,58.683 93.476,58.937 93.521,59.193 93.567,59.450 93.613,59.710 93.659,59.971 93.706,60.233 93.753,60.498 93.801,60.765 93.848,61.033 93.897,61.303 93.945,61.575 93.994,61.849 94.043,62.125 94.093,62.403 94.143,62.682 94.194,62.964 94.245,63.247 94.296,63.532 94.348,63.820 94.400,64.109 94.452,64.400 94.505,64.693 94.558,64.989 94.612,65.286 94.666,65.585 94.721,65.886 94.776,66.190 94.831,66.495 94.887,66.802 94.943,67.112 95.000,67.423 95.057,67.737 95.114,68.053 95.172,68.371 95.231,68.691 95.289,69.013 95.349,69.337 95.409,69.664 95.469,69.992 95.530,70.323 95.591,70.656 95.652,70.992 95.714,71.329 95.777,71.669 95.840,72.011 95.904,72.355 95.968,72.702 96.032,73.051 96.097,73.402 96.163,73.755 96.229,74.111 96.296,74.469 96.363,74.830 96.430,75.193 96.498,75.558 96.567,75.925 96.636,76.295 96.706,76.668 96.776,77.043 96.847,77.420 96.918,77.800 96.990,78.182 97.063,78.567 97.136,78.954 97.209,79.344 97.283,79.736 97.358,80.131 97.433,80.528 97.509,80.928 97.586,81.330 97.663,81.735 97.740,82.143 97.819,82.553 97.897,82.966 97.977,83.381 98.057,83.799 98.137,84.220 98.219,84.643 98.301,85.069 98.383,85.498 98.466,85.930 98.550,86.364 98.635,86.801 98.720,87.240 98.806,87.683 98.892,88.128 98.979,88.576 99.067,89.027 99.155,89.480 99.245,89.937 99.334,90.396 99.425,90.858 99.516,91.323 99.608,91.791 99.701,92.261 99.794,92.735 99.888,93.211 99.983,93.691 100.078,94.173 100.175,94.659 100.272,95.147 100.369,95.638 100.468,96.132 100.567,96.629 100.667,97.130 100.768,97.633 100.870,98.139 100.972,98.648 101.075,99.161 101.179,99.676 101.284,100.195 101.389,100.716 101.496,101.241 101.603,101.769 101.711,102.300 101.820,102.834 101.929,103.371 102.040,103.912 102.151,104.455 102.263,105.002 102.377,105.552 102.491,106.105 102.605,106.661 102.721,107.221 102.838,107.784 102.955,108.350 103.074,108.919 103.193,109.492 103.313,110.068 103.435,110.647 103.557,111.230 103.680,111.816 103.804,112.405 103.929,112.998 104.055,113.593 104.182,114.193 104.310,114.795 104.438,115.401 104.568,116.011 104.699,116.624 104.831,117.240 104.964,117.859 105.098,118.483 105.233,119.109 105.369,119.739 105.506,120.373 105.644,121.009 105.783,121.650 105.923,122.294 106.065,122.941 106.207,123.592 106.351,124.246 106.495,124.904 106.641,125.566 106.788,126.231 106.936,126.899 107.085,127.571 107.235,128.247 107.387,128.926 107.539,129.609 107.693,130.295 107.848,130.985 108.004,131.679 108.162,132.376 108.320,133.077 108.480,133.781 108.641,134.489 108.803,135.201 108.967,135.916 109.132,136.635 109.298,137.358 109.465,138.084 109.634,138.814 109.804,139.548 109.975,140.285 110.148,141.026 110.322,141.771 110.497,142.519 110.673,143.271 110.851,144.027 111.031,144.786 111.211,145.549 111.393,146.316 111.577,147.086 111.762,147.861 111.948,148.638 112.136,149.420 112.325,150.205 112.516,150.995 112.708,151.787 112.902,152.584 113.097,153.384 113.294,154.188 113.492,154.996 113.691,155.807 113.893,156.622 114.095,157.441 114.300,158.264 114.506,159.090 114.713,159.920 114.922,160.754 115.133,161.592 115.345,162.433 115.559,163.278 115.775,164.127 115.992,164.979 116.211,165.835 116.432,166.695 116.654,167.559 116.878,168.426 117.104,169.297 117.332,170.171 117.561,171.050 117.792,171.932 118.025,172.818 118.260,173.707 118.496,174.600 118.734,175.497 118.974,176.397 119.216,177.302 119.460,178.209 119.706,179.121 119.954,180.036 120.203,180.954 120.454,181.877 120.708,182.803 120.963,183.732 121.221,184.665 121.480,185.602 121.741,186.542 122.004,187.486 122.270,188.434 122.537,189.385 122.807,190.339 123.078,191.297 123.352,192.259 123.627,193.224 123.905,194.192 124.185,195.164 124.467,196.140 124.752,197.119 125.038,198.101 125.327,199.087 125.618,200.076 125.911,201.069 126.207,202.065 126.504,203.065 126.804,204.067 127.107,205.073 127.411,206.083 127.718,207.096 128.028,208.112 128.340,209.131 128.654,210.153 128.970,211.179 129.289,212.208 129.611,213.240 129.935,214.276 130.261,215.314 130.590,216.356 130.922,217.401 131.256,218.448 131.593,219.499 131.932,220.553 132.274,221.610 132.618,222.670 132.966,223.733 133.315,224.799 133.668,225.868 134.023,226.940 134.381,228.015 134.742,229.093 135.106,230.173 135.472,231.256 135.841,232.342 136.213,233.431 136.588,234.523 136.966,235.617 137.347,236.714 137.730,237.813 138.117,238.916 138.506,240.020 138.899,241.128 139.295,242.238 139.693,243.350 140.095,244.465 140.500,245.583 140.908,246.702 141.319,247.825 141.733,248.949 142.151,250.076 142.571,251.205 142.995,252.337 143.422,253.470 143.853,254.606 144.287,255.744 144.724,256.884 145.164,258.027 145.608,259.171 146.056,260.317 146.506,261.466 146.961,262.616 147.419,263.768 147.880,264.922 148.345,266.078 148.813,267.236 149.285,268.395 149.761,269.556 150.240,270.719 150.723,271.884 151.210,273.050 151.701,274.218 152.195,275.387 152.693,276.558 153.195,277.731 153.701,278.904 154.211,280.079 154.724,281.256 155.242,282.434 155.764,283.613 156.289,284.793 156.819,285.974 157.353,287.157 157.891,288.340 158.433,289.525 158.979,290.711 159.530,291.897 160.084,293.085 160.643,294.273 161.207,295.463 161.774,296.653 162.346,297.844 162.923,299.035 163.503,300.227 164.089,301.420 164.679,302.613 165.273,303.807 165.872,305.002 166.476,306.196 167.084,307.391 167.697,308.587 168.315,309.783 168.937,310.979 169.564,312.175 170.196,313.371 170.833,314.568 171.475,315.764 172.122,316.961 172.774,318.157 173.431,319.354 174.092,320.550 174.759,321.746 175.432,322.942 176.109,324.138 176.791,325.333 177.479,326.528 178.172,327.723 178.871,328.917 179.575,330.110 180.284,331.303 180.999,332.496 181.719,333.687 182.445,334.878 183.176,336.069 183.913,337.258 184.656,338.447 185.404,339.634 186.159,340.821 186.919,342.007 187.685,343.192 188.456,344.375 189.234,345.558 190.018,346.739 190.808,347.919 191.604,349.098 192.406,350.276 193.214,351.452 194.028,352.626 194.849,353.800 195.676,354.971 196.510,356.142 197.349,357.310 198.196,358.477 199.049,359.642 199.908,360.806 200.774,361.967 201.647,363.127 202.526,364.285 203.413,365.441 204.306,366.595 205.206,367.747 206.113,368.896 207.026,368.590 207.947,367.440 208.876,366.288 209.811,365.133 210.753,363.977 211.703,362.818 212.660,361.658 213.624,360.496 214.596,359.332 215.575,358.166 216.562,356.999 217.557,355.830 218.559,354.660 219.569,353.487 220.587,352.314 221.612,351.139 222.646,349.962 223.687,348.784 224.736,347.605 225.794,346.425 226.860,345.243 227.933,344.060 229.016,342.876 230.106,341.691 231.205,340.505 232.312,339.318 233.428,338.130 234.553,336.941 235.686,335.752 236.828,334.561 237.979,333.370 239.139,332.178 240.307,330.986 241.485,329.792 242.671,328.599 243.867,327.405 245.072,326.210 246.287,325.015 247.510,323.819 248.744,322.624 249.986,321.428 251.238,320.232 252.500,319.035 253.772,317.839 255.053,316.642 256.345,315.446 257.646,314.249 258.957,313.053 260.279,311.856 261.610,310.660 262.952,309.464 264.304,308.269 265.667,307.073 267.040,305.878 268.424,304.683 269.818,303.489 271.223,302.296 272.639,301.102 274.066,299.910 275.504,298.718 276.953,297.526 278.413,296.336 279.885,295.146 281.368,293.957 282.862,292.769 284.368,291.581 285.885,290.395 287.414,289.210 288.955,288.025 290.508,286.842 292.072,285.660 293.649,284.478 295.238,283.299 296.839,282.120 298.453,280.942 300.079,279.766 301.717,278.592 303.368,277.418 305.032,276.246 306.709,275.076 308.399,273.907 310.101,272.740 311.817,271.574 313.546,270.410 315.289,269.247 317.044,268.086 318.814,266.927 320.597,265.770 322.393,264.615 324.204,263.461 326.029,262.309 327.867,261.160 329.720,260.012 331.587,258.866 333.468,257.722 335.364,256.580 337.275,255.441 339.200,254.303 341.141,253.168 343.096,252.035 345.066,250.904 347.051,249.776 349.052,248.649 351.068,247.525 353.100,246.404 355.147,245.285 357.211,244.168 359.290,243.054 361.385,241.942 363.496,240.833 365.623,239.726 367.767,238.622 369.928,237.520 372.105,236.421 374.299,235.325 376.510,234.232 378.738,233.141 380.983,232.053 383.245,230.968 385.525,229.885 387.822,228.805 390.138,227.729 392.471,226.655 394.821,225.583 397.191,224.515 399.578,223.450 401.984,222.388 404.408,221.329 406.851,220.272 409.313,219.219 411.794,218.169 414.294,217.122 416.813,216.078 419.352,215.037 421.910,214.000 424.488,212.965 427.086,211.934 429.704,210.906 432.342,209.881 435.000,208.859 437.679,207.841 440.379,206.826 443.099,205.814 445.840,204.805 448.603,203.800 451.387,202.798 454.192,201.800 457.019,200.804 459.868,199.813 462.738,198.824 465.631,197.839 468.546,196.858 471.484,195.880 474.444,194.905 477.427,193.934 480.433,192.967 483.463,192.002 486.515,191.042 489.592,190.085 492.691,189.131 495.815,188.181 498.963,187.235 502.135,186.292 505.332,185.352 508.553,184.417 511.799,183.484 515.070,182.556 518.367,181.631 521.689,180.709 525.036,179.792 528.409,178.878 531.808,177.967 535.234,177.060 538.686,176.157 542.164,175.258 545.669,174.362 549.202,173.470 552.761,172.581 556.348,171.697 559.963,170.816 563.606,169.938 567.276,169.065 570.975,168.195 574.703,167.328 578.459,166.466 582.244,165.607 586.058,164.752 589.902,163.900 593.776,163.053 597.679,162.209 601.612,161.368 605.576,160.532 609.570,159.699 613.595,158.870 617.651,158.045 621.739,157.223 625.858,156.405 630.008,155.591 634.191,154.780 638.406,153.974 642.653,153.171 646.934,152.371 651.247,151.576 655.593,150.784 659.973,149.996 664.387,149.212 668.835,148.431 673.317,147.654 677.834,146.881 682.385,146.111 686.972,145.345 691.594,144.583 696.251,143.825 700.945,143.070 705.674,142.319 710.441,141.572 715.243,140.828 720.083,140.088 724.961,139.352 729.876,138.619 734.828,137.890 739.819,137.165 744.849,136.444 749.917,135.726 755.024,135.011 760.171,134.301 765.358,133.593 770.584,132.890 775.851,132.190 781.158,131.494 786.506,130.801 791.896,130.112 797.327,129.427 802.800,128.745 808.315,128.067 813.872,127.392 819.473,126.721 825.117,126.053 830.804,125.389 836.535,124.729 842.310,124.072 848.130,123.418 853.995,122.768 859.905,122.122 865.860,121.479 871.861,120.840 877.909,120.204 884.003,119.571 890.145,118.942 896.333,118.316 902.570,117.694 908.854,117.075 915.187,116.460 921.569,115.848 928.000,115.240" fill="none" stroke="#000000" stroke-width="2.800" stroke-opacity="1.000"/>
  </g>
  <rect x="96.000" y="24.000" width="832.000" height="368.000" fill="none" stroke="#3f3f46" stroke-width="1.8"/>
  <rect x="718.500" y="40.000" width="193.500" height="82.000" rx="6" ry="6" fill="#ffffff" fill-opacity="0.94" stroke="#000000" stroke-width="1.2"/>
  <line x1="732.500" y1="66.000" x2="772.500" y2="66.000" stroke="#000000" stroke-width="2.800" stroke-opacity="1.000"/>
  <text x="782.500" y="73.000" text-anchor="start" fill="#111827" font-family="'Lato', 'Avenir Next', 'Segoe UI', 'Helvetica Neue', sans-serif" font-size="20.0">Theoretical</text>
  <circle cx="752.500" cy="96.000" r="4.500" fill="#5fa8e8" fill-opacity="1.000"/>
  <text x="782.500" y="103.000" text-anchor="start" fill="#111827" font-family="'Lato', 'Avenir Next', 'Segoe UI', 'Helvetica Neue', sans-serif" font-size="20.0">AutoLyap</text>
  <line x1="96.000" y1="392.000" x2="96.000" y2="384.000" stroke="#3f3f46" stroke-width="1.4"/>
  <text x="96.000" y="438.000" text-anchor="middle" fill="#52525b" font-family="'Lato', 'Avenir Next', 'Segoe UI', 'Helvetica Neue', sans-serif" font-size="21">0.05</text>
  <line x1="179.200" y1="392.000" x2="179.200" y2="384.000" stroke="#3f3f46" stroke-width="1.4"/>
  <text x="179.200" y="438.000" text-anchor="middle" fill="#52525b" font-family="'Lato', 'Avenir Next', 'Segoe UI', 'Helvetica Neue', sans-serif" font-size="21">0.545</text>
  <line x1="262.400" y1="392.000" x2="262.400" y2="384.000" stroke="#3f3f46" stroke-width="1.4"/>
  <text x="262.400" y="438.000" text-anchor="middle" fill="#52525b" font-family="'Lato', 'Avenir Next', 'Segoe UI', 'Helvetica Neue', sans-serif" font-size="21">1.04</text>
  <line x1="345.600" y1="392.000" x2="345.600" y2="384.000" stroke="#3f3f46" stroke-width="1.4"/>
  <text x="345.600" y="438.000" text-anchor="middle" fill="#52525b" font-family="'Lato', 'Avenir Next', 'Segoe UI', 'Helvetica Neue', sans-serif" font-size="21">1.535</text>
  <line x1="428.800" y1="392.000" x2="428.800" y2="384.000" stroke="#3f3f46" stroke-width="1.4"/>
  <text x="428.800" y="438.000" text-anchor="middle" fill="#52525b" font-family="'Lato', 'Avenir Next', 'Segoe UI', 'Helvetica Neue', sans-serif" font-size="21">2.03</text>
  <line x1="512.000" y1="392.000" x2="512.000" y2="384.000" stroke="#3f3f46" stroke-width="1.4"/>
  <text x="512.000" y="438.000" text-anchor="middle" fill="#52525b" font-family="'Lato', 'Avenir Next', 'Segoe UI', 'Helvetica Neue', sans-serif" font-size="21">2.525</text>
  <line x1="595.200" y1="392.000" x2="595.200" y2="384.000" stroke="#3f3f46" stroke-width="1.4"/>
  <text x="595.200" y="438.000" text-anchor="middle" fill="#52525b" font-family="'Lato', 'Avenir Next', 'Segoe UI', 'Helvetica Neue', sans-serif" font-size="21">3.02</text>
  <line x1="678.400" y1="392.000" x2="678.400" y2="384.000" stroke="#3f3f46" stroke-width="1.4"/>
  <text x="678.400" y="438.000" text-anchor="middle" fill="#52525b" font-family="'Lato', 'Avenir Next', 'Segoe UI', 'Helvetica Neue', sans-serif" font-size="21">3.515</text>
  <line x1="761.600" y1="392.000" x2="761.600" y2="384.000" stroke="#3f3f46" stroke-width="1.4"/>
  <text x="761.600" y="438.000" text-anchor="middle" fill="#52525b" font-family="'Lato', 'Avenir Next', 'Segoe UI', 'Helvetica Neue', sans-serif" font-size="21">4.01</text>
  <line x1="844.800" y1="392.000" x2="844.800" y2="384.000" stroke="#3f3f46" stroke-width="1.4"/>
  <text x="844.800" y="438.000" text-anchor="middle" fill="#52525b" font-family="'Lato', 'Avenir Next', 'Segoe UI', 'Helvetica Neue', sans-serif" font-size="21">4.505</text>
  <line x1="928.000" y1="392.000" x2="928.000" y2="384.000" stroke="#3f3f46" stroke-width="1.4"/>
  <text x="928.000" y="438.000" text-anchor="middle" fill="#52525b" font-family="'Lato', 'Avenir Next', 'Segoe UI', 'Helvetica Neue', sans-serif" font-size="21">5</text>
  <line x1="104.000" y1="392.000" x2="96.000" y2="392.000" stroke="#3f3f46" stroke-width="1.4"/>
  <text x="82.000" y="399.000" text-anchor="end" fill="#52525b" font-family="'Lato', 'Avenir Next', 'Segoe UI', 'Helvetica Neue', sans-serif" font-size="21">0.3</text>
  <line x1="104.000" y1="339.429" x2="96.000" y2="339.429" stroke="#3f3f46" stroke-width="1.4"/>
  <text x="82.000" y="346.429" text-anchor="end" fill="#52525b" font-family="'Lato', 'Avenir Next', 'Segoe UI', 'Helvetica Neue', sans-serif" font-size="21">0.4</text>
  <line x1="104.000" y1="286.857" x2="96.000" y2="286.857" stroke="#3f3f46" stroke-width="1.4"/>
  <text x="82.000" y="293.857" text-anchor="end" fill="#52525b" font-family="'Lato', 'Avenir Next', 'Segoe UI', 'Helvetica Neue', sans-serif" font-size="21">0.5</text>
  <line x1="104.000" y1="234.286" x2="96.000" y2="234.286" stroke="#3f3f46" stroke-width="1.4"/>
  <text x="82.000" y="241.286" text-anchor="end" fill="#52525b" font-family="'Lato', 'Avenir Next', 'Segoe UI', 'Helvetica Neue', sans-serif" font-size="21">0.6</text>
  <line x1="104.000" y1="181.714" x2="96.000" y2="181.714" stroke="#3f3f46" stroke-width="1.4"/>
  <text x="82.000" y="188.714" text-anchor="end" fill="#52525b" font-family="'Lato', 'Avenir Next', 'Segoe UI', 'Helvetica Neue', sans-serif" font-size="21">0.7</text>
  <line x1="104.000" y1="129.143" x2="96.000" y2="129.143" stroke="#3f3f46" stroke-width="1.4"/>
  <text x="82.000" y="136.143" text-anchor="end" fill="#52525b" font-family="'Lato', 'Avenir Next', 'Segoe UI', 'Helvetica Neue', sans-serif" font-size="21">0.8</text>
  <line x1="104.000" y1="76.571" x2="96.000" y2="76.571" stroke="#3f3f46" stroke-width="1.4"/>
  <text x="82.000" y="83.571" text-anchor="end" fill="#52525b" font-family="'Lato', 'Avenir Next', 'Segoe UI', 'Helvetica Neue', sans-serif" font-size="21">0.9</text>
  <line x1="104.000" y1="24.000" x2="96.000" y2="24.000" stroke="#3f3f46" stroke-width="1.4"/>
  <text x="82.000" y="31.000" text-anchor="end" fill="#52525b" font-family="'Lato', 'Avenir Next', 'Segoe UI', 'Helvetica Neue', sans-serif" font-size="21">1</text>
  <text x="512.000" y="470.000" text-anchor="middle" fill="#111827" font-family="'Lato', 'Avenir Next', 'Segoe UI', 'Helvetica Neue', sans-serif" font-size="28">γ</text>
  <text x="30.0" y="208.000" text-anchor="middle" transform="rotate(0 30.0 208.000)" fill="#111827" font-family="'Lato', 'Avenir Next', 'Segoe UI', 'Helvetica Neue', sans-serif" font-size="28">ρ</text>
</svg>
