<?xml version="1.0" encoding="UTF-8"?>
<svg xmlns="http://www.w3.org/2000/svg" width="960" height="480" viewBox="0 0 960 480" role="img" aria-label="Malitsky-Tam FRB rho versus gamma">
  <title></title>
  <desc>Malitsky-Tam FRB rho versus gamma.</desc>
  <rect x="0" y="0" width="960" height="480" fill="#ffffff"/>
  <rect x="96.000" y="24.000" width="832.000" height="368.000" fill="#f8fafc"/>
  <defs>
    <clipPath id="plot-area-clip">
      <rect x="96.000" y="24.000" width="832.000" height="368.000"/>
    </clipPath>
  </defs>
  <style type="text/css"><![CDATA[
@font-face {
  font-family: 'Lato';
  src:
    url('css/fonts/lato-normal.woff2') format('woff2'),
    url('../_static/css/fonts/lato-normal.woff2') format('woff2'),
    url('css/fonts/lato-normal.woff') format('woff'),
    url('../_static/css/fonts/lato-normal.woff') format('woff');
  font-style: normal;
  font-weight: 400;
}
@font-face {
  font-family: 'Lato';
  src:
    url('css/fonts/lato-normal-italic.woff2') format('woff2'),
    url('../_static/css/fonts/lato-normal-italic.woff2') format('woff2'),
    url('css/fonts/lato-normal-italic.woff') format('woff'),
    url('../_static/css/fonts/lato-normal-italic.woff') format('woff');
  font-style: italic;
  font-weight: 400;
}
@font-face {
  font-family: 'Lato';
  src:
    url('css/fonts/lato-bold.woff2') format('woff2'),
    url('../_static/css/fonts/lato-bold.woff2') format('woff2'),
    url('css/fonts/lato-bold.woff') format('woff'),
    url('../_static/css/fonts/lato-bold.woff') format('woff');
  font-style: normal;
  font-weight: 700;
}
@font-face {
  font-family: 'Lato';
  src:
    url('css/fonts/lato-bold-italic.woff2') format('woff2'),
    url('../_static/css/fonts/lato-bold-italic.woff2') format('woff2'),
    url('css/fonts/lato-bold-italic.woff') format('woff'),
    url('../_static/css/fonts/lato-bold-italic.woff') format('woff');
  font-style: italic;
  font-weight: 700;
}
  ]]></style>
  <line x1="96.000" y1="24.000" x2="96.000" y2="392.000" stroke="#9ca3af" stroke-width="1.350"/>
  <line x1="262.400" y1="24.000" x2="262.400" y2="392.000" stroke="#9ca3af" stroke-width="1.350"/>
  <line x1="428.800" y1="24.000" x2="428.800" y2="392.000" stroke="#9ca3af" stroke-width="1.350"/>
  <line x1="595.200" y1="24.000" x2="595.200" y2="392.000" stroke="#9ca3af" stroke-width="1.350"/>
  <line x1="761.600" y1="24.000" x2="761.600" y2="392.000" stroke="#9ca3af" stroke-width="1.350"/>
  <line x1="928.000" y1="24.000" x2="928.000" y2="392.000" stroke="#9ca3af" stroke-width="1.350"/>
  <line x1="96.000" y1="392.000" x2="928.000" y2="392.000" stroke="#9ca3af" stroke-width="1.350"/>
  <line x1="96.000" y1="330.667" x2="928.000" y2="330.667" stroke="#9ca3af" stroke-width="1.350"/>
  <line x1="96.000" y1="269.333" x2="928.000" y2="269.333" stroke="#9ca3af" stroke-width="1.350"/>
  <line x1="96.000" y1="208.000" x2="928.000" y2="208.000" stroke="#9ca3af" stroke-width="1.350"/>
  <line x1="96.000" y1="146.667" x2="928.000" y2="146.667" stroke="#9ca3af" stroke-width="1.350"/>
  <line x1="96.000" y1="85.333" x2="928.000" y2="85.333" stroke="#9ca3af" stroke-width="1.350"/>
  <line x1="96.000" y1="24.000" x2="928.000" y2="24.000" stroke="#9ca3af" stroke-width="1.350"/>
  <g clip-path="url(#plot-area-clip)">
    <g fill="#5fa8e8" fill-opacity="0.900">
    <circle cx="104.320" cy="36.084" r="4.500"/>
    <circle cx="112.640" cy="47.811" r="4.500"/>
    <circle cx="120.960" cy="59.201" r="4.500"/>
    <circle cx="129.280" cy="70.255" r="4.500"/>
    <circle cx="137.600" cy="80.991" r="4.500"/>
    <circle cx="145.920" cy="91.430" r="4.500"/>
    <circle cx="154.240" cy="101.548" r="4.500"/>
    <circle cx="162.560" cy="111.378" r="4.500"/>
    <circle cx="170.880" cy="120.926" r="4.500"/>
    <circle cx="179.200" cy="130.218" r="4.500"/>
    <circle cx="187.520" cy="139.186" r="4.500"/>
    <circle cx="195.840" cy="147.944" r="4.500"/>
    <circle cx="204.160" cy="156.420" r="4.500"/>
    <circle cx="212.480" cy="164.644" r="4.500"/>
    <circle cx="220.800" cy="172.617" r="4.500"/>
    <circle cx="229.120" cy="180.329" r="4.500"/>
    <circle cx="237.440" cy="187.825" r="4.500"/>
    <circle cx="245.760" cy="195.048" r="4.500"/>
    <circle cx="254.080" cy="202.040" r="4.500"/>
    <circle cx="262.400" cy="208.805" r="4.500"/>
    <circle cx="270.720" cy="215.368" r="4.500"/>
    <circle cx="279.040" cy="221.678" r="4.500"/>
    <circle cx="287.360" cy="227.772" r="4.500"/>
    <circle cx="295.680" cy="233.710" r="4.500"/>
    <circle cx="304.000" cy="239.363" r="4.500"/>
    <circle cx="312.320" cy="244.860" r="4.500"/>
    <circle cx="320.640" cy="250.142" r="4.500"/>
    <circle cx="328.960" cy="255.267" r="4.500"/>
    <circle cx="337.280" cy="260.214" r="4.500"/>
    <circle cx="345.600" cy="264.889" r="4.500"/>
    <circle cx="353.920" cy="269.476" r="4.500"/>
    <circle cx="362.240" cy="273.817" r="4.500"/>
    <circle cx="370.560" cy="278.089" r="4.500"/>
    <circle cx="378.880" cy="282.157" r="4.500"/>
    <circle cx="387.200" cy="286.124" r="4.500"/>
    <circle cx="395.520" cy="289.788" r="4.500"/>
    <circle cx="403.840" cy="293.475" r="4.500"/>
    <circle cx="412.160" cy="297.062" r="4.500"/>
    <circle cx="420.480" cy="300.418" r="4.500"/>
    <circle cx="428.800" cy="303.727" r="4.500"/>
    <circle cx="437.120" cy="306.858" r="4.500"/>
    <circle cx="445.440" cy="309.869" r="4.500"/>
    <circle cx="453.760" cy="312.785" r="4.500"/>
    <circle cx="462.080" cy="315.616" r="4.500"/>
    <circle cx="470.400" cy="318.294" r="4.500"/>
    <circle cx="478.720" cy="320.990" r="4.500"/>
    <circle cx="487.040" cy="323.517" r="4.500"/>
    <circle cx="495.360" cy="325.950" r="4.500"/>
    <circle cx="503.680" cy="328.346" r="4.500"/>
    <circle cx="512.000" cy="330.561" r="4.500"/>
    <circle cx="520.320" cy="322.283" r="4.500"/>
    <circle cx="528.640" cy="313.896" r="4.500"/>
    <circle cx="536.960" cy="305.514" r="4.500"/>
    <circle cx="545.280" cy="297.130" r="4.500"/>
    <circle cx="553.600" cy="288.749" r="4.500"/>
    <circle cx="561.920" cy="280.376" r="4.500"/>
    <circle cx="570.240" cy="272.007" r="4.500"/>
    <circle cx="578.560" cy="263.649" r="4.500"/>
    <circle cx="586.880" cy="255.295" r="4.500"/>
    <circle cx="595.200" cy="246.952" r="4.500"/>
    <circle cx="603.520" cy="238.633" r="4.500"/>
    <circle cx="611.840" cy="230.322" r="4.500"/>
    <circle cx="620.160" cy="222.026" r="4.500"/>
    <circle cx="628.480" cy="213.755" r="4.500"/>
    <circle cx="636.800" cy="205.484" r="4.500"/>
    <circle cx="645.120" cy="197.255" r="4.500"/>
    <circle cx="653.440" cy="189.032" r="4.500"/>
    <circle cx="661.760" cy="180.833" r="4.500"/>
    <circle cx="670.080" cy="172.663" r="4.500"/>
    <circle cx="678.400" cy="164.502" r="4.500"/>
    <circle cx="686.720" cy="156.380" r="4.500"/>
    <circle cx="695.040" cy="148.276" r="4.500"/>
    <circle cx="703.360" cy="140.198" r="4.500"/>
    <circle cx="711.680" cy="132.140" r="4.500"/>
    <circle cx="720.000" cy="124.129" r="4.500"/>
    <circle cx="728.320" cy="116.128" r="4.500"/>
    <circle cx="736.640" cy="108.156" r="4.500"/>
    <circle cx="744.960" cy="100.227" r="4.500"/>
    <circle cx="753.280" cy="92.305" r="4.500"/>
    <circle cx="761.600" cy="84.424" r="4.500"/>
    <circle cx="769.920" cy="76.573" r="4.500"/>
    <circle cx="778.240" cy="68.761" r="4.500"/>
    <circle cx="786.560" cy="60.982" r="4.500"/>
    <circle cx="794.880" cy="53.219" r="4.500"/>
    <circle cx="803.200" cy="45.469" r="4.500"/>
    <circle cx="811.520" cy="37.773" r="4.500"/>
    <circle cx="819.840" cy="30.118" r="4.500"/>
    </g>
    <polyline points="96.042,24.008 96.042,24.008 96.042,24.008 96.043,24.008 96.043,24.008 96.043,24.008 96.044,24.008 96.044,24.008 96.044,24.008 96.045,24.008 96.045,24.008 96.045,24.008 96.046,24.008 96.046,24.008 96.046,24.009 96.047,24.009 96.047,24.009 96.047,24.009 96.048,24.009 96.048,24.009 96.049,24.009 96.049,24.009 96.049,24.009 96.050,24.009 96.050,24.009 96.050,24.009 96.051,24.009 96.051,24.009 96.052,24.010 96.052,24.010 96.052,24.010 96.053,24.010 96.053,24.010 96.054,24.010 96.054,24.010 96.054,24.010 96.055,24.010 96.055,24.010 96.056,24.010 96.056,24.010 96.057,24.010 96.057,24.011 96.057,24.011 96.058,24.011 96.058,24.011 96.059,24.011 96.059,24.011 96.060,24.011 96.060,24.011 96.061,24.011 96.061,24.011 96.062,24.011 96.062,24.011 96.063,24.012 96.063,24.012 96.063,24.012 96.064,24.012 96.064,24.012 96.065,24.012 96.065,24.012 96.066,24.012 96.066,24.012 96.067,24.012 96.067,24.012 96.068,24.013 96.069,24.013 96.069,24.013 96.070,24.013 96.070,24.013 96.071,24.013 96.071,24.013 96.072,24.013 96.072,24.013 96.073,24.013 96.073,24.014 96.074,24.014 96.075,24.014 96.075,24.014 96.076,24.014 96.076,24.014 96.077,24.014 96.078,24.014 96.078,24.014 96.079,24.015 96.079,24.015 96.080,24.015 96.081,24.015 96.081,24.015 96.082,24.015 96.082,24.015 96.083,24.015 96.084,24.015 96.084,24.016 96.085,24.016 96.086,24.016 96.086,24.016 96.087,24.016 96.088,24.016 96.088,24.016 96.089,24.016 96.090,24.017 96.090,24.017 96.091,24.017 96.092,24.017 96.092,24.017 96.093,24.017 96.094,24.017 96.095,24.017 96.095,24.018 96.096,24.018 96.097,24.018 96.098,24.018 96.098,24.018 96.099,24.018 96.100,24.018 96.101,24.019 96.101,24.019 96.102,24.019 96.103,24.019 96.104,24.019 96.105,24.019 96.105,24.019 96.106,24.020 96.107,24.020 96.108,24.020 96.109,24.020 96.110,24.020 96.110,24.020 96.111,24.020 96.112,24.021 96.113,24.021 96.114,24.021 96.115,24.021 96.116,24.021 96.116,24.021 96.117,24.022 96.118,24.022 96.119,24.022 96.120,24.022 96.121,24.022 96.122,24.022 96.123,24.023 96.124,24.023 96.125,24.023 96.126,24.023 96.127,24.023 96.128,24.024 96.129,24.024 96.130,24.024 96.131,24.024 96.132,24.024 96.133,24.024 96.134,24.025 96.135,24.025 96.136,24.025 96.137,24.025 96.138,24.025 96.139,24.026 96.140,24.026 96.141,24.026 96.142,24.026 96.143,24.026 96.144,24.027 96.146,24.027 96.147,24.027 96.148,24.027 96.149,24.027 96.150,24.028 96.151,24.028 96.152,24.028 96.154,24.028 96.155,24.029 96.156,24.029 96.157,24.029 96.158,24.029 96.160,24.029 96.161,24.030 96.162,24.030 96.163,24.030 96.165,24.030 96.166,24.031 96.167,24.031 96.168,24.031 96.170,24.031 96.171,24.032 96.172,24.032 96.174,24.032 96.175,24.032 96.176,24.032 96.178,24.033 96.179,24.033 96.180,24.033 96.182,24.034 96.183,24.034 96.185,24.034 96.186,24.034 96.187,24.035 96.189,24.035 96.190,24.035 96.192,24.035 96.193,24.036 96.195,24.036 96.196,24.036 96.198,24.036 96.199,24.037 96.201,24.037 96.202,24.037 96.204,24.038 96.206,24.038 96.207,24.038 96.209,24.038 96.210,24.039 96.212,24.039 96.214,24.039 96.215,24.040 96.217,24.040 96.219,24.040 96.220,24.041 96.222,24.041 96.224,24.041 96.225,24.042 96.227,24.042 96.229,24.042 96.231,24.043 96.232,24.043 96.234,24.043 96.236,24.044 96.238,24.044 96.240,24.044 96.242,24.045 96.243,24.045 96.245,24.045 96.247,24.046 96.249,24.046 96.251,24.046 96.253,24.047 96.255,24.047 96.257,24.047 96.259,24.048 96.261,24.048 96.263,24.048 96.265,24.049 96.267,24.049 96.269,24.050 96.271,24.050 96.273,24.050 96.275,24.051 96.277,24.051 96.280,24.052 96.282,24.052 96.284,24.052 96.286,24.053 96.288,24.053 96.290,24.054 96.293,24.054 96.295,24.054 96.297,24.055 96.300,24.055 96.302,24.056 96.304,24.056 96.307,24.056 96.309,24.057 96.311,24.057 96.314,24.058 96.316,24.058 96.319,24.059 96.321,24.059 96.323,24.060 96.326,24.060 96.328,24.061 96.331,24.061 96.334,24.061 96.336,24.062 96.339,24.062 96.341,24.063 96.344,24.063 96.347,24.064 96.349,24.064 96.352,24.065 96.355,24.065 96.357,24.066 96.360,24.066 96.363,24.067 96.366,24.067 96.369,24.068 96.371,24.068 96.374,24.069 96.377,24.070 96.380,24.070 96.383,24.071 96.386,24.071 96.389,24.072 96.392,24.072 96.395,24.073 96.398,24.073 96.401,24.074 96.404,24.074 96.407,24.075 96.410,24.076 96.414,24.076 96.417,24.077 96.420,24.077 96.423,24.078 96.427,24.079 96.430,24.079 96.433,24.080 96.436,24.080 96.440,24.081 96.443,24.082 96.447,24.082 96.450,24.083 96.454,24.084 96.457,24.084 96.461,24.085 96.464,24.086 96.468,24.086 96.471,24.087 96.475,24.088 96.479,24.088 96.482,24.089 96.486,24.090 96.490,24.090 96.494,24.091 96.497,24.092 96.501,24.092 96.505,24.093 96.509,24.094 96.513,24.095 96.517,24.095 96.521,24.096 96.525,24.097 96.529,24.097 96.533,24.098 96.537,24.099 96.541,24.100 96.545,24.100 96.550,24.101 96.554,24.102 96.558,24.103 96.562,24.104 96.567,24.104 96.571,24.105 96.575,24.106 96.580,24.107 96.584,24.108 96.589,24.109 96.593,24.109 96.598,24.110 96.603,24.111 96.607,24.112 96.612,24.113 96.617,24.114 96.621,24.115 96.626,24.115 96.631,24.116 96.636,24.117 96.641,24.118 96.646,24.119 96.651,24.120 96.656,24.121 96.661,24.122 96.666,24.123 96.671,24.124 96.676,24.125 96.681,24.126 96.687,24.127 96.692,24.128 96.697,24.128 96.703,24.129 96.708,24.130 96.714,24.131 96.719,24.132 96.725,24.134 96.730,24.135 96.736,24.136 96.742,24.137 96.747,24.138 96.753,24.139 96.759,24.140 96.765,24.141 96.771,24.142 96.776,24.143 96.782,24.144 96.789,24.145 96.795,24.146 96.801,24.148 96.807,24.149 96.813,24.150 96.819,24.151 96.826,24.152 96.832,24.153 96.838,24.154 96.845,24.156 96.851,24.157 96.858,24.158 96.865,24.159 96.871,24.161 96.878,24.162 96.885,24.163 96.892,24.164 96.899,24.166 96.905,24.167 96.912,24.168 96.919,24.169 96.927,24.171 96.934,24.172 96.941,24.173 96.948,24.175 96.955,24.176 96.963,24.177 96.970,24.179 96.978,24.180 96.985,24.182 96.993,24.183 97.001,24.184 97.008,24.186 97.016,24.187 97.024,24.189 97.032,24.190 97.040,24.192 97.048,24.193 97.056,24.195 97.064,24.196 97.072,24.198 97.080,24.199 97.089,24.201 97.097,24.202 97.106,24.204 97.114,24.205 97.123,24.207 97.131,24.208 97.140,24.210 97.149,24.212 97.158,24.213 97.167,24.215 97.176,24.217 97.185,24.218 97.194,24.220 97.203,24.222 97.212,24.223 97.222,24.225 97.231,24.227 97.241,24.229 97.250,24.230 97.260,24.232 97.270,24.234 97.279,24.236 97.289,24.238 97.299,24.239 97.309,24.241 97.319,24.243 97.329,24.245 97.340,24.247 97.350,24.249 97.360,24.251 97.371,24.253 97.381,24.254 97.392,24.256 97.403,24.258 97.414,24.260 97.425,24.262 97.436,24.264 97.447,24.266 97.458,24.269 97.469,24.271 97.480,24.273 97.492,24.275 97.503,24.277 97.515,24.279 97.527,24.281 97.538,24.283 97.550,24.286 97.562,24.288 97.574,24.290 97.586,24.292 97.599,24.294 97.611,24.297 97.623,24.299 97.636,24.301 97.648,24.304 97.661,24.306 97.674,24.308 97.687,24.311 97.700,24.313 97.713,24.316 97.726,24.318 97.740,24.320 97.753,24.323 97.766,24.325 97.780,24.328 97.794,24.330 97.808,24.333 97.822,24.336 97.836,24.338 97.850,24.341 97.864,24.343 97.878,24.346 97.893,24.349 97.907,24.351 97.922,24.354 97.937,24.357 97.952,24.360 97.967,24.362 97.982,24.365 97.997,24.368 98.013,24.371 98.028,24.374 98.044,24.376 98.060,24.379 98.076,24.382 98.092,24.385 98.108,24.388 98.124,24.391 98.140,24.394 98.157,24.397 98.174,24.400 98.190,24.403 98.207,24.407 98.224,24.410 98.241,24.413 98.259,24.416 98.276,24.419 98.294,24.422 98.311,24.426 98.329,24.429 98.347,24.432 98.365,24.436 98.383,24.439 98.402,24.442 98.420,24.446 98.439,24.449 98.458,24.453 98.477,24.456 98.496,24.460 98.515,24.463 98.535,24.467 98.554,24.470 98.574,24.474 98.594,24.478 98.614,24.481 98.634,24.485 98.654,24.489 98.675,24.493 98.695,24.496 98.716,24.500 98.737,24.504 98.758,24.508 98.779,24.512 98.801,24.516 98.822,24.520 98.844,24.524 98.866,24.528 98.888,24.532 98.910,24.536 98.933,24.540 98.955,24.544 98.978,24.548 99.001,24.553 99.024,24.557 99.048,24.561 99.071,24.565 99.095,24.570 99.119,24.574 99.143,24.579 99.167,24.583 99.191,24.588 99.216,24.592 99.241,24.597 99.266,24.601 99.291,24.606 99.316,24.611 99.342,24.615 99.368,24.620 99.394,24.625 99.420,24.630 99.446,24.634 99.473,24.639 99.500,24.644 99.527,24.649 99.554,24.654 99.581,24.659 99.609,24.664 99.637,24.669 99.665,24.675 99.693,24.680 99.721,24.685 99.750,24.690 99.779,24.696 99.808,24.701 99.837,24.706 99.867,24.712 99.897,24.717 99.927,24.723 99.957,24.728 99.988,24.734 100.018,24.740 100.049,24.745 100.081,24.751 100.112,24.757 100.144,24.763 100.176,24.769 100.208,24.775 100.240,24.780 100.273,24.787 100.306,24.793 100.339,24.799 100.373,24.805 100.406,24.811 100.440,24.817 100.475,24.824 100.509,24.830 100.544,24.836 100.579,24.843 100.614,24.849 100.650,24.856 100.686,24.862 100.722,24.869 100.758,24.876 100.795,24.882 100.832,24.889 100.869,24.896 100.907,24.903 100.945,24.910 100.983,24.917 101.021,24.924 101.060,24.931 101.099,24.938 101.138,24.945 101.178,24.953 101.218,24.960 101.258,24.967 101.299,24.975 101.339,24.982 101.381,24.990 101.422,24.998 101.464,25.005 101.506,25.013 101.548,25.021 101.591,25.029 101.634,25.037 101.678,25.045 101.722,25.053 101.766,25.061 101.810,25.069 101.855,25.077 101.900,25.085 101.946,25.094 101.991,25.102 102.038,25.111 102.084,25.119 102.131,25.128 102.178,25.137 102.226,25.145 102.274,25.154 102.322,25.163 102.371,25.172 102.420,25.181 102.470,25.190 102.520,25.199 102.570,25.208 102.621,25.218 102.672,25.227 102.723,25.237 102.775,25.246 102.827,25.256 102.880,25.265 102.933,25.275 102.986,25.285 103.040,25.295 103.095,25.305 103.149,25.315 103.204,25.325 103.260,25.335 103.316,25.345 103.372,25.356 103.429,25.366 103.487,25.377 103.544,25.387 103.602,25.398 103.661,25.409 103.720,25.419 103.780,25.430 103.840,25.441 103.900,25.453 103.961,25.464 104.022,25.475 104.084,25.486 104.147,25.498 104.209,25.509 104.273,25.521 104.337,25.533 104.401,25.544 104.466,25.556 104.531,25.568 104.597,25.580 104.663,25.592 104.730,25.605 104.797,25.617 104.865,25.629 104.933,25.642 105.002,25.655 105.072,25.667 105.142,25.680 105.212,25.693 105.283,25.706 105.355,25.719 105.427,25.732 105.499,25.746 105.573,25.759 105.647,25.773 105.721,25.786 105.796,25.800 105.871,25.814 105.948,25.828 106.024,25.842 106.102,25.856 106.179,25.870 106.258,25.885 106.337,25.899 106.417,25.914 106.497,25.928 106.578,25.943 106.660,25.958 106.742,25.973 106.825,25.988 106.908,26.004 106.992,26.019 107.077,26.035 107.162,26.050 107.248,26.066 107.335,26.082 107.423,26.098 107.511,26.114 107.599,26.130 107.689,26.147 107.779,26.163 107.870,26.180 107.961,26.197 108.054,26.213 108.147,26.230 108.240,26.248 108.335,26.265 108.430,26.282 108.526,26.300 108.622,26.317 108.720,26.335 108.818,26.353 108.916,26.371 109.016,26.389 109.116,26.408 109.218,26.426 109.319,26.445 109.422,26.464 109.526,26.483 109.630,26.502 109.735,26.521 109.841,26.540 109.948,26.560 110.055,26.579 110.164,26.599 110.273,26.619 110.383,26.639 110.494,26.660 110.606,26.680 110.718,26.701 110.832,26.721 110.946,26.742 111.061,26.763 111.178,26.784 111.295,26.806 111.412,26.827 111.531,26.849 111.651,26.871 111.772,26.893 111.893,26.915 112.016,26.938 112.139,26.960 112.264,26.983 112.389,27.006 112.516,27.029 112.643,27.052 112.771,27.075 112.901,27.099 113.031,27.123 113.162,27.147 113.295,27.171 113.428,27.195 113.562,27.220 113.698,27.244 113.834,27.269 113.972,27.294 114.110,27.320 114.250,27.345 114.391,27.371 114.533,27.397 114.676,27.423 114.820,27.449 114.965,27.475 115.111,27.502 115.258,27.529 115.407,27.556 115.557,27.583 115.707,27.611 115.859,27.638 116.012,27.666 116.167,27.694 116.322,27.723 116.479,27.751 116.637,27.780 116.796,27.809 116.956,27.838 117.118,27.867 117.281,27.897 117.445,27.927 117.610,27.957 117.777,27.987 117.945,28.018 118.114,28.049 118.285,28.080 118.456,28.111 118.630,28.142 118.804,28.174 118.980,28.206 119.157,28.238 119.336,28.271 119.516,28.303 119.697,28.336 119.880,28.370 120.064,28.403 120.249,28.437 120.436,28.471 120.625,28.505 120.815,28.539 121.006,28.574 121.199,28.609 121.393,28.644 121.589,28.680 121.786,28.716 121.985,28.752 122.186,28.788 122.387,28.825 122.591,28.862 122.796,28.899 123.003,28.936 123.211,28.974 123.421,29.012 123.632,29.051 123.845,29.089 124.060,29.128 124.276,29.167 124.494,29.207 124.714,29.247 124.936,29.287 125.159,29.327 125.383,29.368 125.610,29.409 125.838,29.450 126.068,29.492 126.300,29.534 126.534,29.576 126.769,29.619 127.007,29.662 127.246,29.705 127.487,29.748 127.730,29.792 127.974,29.837 128.221,29.881 128.469,29.926 128.720,29.971 128.972,30.017 129.226,30.063 129.482,30.109 129.741,30.156 130.001,30.203 130.263,30.250 130.527,30.298 130.793,30.346 131.062,30.394 131.332,30.443 131.605,30.492 131.879,30.542 132.156,30.592 132.435,30.642 132.716,30.693 132.999,30.744 133.284,30.795 133.571,30.847 133.861,30.899 134.153,30.952 134.447,31.005 134.744,31.058 135.043,31.112 135.344,31.166 135.647,31.221 135.953,31.276 136.261,31.331 136.571,31.387 136.884,31.443 137.199,31.500 137.517,31.557 137.837,31.615 138.160,31.673 138.485,31.731 138.813,31.790 139.143,31.849 139.475,31.909 139.811,31.969 140.148,32.030 140.489,32.091 140.832,32.152 141.178,32.214 141.526,32.277 141.877,32.340 142.231,32.403 142.587,32.467 142.947,32.532 143.309,32.597 143.673,32.662 144.041,32.728 144.411,32.794 144.785,32.861 145.161,32.928 145.540,32.996 145.922,33.064 146.307,33.133 146.695,33.203 147.086,33.273 147.480,33.343 147.877,33.414 148.277,33.485 148.680,33.557 149.086,33.630 149.496,33.703 149.908,33.777 150.324,33.851 150.743,33.926 151.165,34.001 151.590,34.077 152.019,34.153 152.451,34.230 152.886,34.308 153.325,34.386 153.767,34.464 154.212,34.544 154.661,34.624 155.113,34.704 155.569,34.785 156.029,34.867 156.492,34.949 156.958,35.032 157.428,35.116 157.902,35.200 158.379,35.285 158.860,35.370 159.345,35.456 159.833,35.543 160.325,35.630 160.822,35.718 161.321,35.807 161.825,35.896 162.333,35.986 162.844,36.076 163.360,36.168 163.879,36.260 164.402,36.352 164.930,36.446 165.461,36.947 165.997,38.739 166.537,40.534 167.081,42.332 167.629,44.133 168.181,45.936 168.738,47.743 169.299,49.552 169.864,51.364 170.434,53.179 171.007,54.997 171.586,56.817 172.169,58.639 172.756,60.464 173.348,62.292 173.944,64.122 174.545,65.954 175.151,67.789 175.761,69.626 176.377,71.465 176.996,73.307 177.621,75.150 178.250,76.996 178.885,78.843 179.524,80.693 180.168,82.544 180.817,84.397 181.471,86.253 182.130,88.109 182.794,89.968 183.463,91.828 184.138,93.690 184.817,95.553 185.502,97.418 186.193,99.284 186.888,101.152 187.589,103.021 188.295,104.891 189.007,106.763 189.724,108.636 190.447,110.509 191.175,112.384 191.909,114.260 192.649,116.137 193.394,118.015 194.145,119.893 194.902,121.772 195.664,121.973 196.433,121.773 197.207,121.571 197.988,121.368 198.774,121.162 199.567,120.955 200.365,120.747 201.170,120.536 201.981,120.324 202.798,120.110 203.622,119.894 204.452,119.676 205.288,119.456 206.131,119.235 206.980,119.011 207.836,118.786 208.698,118.559 209.567,118.329 210.443,118.098 211.325,117.865 212.215,117.630 213.111,117.392 214.014,117.153 214.924,116.912 215.841,116.668 216.765,116.423 217.696,116.175 218.635,115.925 219.580,115.673 220.533,115.419 221.494,115.162 222.461,114.904 223.437,114.643 224.419,114.379 225.410,114.114 226.407,113.846 227.413,113.576 228.426,113.304 229.448,113.029 230.477,112.751 231.514,112.472 232.558,112.189 233.612,111.905 234.673,111.617 235.742,111.328 236.820,111.035 237.905,110.741 239.000,110.443 240.102,110.143 241.214,109.840 242.333,109.535 243.462,109.226 244.599,108.916 245.745,108.602 246.899,108.285 248.063,107.966 249.236,107.644 250.417,107.319 251.608,106.991 252.808,106.660 254.017,106.326 255.236,105.989 256.464,105.649 257.701,105.306 258.948,104.960 260.204,104.611 261.471,104.259 262.746,103.903 264.032,103.545 265.328,103.183 266.634,102.817 267.950,102.449 269.275,102.077 270.612,101.701 271.958,101.323 273.315,100.940 274.682,100.555 276.060,100.165 277.449,99.773 278.848,99.376 280.258,98.976 281.679,98.572 283.110,98.165 284.553,97.753 286.007,97.338 287.472,96.919 288.949,96.497 290.437,96.070 291.936,95.639 293.447,95.204 294.969,94.765 296.504,94.323 298.050,93.876 299.608,93.424 301.178,92.969 302.760,92.509 304.355,92.045 305.961,91.576 307.580,91.103 309.212,90.626 310.856,90.144 312.513,89.658 314.182,89.167 315.865,88.671 317.560,88.170 319.269,87.665 320.990,87.155 322.725,86.640 324.474,86.120 326.235,85.595 328.011,85.065 329.800,84.529 331.603,83.989 333.419,83.443 335.250,82.893 337.095,82.336 338.954,81.775 340.828,81.208 342.716,80.635 344.618,80.057 346.535,79.473 348.467,78.883 350.414,78.287 352.376,77.686 354.353,77.079 356.345,76.465 358.353,75.846 360.376,75.220 362.414,74.588 364.469,73.950 366.539,73.305 368.625,72.654 370.727,71.997 372.846,71.333 374.981,70.662 377.132,69.984 379.300,69.299 381.484,68.608 383.686,67.909 385.904,67.204 388.140,66.491 390.392,65.771 392.662,65.043 394.950,64.308 397.255,63.565 399.578,62.815 401.919,62.057 404.278,61.291 406.655,60.517 409.051,59.735 411.465,58.945 413.898,58.146 416.349,57.340 418.819,56.524 421.309,55.700 423.817,54.868 426.345,54.026 428.892,53.176 431.459,52.316 434.046,51.447 436.653,50.569 439.280,49.682 441.927,48.785 444.594,47.878 447.282,46.961 449.991,46.035 452.721,45.098 455.471,44.151 458.243,43.194 461.037,42.226 463.852,41.248 466.688,40.259 469.547,39.259 472.427,38.247 475.330,37.225 478.255,36.191 481.203,35.145 484.173,34.088 487.166,33.019 490.183,31.938 493.222,30.844 496.285,29.738 499.372,28.620 502.482,27.488 505.617,26.344 508.775,25.186 511.958,24.015" fill="none" stroke="#000000" stroke-width="2.800" stroke-opacity="1.000"/>
  </g>
  <rect x="96.000" y="24.000" width="832.000" height="368.000" fill="none" stroke="#3f3f46" stroke-width="1.8"/>
  <rect x="603.000" y="294.000" width="309.000" height="82.000" rx="6" ry="6" fill="#ffffff" fill-opacity="0.94" stroke="#000000" stroke-width="1.2"/>
  <line x1="617.000" y1="320.000" x2="657.000" y2="320.000" stroke="#000000" stroke-width="2.800" stroke-opacity="1.000"/>
  <text x="667.000" y="327.000" text-anchor="start" fill="#111827" font-family="'Lato', 'Avenir Next', 'Segoe UI', 'Helvetica Neue', sans-serif" font-size="20.0">Malitsky-Tam (Thm 2.9)</text>
  <circle cx="637.000" cy="350.000" r="4.500" fill="#5fa8e8" fill-opacity="1.000"/>
  <text x="667.000" y="357.000" text-anchor="start" fill="#111827" font-family="'Lato', 'Avenir Next', 'Segoe UI', 'Helvetica Neue', sans-serif" font-size="20.0">AutoLyap</text>
  <line x1="96.000" y1="392.000" x2="96.000" y2="384.000" stroke="#3f3f46" stroke-width="1.4"/>
  <text x="96.000" y="438.000" text-anchor="middle" fill="#52525b" font-family="'Lato', 'Avenir Next', 'Segoe UI', 'Helvetica Neue', sans-serif" font-size="21">0</text>
  <line x1="262.400" y1="392.000" x2="262.400" y2="384.000" stroke="#3f3f46" stroke-width="1.4"/>
  <text x="262.400" y="438.000" text-anchor="middle" fill="#52525b" font-family="'Lato', 'Avenir Next', 'Segoe UI', 'Helvetica Neue', sans-serif" font-size="21">0.2</text>
  <line x1="428.800" y1="392.000" x2="428.800" y2="384.000" stroke="#3f3f46" stroke-width="1.4"/>
  <text x="428.800" y="438.000" text-anchor="middle" fill="#52525b" font-family="'Lato', 'Avenir Next', 'Segoe UI', 'Helvetica Neue', sans-serif" font-size="21">0.4</text>
  <line x1="595.200" y1="392.000" x2="595.200" y2="384.000" stroke="#3f3f46" stroke-width="1.4"/>
  <text x="595.200" y="438.000" text-anchor="middle" fill="#52525b" font-family="'Lato', 'Avenir Next', 'Segoe UI', 'Helvetica Neue', sans-serif" font-size="21">0.6</text>
  <line x1="761.600" y1="392.000" x2="761.600" y2="384.000" stroke="#3f3f46" stroke-width="1.4"/>
  <text x="761.600" y="438.000" text-anchor="middle" fill="#52525b" font-family="'Lato', 'Avenir Next', 'Segoe UI', 'Helvetica Neue', sans-serif" font-size="21">0.8</text>
  <line x1="928.000" y1="392.000" x2="928.000" y2="384.000" stroke="#3f3f46" stroke-width="1.4"/>
  <text x="928.000" y="438.000" text-anchor="middle" fill="#52525b" font-family="'Lato', 'Avenir Next', 'Segoe UI', 'Helvetica Neue', sans-serif" font-size="21">1</text>
  <line x1="104.000" y1="392.000" x2="96.000" y2="392.000" stroke="#3f3f46" stroke-width="1.4"/>
  <text x="82.000" y="399.000" text-anchor="end" fill="#52525b" font-family="'Lato', 'Avenir Next', 'Segoe UI', 'Helvetica Neue', sans-serif" font-size="21">0.4</text>
  <line x1="104.000" y1="330.667" x2="96.000" y2="330.667" stroke="#3f3f46" stroke-width="1.4"/>
  <text x="82.000" y="337.667" text-anchor="end" fill="#52525b" font-family="'Lato', 'Avenir Next', 'Segoe UI', 'Helvetica Neue', sans-serif" font-size="21">0.5</text>
  <line x1="104.000" y1="269.333" x2="96.000" y2="269.333" stroke="#3f3f46" stroke-width="1.4"/>
  <text x="82.000" y="276.333" text-anchor="end" fill="#52525b" font-family="'Lato', 'Avenir Next', 'Segoe UI', 'Helvetica Neue', sans-serif" font-size="21">0.6</text>
  <line x1="104.000" y1="208.000" x2="96.000" y2="208.000" stroke="#3f3f46" stroke-width="1.4"/>
  <text x="82.000" y="215.000" text-anchor="end" fill="#52525b" font-family="'Lato', 'Avenir Next', 'Segoe UI', 'Helvetica Neue', sans-serif" font-size="21">0.7</text>
  <line x1="104.000" y1="146.667" x2="96.000" y2="146.667" stroke="#3f3f46" stroke-width="1.4"/>
  <text x="82.000" y="153.667" text-anchor="end" fill="#52525b" font-family="'Lato', 'Avenir Next', 'Segoe UI', 'Helvetica Neue', sans-serif" font-size="21">0.8</text>
  <line x1="104.000" y1="85.333" x2="96.000" y2="85.333" stroke="#3f3f46" stroke-width="1.4"/>
  <text x="82.000" y="92.333" text-anchor="end" fill="#52525b" font-family="'Lato', 'Avenir Next', 'Segoe UI', 'Helvetica Neue', sans-serif" font-size="21">0.9</text>
  <line x1="104.000" y1="24.000" x2="96.000" y2="24.000" stroke="#3f3f46" stroke-width="1.4"/>
  <text x="82.000" y="31.000" text-anchor="end" fill="#52525b" font-family="'Lato', 'Avenir Next', 'Segoe UI', 'Helvetica Neue', sans-serif" font-size="21">1</text>
  <text x="512.000" y="470.000" text-anchor="middle" fill="#111827" font-family="'Lato', 'Avenir Next', 'Segoe UI', 'Helvetica Neue', sans-serif" font-size="28">γ</text>
  <text x="30.0" y="208.000" text-anchor="middle" transform="rotate(0 30.0 208.000)" fill="#111827" font-family="'Lato', 'Avenir Next', 'Segoe UI', 'Helvetica Neue', sans-serif" font-size="28">ρ</text>
</svg>
